<svg xmlns="http://www.w3.org/2000/svg" xmlns:xlink="http://www.w3.org/1999/xlink" fill="none" version="1.1" width="27" height="12" viewBox="0 0 27 12"><g><path d="M5.52,1.8299999Q5.25,1.98,4.6749997,2.1500001Q4.0999999,2.3200002,3.73,2.3900003Q3.1499999,2.5,2.5650001,2.5650001Q1.9799999,2.6300001,1.8099999,2.6400003Q1.8199999,3.2200003,1.8399999,3.835Q1.86,4.4499998,1.87,4.6800003Q2.26,4.6300001,3.04,4.4899998L3.4199998,4.4300003Q4.0499997,4.3200002,4.3899999,4.0299997Q4.5699997,3.8899999,4.6500001,3.8899999Q4.7199998,3.8899999,4.7649999,3.9650002Q4.8099999,4.04,4.8099999,4.1199999Q4.8099999,4.3000002,4.4049997,4.5150003Q4,4.73,3.51,4.8299999Q3.0999999,4.9200001,2.5899999,5Q2.0799999,5.0799999,1.92,5.1000004Q1.9799999,6.8099999,2.27,7.6399999Q2.5599999,7.7399998,2.8399999,7.7849998Q3.1199999,7.8299999,3.5599999,7.8299999Q4,7.8299999,4.4000001,7.7150002Q4.7999997,7.5999999,5.0450001,7.4299998Q5.29,7.2600002,5.29,7.1100001Q5.29,7.0300002,5.2599998,6.9549999Q5.23,6.8800001,5.1799998,6.8000002Q5.1599998,6.77,5.1149998,6.7049999Q5.0699997,6.6399999,5.0699997,6.5999999Q5.0699997,6.5,5.29,6.5Q5.4499998,6.5,5.5650001,6.6350002Q5.6799998,6.77,5.6799998,6.9300003Q5.6799998,7.25,5.395,7.5599999Q5.1099997,7.8699999,4.6149998,8.0649996Q4.1199999,8.2600002,3.52,8.2600002Q2.9099998,8.2600002,2.52,8.1949997Q2.1299999,8.1300001,1.9299999,7.9400001Q1.6899999,7.6700001,1.5949999,7Q1.5,6.3299999,1.4299999,5.21Q1.24,5.2600002,1.005,5.2950001Q0.76999998,5.3299999,0.64999998,5.3299999Q0.52999997,5.3299999,0.45499998,5.2550001Q0.38,5.1800003,0.38,5.0700002Q0.38,5,0.405,4.9499998Q0.42999998,4.9000001,0.47999999,4.8900003Q0.81,4.8500004,0.95999998,4.8400002L1.39,4.79Q1.35,3.5,1.3099999,2.6900001Q1.16,2.6900001,1.0699999,2.7000003L0.61000001,2.71Q0.51999998,2.71,0.47,2.6600003Q0.41999999,2.6100001,0.41999999,2.5500002Q0.41999999,2.3099999,0.74000001,2.23Q0.85999995,2.21,1.045,2.1849999Q1.23,2.1600003,1.29,2.1600003Q1.48,1.9500003,1.7099999,1.9500003Q1.75,1.9500003,1.775,2.0150003Q1.8,2.0799999,1.8,2.1100001Q2.46,2.0799999,3.3699999,1.96Q3.97,1.8800001,5.2199998,1.5799999L5.5899997,1.5Q5.6900001,1.5,5.6900001,1.6200004Q5.6900001,1.7400002,5.52,1.8299999ZM12.45,8.1899996Q12.27,8.1899996,12.27,8.0100002Q12.27,5.9899998,12.139999,4.915Q12.01,3.8400002,11.690001,3.8400002Q11.15,3.8400002,10.110001,7.6100001L10.110001,7.6199999Q10.110001,7.7399998,10.030001,7.8249998Q9.9499998,7.9099998,9.8199997,7.9099998Q9.6400003,7.9099998,9.6400003,7.73Q9.6400003,7.3299999,9.6800003,6.4899998Q9.7200003,5.5500002,9.7200003,5.0100002Q9.7200003,4.2600002,9.6750002,3.9450002Q9.6300001,3.6300001,9.4799995,3.6300001Q9.1400003,3.6300001,8.6199999,4.875Q8.1000004,6.1199999,7.5300002,7.8099999L7.4400001,8.0699997Q7.4000001,8.1700001,7.3249998,8.2399998Q7.25,8.3100004,7.1599998,8.3100004Q7.04,8.3100004,7,8.29Q6.96,8.2700005,6.9499998,8.1700001Q6.9000001,7.6799998,6.8699999,6.8600001Q6.8499999,6.6500001,6.8299999,6.1700001Q6.73,4.48,6.6500001,3.8850002Q6.5700002,3.29,6.5700002,3.2200003Q6.5700002,3.1400003,6.6500001,3.0300002Q6.73,2.9200001,6.8000002,2.9200001Q6.96,2.9200001,7.0599999,3.1500001Q7.1100001,3.2600002,7.1700001,4.0299997Q7.23,4.8000002,7.27,5.9400001L7.3200002,7.4700003Q7.8699999,5.77,8.46,4.3850002Q9.0500002,3,9.54,3Q9.8699999,3,9.9899998,3.48Q10.110001,3.96,10.110001,4.8699999Q10.110001,5.3500004,10.09,6.25L10.08,6.71Q10.49,5.2799997,10.895,4.3100004Q11.3,3.3400002,11.71,3.3400002Q12.74,3.3400002,12.74,7.9000001Q12.74,8.0200005,12.66,8.1049995Q12.58,8.1899996,12.45,8.1899996ZM19.939999,8.1899996Q19.76,8.1899996,19.76,8.0100002Q19.76,5.9899998,19.629999,4.915Q19.5,3.8400002,19.18,3.8400002Q18.639999,3.8400002,17.6,7.6100001L17.6,7.6199999Q17.6,7.7399998,17.52,7.8249998Q17.439999,7.9099998,17.309999,7.9099998Q17.129999,7.9099998,17.129999,7.73Q17.129999,7.3299999,17.17,6.4899998Q17.209999,5.5500002,17.209999,5.0100002Q17.209999,4.2600002,17.164999,3.9450002Q17.119999,3.6300001,16.969999,3.6300001Q16.629999,3.6300001,16.110001,4.875Q15.59,6.1199999,15.02,7.8099999L14.93,8.0699997Q14.889999,8.1700001,14.815,8.2399998Q14.74,8.3100004,14.65,8.3100004Q14.53,8.3100004,14.49,8.29Q14.45,8.2700005,14.44,8.1700001Q14.389999,7.6799998,14.36,6.8600001Q14.34,6.6500001,14.32,6.1700001Q14.22,4.48,14.139999,3.8850002Q14.059999,3.29,14.059999,3.2200003Q14.059999,3.1400003,14.139999,3.0300002Q14.22,2.9200001,14.29,2.9200001Q14.45,2.9200001,14.55,3.1500001Q14.599999,3.2600002,14.66,4.0299997Q14.719999,4.8000002,14.76,5.9400001L14.809999,7.4700003Q15.36,5.77,15.95,4.3850002Q16.539999,3,17.029999,3Q17.360001,3,17.48,3.48Q17.6,3.96,17.6,4.8699999Q17.6,5.3500004,17.58,6.25L17.57,6.71Q17.98,5.2799997,18.385,4.3100004Q18.790001,3.3400002,19.200001,3.3400002Q20.23,3.3400002,20.23,7.9000001Q20.23,8.0200005,20.15,8.1049995Q20.07,8.1899996,19.939999,8.1899996ZM25.699999,7.6300001Q25.699999,7.75,25.599998,7.9050002Q25.5,8.0600004,25.4,8.0600004Q25.23,8.0600004,25.139999,7.8499999Q25.049999,7.6399999,25.049999,7.3600001Q25.049999,7.1199999,25.08,5.9200001L25.09,5.54Q25.09,5.3099999,24.969999,5.21Q24.52,5.9700003,24.129999,6.5300002Q23.74,7.0900002,23.139999,7.585Q22.539999,8.0799999,21.879999,8.0799999Q21.559999,8.0799999,21.385,7.8800001Q21.209999,7.6799998,21.209999,7.3600001Q21.209999,6.96,21.57,6.2649999Q21.93,5.5700002,22.49,4.855Q23.049999,4.1400003,23.610001,3.6800003Q23.98,3.3800001,24.199999,3.2750001Q24.42,3.1700001,24.59,3.1700001Q24.75,3.1700001,24.92,3.27Q25.09,3.3699999,25.209999,3.5500002Q25.33,3.73,25.33,3.96Q25.33,4.27,25.16,4.5500002L25.33,4.5Q25.439999,4.5,25.459999,4.77Q25.469999,4.9300003,25.485001,5.4200001Q25.5,5.9099998,25.51,6.23Q25.52,6.5599999,25.529999,6.8699999Q25.539999,7.1799998,25.549999,7.3600001Q25.559999,7.4299998,25.629999,7.5050001Q25.699999,7.5799999,25.699999,7.6300001ZM24.83,4.8200002Q24.949999,4.52,24.949999,4.1700001Q24.949999,3.96,24.824999,3.8050003Q24.699999,3.6500001,24.49,3.6500001Q24.24,3.6500001,23.85,3.9900002Q23.4,4.3699999,22.9,5.0050001Q22.4,5.6400003,22.07,6.2600002Q21.74,6.8800001,21.74,7.2399998Q21.74,7.54,22.02,7.54Q22.559999,7.54,23.059999,7.1399999Q23.559999,6.7399998,23.955,6.1849999Q24.349998,5.6300001,24.83,4.8200002Z" fill="#000000" fill-opacity="0.44999998807907104"/></g></svg>