<svg xmlns="http://www.w3.org/2000/svg" xmlns:xlink="http://www.w3.org/1999/xlink" fill="none" version="1.1" width="18" height="18" viewBox="0 0 18 18"><path d="M2.98077524,6.6920776C2.52898651,6.2211075000000005,2.25,5.5806227,2.25,4.875C2.25,3.4252501,3.4252501,2.25,4.875,2.25C5.737905,2.25,6.502635,2.666511,6.9805126,3.30729C7.6181622,3.1076175,8.2965155,3,9,3C9.7034845,3,10.3817997,3.1076175,11.0194502,3.30729C11.4976501,2.66609776,12.262125,2.25,13.124925,2.25C14.574675,2.25,15.749926,3.4252501,15.749926,4.875C15.749926,5.58078,15.471449,6.220800199999999,15.0192,6.6920547C15.486526,7.610085,15.75,8.649270099999999,15.75,9.75C15.75,11.7257252,14.90115,13.503225,13.5483,14.73765L14.030325,15.219675C14.3232,15.512549,14.3232,15.987451,14.030325,16.280324999999998C13.73745,16.5732,13.26255,16.5732,12.969675,16.280324999999998L12.3186,15.629251C11.3385754,16.183574999999998,10.206225400000001,16.5,9,16.5C7.793745,16.5,6.6613951,16.183574999999998,5.681415100000001,15.629251L5.0303325999999995,16.280324999999998C4.7374351,16.5732,4.2625649,16.5732,3.9696676,16.280324999999998C3.6767775,15.987451,3.6767775,15.512549,3.9696676,15.219675L4.4517226,14.73765C3.0988425,13.503225,2.25,11.7257252,2.25,9.75C2.25,8.649285299999999,2.513466,7.6100998,2.98077524,6.6920776ZM3.75,4.875C3.75,4.2536776,4.2536776,3.75,4.875,3.75C5.1186225,3.75,5.3445601,3.8273699,5.5291877,3.9595124999999998C4.9003124,4.3372726,4.3380375,4.814587599999999,3.8641725,5.3696475C3.790905,5.2202549000000005,3.75,5.0524273,3.75,4.875ZM14.1357,5.369535C13.661925,4.8145199000000005,13.099649,4.33725,12.47085,3.9595124999999998C12.655425,3.8274825999999997,12.881325,3.75,13.124925,3.75C13.746225,3.75,14.249925,4.2536776,14.249925,4.875C14.249925,5.052225099999999,14.2089,5.2201126,14.1357,5.369535ZM9,4.5C6.1005073,4.5,3.75,6.8505073,3.75,9.75C3.75,12.6495,6.1005073,15,9,15C11.8994999,15,14.25,12.6495,14.25,9.75C14.25,6.8505073,11.8994999,4.5,9,4.5ZM9,6C8.5857825,6,8.25,6.3357902,8.25,6.75L8.25,9.739739400000001C8.247345,9.9351006,8.3205452,10.1313,8.4695997,10.2803249L10.0486498,11.859375C10.3416004,12.1523247,10.8164253,12.1523247,11.109375,11.859375C11.4022503,11.5664997,11.4022503,11.0916748,11.109375,10.7987251L9.75,9.439410200000001L9.75,6.75C9.75,6.3357902,9.4142175,6,9,6Z" fill-rule="evenodd" fill="#000000" fill-opacity="0.8799999952316284"/></svg>