<svg xmlns="http://www.w3.org/2000/svg" xmlns:xlink="http://www.w3.org/1999/xlink" fill="none" version="1.1" width="13.127107620239258" height="15" viewBox="0 0 13.127107620239258 15"><path d="M4.31355,1.5C4.31355,1.5,3.5635951,1.5,3.5635951,1.5C3.149385,1.5,2.8135948,1.16421,2.8135948,0.75C2.8135948,0.33578625,3.149385,0,3.5635951,0C3.5635951,0,9.5636253,0,9.5636253,0C9.9777746,0,10.313625,0.33578625,10.313625,0.75C10.313625,1.16421,9.9777746,1.5,9.5636253,1.5C9.5636253,1.5,8.81355,1.5,8.81355,1.5C8.81355,1.5,8.81355,5.7234602,8.81355,5.7234602C8.81355,5.7234602,12.733425,11.484224,12.733425,11.484224C13.749901,12.977924,12.680025,15,10.873275,15C10.873275,15,2.25384,15,2.25384,15C0.44710118,15,-0.62276405,12.978001,0.39364269,11.484224C0.39364269,11.484224,4.31355,5.7234602,4.31355,5.7234602C4.31355,5.7234602,4.31355,1.5,4.31355,1.5C4.31355,1.5,4.31355,1.5,4.31355,1.5ZM7.31355,1.5C7.31355,1.5,5.81355,1.5,5.81355,1.5C5.81355,1.5,5.81355,5.7234602,5.81355,5.7234602C5.81355,6.0244503,5.7230024,6.3184729,5.5536823,6.5673075C5.5536823,6.5673075,1.6337775,12.328051,1.6337775,12.328051C1.2949724,12.825974,1.6515899,13.5,2.25384,13.5C2.25384,13.5,10.873275,13.5,10.873275,13.5C11.475525,13.5,11.83215,12.825974,11.493299,12.328051C11.493299,12.328051,7.5734243,6.5672998,7.5734243,6.5672998C7.4040971,6.3184648,7.31355,6.0244427,7.31355,5.7234602C7.31355,5.7234602,7.31355,1.5,7.31355,1.5C7.31355,1.5,7.31355,1.5,7.31355,1.5Z" fill-rule="evenodd" fill="#000000" fill-opacity="0.8799999952316284"/></svg>