<svg xmlns="http://www.w3.org/2000/svg" xmlns:xlink="http://www.w3.org/1999/xlink" fill="none" version="1.1" width="18" height="18" viewBox="0 0 18 18"><path d="M8.06253051015625,1.9251529553125C8.64265541015625,1.5902164433125,9.35740571015625,1.5902156983125,9.93750761015625,1.9251521853125L14.65823191015625,4.6506325953125C15.23835791015625,4.9855677953125,15.59573191015625,5.6045574953125,15.59573191015625,6.2744273953125L15.59573191015625,11.7253751953125C15.59573191015625,12.3952751953125,15.23835791015625,13.0142511953125,14.65823191015625,13.3492001953125L9.93750761015625,16.074700195312502C9.35740571015625,16.4095741953125,8.64265541015625,16.4095741953125,8.06253051015625,16.074700195312502L3.34185791015625,13.3492001953125C2.76173067015625,13.0142511953125,2.40435791015625,12.3952751953125,2.40435791015625,11.7253751953125L2.40435791015625,6.2744273953125C2.40435791015625,5.6045574953125,2.76173067015625,4.9855677953125,3.34185791015625,4.6506325953125L8.06253051015625,1.9251529553125ZM9.18753051015625,3.2241925953125C9.07150551015625,3.1572026953125,8.92855551015625,3.1572026953125,8.81253051015625,3.2241925953125L4.09185791015625,5.9496702953125C3.97583291015625,6.0166601953125,3.90435791015625,6.1404552953125,3.90435791015625,6.2744273953125L3.90435791015625,11.7253751953125C3.90435791015625,11.8594001953125,3.97583291015625,11.9831501953125,4.09185791015625,12.0501251953125L8.81253051015625,14.7756251953125C8.92855551015625,14.8426011953125,9.07150551015625,14.8426011953125,9.18753051015625,14.7756251953125L13.90823291015625,12.0501251953125C14.02425791015625,11.9831501953125,14.09573291015625,11.8594001953125,14.09573291015625,11.7253751953125L14.09573291015625,6.2744273953125C14.09573291015625,6.1404552953125,14.02425791015625,6.0166601953125,13.90823291015625,5.9496702953125L9.18753051015625,3.2241925953125ZM6.00000051015625,9.0000028953125C6.00000051015625,7.3431477953125,7.34314541015625,6.0000028953125,9.000000910156249,6.0000028953125C10.65683271015625,6.0000028953125,12.00000761015625,7.3431477953125,12.00000761015625,9.0000028953125C12.00000761015625,10.6568498953125,10.65683271015625,12.0000251953125,9.000000910156249,12.0000251953125C7.34314541015625,12.0000251953125,6.00000051015625,10.6568498953125,6.00000051015625,9.0000028953125ZM9.000000910156249,7.5000028953125C8.17157271015625,7.5000028953125,7.50000051015625,8.1715750953125,7.50000051015625,9.0000028953125C7.50000051015625,9.8283996953125,8.17157271015625,10.5000247953125,9.000000910156249,10.5000247953125C9.82842781015625,10.5000247953125,10.50000761015625,9.8283996953125,10.50000761015625,9.0000028953125C10.50000761015625,8.1715750953125,9.82842781015625,7.5000028953125,9.000000910156249,7.5000028953125Z" fill-rule="evenodd" fill="#000000" fill-opacity="0.8799999952316284"/></svg>