<svg xmlns="http://www.w3.org/2000/svg" xmlns:xlink="http://www.w3.org/1999/xlink" fill="none" version="1.1" width="11.666666984558105" height="11.666666984558105" viewBox="0 0 11.666666984558105 11.666666984558105"><path d="M0,5.8333335C0,2.611671,2.611671,0,5.8333335,0C9.0549669,0,11.666667,2.611671,11.666667,5.8333335C11.666667,9.0549669,9.0549669,11.666667,5.8333335,11.666667C2.611671,11.666667,0,9.0549669,0,5.8333335C0,5.8333335,0,5.8333335,0,5.8333335ZM6.416667,8.75C6.416667,9.072175,6.155509,9.333334,5.8333335,9.333334C5.5111642,9.333334,5.25,9.072175,5.25,8.75C5.25,8.427825,5.5111642,8.166667,5.8333335,8.166667C6.155509,8.166667,6.416667,8.427825,6.416667,8.75C6.416667,8.75,6.416667,8.75,6.416667,8.75ZM4.885417,4.7395835C4.885417,4.2160654,5.3098154,3.7916667,5.8333335,3.7916667C6.3568754,3.7916667,6.78125,4.2160654,6.78125,4.7395835C6.78125,5.1375976,6.5357833,5.4796815,6.1857839,5.6199908C5.7920976,5.7778058,5.25,6.1816416,5.25,6.854167C5.25,6.854167,5.25,7,5.25,7C5.25,7.322175,5.5111699,7.5833335,5.8333335,7.5833335C6.155509,7.5833335,6.416667,7.322175,6.416667,7C6.416667,6.8400497,6.453125,6.7697001,6.6199002,6.7029085C7.3972502,6.3912334,7.947917,5.6304269,7.947917,4.7395835C7.947917,3.5717328,7.0011663,2.625,5.8333335,2.625C4.6654825,2.625,3.71875,3.5717328,3.71875,4.7395835C3.71875,5.0617471,3.9799199,5.322917,4.3020835,5.322917C4.6242466,5.322917,4.885417,5.0617471,4.885417,4.7395835C4.885417,4.7395835,4.885417,4.7395835,4.885417,4.7395835Z" fill-rule="evenodd" fill="#FFAE52" fill-opacity="1"/></svg>
