<svg xmlns="http://www.w3.org/2000/svg" xmlns:xlink="http://www.w3.org/1999/xlink" fill="none" version="1.1" width="18" height="18" viewBox="0 0 18 18"><path d="M1.5,3.75C1.5,2.92157322,2.17157322,2.25,3,2.25L15,2.25C15.828451,2.25,16.5,2.92157251,16.5,3.75L16.5,6.75L15.75,6.75L15.75,14.25C15.75,15.078451,15.078451,15.75,14.25,15.75L3.75,15.75C2.9215724,15.75,2.25,15.078451,2.25,14.25L2.25,6.75L1.5,6.75L1.5,3.75ZM15,3.75L15,5.25L3,5.25L3,3.75L15,3.75ZM3.75,6.75L14.25,6.75L14.25,14.25L3.75,14.25L3.75,6.75ZM7.5,9.75C7.0857902,9.75,6.75,10.0857744,6.75,10.5C6.75,10.9142256,7.0857902,11.25,7.5,11.25L10.5,11.25C10.9142256,11.25,11.25,10.9142256,11.25,10.5C11.25,10.0857744,10.9142256,9.75,10.5,9.75L7.5,9.75Z" fill-rule="evenodd" fill="#000000" fill-opacity="0.8799999952316284"/></svg>