<svg xmlns="http://www.w3.org/2000/svg" xmlns:xlink="http://www.w3.org/1999/xlink" fill="none" version="1.1" width="12.020814737269035" height="12.020814737269035" viewBox="0 0 12.020814737269035 12.020814737269035"><path d="M14.770814537269034,9.1317278444767C13.804314537269034,9.1317278444767,13.020814617269036,9.9152279444767,13.020814617269036,10.8817280444767C13.020814617269036,10.8817280444767,13.020814617269036,16.6317278444767,13.020814617269036,16.6317278444767C13.020814617269036,16.907877544476698,12.796954647269034,17.131728844476697,12.520814677269035,17.131728844476697C12.244672217269034,17.131728844476697,12.020814737269035,16.907877544476698,12.020814737269035,16.6317278444767C12.020814737269035,16.6317278444767,12.020814737269035,10.8817280444767,12.020814737269035,10.8817280444767C12.020814737269035,9.3629429444767,13.252029637269034,8.1317278444767,14.770814537269034,8.1317278444767C16.289599237269034,8.1317278444767,17.520814237269036,9.3629429444767,17.520814237269036,10.8817280444767C17.520814237269036,10.8817280444767,17.520814237269036,17.631728844476697,17.520814237269036,17.631728844476697C17.520814237269036,18.7362778444767,16.625384137269034,19.6317278444767,15.520814537269034,19.6317278444767C14.416244337269035,19.6317278444767,13.520814537269034,18.7362778444767,13.520814537269034,17.631728844476697C13.520814537269034,17.631728844476697,13.520814537269034,11.1317280444767,13.520814537269034,11.1317280444767C13.520814537269034,10.4413727444767,14.080459437269035,9.8817278444767,14.770814537269034,9.8817278444767C15.461169537269035,9.8817278444767,16.020814237269036,10.4413727444767,16.020814237269036,11.1317280444767C16.020814237269036,11.1317280444767,16.020814237269036,17.131728844476697,16.020814237269036,17.131728844476697C16.020814237269036,17.407877544476698,15.796954237269034,17.631728844476697,15.520814537269034,17.631728844476697C15.244674237269034,17.631728844476697,15.020814237269034,17.407877544476698,15.020814237269034,17.131728844476697C15.020814237269034,17.131728844476697,15.020814237269034,11.1317280444767,15.020814237269034,11.1317280444767C15.020814237269034,10.9936579444767,14.908884337269035,10.8817280444767,14.770814537269034,10.8817280444767C14.632744437269036,10.8817280444767,14.520814537269034,10.9936579444767,14.520814537269034,11.1317280444767C14.520814537269034,11.1317280444767,14.520814537269034,17.631728844476697,14.520814537269034,17.631728844476697C14.520814537269034,18.184027844476702,14.968529337269034,18.631728844476697,15.520814537269034,18.631728844476697C16.073099437269036,18.631728844476697,16.520813737269034,18.184027844476702,16.520813737269034,17.631728844476697C16.520813737269034,17.631728844476697,16.520813737269034,10.8817280444767,16.520813737269034,10.8817280444767C16.520813737269034,9.9152279444767,15.737314337269035,9.1317278444767,14.770814537269034,9.1317278444767C14.770814537269034,9.1317278444767,14.770814537269034,9.1317278444767,14.770814537269034,9.1317278444767Z" fill-rule="evenodd" fill="#000000" fill-opacity="0.44999998807907104" transform="matrix(-0.7071067690849304,0.7071067690849304,-0.7071067690849304,-0.7071067690849304,26.270814011093744,5.38172817702376)"/></svg>