<svg xmlns="http://www.w3.org/2000/svg" xmlns:xlink="http://www.w3.org/1999/xlink" fill="none" version="1.1" width="18" height="18" viewBox="0 0 18 18"><defs><clipPath id="master_svg0_3_5203"><rect x="-0.75" y="-0.75" width="19.5" height="19.5" rx="0"/></clipPath></defs><g clip-path="url(#master_svg0_3_5203)"><path d="M7.1250005,15.374998080078125L7.1250014,14.062498080078125Q7.1250014,13.518843080078126,7.5094237,13.134420080078124Q7.8938465,12.749997080078124,8.4375014,12.749997080078124Q8.981155900000001,12.749997080078124,9.3655791,13.134420080078124Q9.7500019,13.518843080078126,9.7500019,14.062497080078124L9.7500019,15.374998080078125Q9.7500019,15.448866080078124,9.7644129,15.521315080078125Q9.778823899999999,15.593763080078125,9.8070917,15.662008080078126Q9.8353596,15.730254080078126,9.876399,15.791674080078124Q9.917438,15.853094080078124,9.9696712,15.905327080078125Q10.021904,15.957560080078125,10.083322500000001,15.998598080078125Q10.144742,16.039637080078123,10.2129879,16.067905080078127Q10.281233799999999,16.096174080078125,10.353683499999999,16.110586080078125Q10.4261327,16.124997080078124,10.5000014,16.124998080078125L12.0007496,16.124998080078125Q13.087298,16.123915080078127,13.855607,15.355605080078124Q14.623915,14.587296080078126,14.625,13.499999080078124L14.625,12.369605080078125Q15.669751,12.308361080078125,16.426759,11.551721080078124Q17.251005,10.727876680078126,17.251005,9.562497180078125Q17.251005,8.397119080078124,16.426759,7.573275580078125Q15.66964,6.816524980078125,14.625,6.755374880078125L14.624999,5.999250880078125Q14.623915,4.912700880078125,13.855608,4.144393480078125Q13.087301,3.376086080078125,12.0000019,3.374999880078125L11.2444649,3.374999880078125Q11.1824541,2.330616710078125,10.4257507,1.574283451078125Q9.6020722,0.751007080078125,8.437499500000001,0.751007080078125Q7.2729259,0.751007080078125,6.4492474,1.574283861078125Q5.6926565,2.330505730078125,5.6305534999999995,3.3750015800781252L4.4992516,3.375002180078125Q3.41270083,3.376086280078125,2.644392906,4.144393880078125Q1.87608498,4.912701580078124,1.875,6.000000980078125L1.875,7.500000980078125Q1.875,7.573869680078125,1.8894110899999998,7.646318480078125Q1.90382212,7.718767180078125,1.9320903999999999,7.787012580078125Q1.9603586800000001,7.855257980078125,2.00139785,7.916677980078125Q2.04243702,7.978097480078125,2.09466994,8.030330680078125Q2.14690292,8.082563380078124,2.20832238,8.123602880078124Q2.26974183,8.164641880078126,2.33798748,8.192910180078126Q2.40623312,8.221178580078124,2.47868228,8.235589480078126Q2.551131457,8.250000980078125,2.625,8.250000980078125L3.9375006,8.250000980078125Q4.4811556,8.250000480078125,4.865577699999999,8.634422280078125Q5.250000200000001,9.018845580078125,5.250000200000001,9.562500980078125Q5.250000200000001,10.106155380078125,4.865577699999999,10.490578680078125Q4.4811556,10.875000980078125,3.9375,10.875000980078125L2.625,10.875000980078125Q2.551131457,10.875000980078125,2.47868228,10.889411880078125Q2.40623312,10.903822880078126,2.33798748,10.932090780078125Q2.26974183,10.960359580078125,2.20832238,11.001398080078125Q2.14690292,11.042437580078126,2.09466994,11.094670280078125Q2.04243702,11.146903080078125,2.00139785,11.208322480078126Q1.9603586800000001,11.269741080078125,1.9320903999999999,11.337986980078124Q1.90382212,11.406232880078125,1.8894110899999998,11.478682480078126Q1.875,11.551132080078125,1.875,11.625001080078125L1.87500018,13.500750080078125Q1.8760854,14.587297080078125,2.644393113,15.355605080078124Q3.41270179,16.123913080078125,4.5,16.124998080078125L6.3750005000000005,16.124998080078125Q6.4488688,16.124998080078125,6.521318,16.110586080078125Q6.5937672,16.096176080078124,6.6620126,16.067907080078125Q6.730258,16.039638080078127,6.7916775,15.998599080078124Q6.853097,15.957560080078125,6.9053302,15.905327080078125Q6.9575634,15.853094080078124,6.9986024,15.791674080078124Q7.0396414,15.730254080078126,7.0679097,15.662008080078126Q7.0961781,15.593763080078125,7.110589,15.521315080078125Q7.125,15.448866080078124,7.1250005,15.374998080078125ZM6.4487631,12.073760080078126Q5.6250012,12.897522080078126,5.6250012,14.062497080078124L5.625001,14.624998080078125L4.5,14.624998080078125Q4.0346411,14.624534080078124,3.705053,14.294946080078125Q3.37546498,13.965358080078126,3.3749994599999997,13.499251080078125L3.37499976,12.375001080078125L3.9375,12.375001080078125Q5.1024749,12.375001080078125,5.9262381,11.551238080078125Q6.75,10.727476080078125,6.75,9.562500980078125Q6.75,8.397524880078125,5.9262381,7.573762380078125Q5.102475200000001,6.749999980078125,3.9374995999999998,6.750000980078125L3.375,6.750000980078125L3.375,6.000000980078125Q3.3754649199999998,5.534642180078125,3.7050529,5.205054480078125Q4.0346411,4.875466580078125,4.5007484,4.875001480078125L6.3750005000000005,4.875001180078125Q6.4488688,4.875000980078125,6.521318,4.8605899800781245Q6.5937669,4.846178780078125,6.6620126,4.817910480078125Q6.730258,4.789642080078125,6.7916775,4.748602880078125Q6.853097,4.7075638800781245,6.9053302,4.655331180078125Q6.9575634,4.603098180078125,6.9986024,4.541678880078125Q7.0396414,4.480259180078125,7.0679097,4.412013580078125Q7.0961781,4.343767880078126,7.110589,4.271318880078125Q7.125,4.1988696800781256,7.1250005,4.125001180078125L7.1250005,3.562500280078125Q7.1252661,3.019398480078125,7.5096493,2.635202680078125Q7.894032,2.251007080078125,8.437499500000001,2.251007080078125Q8.9809666,2.251007080078125,9.3653502,2.6352027800781253Q9.7497349,3.0193996800781253,9.750001000000001,3.562867380078125L9.750000499999999,4.1249997800781255Q9.75,4.198868280078125,9.7644114,4.271317280078125Q9.7788219,4.343766480078125,9.8070898,4.412012080078124Q9.8353586,4.480257780078125,9.8763981,4.541677280078125Q9.9174371,4.603096680078124,9.9696703,4.655329680078125Q10.021903,4.707562480078125,10.083321999999999,4.748601680078125Q10.144741100000001,4.7896408800781245,10.2129869,4.8179092800781245Q10.2812328,4.846177580078125,10.3536825,4.860588580078125Q10.4261317,4.874999480078126,10.500000499999999,4.8749997800781255L12.0000019,4.8749997800781255Q12.4653597,4.875465180078125,12.794947,5.205052880078124Q13.124536,5.534641280078125,13.125,6.000747680078125L13.124999,7.499999480078125Q13.124998,7.573867780078125,13.139409,7.646316480078125Q13.15382,7.718766180078125,13.182088,7.787011580078125Q13.210356,7.855257080078125,13.251395,7.916676980078125Q13.292435,7.978096480078125,13.344668,8.030329680078125Q13.396901,8.082562480078124,13.458321,8.123601480078126Q13.51974,8.164640380078126,13.587986,8.192908780078124Q13.656232,8.221177080078125,13.728682,8.235588080078125Q13.80113,8.249999080078126,13.875,8.249999480078124L14.4375,8.249999480078124Q14.981709,8.249733480078124,15.366357,8.634194380078124Q15.751006,9.018655280078125,15.751006,9.562497180078125Q15.751006,10.106341380078126,15.366357,10.490803680078125Q14.981709,10.875264180078124,14.437866,10.874999080078124L13.875,10.874999080078124Q13.80113,10.874999080078124,13.728681,10.889409980078126Q13.656231,10.903820980078125,13.587985,10.932088880078124Q13.519739,10.960357680078125,13.458321,11.001397180078126Q13.396901,11.042435680078125,13.344668,11.094668380078126Q13.292435,11.146901180078125,13.251396,11.208319680078125Q13.210357,11.269739180078124,13.182089,11.337984080078124Q13.15382,11.406229980078125,13.13941,11.478679680078125Q13.124998,11.551129080078125,13.124999,11.624998080078125L13.124999,13.499999080078124Q13.124536,13.965357080078125,12.794947,14.294946080078125Q12.4653597,14.624534080078124,11.9992533,14.624998080078125L11.250001,14.624998080078125L11.250001,14.062497080078124Q11.25,12.897522080078126,10.426238999999999,12.073760080078126Q9.6024766,11.249998080078125,8.4375014,11.249998080078125Q7.2725253,11.249998080078125,6.4487631,12.073760080078126Z" fill-rule="evenodd" fill="#000000" fill-opacity="1"/></g></svg>