<svg xmlns="http://www.w3.org/2000/svg" xmlns:xlink="http://www.w3.org/1999/xlink" fill="none" version="1.1" width="37.732666015625" height="37.7332763671875" viewBox="0 0 37.732666015625 37.7332763671875"><defs><filter id="master_svg0_3_5164" filterUnits="objectBoundingBox" color-interpolation-filters="sRGB" x="-20" y="-16" width="44.46685791015625" height="40"><feFlood flood-opacity="0" result="BackgroundImageFix"/><feColorMatrix in="SourceAlpha" type="matrix" values="0 0 0 0 0 0 0 0 0 0 0 0 0 0 0 0 0 0 127 0"/><feOffset dy="4" dx="0"/><feGaussianBlur stdDeviation="5"/><feColorMatrix type="matrix" values="0 0 0 0 0 0 0 0 0 0 0 0 0 0 0 0 0 0 0.30000001192092896 0"/><feBlend mode="normal" in2="BackgroundImageFix" result="effect1_dropShadow"/><feBlend mode="normal" in="SourceGraphic" in2="effect1_dropShadow" result="shape"/></filter><filter id="master_svg1_3_5165" filterUnits="objectBoundingBox" color-interpolation-filters="sRGB" x="-20" y="-16" width="44.46685791015625" height="40"><feFlood flood-opacity="0" result="BackgroundImageFix"/><feColorMatrix in="SourceAlpha" type="matrix" values="0 0 0 0 0 0 0 0 0 0 0 0 0 0 0 0 0 0 127 0"/><feOffset dy="4" dx="0"/><feGaussianBlur stdDeviation="5"/><feColorMatrix type="matrix" values="0 0 0 0 0 0 0 0 0 0 0 0 0 0 0 0 0 0 0.30000001192092896 0"/><feBlend mode="normal" in2="BackgroundImageFix" result="effect1_dropShadow"/><feBlend mode="normal" in="SourceGraphic" in2="effect1_dropShadow" result="shape"/></filter></defs><path d="M14.499267578125,11.7413330078125C13.256630078125,11.7413330078125,12.249267578125,12.7486955078125,12.249267578125,13.9913330078125C12.249267578125,13.9913330078125,12.249267578125,21.4913330078125,12.249267578125,21.4913330078125C12.249267578125,22.7340090078125,13.256630078125,23.7413330078125,14.499267578125,23.7413330078125C14.499267578125,23.7413330078125,17.272182478125,23.7413330078125,17.272182478125,23.7413330078125C17.272182478125,23.7413330078125,19.229232278125,25.0460320078125,19.229232278125,25.0460320078125C19.544142278125,25.2559590078125,19.954392878125,25.2559590078125,20.269317578124998,25.0460320078125C20.269317578124998,25.0460320078125,22.226367978124998,23.7413330078125,22.226367978124998,23.7413330078125C22.226367978124998,23.7413330078125,24.999267578125,23.7413330078125,24.999267578125,23.7413330078125C26.241943578125,23.7413330078125,27.249267578125,22.7340090078125,27.249267578125,21.4913330078125C27.249267578125,21.4913330078125,27.249267578125,13.9913330078125,27.249267578125,13.9913330078125C27.249267578125,12.7486955078125,26.241943578125,11.7413330078125,24.999267578125,11.7413330078125C24.999267578125,11.7413330078125,14.499267578125,11.7413330078125,14.499267578125,11.7413330078125C14.499267578125,11.7413330078125,14.499267578125,11.7413330078125,14.499267578125,11.7413330078125ZM13.749267578125,13.9913330078125C13.749267578125,13.5771230078125,14.085057578125,13.2413330078125,14.499267578125,13.2413330078125C14.499267578125,13.2413330078125,24.999267578125,13.2413330078125,24.999267578125,13.2413330078125C25.413492578125002,13.2413330078125,25.749267578125,13.5771230078125,25.749267578125,13.9913330078125C25.749267578125,13.9913330078125,25.749267578125,21.4913330078125,25.749267578125,21.4913330078125C25.749267578125,21.9055590078125,25.413492578125002,22.2413330078125,24.999267578125,22.2413330078125C24.999267578125,22.2413330078125,22.226367978124998,22.2413330078125,22.226367978124998,22.2413330078125C21.930192978125,22.2413330078125,21.640692678125,22.3290080078125,21.394317578124998,22.4932580078125C21.394317578124998,22.4932580078125,19.749267578125,23.5899090078125,19.749267578125,23.5899090078125C19.749267578125,23.5899090078125,18.104232778125,22.4932580078125,18.104232778125,22.4932580078125C17.857834778125,22.3290080078125,17.568320278125,22.2413330078125,17.272182478125,22.2413330078125C17.272182478125,22.2413330078125,14.499267578125,22.2413330078125,14.499267578125,22.2413330078125C14.085057578125,22.2413330078125,13.749267578125,21.9055590078125,13.749267578125,21.4913330078125C13.749267578125,21.4913330078125,13.749267578125,13.9913330078125,13.749267578125,13.9913330078125C13.749267578125,13.9913330078125,13.749267578125,13.9913330078125,13.749267578125,13.9913330078125Z" fill-rule="evenodd" fill="#000000" fill-opacity="0.8799999952316284"/><g filter="url(#master_svg0_3_5164)"><path d="M17.515838623046875,18.73333740234375L21.982696523046876,18.73333740234375L21.982696523046876,18.73318743234375Q22.056550023046874,18.73318743234375,22.128984923046875,18.71877920234375Q22.201419323046874,18.70437109234375,22.269651423046874,18.67610848234375Q22.337883023046874,18.64784586234375,22.399290123046875,18.60681486234375Q22.460697623046876,18.56578392234375,22.512920423046875,18.51356143234375Q22.565142623046874,18.46133891234375,22.606173523046877,18.39993173234375Q22.647204423046876,18.33852458234375,22.675467523046876,18.27029258234375Q22.703730623046873,18.20206058234375,22.718138723046877,18.12962588234375Q22.732546823046874,18.05719118534375,22.732546823046874,17.98333740234375Q22.732546823046874,17.90948361934375,22.718138723046877,17.83704892234375Q22.703730623046873,17.76461422234375,22.675467523046876,17.69638222234375Q22.647204423046876,17.62815022234375,22.606173523046877,17.56674307234375Q22.565142623046874,17.50533589234375,22.512920423046875,17.45311337234375Q22.460697623046876,17.40089088234375,22.399290523046876,17.35985994234375Q22.337883023046874,17.31882894234375,22.269651423046874,17.29056632234375Q22.201419323046874,17.26230371234375,22.128984923046875,17.24789560234375Q22.056550023046874,17.23348737234375,21.982696523046876,17.23348737234375L21.982696523046876,17.23333740234375L17.515838623046875,17.23333740234375L17.515838623046875,17.23348737234375Q17.441984840046874,17.23348737234375,17.369550143046876,17.24789560234375Q17.297115443046874,17.26230371234375,17.228883443046875,17.29056632234375Q17.160651443046874,17.31882894234375,17.099244293046876,17.35985994234375Q17.037837113046876,17.40089088234375,16.985614593046876,17.45311337234375Q16.933392103046874,17.50533589234375,16.892361163046875,17.56674307234375Q16.851330163046875,17.62815022234375,16.823067543046875,17.69638222234375Q16.794804933046876,17.76461422234375,16.780396823046875,17.83704892234375Q16.765988593046874,17.90948361934375,16.765988593046874,17.98333740234375Q16.765988593046874,18.05719118534375,16.780396823046875,18.12962588234375Q16.794804933046876,18.20206058234375,16.823067543046875,18.27029258234375Q16.851330163046875,18.33852458234375,16.892361163046875,18.39993173234375Q16.933392103046874,18.46133891234375,16.985614593046876,18.51356143234375Q17.037837113046876,18.56578392234375,17.099244293046876,18.60681486234375Q17.160651443046874,18.64784586234375,17.228883443046875,18.67610848234375Q17.297115443046874,18.70437109234375,17.369550143046876,18.71877920234375Q17.441984840046874,18.73318743234375,17.515838623046875,18.73318743234375L17.515838623046875,18.73333740234375Z" fill-rule="evenodd" fill="#1A1A1A" fill-opacity="1"/></g><g transform="matrix(0,1,-1,0,35.499961853027344,-4.000144958496094)" filter="url(#master_svg1_3_5165)"><path d="M19.75005340576172,16.499908447265625L24.21691130576172,16.499908447265625L24.21691130576172,16.499758477265626Q24.290764805761718,16.499758477265626,24.36319970576172,16.485350247265625Q24.435634105761718,16.470942137265624,24.503866205761717,16.442679527265625Q24.572097805761718,16.414416907265625,24.63350490576172,16.373385907265625Q24.69491240576172,16.332354967265626,24.74713520576172,16.280132477265624Q24.799357405761718,16.227909957265624,24.84038830576172,16.166502777265624Q24.88141920576172,16.105095627265626,24.90968230576172,16.036863627265625Q24.937945405761717,15.968631627265625,24.95235350576172,15.896196927265626Q24.966761605761718,15.823762230265626,24.966761605761718,15.749908447265625Q24.966761605761718,15.676054664265624,24.95235350576172,15.603619967265624Q24.937945405761717,15.531185267265625,24.90968230576172,15.462953267265625Q24.88141920576172,15.394721267265625,24.84038830576172,15.333314117265624Q24.799357405761718,15.271906937265625,24.74713520576172,15.219684417265626Q24.69491240576172,15.167461927265625,24.63350530576172,15.126430987265625Q24.572097805761718,15.085399987265625,24.503866205761717,15.057137367265625Q24.435634105761718,15.028874757265624,24.36319970576172,15.014466647265625Q24.290764805761718,15.000058417265626,24.21691130576172,15.000058417265626L24.21691130576172,14.999908447265625L19.75005340576172,14.999908447265625L19.75005340576172,15.000058417265626Q19.676199622761718,15.000058417265626,19.60376492576172,15.014466647265625Q19.531330225761717,15.028874757265624,19.46309822576172,15.057137367265625Q19.394866225761717,15.085399987265625,19.33345907576172,15.126430987265625Q19.27205189576172,15.167461927265625,19.21982937576172,15.219684417265626Q19.167606885761717,15.271906937265625,19.12657594576172,15.333314117265624Q19.08554494576172,15.394721267265625,19.05728232576172,15.462953267265625Q19.02901971576172,15.531185267265625,19.01461160576172,15.603619967265624Q19.000203375761718,15.676054664265624,19.000203375761718,15.749908447265625Q19.000203375761718,15.823762230265626,19.01461160576172,15.896196927265626Q19.02901971576172,15.968631627265625,19.05728232576172,16.036863627265625Q19.08554494576172,16.105095627265626,19.12657594576172,16.166502777265624Q19.167606885761717,16.227909957265624,19.21982937576172,16.280132477265624Q19.27205189576172,16.332354967265626,19.33345907576172,16.373385907265625Q19.394866225761717,16.414416907265625,19.46309822576172,16.442679527265625Q19.531330225761717,16.470942137265624,19.60376492576172,16.485350247265625Q19.676199622761718,16.499758477265626,19.75005340576172,16.499758477265626L19.75005340576172,16.499908447265625Z" fill-rule="evenodd" fill="#1A1A1A" fill-opacity="1"/></g></svg>