<svg xmlns="http://www.w3.org/2000/svg" xmlns:xlink="http://www.w3.org/1999/xlink" fill="none" version="1.1" width="12" height="12" viewBox="0 0 12 12"><defs><clipPath id="master_svg0_41_00425"><rect x="0" y="0" width="12" height="12" rx="0"/></clipPath></defs><g clip-path="url(#master_svg0_41_00425)"><path d="M2.2064624045562744,8.832059502278138C2.2064624045562744,8.832059502278138,2.5482573045562744,8.438510102278137,2.5482573045562744,8.438510102278137C2.6162823045562744,8.362609502278136,2.6518372045562746,8.263110302278136,2.6472824045562744,8.161359402278137C2.6472824045562744,8.161359402278137,2.6472824045562744,8.096709802278138,2.6472824045562744,8.096709802278138C2.6472824045562744,7.953109902278137,2.5722823045562744,7.875009702278137,2.4257972045562743,7.875009702278137C2.4257972045562743,7.875009702278137,1.3125174045562744,7.875009702278137,1.3125174045562744,7.875009702278137C1.2710773945562743,7.875009702278137,1.2313343845562743,7.891460102278137,1.2020318945562745,7.920760302278137C1.1727294045562744,7.950059502278137,1.1562674045562744,7.989810102278137,1.1562674045562744,8.031259702278138C1.1562674045562744,8.031259702278138,1.1562674045562744,8.343760102278138,1.1562674045562744,8.343760102278138C1.1562674045562744,8.385209702278138,1.1727294045562744,8.424960302278137,1.2020318945562745,8.454259502278138C1.2313343845562743,8.483559702278137,1.2710773945562743,8.500009702278138,1.3125174045562744,8.500009702278138C1.3125174045562744,8.500009702278138,1.7584174245562743,8.500009702278138,1.7584174245562743,8.500009702278138C1.6826473445562744,8.576359902278138,1.6109324145562745,8.656610102278137,1.5435723645562744,8.740460002278137C1.5435723645562744,8.740460002278137,1.4340018645562744,8.877160702278136,1.4340018645562744,8.877160702278136C1.3558768645562744,8.976160202278137,1.3314628945562745,9.075009502278137,1.3793143645562744,9.167760502278137C1.3793143645562744,9.167760502278137,1.3998218745562745,9.205460702278138,1.3998218745562745,9.205460702278138C1.4584158945562744,9.317959902278137,1.5226724145562744,9.359409402278137,1.6390824345562744,9.359409402278137C1.6390824345562744,9.359409402278137,1.7314623545562744,9.359409402278137,1.7314623545562744,9.359409402278137C1.9332223545562743,9.359409402278137,2.0427923045562744,9.407059802278138,2.0427923045562744,9.536910202278136C2.0427923045562744,9.629109502278137,1.9607573145562744,9.697460302278138,1.7623224245562743,9.697460302278138C1.6586373445562743,9.696660202278137,1.5560723545562745,9.675960702278138,1.4601733645562744,9.636510002278138C1.3334158945562744,9.560760102278138,1.2308768745562744,9.568160702278139,1.1554858945562745,9.697460302278138C1.1554858945562745,9.697460302278138,1.0463064465562744,9.879310702278136,1.0463064465562744,9.879310702278136C0.9736502055562745,9.999009202278136,0.9840017535562744,10.108210702278138,1.0976733935562744,10.190659602278137C1.2482593845562744,10.282261002278137,1.4957204145562744,10.375009702278136,1.8203272845562743,10.375009702278136C2.4875172045562746,10.375009702278136,2.7675973045562747,9.930660402278138,2.7675973045562747,9.513309602278138C2.7670073045562744,9.232410502278137,2.589472304556274,8.932060402278136,2.2064624045562744,8.832059502278138ZM10.687517404556274,5.375009402278137C10.687517404556274,5.375009402278137,4.437517204556274,5.375009402278137,4.437517204556274,5.375009402278137C4.354637404556275,5.375009402278137,4.275152404556275,5.407934502278137,4.216547504556274,5.466539702278137C4.157942304556274,5.525144502278137,4.125017404556274,5.604629402278137,4.125017404556274,5.687509702278137C4.125017404556274,5.687509702278137,4.125017404556274,6.312509702278137,4.125017404556274,6.312509702278137C4.125017404556274,6.395389702278138,4.157942304556274,6.474874602278137,4.216547504556274,6.533479802278137C4.275152404556275,6.5920840022781375,4.354637404556275,6.625009702278137,4.437517204556274,6.625009702278137C4.437517204556274,6.625009702278137,10.687517404556274,6.625009702278137,10.687517404556274,6.625009702278137C10.770416504556275,6.625009702278137,10.849866104556275,6.5920840022781375,10.908466604556274,6.533479802278137C10.967116604556274,6.474874602278137,11.000017404556274,6.395389702278138,11.000017404556274,6.312509702278137C11.000017404556274,6.312509702278137,11.000017404556274,5.687509702278137,11.000017404556274,5.687509702278137C11.000017404556274,5.604629402278137,10.967116604556274,5.525144502278137,10.908466604556274,5.466539702278137C10.849866104556275,5.407934502278137,10.770416504556275,5.375009402278137,10.687517404556274,5.375009402278137ZM10.687517404556274,2.2500088222781374C10.687517404556274,2.2500088222781374,4.437517204556274,2.2500088222781374,4.437517204556274,2.2500088222781374C4.354637404556275,2.2500088222781374,4.275152404556275,2.282933832278137,4.216547504556274,2.3415388422781374C4.157942304556274,2.400143802278137,4.125017404556274,2.479628802278137,4.125017404556274,2.562508882278137C4.125017404556274,2.562508882278137,4.125017404556274,3.187508902278137,4.125017404556274,3.187508902278137C4.125017404556274,3.2703891022781373,4.157942304556274,3.3498740022781375,4.216547504556274,3.4084790022781375C4.275152404556275,3.4670840022781375,4.354637404556275,3.5000091022781374,4.437517204556274,3.5000091022781374C4.437517204556274,3.5000091022781374,10.687517404556274,3.5000091022781374,10.687517404556274,3.5000091022781374C10.770416504556275,3.5000091022781374,10.849866104556275,3.4670840022781375,10.908466604556274,3.4084790022781375C10.967116604556274,3.3498740022781375,11.000017404556274,3.2703891022781373,11.000017404556274,3.187508902278137C11.000017404556274,3.187508902278137,11.000017404556274,2.562508882278137,11.000017404556274,2.562508882278137C11.000017404556274,2.479628802278137,10.967116604556274,2.400143802278137,10.908466604556274,2.3415388422781374C10.849866104556275,2.282933832278137,10.770416504556275,2.2500088222781374,10.687517404556274,2.2500088222781374ZM10.687517404556274,8.500009702278138C10.687517404556274,8.500009702278138,4.437517204556274,8.500009702278138,4.437517204556274,8.500009702278138C4.354637404556275,8.500009702278138,4.275152404556275,8.532910002278136,4.216547504556274,8.591560002278136C4.157942304556274,8.650159502278136,4.125017404556274,8.729610102278137,4.125017404556274,8.812509702278138C4.125017404556274,8.812509702278138,4.125017404556274,9.437509702278138,4.125017404556274,9.437509702278138C4.125017404556274,9.520410202278137,4.157942304556274,9.599860802278137,4.216547504556274,9.658459802278138C4.275152404556275,9.717110802278137,4.354637404556275,9.750010602278138,4.437517204556274,9.750010602278138C4.437517204556274,9.750010602278138,10.687517404556274,9.750010602278138,10.687517404556274,9.750010602278138C10.770416504556275,9.750010602278138,10.849866104556275,9.717110802278137,10.908466604556274,9.658459802278138C10.967116604556274,9.599860802278137,11.000017404556274,9.520410202278137,11.000017404556274,9.437509702278138C11.000017404556274,9.437509702278138,11.000017404556274,8.812509702278138,11.000017404556274,8.812509702278138C11.000017404556274,8.729610102278137,10.967116604556274,8.650159502278136,10.908466604556274,8.591560002278136C10.849866104556275,8.532910002278136,10.770416504556275,8.500009702278138,10.687517404556274,8.500009702278138ZM1.3125174045562744,4.125009202278138C1.3125174045562744,4.125009202278138,2.5625174045562744,4.125009202278138,2.5625174045562744,4.125009202278138C2.6039573045562747,4.125009202278138,2.6437024045562745,4.108549002278137,2.6730022045562745,4.079244302278138C2.7023073045562747,4.049944002278137,2.718767304556274,4.010199202278137,2.718767304556274,3.9687592022781373C2.718767304556274,3.9687592022781373,2.718767304556274,3.6562592022781373,2.718767304556274,3.6562592022781373C2.718767304556274,3.6148190022781375,2.7023073045562747,3.575074002278137,2.6730022045562745,3.545774202278137C2.6437024045562745,3.5164689022781372,2.6039573045562747,3.5000091022781374,2.5625174045562744,3.5000091022781374C2.5625174045562744,3.5000091022781374,2.2500174045562744,3.5000091022781374,2.2500174045562744,3.5000091022781374C2.2500174045562744,3.5000091022781374,2.2500174045562744,1.7812587322781372,2.2500174045562744,1.7812587322781372C2.2500174045562744,1.739818732278137,2.2335573045562747,1.7000757082781373,2.2042522045562745,1.6707733082781373C2.1749524045562745,1.6414707542781373,2.135207404556274,1.6250087022781372,2.0937674045562744,1.6250087022781372C2.0937674045562744,1.6250087022781372,1.6250174045562744,1.6250087022781372,1.6250174045562744,1.6250087022781372C1.5960574145562743,1.6250603907861372,1.5676773745562744,1.633160403978137,1.5430523745562743,1.6484045052781373C1.5184274345562745,1.6636486092781373,1.4985243645562745,1.6854367182781371,1.4855643845562745,1.7113367172781373C1.4855643845562745,1.7113367172781373,1.3293144145562743,2.0238367622781372,1.3293144145562743,2.0238367622781372C1.3174044145562744,2.0476377622781374,1.3117708845562746,2.0740862522781374,1.3129494145562743,2.1006747522781373C1.3141273845562744,2.127263842278137,1.3220773645562744,2.153108832278137,1.3360453845562743,2.1757638422781373C1.3500138845562744,2.198418732278137,1.3695368745562744,2.217128812278137,1.3927643845562745,2.230123822278137C1.4159918745562745,2.243118822278137,1.4421528545562743,2.2499638222781373,1.4687673745562744,2.2500088222781374C1.4687673745562744,2.2500088222781374,1.6250174045562744,2.2500088222781374,1.6250174045562744,2.2500088222781374C1.6250174045562744,2.2500088222781374,1.6250174045562744,3.5000091022781374,1.6250174045562744,3.5000091022781374C1.6250174045562744,3.5000091022781374,1.3125174045562744,3.5000091022781374,1.3125174045562744,3.5000091022781374C1.2710773945562743,3.5000091022781374,1.2313343845562743,3.5164689022781372,1.2020318945562745,3.545774202278137C1.1727294045562744,3.575074002278137,1.1562674045562744,3.6148190022781375,1.1562674045562744,3.6562592022781373C1.1562674045562744,3.6562592022781373,1.1562674045562744,3.9687592022781373,1.1562674045562744,3.9687592022781373C1.1562674045562744,4.010199202278137,1.1727294045562744,4.049944002278137,1.2020318945562745,4.079244302278138C1.2313343845562743,4.108549002278137,1.2710773945562743,4.125009202278138,1.3125174045562744,4.125009202278138ZM1.2361503845562745,7.250009702278137C1.2361503845562745,7.250009702278137,2.5625174045562744,7.250009702278137,2.5625174045562744,7.250009702278137C2.6039573045562747,7.250009702278137,2.6437024045562745,7.2335597022781375,2.6730022045562745,7.204259502278137C2.7023073045562747,7.174959802278138,2.718767304556274,7.135209202278137,2.718767304556274,7.093759702278137C2.718767304556274,7.093759702278137,2.718767304556274,6.781259702278137,2.718767304556274,6.781259702278137C2.718767304556274,6.739809602278137,2.7023073045562747,6.7000591022781375,2.6730022045562745,6.670759802278138C2.6437024045562745,6.641459102278137,2.6039573045562747,6.625009702278137,2.5625174045562744,6.625009702278137C2.5625174045562744,6.625009702278137,1.8070474245562744,6.625009702278137,1.8070474245562744,6.625009702278137C1.8713074345562744,6.424034702278137,2.7511873045562742,6.260164902278137,2.7511873045562742,5.522664402278137C2.7511873045562742,4.955089202278137,2.2629074045562745,4.750009202278138,1.8826323145562744,4.750009202278138C1.4654468845562745,4.750009202278138,1.2224784045562744,4.945319302278137,1.0924004015562745,5.116219202278137C1.0070486538562744,5.225399602278137,1.0338064505562745,5.327939202278137,1.1470879045562743,5.416414602278137C1.1470879045562743,5.416414602278137,1.3146658845562744,5.550789502278137,1.3146658845562744,5.550789502278137C1.4242363845562744,5.639854502278137,1.5295073945562745,5.5990344022781375,1.6295074245562744,5.503134102278137C1.6788373545562743,5.454804102278137,1.7452173845562744,5.427859402278138,1.8142773545562743,5.428134102278137C1.8793123945562744,5.428134102278137,1.9955273245562744,5.458604502278137,1.9955273245562744,5.5990344022781375C1.9961124045562744,5.847469402278137,1.0000174045562744,6.025594802278137,1.0000174045562744,6.9490095022781375C1.0000174045562744,6.9490095022781375,1.0000174045562744,7.027159802278137,1.0000174045562744,7.027159802278137C1.0000174045562744,7.171909402278137,1.0992359075562743,7.250009702278137,1.2361503845562745,7.250009702278137Z" fill="#000000" fill-opacity="0.44999998807907104"/></g></svg>