<svg xmlns="http://www.w3.org/2000/svg" xmlns:xlink="http://www.w3.org/1999/xlink" fill="none" version="1.1" width="18.2098388671875" height="18.327880859375" viewBox="0 0 18.2098388671875 18.327880859375"><path d="M9.9354248046875,5.4354248046875C9.9354248046875,5.0212148446875,9.5996501046875,4.6854248046875,9.1854248046875,4.6854248046875C8.7712073346875,4.6854248046875,8.4354248046875,5.0212148446875,8.4354248046875,5.4354248046875C8.4354248046875,5.4354248046875,8.4354248046875,9.1854248046875,8.4354248046875,9.1854248046875C8.4354248046875,9.3843245046875,8.5144448276875,9.5751247046875,8.6550920046875,9.7157497046875C8.6550920046875,9.7157497046875,10.9050999046875,11.9657497046875,10.9050999046875,11.9657497046875C11.1979749046875,12.258625004687499,11.6728747046875,12.258625004687499,11.9657497046875,11.9657497046875C12.2586248046875,11.6728744046875,12.2586248046875,11.1979752046875,11.9657497046875,10.9050999046875C11.9657497046875,10.9050999046875,9.9354248046875,8.8747673046875,9.9354248046875,8.8747673046875C9.9354248046875,8.8747673046875,9.9354248046875,5.4354248046875,9.9354248046875,5.4354248046875Z" fill="#000000" fill-opacity="0.8799999952316284"/><path d="M21.660414648437502,19.827880959375C18.8059148484375,19.827880959375,16.415364548437502,21.821973759375,15.8090871484375,24.493848759375C15.7174221484375,24.897791359375,15.3156546384375,25.150946159375,14.9117135984375,25.059288959375C14.5077688984375,24.967624159375,14.2546118724375,24.565864059375002,14.3462717704375,24.161913859374998C15.1041771184375,20.821818559375,18.0901596484375,18.327880859375,21.660414648437502,18.327880859375C25.8025146484375,18.327880859375,29.1604156484375,21.685743559375,29.1604156484375,25.827881359375C29.1604156484375,29.969981859375,25.8025146484375,33.327881859375,21.660414648437502,33.327881859375C18.5516123484375,33.327881859375,15.8862772484375,31.436607859375002,14.7489808784375,28.744781859375C14.6235358684375,28.447856859375,14.5166368884375,28.141181959375,14.4297531484375,27.826181459375C14.2497831434375,27.173606859375,14.8788351384375,26.617631959375,15.4922721484375,26.828455959375C15.4922721484375,26.828455959375,17.7787818484375,27.614531559375,17.7787818484375,27.614531559375C18.6409444484375,27.910931559375,18.4562873484375,29.180531859375,17.5453896484375,29.219006859375C17.5453896484375,29.219006859375,16.7334470484375,29.253281859375,16.7334470484375,29.253281859375C17.8179473484375,30.810207859374998,19.6209173484375,31.827881859374997,21.660414648437502,31.827881859374997C24.974140648437498,31.827881859374997,27.6604156484375,29.141605859374998,27.6604156484375,25.827881359375C27.6604156484375,22.514171159375,24.974140648437498,19.827880959375,21.660414648437502,19.827880959375Z" fill-rule="evenodd" fill="#000000" fill-opacity="0.8799999952316284" transform="matrix(-0.9659257531166077,-0.2588193714618683,0.2588193714618683,-0.9659257531166077,23.423219421267277,39.73949131741756)"/></svg>