<svg xmlns="http://www.w3.org/2000/svg" xmlns:xlink="http://www.w3.org/1999/xlink" fill="none" version="1.1" width="21" height="7.384615898132324" viewBox="0 0 21 7.384615898132324"><g><path d="M8.8360004,6.6479998L7.46,6.7519999L6.5080004,6.8319998L6.0120001,6.8720002Q5.948,6.8720002,5.8959999,6.7919998Q5.8439999,6.7119999,5.8439999,6.6399999Q5.8439999,6.5840001,5.8800001,6.5559998Q5.9160004,6.5279999,5.96,6.5159998Q6.0040002,6.5040002,6.02,6.4959998Q6.0279999,6.0640001,6.0279999,4.4799995Q6.0279999,3.3119998,5.9359999,2.6679997Q5.8439999,2.0239997,5.8439999,1.9759998Q5.8439999,1.8639998,5.928,1.7999997Q6.0120001,1.7359996,6.1000004,1.7359996Q6.1560001,1.7359996,6.1880002,1.7799997Q6.2200003,1.8239999,6.2360001,1.9199996Q6.316,2.1919999,6.3600001,2.9199996Q6.4040003,3.6479998,6.4040003,4.4399996Q6.4040003,5.112,6.3959999,5.6879997Q6.388,6.2639999,6.388,6.4639997Q6.4920001,6.4559999,6.7880001,6.4359999Q7.0840001,6.4159999,7.3959999,6.3920002Q7.8600001,6.336,8.4440002,6.224Q8.9160004,6.1360002,9.0120001,6.1360002Q9.1000004,6.1360002,9.1240005,6.2160001Q9.1480007,6.296,9.1480007,6.408Q9.1480007,6.5120001,9.0559998,6.5760002Q8.9640007,6.6399999,8.8360004,6.6479998ZM10.1,2.112Q9.9640007,2.112,9.8240004,2Q9.684,1.8879995,9.684,1.816Q9.684,1.7279997,9.7680006,1.6479998Q9.8520002,1.5679998,9.9400005,1.5679998Q10.06,1.6079998,10.14,1.6959996Q10.204,1.7599998,10.284,1.8639998Q10.364,1.9679999,10.364,1.9919996Q10.364,2.112,10.1,2.112ZM10.34,7.184Q10.228001,7.1760001,10.176001,6.8239999Q10.124001,6.4720001,10.068001,5.4879999Q10.036,4.8400002,10.012,4.2199998Q9.9880009,3.5999999,9.9800005,3.2639999Q9.9800005,3.1759999,10.008,3.1319997Q10.036,3.0879998,10.116,3.0879998Q10.3,3.0879998,10.348001,3.2399998Q10.396001,3.3919997,10.396001,3.8239999L10.388,4.7679996Q10.388,5.5760002,10.436001,6.0640001Q10.436001,6.0879998,10.508,6.5760002Q10.564,6.9120002,10.564,7.0240002Q10.564,7.1040001,10.496,7.1479998Q10.428,7.1919999,10.34,7.184ZM12.02,6.96Q11.924001,6.96,11.840001,6.7319999Q11.756001,6.5040002,11.756001,6.04Q11.764001,5.1359997,11.784001,3.8559999Q11.804001,2.5759997,11.820001,1.928Q11.828001,1.6959996,11.904001,1.4959998Q11.98,1.2959995,12.172001,1.2959995Q12.236001,1.2959995,12.256001,1.3639998Q12.276001,1.4319997,12.276001,1.6239996Q12.276001,1.632,12.272001,1.6759996Q12.268001,1.7199998,12.268001,1.8319998Q12.124001,3.9359999,12.124001,5.9359999Q12.124001,6.1919999,12.240001,6.48Q12.356001,6.7680001,12.356001,6.7839999Q12.356001,6.8639998,12.252001,6.9120002Q12.148001,6.96,12.02,6.96ZM15.740001,4.2639999Q15.644001,4.9679999,15.636001,5.0559998Q15.532001,6.04,15.488001,6.5559998Q15.444,7.072,15.444,7.4879999Q15.444,7.8319998,15.496,8.0319996Q15.548,8.2320004,15.608001,8.3479996Q15.668,8.4639997,15.668,8.4879999Q15.668,8.5600004,15.540001,8.6160002Q15.412001,8.6719999,15.276001,8.6719999Q15.172001,8.6719999,15.112,8.3920002Q15.052,8.1120005,15.052,7.52Q15.052,7.072,15.14,6.3119998L15.26,5.2080002Q15.044001,5.6240001,14.728001,6.0039997Q14.412001,6.3839998,14.076,6.3839998Q13.764,6.3839998,13.516001,5.8400002Q13.268001,5.296,13.128,4.6079998Q12.988,3.9199998,12.988,3.5999999Q12.988,3.3999999,13.108001,3.3999999Q13.284,3.3999999,13.332001,3.7279999Q13.636001,5.9519997,14.18,5.9519997Q14.396,5.9519997,14.56,5.7799997Q14.724001,5.6079998,14.948,5.2480001Q15.052,5.0799999,15.172001,4.8000002Q15.292001,4.52,15.356001,4.336L15.412001,3.5279999Q15.428,3.3439999,15.460001,3.2679999Q15.492001,3.1919999,15.588,3.1919999Q15.668,3.1919999,15.748,3.2839999Q15.828001,3.3759999,15.828001,3.4639997Q15.828001,3.6479998,15.740001,4.2639999Z" fill="#000000" fill-opacity="0.44999998807907104"/></g></svg>