<svg xmlns="http://www.w3.org/2000/svg" xmlns:xlink="http://www.w3.org/1999/xlink" fill="none" version="1.1" width="21" height="7.384615898132324" viewBox="0 0 21 7.384615898132324"><g><path d="M7.7079997,6.7680001Q7.612,6.7680001,7.5559998,6.756Q7.5,6.744,7.4759998,6.6880002Q7.4039998,6.5679998,7.3079996,5.9759998Q7.2119999,5.3839998,7.1239996,4.6160002Q6.9319997,2.2719998,6.8279996,2.224Q6.7399998,2.4159999,6.5559998,2.948Q6.3719997,3.4799998,6.132,4.336Q5.8679996,5.256,5.7319994,5.6040001Q5.5959997,5.9519997,5.4919996,6.0320001Q5.4279995,6.0879998,5.3359995,6.1399999Q5.2439995,6.1919999,5.1799994,6.1919999Q5.0999994,6.1919999,5.0759997,6.1719999Q5.0519996,6.152,5.0199995,6.0479999Q4.9879999,5.928,4.8679996,5.3000002Q4.7479997,4.6719999,4.684,4.1680002L4.6359997,3.8319998Q4.5,2.7919998,4.4519997,2.6719999Q4.2999997,2.8079996,4.1639996,3.2759998Q4.0279999,3.744,3.8519995,4.5999999Q3.6839995,5.2639999,3.4439998,6.7600002Q3.4359996,6.848,3.3239996,6.9200001Q3.2119994,6.9920001,3.1239996,6.9920001Q2.9959996,6.9920001,2.9799995,6.744Q2.9719996,6.4959998,2.8719997,5.6719999Q2.7719996,4.8479996,2.6919994,4.224Q2.5799994,3.3359997,2.3879995,2.5759997Q2.3319995,2.336,2.3319995,2.3039999Q2.3319995,2.1839995,2.4479995,2.1079998Q2.5639997,2.0319996,2.6999996,2.0319996Q2.7639995,2.0319996,2.8359995,2.5279999Q2.9079995,3.0239999,2.9879994,3.7759998L3.0119996,4.04Q3.0439997,4.3039999,3.0839996,4.592Q3.2359996,5.816,3.2519996,6.1279998Q3.4119997,5.1999998,3.6119995,4.2639999L3.6839995,3.9119999Q3.8599997,3.0639999,4.0679998,2.6279998Q4.2759995,2.1919999,4.6039996,2.1919999Q4.7079997,2.1919999,4.8359995,2.7319999Q4.9639997,3.2719998,5.0359998,3.9919999Q5.092,4.5039997,5.1799994,4.9919996Q5.2679996,5.48,5.3399997,5.6719999Q5.3879995,5.5359998,5.5359998,5.072Q5.684,4.6079998,5.8119998,4.1919999Q6.2039995,2.8559999,6.6439996,1.7999997Q6.724,1.632,6.7999997,1.5559998Q6.8759999,1.4799995,7.0679998,1.4799995Q7.1719999,1.4799995,7.2919998,2.3919997Q7.4119997,3.3039999,7.4919996,4.5039997Q7.7079997,6.1999998,7.8839998,6.3520002Q8.0039997,6.4559999,8.0039997,6.5760002Q8.0039997,6.632,7.9119997,6.6999998Q7.8199997,6.7680001,7.7079997,6.7680001ZM12.1,6.704Q12.1,6.8000002,12.02,6.9239998Q11.940001,7.0479999,11.860001,7.0479999Q11.724001,7.0479999,11.652,6.8800001Q11.58,6.7119999,11.58,6.4879999Q11.58,6.296,11.604,5.336L11.612,5.0320001Q11.612,4.8479996,11.516001,4.7679996Q11.156,5.3759999,10.844,5.8239999Q10.532001,6.2719998,10.052,6.6680002Q9.5720005,7.0640001,9.0440006,7.0640001Q8.7880001,7.0640001,8.6480007,6.9039998Q8.5080004,6.744,8.5080004,6.4879999Q8.5080004,6.1680002,8.7960005,5.612Q9.0840006,5.0559998,9.5320005,4.4840002Q9.9800005,3.9119999,10.428,3.5439999Q10.724001,3.3039999,10.900001,3.2199998Q11.076,3.1359999,11.212,3.1359999Q11.34,3.1359999,11.476,3.2159998Q11.612,3.2959998,11.708,3.4399998Q11.804001,3.5839999,11.804001,3.7679999Q11.804001,4.0159998,11.668,4.2399998L11.804001,4.1999998Q11.892,4.1999998,11.908001,4.4159999Q11.916,4.5439997,11.928,4.9359999Q11.940001,5.3280001,11.948,5.5840001Q11.956,5.848,11.964001,6.0959997Q11.972,6.3439999,11.98,6.4879999Q11.988001,6.5440001,12.044001,6.6040001Q12.1,6.664,12.1,6.704ZM11.404,4.4559999Q11.5,4.2159996,11.5,3.9359999Q11.5,3.7679999,11.400001,3.6439998Q11.3,3.5199997,11.132,3.5199997Q10.932,3.5199997,10.620001,3.7919998Q10.26,4.0959997,9.8600006,4.6040001Q9.46,5.112,9.1960001,5.6079998Q8.9320002,6.1040001,8.9320002,6.3920002Q8.9320002,6.632,9.1560001,6.632Q9.5880003,6.632,9.9879999,6.3119998Q10.388,5.9920001,10.704,5.5479999Q11.02,5.1040001,11.404,4.4559999ZM15.372001,3.8879998Q15.316001,3.8879998,15.264001,3.8399999Q15.212001,3.7919998,15.148001,3.7039998Q15.092001,3.6239998,15.000001,3.5679998Q14.908001,3.5119998,14.812,3.5119998Q14.580001,3.5119998,14.188001,4.1239996Q13.796,4.7360001,13.420001,5.664Q13.428,5.848,13.448001,6.1279998Q13.468,6.408,13.476001,6.5440001L13.500001,6.8639998Q13.500001,6.9759998,13.452001,7.0599999Q13.404,7.1440001,13.276001,7.1440001Q13.14,7.1440001,13.1,6.7800002Q13.06,6.4159999,13.052001,5.7199998Q13.044001,5.5439997,13.040001,5.2160001Q13.036,4.888,13.02,4.4320002Q12.996,3.744,12.996,3.4479997Q12.996,3.2639999,13.22,3.2639999Q13.356001,3.2639999,13.384001,3.3799999Q13.412001,3.4959998,13.412001,3.8239999L13.412001,5.0959997Q13.652,4.4799995,13.932001,4.0319996Q14.212001,3.5839999,14.48,3.3479998Q14.748001,3.1119998,14.956001,3.1119998Q15.132001,3.1119998,15.292001,3.1919999Q15.452001,3.2719998,15.548,3.3959999Q15.644001,3.5199997,15.644001,3.6319997Q15.644001,3.7039998,15.544001,3.7959998Q15.444,3.8879998,15.372001,3.8879998ZM18.772001,4.2639999Q18.676001,4.9679999,18.668001,5.0559998Q18.564001,6.04,18.52,6.5559998Q18.476002,7.072,18.476002,7.4879999Q18.476002,7.8319998,18.528002,8.0319996Q18.580002,8.2320004,18.640001,8.3479996Q18.700001,8.4639997,18.700001,8.4879999Q18.700001,8.5600004,18.572001,8.6160002Q18.444,8.6719999,18.308001,8.6719999Q18.204,8.6719999,18.144001,8.3920002Q18.084002,8.1120005,18.084002,7.52Q18.084002,7.072,18.172001,6.3119998L18.292002,5.2080002Q18.076,5.6240001,17.76,6.0039997Q17.444,6.3839998,17.108002,6.3839998Q16.796001,6.3839998,16.548,5.8400002Q16.300001,5.296,16.160002,4.6079998Q16.02,3.9199998,16.02,3.5999999Q16.02,3.3999999,16.140001,3.3999999Q16.316,3.3999999,16.364,3.7279999Q16.668001,5.9519997,17.212002,5.9519997Q17.428001,5.9519997,17.592001,5.7799997Q17.756001,5.6079998,17.980001,5.2480001Q18.084002,5.0799999,18.204,4.8000002Q18.324001,4.52,18.388,4.336L18.444,3.5279999Q18.460001,3.3439999,18.492001,3.2679999Q18.524,3.1919999,18.620001,3.1919999Q18.700001,3.1919999,18.780001,3.2839999Q18.860001,3.3759999,18.860001,3.4639997Q18.860001,3.6479998,18.772001,4.2639999Z" fill="#000000" fill-opacity="0.44999998807907104"/></g></svg>