<svg xmlns="http://www.w3.org/2000/svg" xmlns:xlink="http://www.w3.org/1999/xlink" fill="none" version="1.1" width="28" height="28" viewBox="0 0 28 28"><g><rect x="0" y="0" width="28" height="28" rx="14" fill="#EEEEEE" fill-opacity="1"/><path d="M34.37268184375,9.335587026953124C34.37268184375,9.335587026953124,24.75692414375,12.797258426953125,24.75692414375,12.797258426953125C24.75692414375,12.797258426953125,28.58538724375,14.295355826953125,28.58538724375,14.295355826953125C28.96456244375,14.443726026953126,29.26455354375,14.743717226953125,29.41292424375,15.122900026953126C29.41292424375,15.122900026953126,30.91100694375,18.951374626953125,30.91100694375,18.951374626953125C30.91100694375,18.951374626953125,34.37268184375,9.335587026953124,34.37268184375,9.335587026953124C34.37268184375,9.335587026953124,34.37268184375,9.335587026953124,34.37268184375,9.335587026953124ZM35.045774843749996,7.541646349953125C35.74310084375,7.290597586953125,36.41765384375,7.965148026953125,36.16662284375,8.662516126953125C36.16662284375,8.662516126953125,31.75797554375,20.908825626953124,31.75797554375,20.908825626953124C31.48395064375,21.669951626953125,30.41288474375,21.684622626953125,30.118054843750002,20.931308626953125C30.118054843750002,20.931308626953125,28.05339384375,15.654891926953125,28.05339384375,15.654891926953125C28.05339384375,15.654891926953125,22.77697128375,13.590202826953124,22.77697128375,13.590202826953124C22.02364131375,13.295417326953125,22.03834775375,12.224316126953125,22.79946565375,11.950312626953124C22.79946565375,11.950312626953124,35.045774843749996,7.541646349953125,35.045774843749996,7.541646349953125C35.045774843749996,7.541646349953125,35.045774843749996,7.541646349953125,35.045774843749996,7.541646349953125Z" fill-rule="evenodd" fill="#000000" fill-opacity="0.44999998807907104" transform="matrix(-1,0,0,1,44.4404296875,0)"/></g></svg>