<svg xmlns="http://www.w3.org/2000/svg" xmlns:xlink="http://www.w3.org/1999/xlink" fill="none" version="1.1" width="176" height="22" viewBox="0 0 176 22"><g><path d="M4.2980003,6.6899996C3.8640001,6.1300001,2.9260001,5.2620001,2.198,4.6459999L1.5960001,5.2059994C2.3240001,5.8639994,3.2340002,6.7599993,3.6680002,7.3479996L4.2980003,6.6899996ZM3.6960001,14.782L3.6960001,8.6919994L0.64399999,8.6919994L0.64399999,9.5879993L2.8000002,9.5879993L2.8000002,14.824C2.8000002,15.44,2.3940001,15.846,2.1560001,15.986C2.3240001,16.181999,2.562,16.573999,2.6460001,16.784C2.842,16.518,3.2060001,16.238001,5.5020003,14.46C5.4040003,14.278,5.25,13.914,5.1800003,13.676L3.6960001,14.782ZM6.8320003,14.18L6.8320003,12.976L11.354,12.976L11.354,14.18L6.8320003,14.18ZM11.354,11.156L11.354,12.304L6.8320003,12.304L6.8320003,11.156L11.354,11.156ZM12.236,10.427999L5.9640002,10.427999L5.9640002,17.035999L6.8320003,17.035999L6.8320003,14.866L11.354,14.866L11.354,15.958C11.354,16.139999,11.284,16.195999,11.088,16.195999C10.906,16.209999,10.22,16.209999,9.4920006,16.181999C9.618,16.42,9.7300005,16.756001,9.7720003,16.98C10.780001,16.993999,11.382,16.993999,11.76,16.84C12.124001,16.700001,12.236,16.462,12.236,15.972L12.236,10.427999ZM9.5480003,8.8459997L9.5480003,7.7959995L12.530001,7.7959995L12.530001,7.0959997L9.5480003,7.0959997L9.5480003,6.158L12.950001,6.158L12.950001,5.4299994L9.5480003,5.4299994L9.5480003,4.3099995L8.6240005,4.3099995L8.6240005,5.4299994L5.3760004,5.4299994L5.3760004,6.158L8.6240005,6.158L8.6240005,7.0959997L5.698,7.0959997L5.698,7.7959995L8.6240005,7.7959995L8.6240005,8.8459997L4.9560003,8.8459997L4.9560003,9.5739994L13.356,9.5739994L13.356,8.8459997L9.5480003,8.8459997ZM19.068001,12.653999L17.962,12.934L17.962,11.128L19.124001,11.128L19.124001,10.274L17.962,10.274L17.962,8.132L17.15,8.132L17.15,10.274L15.834,10.274C16.198,9.2799997,16.562,8.0900002,16.841999,6.8579998L19.138,6.8579998L19.138,6.0039997L17.024,6.0039997C17.122,5.5,17.219999,4.9819994,17.290001,4.4779997L16.422001,4.3239994C16.366001,4.8839998,16.282,5.4579992,16.184,6.0039997L14.728,6.0039997L14.728,6.8579998L16.002001,6.8579998C15.764,8.0340004,15.484,9.0139999,15.344,9.3780003C15.148,9.9939995,14.98,10.455999,14.77,10.526C14.868,10.722,15.008,11.142,15.05,11.323999C15.162,11.212,15.554,11.128,16.016001,11.128L17.15,11.128L17.15,13.116C16.198,13.354,15.344,13.564,14.672,13.704L14.868,14.572C15.54,14.418,16.323999,14.208,17.15,13.984L17.15,17.049999L17.962,17.049999L17.962,13.76L19.138,13.452L19.068001,12.653999ZM20.636,13.382L20.636,12.164L22.652,12.164L22.652,13.382L20.636,13.382ZM22.652,10.26L22.652,11.436L20.636,11.436L20.636,10.26L22.652,10.26ZM23.436001,9.5039997L19.852001,9.5039997L19.852001,17.007999L20.636,17.007999L20.636,14.11L22.652,14.11L22.652,16.042C22.652,16.167999,22.624001,16.195999,22.484001,16.209999C22.358,16.209999,21.993999,16.209999,21.560001,16.195999C21.658001,16.42,21.77,16.756001,21.798,16.98C22.386002,16.98,22.82,16.966,23.086,16.826C23.366001,16.686001,23.436001,16.448,23.436001,16.028L23.436001,9.5039997ZM26.054001,15.958C26.054001,16.125999,26.012001,16.167999,25.83,16.167999C25.662001,16.181999,25.116001,16.181999,24.472,16.167999C24.598,16.392,24.695999,16.728001,24.723999,16.938C25.535999,16.938,26.082001,16.924,26.403999,16.798C26.726002,16.658001,26.810001,16.434,26.810001,15.958L26.810001,9.224L26.054001,9.224L26.054001,15.958ZM25.018002,9.7279997L24.276001,9.7279997L24.276001,14.754L25.018002,14.754L25.018002,9.7279997ZM20.944,7.7539997C21.784,7.1659994,22.554001,6.4519997,23.184,5.6819992C23.940001,6.5219994,24.752001,7.1939993,25.662001,7.7539997L20.944,7.7539997ZM23.212,4.2679996C22.302,5.7519999,20.594,7.1519995,18.914,7.9499998C19.124001,8.132,19.375999,8.4119997,19.516001,8.6359997C19.908001,8.4259996,20.327999,8.1879997,20.706001,7.9219999L20.706001,8.5240002L25.788,8.5240002L25.788,7.8379993C26.152,8.0620003,26.544001,8.2579994,26.936001,8.4680004C27.062,8.2159996,27.327999,7.9359999,27.538,7.7539997C26.068001,7.0959997,24.723999,6.2979994,23.66,5.0799999C23.771999,4.9119997,23.884001,4.7579994,23.982,4.6040001L23.212,4.2679996ZM32.214001,5.4299994C33.138,6.0739994,33.852001,6.8579998,34.439999,7.7259998C33.543999,11.743999,31.794001,14.586,28.643999,16.238001C28.896,16.406,29.316,16.784,29.483999,16.98C32.354,15.286,34.146,12.682,35.195999,8.9720001C36.778,11.799999,37.716,15.09,40.950001,16.91C41.006001,16.629999,41.243999,16.125999,41.412003,15.888C36.75,13.13,37.225998,7.8099995,32.774002,4.6459999L32.214001,5.4299994ZM46.214001,4.2959995C45.332001,6.5219994,43.889999,8.6499996,42.349998,10.035999C42.546001,10.26,42.84,10.736,42.952,10.945999C43.540001,10.372,44.127998,9.6859999,44.674,8.9440002L44.674,17.063999L45.598,17.063999L45.598,7.5579996C46.172001,6.6059999,46.689999,5.5979996,47.110001,4.5759993L46.214001,4.2959995ZM55.398003,11.184L55.398003,10.288L51.366001,10.288L51.366001,6.3119993C52.639999,6.0459995,53.830002,5.7799997,54.782001,5.4439993L54.096001,4.6739998C52.402,5.29,49.321999,5.8499994,46.703999,6.1999998C46.802002,6.4099998,46.956001,6.7599993,46.984001,6.9839993C48.09,6.8439999,49.279999,6.6759996,50.428001,6.4799995L50.428001,10.288L46.228001,10.288L46.228001,11.184L50.428001,11.184L50.428001,15.622L46.760002,15.622L46.760002,16.518L55.16,16.518L55.16,15.622L51.366001,15.622L51.366001,11.184L55.398003,11.184ZM63,12.08C63.125999,11.674,63.209999,11.212,63.279999,10.736L62.313999,10.652C62.257999,11.17,62.16,11.646,62.034,12.08L57.834,12.08L57.834,12.906L61.768002,12.906C60.970001,14.796,59.388,15.762,56.84,16.238001C57.007999,16.434,57.259998,16.826,57.344002,17.035999C60.130001,16.364,61.866001,15.188,62.748001,12.906L67.087997,12.906C66.863998,14.838,66.57,15.72,66.248001,15.986C66.094002,16.112,65.940002,16.125999,65.645996,16.125999C65.323997,16.125999,64.428001,16.112,63.574001,16.028C63.728001,16.266001,63.84,16.601999,63.868,16.854C64.68,16.896,65.492004,16.91,65.898003,16.896C66.374001,16.882,66.681999,16.798,66.975998,16.532C67.438004,16.125999,67.732002,15.076,68.054001,12.5C68.082001,12.374,68.096001,12.08,68.096001,12.08L63,12.08ZM60.732002,6.5640001L66.5,6.5640001C65.674004,7.4460001,64.498001,8.1459999,63.153999,8.6919994C62.02,8.2159996,61.124001,7.5859995,60.521999,6.7880001L60.732002,6.5640001ZM67.382004,5.71L67.214005,5.7519999L61.459999,5.7519999C61.824001,5.3319998,62.132,4.8979998,62.397999,4.4779997L61.417999,4.2819996C60.689999,5.5139999,59.304001,6.9559994,57.344002,8.0059996C57.540001,8.1459999,57.806,8.4680004,57.931999,8.6779995C58.674,8.2579994,59.318001,7.7959995,59.919998,7.3199997C60.493999,8.0200005,61.236,8.5939999,62.104,9.0699997C60.41,9.6299992,58.506001,9.9939995,56.686001,10.162C56.84,10.372,57.007999,10.75,57.063999,10.988C59.108002,10.736,61.236,10.302,63.125999,9.5599995C64.75,10.232,66.709999,10.624,68.865997,10.806C68.977997,10.54,69.188004,10.190001,69.384003,9.9659996C67.480003,9.8400002,65.702003,9.5739994,64.218002,9.0839996C65.772003,8.3419991,67.101997,7.3619995,67.942001,6.1019993L67.382004,5.71ZM72.113998,17.414C73.528,16.91,74.466003,15.79,74.466003,14.278C74.466003,13.34,74.073997,12.724,73.332001,12.724C72.800003,12.724,72.323997,13.059999,72.323997,13.69C72.323997,14.32,72.772003,14.642,73.318001,14.642C73.402,14.642,73.5,14.628,73.584,14.614C73.514,15.608,72.912003,16.280001,71.82,16.756001L72.113998,17.414ZM96.823997,7.0120001C96.348,6.368,95.367996,5.3739996,94.542,4.6879997L93.828003,5.1639996C94.667999,5.8919992,95.620003,6.8999996,96.068001,7.5579996L96.823997,7.0120001ZM95.662003,10.007999C95.171997,10.96,94.514,11.856,93.730003,12.696C93.477997,11.716,93.281998,10.596,93.127998,9.3360004L97.188004,9.3360004L97.188004,8.4540005L93.029999,8.4540005C92.903999,7.1939993,92.848,5.8499994,92.848,4.4219999L91.882004,4.4219999C91.896004,5.8079996,91.966003,7.1799994,92.078003,8.4540005L88.802002,8.4540005L88.802002,5.9060001C89.669998,5.71,90.468002,5.4860001,91.139999,5.2620001L90.468002,4.4919996C89.166,4.9819994,86.884003,5.4720001,84.938004,5.7799997C85.050003,6.0039997,85.190002,6.3259993,85.232002,6.5499992C86.085999,6.4239998,86.982002,6.2699995,87.877998,6.0879993L87.877998,8.4540005L84.825996,8.4540005L84.825996,9.3360004L87.877998,9.3360004L87.877998,11.884C86.646004,12.164,85.498001,12.402,84.643997,12.556L84.910004,13.493999C85.764,13.298,86.800003,13.073999,87.877998,12.808L87.877998,15.818C87.877998,16.07,87.793999,16.139999,87.542,16.139999C87.304001,16.153999,86.477997,16.167999,85.568001,16.139999C85.708,16.406,85.875999,16.812,85.917999,17.077999C87.066002,17.091999,87.793999,17.049999,88.227997,16.896C88.634003,16.742001,88.802002,16.462,88.802002,15.818L88.802002,12.584L91.419998,11.968L91.349998,11.128C90.496002,11.323999,89.641998,11.52,88.802002,11.702L88.802002,9.3360004L92.176003,9.3360004C92.358002,10.889999,92.624001,12.29,92.959999,13.466C91.952003,14.404,90.804001,15.202,89.613998,15.79C89.837997,15.986,90.117996,16.294001,90.272003,16.532C91.321999,15.958,92.358002,15.23,93.281998,14.418C93.926003,16.084,94.793999,17.106001,95.914001,17.106001C96.921997,17.106001,97.272003,16.42,97.440002,14.124C97.188004,14.026,96.851997,13.816,96.655998,13.634C96.571999,15.44,96.389999,16.167999,95.998001,16.167999C95.242004,16.167999,94.57,15.243999,94.038002,13.69C95.017998,12.682,95.858002,11.548,96.487999,10.358L95.662003,10.007999ZM111.188,11.379999L111.188,10.497999L105.476,10.497999L105.476,6.9139996L110.614,6.9139996L110.614,6.0179996L105.476,6.0179996L105.476,4.3099995L104.51,4.3099995L104.51,6.0179996L99.512001,6.0179996L99.512001,6.9139996L104.51,6.9139996L104.51,10.497999L98.839996,10.497999L98.839996,11.379999L103.852,11.379999C102.578,13.13,100.478,14.838,98.559998,15.664C98.769997,15.846,99.064003,16.195999,99.218002,16.434C101.08,15.496,103.138,13.774,104.51,11.87L104.51,17.049999L105.476,17.049999L105.476,11.828C106.848,13.746,108.934,15.538,110.838,16.476C110.992,16.238001,111.286,15.874,111.482,15.706C109.564,14.866,107.45,13.13,106.148,11.379999L111.188,11.379999ZM100.688,7.5999994C101.234,8.4259996,101.78,9.5739994,101.976,10.288L102.844,9.9379997C102.648,9.2099991,102.074,8.118,101.486,7.2919998L100.688,7.5999994ZM107.968,10.33C108.472,9.6159992,109.102,8.4960003,109.592,7.5439997L108.626,7.2220001C108.304,8.0760002,107.674,9.2939997,107.184,10.049999L107.968,10.33ZM119.588,9.9659996L119.588,9.2099991L116.732,9.2099991C116.816,8.8739996,116.858,8.566,116.858,8.3139992L116.858,8.0340004L119.21,8.0340004L119.21,7.2919998L116.858,7.2919998L116.858,6.2139997L119.476,6.2139997L119.476,5.4439993L116.858,5.4439993L116.858,4.3099995L115.92,4.3099995L115.92,5.4439993L112.994,5.4439993L112.994,6.2139997L115.92,6.2139997L115.92,7.2919998L113.288,7.2919998L113.288,8.0340004L115.92,8.0340004L115.92,8.2999992C115.92,8.552,115.878,8.8739996,115.766,9.2099991L112.756,9.2099991L112.756,9.9659996L115.402,9.9659996C114.982,10.61,114.254,11.254,113.064,11.674C113.274,11.856,113.568,12.15,113.708,12.346C115.192,11.743999,116.004,10.834,116.438,9.9659996L119.588,9.9659996ZM124.054,12.346L119.448,12.346L119.448,11.24L118.496,11.24L118.496,12.346L114.17,12.346L114.17,16.322001L115.108,16.322001L115.108,13.2L118.496,13.2L118.496,17.049999L119.448,17.049999L119.448,13.2L123.102,13.2L123.102,15.216C123.102,15.412,123.046,15.454,122.808,15.468C122.584,15.482,121.758,15.482,120.834,15.468C120.96,15.692,121.1,16.014,121.156,16.266001C122.346,16.266001,123.074,16.266001,123.508,16.125999C123.928,15.986,124.054,15.734,124.054,15.23L124.054,12.346ZM124.404,4.8559999L124.25,4.8979998L120.204,4.8979998L120.204,11.757999L121.1,11.757999L121.1,5.71L123.648,5.71C123.256,6.3259993,122.766,7.04,122.262,7.6700001C123.536,8.3699999,123.998,9,124.012,9.5319996C124.012,9.8260002,123.9,10.035999,123.648,10.148C123.48,10.204,123.27,10.246,123.046,10.26C122.626,10.288,122.108,10.288,121.478,10.218C121.632,10.441999,121.758,10.778,121.786,11.016C122.332,11.058,122.934,11.058,123.424,11.016C123.69,10.988,124.012,10.903999,124.25,10.778C124.684,10.554,124.922,10.176,124.922,9.5879993C124.908,8.9440002,124.488,8.2859993,123.27,7.5439997C123.872,6.8439999,124.502,5.9899998,125.034,5.2479992L124.404,4.8559999ZM129.79401,4.3519993C128.996,6.5079994,127.68,8.6079998,126.28,9.9659996C126.462,10.176,126.728,10.652,126.826,10.875999C127.33,10.33,127.848,9.6999998,128.32401,9.0139999L128.32401,17.035999L129.22,17.035999L129.22,7.6279993C129.78,6.6759996,130.27,5.6399994,130.67599,4.618L129.79401,4.3519993ZM132.356,10.218C131.95,11.898,131.278,13.578,130.396,14.656C130.62,14.782,131.01199,15.048,131.194,15.174C132.048,13.998,132.804,12.248,133.252,10.4L132.356,10.218ZM138.32001,7.8940001C138.194,8.6219997,138.054,9.3920002,137.942,9.9099998L138.726,10.063999C138.922,9.3360004,139.174,8.1459999,139.342,7.1379995L138.726,6.9839993L138.57201,7.026L132.72,7.026C133.01401,6.2419996,133.252,5.4019995,133.46201,4.5759993L132.552,4.3659992C132.09,6.4379997,131.32001,8.4540005,130.27,9.7700005C130.494,9.9099998,130.858,10.218,131.026,10.358C131.51601,9.6719999,131.978,8.8459997,132.384,7.8940001L134.61,7.8940001L134.61,15.902C134.61,16.084,134.554,16.139999,134.37199,16.139999C134.19,16.139999,133.57401,16.153999,132.90201,16.125999C133.04201,16.406,133.18201,16.798,133.23801,17.077999C134.106,17.077999,134.67999,17.049999,135.058,16.882C135.408,16.728001,135.52,16.448,135.52,15.902L135.52,7.8940001L138.32001,7.8940001ZM136.62601,10.386C137.41,11.87,138.12399,13.844,138.362,15.118L139.244,14.824C139.006,13.536,138.26401,11.604,137.452,10.12L136.62601,10.386ZM142.12801,6.8299999L151.802,6.8299999L151.802,8.9440002L152.754,8.9440002L152.754,5.934L147.784,5.934C147.57401,5.4159994,147.196,4.7299995,146.86,4.198L145.936,4.4499998C146.216,4.8979998,146.496,5.4579992,146.692,5.934L141.20399,5.934L141.20399,8.9440002L142.12801,8.9440002L142.12801,6.8299999ZM150.808,9.2659998L150.808,8.3979998L143.164,8.3979998L143.164,9.2659998L150.808,9.2659998ZM149.758,15.972C149.17,15.972,149.058,15.902,149.058,15.496L149.058,11.87L153.146,11.87L153.146,10.988L140.84,10.988L140.84,11.87L144.634,11.87C144.438,14.432,143.836,15.678,140.672,16.322001C140.854,16.49,141.092,16.854,141.162,17.077999C144.592,16.322001,145.362,14.824,145.586,11.87L148.12,11.87L148.12,15.51C148.12,16.546,148.45599,16.826,149.674,16.826L151.87199,16.826C152.95,16.826,153.23,16.364,153.342,14.46C153.076,14.39,152.698,14.25,152.48801,14.096C152.43201,15.72,152.34801,15.972,151.802,15.972L149.758,15.972ZM166.502,6.0179996C165.942,5.5279999,164.85001,4.842,163.95399,4.408L163.408,4.9819994C164.28999,5.4439993,165.396,6.158,165.92799,6.6479998L166.502,6.0179996ZM165.466,8.79C164.99001,10.246,164.36,11.548,163.576,12.682C163.198,11.323999,162.918,9.5879993,162.778,7.6420002L167.244,7.6420002L167.244,6.7319994L162.70801,6.7319994C162.666,5.9619999,162.65201,5.1499996,162.65201,4.3239994L161.686,4.3239994C161.686,5.1359997,161.714,5.948,161.756,6.7319994L155.87601,6.7319994L155.87601,10.624C155.87601,12.416,155.75,14.809999,154.57401,16.518C154.798,16.629999,155.19,16.966,155.34399,17.148001C156.618,15.314,156.828,12.57,156.828,10.638L156.828,10.386L159.51601,10.386C159.46001,12.92,159.39,13.83,159.194,14.054C159.09599,14.18,158.95599,14.194,158.75999,14.194C158.508,14.194,157.892,14.194,157.22,14.138C157.37399,14.375999,157.472,14.726,157.48599,15.006C158.172,15.048,158.81599,15.048,159.17999,15.02C159.558,14.978,159.782,14.894,159.978,14.628C160.272,14.278,160.356,13.116,160.42599,9.9519997L160.42599,9.5319996L156.828,9.5319996L156.828,7.6420002L161.826,7.6420002C161.994,9.9379997,162.33,11.982,162.87601,13.592C161.938,14.67,160.832,15.552,159.558,16.224001C159.76801,16.406,160.09,16.784,160.23,16.98C161.364,16.322001,162.358,15.524,163.226,14.586C163.884,16.056,164.73801,16.952,165.81599,16.952C166.838,16.952,167.188,16.252001,167.356,13.914C167.118,13.844,166.76801,13.634,166.558,13.424C166.474,15.286,166.29201,16.014,165.886,16.014C165.13,16.014,164.45801,15.188,163.92599,13.76C164.96201,12.43,165.774,10.848,166.37601,9.0279999L165.466,8.79ZM173.222,11.954C173.88,11.954,174.56599,11.534,175.09801,10.596L174.45399,10.134C174.09,10.82,173.698,11.086,173.25,11.086C172.368,11.086,171.68201,9.7419996,170.464,9.7419996C169.806,9.7419996,169.12,10.162,168.57401,11.128L169.23199,11.576C169.59599,10.889999,169.98801,10.61,170.436,10.61C171.31799,10.61,171.99001,11.954,173.222,11.954Z" fill="#676773" fill-opacity="1"/></g></svg>