<svg xmlns="http://www.w3.org/2000/svg" fill="none" version="1.1" width="28" height="28" viewBox="0 0 28 28">
  <path d="M34.373170125,9.335587026953124C34.373170125,9.335587026953124,24.757412425,12.797258426953125,24.757412425,12.797258426953125C24.757412425,12.797258426953125,28.585875525,14.295355826953125,28.585875525,14.295355826953125C28.965050725,14.443726026953126,29.265041825,14.743717226953125,29.413412525,15.122900026953126C29.413412525,15.122900026953126,30.911495225,18.951374626953125,30.911495225,18.951374626953125C30.911495225,18.951374626953125,34.373170125,9.335587026953124,34.373170125,9.335587026953124C34.373170125,9.335587026953124,34.373170125,9.335587026953124,34.373170125,9.335587026953124ZM35.046263124999996,7.541646349953125C35.743589125,7.290597586953125,36.418142125,7.965148026953125,36.167111125,8.662516126953125C36.167111125,8.662516126953125,31.758463825,20.908825626953124,31.758463825,20.908825626953124C31.484438925,21.669951626953125,30.413373025,21.684622626953125,30.118543125000002,20.931308626953125C30.118543125000002,20.931308626953125,28.053882125,15.654891926953125,28.053882125,15.654891926953125C28.053882125,15.654891926953125,22.777459565,13.590202826953124,22.777459565,13.590202826953124C22.024129595,13.295417326953125,22.038836035,12.224316126953125,22.799953935,11.950312626953124C22.799953935,11.950312626953124,35.046263124999996,7.541646349953125,35.046263124999996,7.541646349953125C35.046263124999996,7.541646349953125,35.046263124999996,7.541646349953125,35.046263124999996,7.541646349953125Z" fill-rule="evenodd" fill="#FFFFFF" fill-opacity="1" transform="matrix(-1,0,0,1,44.44140625,0)"/>
</svg>
