<svg xmlns="http://www.w3.org/2000/svg" fill="none" version="1.1" width="192" height="39" viewBox="0 0 192 39"><rect x="0" y="0" width="192" height="39" rx="19.5" fill="#4E5969"/><g transform="translate(-79,-354)"><path d="M155.592001,375.792L155.592001,379.104L149.5440001,379.104L149.5440001,375.792L155.592001,375.792ZM148.0560002,381.264L149.5440001,381.264L149.5440001,380.48L155.592001,380.48L155.592001,381.216L157.160001,381.216L157.160001,374.416L148.0560002,374.416L148.0560002,381.264ZM146.9200001,370.96L146.9200001,369.2159996C150.4880004,368.9919996,154.408001,368.5599995,157.224001,367.8879995L155.992001,366.671999C153.512,367.3119993,149.1760001,367.7599993,145.3840001,367.9839993L145.3840001,372.176C145.3840001,374.591999,145.2240002,377.936,143.51200002,380.256001C143.86400002,380.448,144.5040001,380.976,144.7600001,381.28000099999997C146.5680001,378.816,146.9040003,375.024,146.9200001,372.384L158.280001,372.384L158.280001,370.96L146.9200001,370.96ZM170.6,375.872L170.6,378.976L163.32,378.976L163.32,375.872L170.6,375.872ZM161.816,381.264L163.32,381.264L163.32,380.416L170.6,380.416L170.6,381.23199999999997L172.184002,381.23199999999997L172.184002,374.448L161.816,374.448L161.816,381.264ZM168.45600100000001,369.0079994C169.144001,369.6479998,169.880001,370.4159994,170.568001,371.184L163.128,371.4879999C164.440001,370.2399998,165.799999,368.6879997,166.952,367.0719995L165.464001,366.4319992C164.296001,368.3679991,162.488001,370.3359995,161.927999,370.8639994C161.4,371.3759995,161,371.7119999,160.615999,371.776C160.776001,372.191999,161.032,372.927999,161.096001,373.23199999999997C161.816,372.976,162.84,372.944,171.639999,372.48C172.007999,372.944,172.328001,373.392,172.568001,373.792L173.816002,372.864C172.984001,371.552,171.112,369.5839996,169.608002,368.223999L168.45600100000001,369.0079994ZM178.903999,374.959999L178.903999,373.6L182.344002,373.6L182.344002,374.176C182.344002,374.448,182.344002,374.704,182.312,374.959999L178.903999,374.959999ZM178.903999,371.0879993L182.344002,371.0879993L182.344002,372.448L178.903999,372.448L178.903999,371.0879993ZM187.448002,371.0879993L187.448002,372.448L183.89600000000002,372.448L183.89600000000002,371.0879993L187.448002,371.0879993ZM187.448002,374.959999L183.863998,374.959999C183.89600000000002,374.704,183.89600000000002,374.464,183.89600000000002,374.191999L183.89600000000002,373.6L187.448002,373.6L187.448002,374.959999ZM188.920002,376.176L188.920002,369.8719997L183.89600000000002,369.8719997L183.89600000000002,368.7199993L189.928001,368.7199993L189.928001,367.3759995L176.088001,367.3759995L176.088001,368.7199993L182.344002,368.7199993L182.344002,369.8719997L177.495998,369.8719997L177.495998,376.176L182.10399999999998,376.176C181.911999,376.832,181.576,377.44,180.968002,377.984C180.264,377.52,179.672001,376.944,179.175999,376.224L177.880001,376.736C178.408001,377.568,179.015999,378.256001,179.736,378.799999C178.776001,379.264,177.512001,379.664,175.768002,379.968C176.10399999999998,380.30400099999997,176.504002,380.944,176.68,381.28000099999997C178.632,380.864,180.088001,380.32,181.127998,379.664C183.368,380.76800000000003,186.279999,381.040001,189.863998,381.167999C189.94400000000002,380.672001,190.216,380.048,190.487999,379.69599900000003C187.096001,379.664,184.408001,379.488001,182.360001,378.688C183.096001,377.936,183.496002,377.087999,183.688,376.176L188.920002,376.176ZM199.048,368.2079992L196.45600100000001,368.2079992C196.264,367.6959991,195.94400000000002,367.0239992,195.672001,366.5119991L194.360001,366.8479996C194.55200200000002,367.2479992,194.760002,367.7599993,194.936001,368.2079992L192.00799899999998,368.2079992L192.00799899999998,369.4399996L199.048,369.4399996L199.048,368.2079992ZM193.063999,376.256C192.776001,377.216,192.248001,378.16,191.639999,378.816C191.928001,378.992001,192.408001,379.327999,192.632,379.535999C193.256001,378.799999,193.880001,377.664,194.264,376.576L193.063999,376.256ZM199.080002,375.743999L199.080002,374.48L196.248001,374.48L196.248001,373.024L199.304001,373.024L199.304001,371.776L197.431999,371.776C197.688,371.184,197.976002,370.448,198.248001,369.7439995L196.872002,369.4559994C196.695999,370.1279993,196.375999,371.1039991,196.088001,371.776L193.880001,371.776L194.776001,371.5359993C194.695999,370.9759998,194.439999,370.0959997,194.136002,369.4719992L192.936001,369.7759991C193.223999,370.3999996,193.431999,371.2159996,193.512001,371.776L191.751999,371.776L191.751999,373.024L194.903999,373.024L194.903999,374.48L191.848,374.48L191.848,375.743999L194.903999,375.743999L194.903999,379.52C194.903999,379.68,194.872002,379.728001,194.695999,379.728001C194.52,379.728001,194.040001,379.728001,193.528,379.712C193.703999,380.063999,193.880001,380.608,193.928001,380.959999C194.743999,380.959999,195.304001,380.927999,195.736,380.71999900000003C196.136002,380.528,196.248001,380.176001,196.248001,379.535999L196.248001,375.743999L199.080002,375.743999ZM196.728001,376.704C197.208,377.472,197.751999,378.528,198.00799899999998,379.200001L199.048,378.576C198.792,377.92,198.248001,376.927999,197.720001,376.176L196.728001,376.704ZM206.312,371.8879995L201.192001,371.8879995L201.192001,369.0879993C202.824001,368.7999992,204.55200200000002,368.4159994,205.880001,367.9039993L204.695999,366.815999C203.560001,367.3119993,201.576,367.8079996,199.799999,368.1119995L199.799999,373.6C199.799999,375.664,199.688,378.336,198.424,380.20799999999997C198.728001,380.368,199.33599900000002,380.816,199.560001,381.087999C200.984001,379.072001,201.192001,375.888,201.192001,373.6L201.192001,373.264L203.240002,373.264L203.240002,381.200001L204.695999,381.200001L204.695999,373.264L206.312,373.264L206.312,371.8879995Z" fill="#FFFFFF" fill-opacity="1"/></g></svg>