<svg xmlns="http://www.w3.org/2000/svg" xmlns:xlink="http://www.w3.org/1999/xlink" fill="none" version="1.1" width="192" height="39" viewBox="0 0 192 39"><g><rect x="0" y="0" width="192" height="39" rx="19.5" fill="#4E5969" fill-opacity="1"/><g><path d="M73.03999999999999,14.9919996C72.8640003,14.3199997,72.4960003,13.263999,72.1920004,12.463999699999999L70.7200003,12.8319998C71.0080004,13.647999800000001,71.3600001,14.7359991,71.4880004,15.4399996L73.03999999999999,14.9919996ZM78.48,15.5039997L65.5680001,15.5039997L65.5680001,17.0079994L78.48,17.0079994L78.48,15.5039997ZM70.6880002,24.16C70.4160004,22.384,69.7920003,19.759999999999998,69.1680002,17.6799994L67.6640003,18.048000000000002C68.2400002,20.096,68.8800001,22.8,69.10400010000001,24.559999L70.6880002,24.16ZM74.224001,25.120001C75.008,23.168,75.904,20.368000000000002,76.528001,18.032L74.848001,17.711999900000002C74.368,20,73.4560003,23.136,72.6240005,25.120001L64.88000005,25.120001L64.88000005,26.624001L79.136001,26.624001L79.136001,25.120001L74.224001,25.120001ZM86.54400100000001,14.7199993L86.54400100000001,16.4959993L83.200001,16.4959993L83.200001,14.7199993L86.54400100000001,14.7199993ZM83.200001,19.695999L83.200001,17.823999399999998L86.54400100000001,17.823999399999998L86.54400100000001,19.695999L83.200001,19.695999ZM84.976,22.288C85.264,22.752000000000002,85.535999,23.264,85.824001,23.792L83.200001,24.591999L83.200001,21.024L88.03200100000001,21.024L88.03200100000001,13.3919992L81.68,13.3919992L81.68,24.271999C81.68,24.864,81.280001,25.167999,80.976,25.327999C81.232,25.68,81.488001,26.4,81.584,26.848C81.968,26.559999,82.54400100000001,26.32,86.44800000000001,25.007999C86.720001,25.568001,86.928001,26.096001,87.08800099999999,26.496L88.44800000000001,25.76C88.03200100000001,24.688,87.056,22.96,86.24,21.664L84.976,22.288ZM94.639999,13.5039997L89.232,13.5039997L89.232,27.264L90.720001,27.264L90.720001,14.8639994L93.18400199999999,14.8639994L93.18400199999999,22.608C93.18400199999999,22.816000000000003,93.120001,22.880000000000003,92.896,22.896C92.70400000000001,22.912,92.016001,22.912,91.312,22.880000000000003C91.52,23.264,91.695999,23.887999999999998,91.743999,24.288C92.832001,24.288,93.552002,24.271999,94.048,24.016001C94.512001,23.792,94.639999,23.36,94.639999,22.624000000000002L94.639999,13.5039997ZM99.903999,20.959999L99.903999,19.6L103.344002,19.6L103.344002,20.176000000000002C103.344002,20.448,103.344002,20.704,103.312,20.959999L99.903999,20.959999ZM99.903999,17.0879993L103.344002,17.0879993L103.344002,18.448L99.903999,18.448L99.903999,17.0879993ZM108.448002,17.0879993L108.448002,18.448L104.896,18.448L104.896,17.0879993L108.448002,17.0879993ZM108.448002,20.959999L104.86399800000001,20.959999C104.896,20.704,104.896,20.464,104.896,20.191999L104.896,19.6L108.448002,19.6L108.448002,20.959999ZM109.920002,22.176000000000002L109.920002,15.8719997L104.896,15.8719997L104.896,14.7199993L110.928001,14.7199993L110.928001,13.375999499999999L97.08800099999999,13.375999499999999L97.08800099999999,14.7199993L103.344002,14.7199993L103.344002,15.8719997L98.495998,15.8719997L98.495998,22.176000000000002L103.104,22.176000000000002C102.91199900000001,22.832,102.576,23.439999999999998,101.968002,23.984C101.26400000000001,23.52,100.672001,22.944000000000003,100.17599899999999,22.224L98.880001,22.736C99.408001,23.567999999999998,100.015999,24.256001,100.73599999999999,24.799999C99.77600100000001,25.264,98.512001,25.664,96.768002,25.968C97.104,26.304001,97.504002,26.944,97.68,27.280001C99.632,26.864,101.08800099999999,26.32,102.12799799999999,25.664C104.368,26.768,107.279999,27.040001,110.86399800000001,27.167999C110.944,26.672001,111.21600000000001,26.048,111.487999,25.695999C108.096001,25.664,105.408001,25.488001,103.360001,24.688C104.096001,23.936,104.496002,23.087999,104.688,22.176000000000002L109.920002,22.176000000000002ZM120.048,14.2079992L117.456001,14.2079992C117.26400000000001,13.6959991,116.944,13.0239992,116.672001,12.5119991L115.360001,12.8479996C115.552002,13.247999199999999,115.760002,13.7599993,115.936001,14.2079992L113.007999,14.2079992L113.007999,15.4399996L120.048,15.4399996L120.048,14.2079992ZM114.063999,22.256C113.77600100000001,23.216,113.248001,24.16,112.639999,24.816C112.928001,24.992001,113.408001,25.327999,113.632,25.535999C114.256001,24.799999,114.880001,23.664,115.26400000000001,22.576L114.063999,22.256ZM120.08000200000001,21.743999000000002L120.08000200000001,20.48L117.248001,20.48L117.248001,19.024L120.304001,19.024L120.304001,17.776L118.43199899999999,17.776C118.688,17.183999999999997,118.976002,16.448,119.248001,15.743999500000001L117.87200200000001,15.4559994C117.695999,16.1279993,117.37599900000001,17.1039991,117.08800099999999,17.776L114.880001,17.776L115.77600100000001,17.5359993C115.695999,16.9759998,115.439999,16.0959997,115.13600199999999,15.471999199999999L113.936001,15.7759991C114.22399899999999,16.3999996,114.43199899999999,17.2159996,114.512001,17.776L112.751999,17.776L112.751999,19.024L115.903999,19.024L115.903999,20.48L112.848,20.48L112.848,21.743999000000002L115.903999,21.743999000000002L115.903999,25.52C115.903999,25.68,115.87200200000001,25.728001,115.695999,25.728001C115.52000000000001,25.728001,115.04000099999999,25.728001,114.52799999999999,25.712C114.70399900000001,26.063999,114.880001,26.608,114.928001,26.959999C115.743999,26.959999,116.304001,26.927999,116.73599999999999,26.719999C117.13600199999999,26.528,117.248001,26.176001,117.248001,25.535999L117.248001,21.743999000000002L120.08000200000001,21.743999000000002ZM117.728001,22.704C118.208,23.472,118.751999,24.528,119.007999,25.200001L120.048,24.576C119.792,23.92,119.248001,22.927999,118.720001,22.176000000000002L117.728001,22.704ZM127.312,17.8879995L122.192001,17.8879995L122.192001,15.0879993C123.82400100000001,14.7999992,125.552002,14.4159994,126.880001,13.903999299999999L125.695999,12.815999C124.560001,13.3119993,122.576,13.807999599999999,120.799999,14.1119995L120.799999,19.6C120.799999,21.664,120.688,24.336,119.424,26.208C119.728001,26.368,120.335999,26.816,120.560001,27.087999C121.984001,25.072001,122.192001,21.887999999999998,122.192001,19.6L122.192001,19.264L124.240002,19.264L124.240002,27.200001L125.695999,27.200001L125.695999,19.264L127.312,19.264L127.312,17.8879995Z" fill="#FFFFFF" fill-opacity="1"/></g></g></svg>