<svg xmlns="http://www.w3.org/2000/svg" xmlns:xlink="http://www.w3.org/1999/xlink" fill="none" version="1.1" width="506" height="36" viewBox="0 0 506 36"><g><path d="M6.1440001,6.9839993C4.848,10.487999,2.7120001,13.992,0.456,16.223999C0.81599998,16.728001,1.464,17.927999,1.6800001,18.48C2.3759999,17.736,3.072,16.896,3.744,15.96L3.744,28.872L5.8559999,28.872L5.8559999,12.648C6.7680001,11.016,7.5840001,9.3120003,8.2320004,7.6079998L6.1440001,6.9839993ZM10.512,17.256001C9.9119997,20.015999,8.8319998,22.776001,7.4159999,24.552C7.9200001,24.816,8.9040003,25.392,9.3120003,25.752001C10.728,23.784,11.976,20.76,12.696,17.664L10.512,17.256001ZM20.544001,13.392C20.4,14.544,20.232,15.672,20.064001,16.487999L21.960001,16.848C22.271999,15.504,22.704,13.392,23.016001,11.568L21.455999,11.256L21.096001,11.328L12.024,11.328C12.504,10.08,12.912,8.7840004,13.248,7.4640007L11.04,6.9839993C10.224,10.368,8.8559999,13.752,7.0560002,15.864C7.5840001,16.200001,8.4720001,16.92,8.8800001,17.327999C9.6960001,16.248001,10.464,14.904,11.184,13.392L14.424,13.392L14.424,26.304001C14.424,26.615999,14.304,26.688,13.992001,26.688C13.68,26.712,12.648,26.712,11.568,26.688C11.904,27.288,12.264,28.296,12.36,28.92C13.872,28.92,14.952,28.848,15.672,28.488001C16.392,28.104,16.632,27.455999,16.632,26.304001L16.632,13.392L20.544001,13.392ZM17.976,17.688C19.224001,20.184,20.328001,23.52,20.664,25.68L22.800001,24.912001C22.416,22.751999,21.288,19.535999,19.968,17.040001L17.976,17.688ZM32.136002,13.728C31.799999,16.464001,31.152,18.816,30.288,20.808001C29.52,20.184,28.68,19.584,27.912001,19.007999C28.344,17.424,28.776001,15.624,29.184,13.728L32.136002,13.728ZM33.096001,11.592L32.688,11.664L29.591999,11.664C29.903999,10.056,30.167999,8.4960003,30.360001,7.0319996L28.128,6.8880005C27.983999,8.3759995,27.743999,10.032,27.455999,11.664L25.056,11.664L25.056,13.728L27.024,13.728C26.544001,16.056,25.968,18.24,25.440001,19.848C26.664,20.736,28.007999,21.768,29.232,22.823999C28.032,24.768,26.496,26.184,24.672001,27.120001C25.152,27.504,25.752001,28.344,26.063999,28.896C27.983999,27.792,29.616001,26.280001,30.912001,24.312C31.872,25.223999,32.688,26.136,33.264,26.903999L34.728001,25.007999C34.104,24.191999,33.144001,23.232,32.040001,22.248001C33.264,19.584,34.104,16.175999,34.440002,11.927999L33.096001,11.592ZM47.015999,16.824001L41.952,16.824001L41.952,14.736C43.655998,13.224,45.288002,11.208,46.440002,9.4559994L44.903999,8.3759995L44.400002,8.4960003L35.375999,8.4960003L35.375999,10.535999L42.863998,10.535999C41.975998,11.856,40.799999,13.296,39.672001,14.28L39.672001,16.824001L34.368,16.824001L34.368,18.959999L39.672001,18.959999L39.672001,26.351999C39.672001,26.712,39.528,26.808001,39.144001,26.808001C38.784,26.832001,37.440002,26.832001,36.119999,26.784C36.431999,27.384001,36.767998,28.296,36.888,28.92C38.760002,28.92,39.984001,28.872,40.823997,28.535999C41.688,28.200001,41.952,27.6,41.952,26.375999L41.952,18.959999L47.015999,18.959999L47.015999,16.824001ZM52.152,29.880001C54.888,29.016001,56.568001,26.927999,56.568001,24.288C56.568001,22.464001,55.776001,21.288,54.264,21.288C53.16,21.288,52.223999,21.983999,52.223999,23.208C52.223999,24.431999,53.16,25.104,54.240002,25.104C54.360001,25.104,54.48,25.104,54.576,25.08C54.456001,26.544001,53.375999,27.648001,51.528,28.32L52.152,29.880001ZM94.223999,11.424C93.479996,10.296,91.872002,8.6639996,90.528,7.5119991L88.848,8.6639996C90.192001,9.8640003,91.751999,11.592,92.423996,12.72L94.223999,11.424ZM91.68,16.848C90.959999,18.216,90.024002,19.535999,88.944,20.76C88.584,19.296,88.32,17.688,88.080002,15.888L94.655998,15.888L94.655998,13.776L87.839996,13.776C87.648003,11.664,87.552002,9.3840008,87.576004,7.0799999L85.272003,7.0799999C85.295998,9.3600006,85.391998,11.616,85.584,13.776L80.496002,13.776L80.496002,10.007999C81.912003,9.7199993,83.279999,9.3840008,84.456001,9L82.895996,7.1280003C80.568001,7.9440002,76.751999,8.7119999,73.416,9.2159996C73.704002,9.6959991,73.991997,10.559999,74.112,11.064C75.407997,10.896,76.823997,10.704,78.239998,10.464001L78.239998,13.776L73.391998,13.776L73.391998,15.888L78.239998,15.888L78.239998,19.68C76.248001,20.063999,74.400002,20.4,72.984001,20.639999L73.608002,22.872C74.975998,22.584,76.536003,22.248001,78.239998,21.888L78.239998,26.16C78.239998,26.544001,78.096001,26.664,77.664001,26.688C77.255997,26.712,75.863998,26.712,74.400002,26.664C74.736,27.264,75.120003,28.296,75.239998,28.92C77.160004,28.92,78.503998,28.848,79.344002,28.488001C80.183998,28.128,80.496002,27.48,80.496002,26.16L80.496002,21.383999C81.888,21.096001,83.304001,20.76,84.671997,20.448L84.503998,18.456001L80.496002,19.248001L80.496002,15.888L85.800003,15.888C86.087997,18.360001,86.496002,20.664,87.071999,22.608C85.367996,24.096001,83.496002,25.368,81.528,26.280001C82.104004,26.784,82.704002,27.528,83.064003,28.08C84.744003,27.191999,86.328003,26.112,87.816002,24.84C88.872002,27.408001,90.288002,28.992001,92.112,28.992001C94.056,28.992001,94.800003,27.888,95.183998,23.808001C94.584,23.615999,93.816002,23.087999,93.311996,22.559999C93.192001,25.535999,92.903999,26.712,92.328003,26.712C91.344002,26.712,90.408005,25.368,89.615997,23.136C91.223999,21.504,92.592003,19.68,93.671997,17.688L91.68,16.848ZM113.784,11.016L102.048,11.016L102.048,9.407999L113.784,9.407999L113.784,11.016ZM113.784,14.184L102.048,14.184L102.048,12.576L113.784,12.576L113.784,14.184ZM116.04,7.7519989L99.888,7.7519989L99.888,15.816L116.04,15.816L116.04,7.7519989ZM109.344,23.4L116.976,23.4L116.976,21.455999L109.344,21.455999L109.344,19.176001L118.536,19.176001L118.536,17.208L97.512001,17.208L97.512001,19.176001L107.112,19.176001L107.112,25.896C105.24,25.392,103.896,24.336,103.032,22.392C103.272,21.695999,103.464,20.927999,103.632,20.136L101.4,19.823999C100.8,23.16,99.311996,25.799999,96.863998,27.360001C97.344002,27.719999,98.183998,28.535999,98.519997,28.944C99.984001,27.888,101.184,26.472,102.072,24.743999C104.04,27.792,107.088,28.464001,111.672,28.464001L118.296,28.464001C118.416,27.84,118.752,26.856001,119.064,26.351999C117.648,26.375999,112.848,26.4,111.792,26.375999C110.928,26.375999,110.088,26.351999,109.344,26.280001L109.344,23.4ZM122.328,27L133.032,27L133.032,24.648001L125.112,24.648001L125.112,18.936001L131.592,18.936001L131.592,16.584L125.112,16.584L125.112,11.664L132.76801,11.664L132.76801,9.3360004L122.328,9.3360004L122.328,27ZM136.48799,27L139.224,27L139.224,17.639999C140.32799,16.439999,141.312,15.84,142.2,15.84C143.71199,15.84,144.40799,16.751999,144.40799,19.032L144.40799,27L147.168,27L147.168,17.639999C148.27199,16.439999,149.23199,15.84,150.144,15.84C151.63199,15.84,152.35199,16.751999,152.35199,19.032L152.35199,27L155.112,27L155.112,18.695999C155.112,15.335999,153.81599,13.464,151.056,13.464C149.39999,13.464,148.056,14.496,146.75999,15.888C146.18399,14.375999,145.07999,13.464,143.112,13.464C141.48,13.464,140.15999,14.448,139.032,15.648L138.95999,15.648L138.74399,13.8L136.48799,13.8L136.48799,27ZM159.09599,27L161.832,27L161.832,17.639999C162.93599,16.439999,163.92,15.84,164.808,15.84C166.31999,15.84,167.01599,16.751999,167.01599,19.032L167.01599,27L169.776,27L169.776,17.639999C170.87999,16.439999,171.84,15.84,172.752,15.84C174.23999,15.84,174.95999,16.751999,174.95999,19.032L174.95999,27L177.72,27L177.72,18.695999C177.72,15.335999,176.424,13.464,173.664,13.464C172.008,13.464,170.664,14.496,169.368,15.888C168.79199,14.375999,167.68799,13.464,165.72,13.464C164.088,13.464,162.76799,14.448,161.64,15.648L161.56799,15.648L161.35199,13.8L159.09599,13.8L159.09599,27ZM184.82401,27.312C186.408,27.312,187.82401,26.52,189.024,25.488001L189.09599,25.488001L189.336,27L191.592,27L191.592,19.056C191.592,15.552,190.08,13.464,186.79199,13.464C184.67999,13.464,182.832,14.328,181.464,15.191999L182.496,17.063999C183.62399,16.344,184.92,15.72,186.312,15.72C188.256,15.72,188.808,17.063999,188.832,18.6C183.336,19.200001,180.936,20.664,180.936,23.496C180.936,25.823999,182.54399,27.312,184.82401,27.312ZM185.664,25.128C184.48799,25.128,183.59999,24.6,183.59999,23.304001C183.59999,21.816,184.92,20.832001,188.832,20.351999L188.832,23.591999C187.752,24.576,186.81599,25.128,185.664,25.128ZM197.56799,29.880001C200.304,29.016001,201.98399,26.927999,201.98399,24.288C201.98399,22.464001,201.192,21.288,199.67999,21.288C198.576,21.288,197.64,21.983999,197.64,23.208C197.64,24.431999,198.576,25.104,199.65601,25.104C199.776,25.104,199.896,25.104,199.992,25.08C199.87199,26.544001,198.79201,27.648001,196.944,28.32L197.56799,29.880001ZM223.56,6.9839993C222.26401,10.487999,220.12801,13.992,217.87199,16.223999C218.23199,16.728001,218.88,17.927999,219.09599,18.48C219.79201,17.736,220.48801,16.896,221.16,15.96L221.16,28.872L223.272,28.872L223.272,12.648C224.18401,11.016,225,9.3120003,225.64799,7.6079998L223.56,6.9839993ZM227.92799,17.256001C227.328,20.015999,226.248,22.776001,224.832,24.552C225.336,24.816,226.32001,25.392,226.728,25.752001C228.144,23.784,229.392,20.76,230.112,17.664L227.92799,17.256001ZM237.96001,13.392C237.81599,14.544,237.64799,15.672,237.48,16.487999L239.37601,16.848C239.688,15.504,240.12,13.392,240.43201,11.568L238.87199,11.256L238.51199,11.328L229.44,11.328C229.92,10.08,230.328,8.7840004,230.664,7.4640007L228.45599,6.9839993C227.64,10.368,226.272,13.752,224.472,15.864C225,16.200001,225.888,16.92,226.29601,17.327999C227.112,16.248001,227.88,14.904,228.60001,13.392L231.84,13.392L231.84,26.304001C231.84,26.615999,231.72,26.688,231.408,26.688C231.09601,26.712,230.064,26.712,228.98399,26.688C229.32001,27.288,229.67999,28.296,229.776,28.92C231.28799,28.92,232.368,28.848,233.088,28.488001C233.808,28.104,234.048,27.455999,234.048,26.304001L234.048,13.392L237.96001,13.392ZM235.392,17.688C236.64,20.184,237.744,23.52,238.08,25.68L240.216,24.912001C239.832,22.751999,238.70399,19.535999,237.384,17.040001L235.392,17.688ZM245.52,24.455999L245.52,19.152L249.98399,19.152L249.98399,24.455999L245.52,24.455999ZM249.98399,12.648L249.98399,17.208L245.52,17.208L245.52,12.648L249.98399,12.648ZM256.776,10.584C257.16,9.5279999,257.47198,8.4239998,257.76001,7.3199997L255.60001,6.816C254.88,9.9839993,253.608,13.176,252.024,15.24L252.024,10.704L248.18401,10.704C248.56799,9.6959991,249.024,8.4239998,249.43201,7.223999L247.008,6.816C246.864,7.9680004,246.504,9.552,246.168,10.704L243.48,10.704L243.48,28.247999L245.52,28.247999L245.52,26.424L252.024,26.424L252.024,15.408C252.576,15.72,253.416,16.32,253.776,16.656C254.54401,15.552,255.28799,14.16,255.96001,12.624L261.62399,12.624C261.31201,21.672001,261,25.296,260.23199,26.087999C259.96799,26.424,259.70401,26.496,259.224,26.496C258.62399,26.496,257.23199,26.472,255.696,26.351999C256.104,26.976,256.36801,27.912001,256.41602,28.511999C257.784,28.584,259.20001,28.608,260.04001,28.511999C260.952,28.392,261.52802,28.176001,262.12799,27.384001C263.08801,26.184,263.37601,22.464001,263.71201,11.639999C263.73599,11.352,263.73599,10.584,263.73599,10.584L256.776,10.584ZM259.84799,21.408001C259.12799,19.992001,257.496,17.712,256.224,16.056L254.472,17.040001C255.744,18.768,257.30402,21.119999,257.97601,22.584L259.84799,21.408001ZM276.72,19.728001C276.19202,19.08,273.81601,16.535999,273.07202,15.84L273.07202,15.648L276.81601,15.648L276.81601,13.559999L273.07202,13.559999L273.07202,10.007999C274.41602,9.7199993,275.664,9.3840008,276.72,9L275.47202,7.1520004C273.33603,8.0160007,269.85602,8.7600002,266.78403,9.2159996C267.048,9.6959991,267.33603,10.464001,267.40802,10.944C268.53601,10.799999,269.71201,10.632,270.91202,10.440001L270.91202,13.559999L266.85602,13.559999L266.85602,15.648L270.552,15.648C269.47202,18.216,267.74402,21.048,266.11203,22.68C266.47202,23.256001,267.00003,24.167999,267.24002,24.816C268.53601,23.375999,269.85602,21.167999,270.91202,18.864L270.91202,28.872L273.07202,28.872L273.07202,18.144001C273.936,19.32,274.94403,20.76,275.40002,21.552L276.72,19.728001ZM288.48001,27.384001C287.83203,24.624001,286.104,20.136,284.54401,16.703999L282.48001,17.448C283.29602,19.392,284.18402,21.624001,284.88,23.712L278.52002,24.6C280.24802,19.799999,281.88,13.728,282.91202,7.9680004L280.51202,7.5359993C279.552,13.559999,277.56003,20.304001,276.91202,22.104C276.24002,23.952,275.76001,25.128,275.11203,25.368C275.40002,25.992001,275.78403,27.096001,275.90402,27.552C276.64801,27.191999,277.72803,26.952,285.50403,25.728001C285.81601,26.688,286.05603,27.552,286.22403,28.296L288.48001,27.384001ZM300.02402,6.9359989C299.95203,10.775999,300.216,21.959999,290.40002,27.048C291.14401,27.528,291.86401,28.247999,292.24802,28.823999C297.67203,25.823999,300.216,20.976,301.41602,16.464001C302.68802,20.76,305.30402,26.040001,310.94403,28.704C311.25601,28.104,311.92801,27.312,312.57602,26.808001C304.20001,23.087999,302.73602,13.512,302.40002,10.511999C302.52002,9.0960007,302.54401,7.8479996,302.56802,6.9359989L300.02402,6.9359989ZM331.65601,10.223999C330.67203,9.2399998,328.608,7.7759991,327.12003,6.8400002L325.80002,8.3519993C327.28802,9.3840008,329.28003,10.92,330.24002,11.927999L331.65601,10.223999ZM322.68002,20.015999C322.51202,20.616001,322.29602,21.167999,322.104,21.647999L323.83203,22.248001C324.64801,20.304001,325.12802,17.040001,325.36801,14.592L323.68802,14.184C323.52002,16.032,323.20801,18.192001,322.70401,19.968C322.29602,19.32,320.59201,16.944,319.992,16.175999L319.992,15.72L322.65601,15.72L322.65601,13.656L319.992,13.656L319.992,9.7199993C320.95203,9.4799995,321.888,9.1679993,322.68002,8.8320007L321.33603,7.0319996C319.75201,7.7999992,317.20801,8.4720001,314.97601,8.9279995C315.19202,9.4319992,315.48001,10.152,315.60001,10.656C316.34402,10.535999,317.13602,10.392,317.92801,10.223999L317.92801,13.656L314.832,13.656L314.832,15.72L317.68802,15.72C316.89603,18.24,315.52802,21.119999,314.23203,22.751999C314.61603,23.351999,315.14401,24.312,315.36002,24.936001C316.272,23.688,317.18402,21.84,317.92801,19.896L317.92801,28.92L319.992,28.92L319.992,18.864C320.52002,19.92,321.09601,21.096001,321.384,21.768L322.68002,20.015999ZM329.42401,26.688C328.608,26.688,328.48801,26.52,328.48801,25.535999L328.48801,23.4C330.09601,21.264,331.44,18.84,332.61603,16.175999C333.45602,18.312,334.24802,20.976,334.51202,22.751999L336.552,22.176001C336.216,20.256001,335.328,17.4,334.34402,15.191999L332.85602,15.599999C333.74402,13.464,334.51202,11.208,335.18402,8.7840004L333.048,8.3759995C331.96802,12.576,330.48001,16.344,328.48801,19.584L328.48801,12.24L326.37601,12.24L326.37601,22.584C325.03201,24.264,323.496,25.704,321.76801,26.903999C322.29602,27.24,323.23203,28.007999,323.56802,28.416C324.552,27.648001,325.51202,26.832001,326.37601,25.92C326.44803,28.032,327.048,28.632,329.16,28.632L332.16,28.632C334.104,28.632,334.63202,27.576,334.87201,24.119999C334.29602,23.976,333.45602,23.639999,332.97601,23.256001C332.85602,26.087999,332.73602,26.688,331.96802,26.688L329.42401,26.688ZM360.26401,10.68C359.20801,9.7919998,357.09601,8.3759995,355.56003,7.4640007L354.26401,8.9519997C355.82401,9.9599991,357.888,11.448,358.87201,12.384L360.26401,10.68ZM349.44,13.104L354.45602,13.104L354.45602,17.375999L349.44,17.375999L349.44,13.104ZM356.68802,17.375999L356.68802,10.968L349.44,10.968L349.44,6.9359989L347.16,6.9359989L347.16,10.968L340.39203,10.968L340.39203,13.104L347.16,13.104L347.16,17.375999L338.95203,17.375999L338.95203,19.487999L347.16,19.487999L347.16,28.823999L349.44,28.823999L349.44,19.487999L357.69601,19.487999C357.45602,22.584,357.16803,24,356.68802,24.408001C356.40002,24.624001,356.13602,24.648001,355.65601,24.648001C355.05603,24.648001,353.54401,24.624001,352.05603,24.48C352.48801,25.08,352.75201,25.992001,352.80002,26.615999C354.28802,26.688,355.72803,26.688,356.496,26.639999C357.40802,26.568001,358.00803,26.4,358.56003,25.823999C359.328,25.056,359.68802,23.087999,360.048,18.335999C360.09601,18,360.14401,17.375999,360.14401,17.375999L356.68802,17.375999ZM365.56802,29.880001C368.30402,29.016001,369.98401,26.927999,369.98401,24.288C369.98401,22.464001,369.19202,21.288,367.68002,21.288C366.57602,21.288,365.64001,21.983999,365.64001,23.208C365.64001,24.431999,366.57602,25.104,367.65601,25.104C367.776,25.104,367.89603,25.104,367.992,25.08C367.87201,26.544001,366.79202,27.648001,364.94403,28.32L365.56802,29.880001ZM407.64001,11.424C406.89603,10.296,405.28802,8.6639996,403.94403,7.5119991L402.26401,8.6639996C403.608,9.8640003,405.16803,11.592,405.84003,12.72L407.64001,11.424ZM405.09601,16.848C404.37601,18.216,403.44,19.535999,402.36002,20.76C402,19.296,401.73602,17.688,401.496,15.888L408.07202,15.888L408.07202,13.776L401.25601,13.776C401.06403,11.664,400.96802,9.3840008,400.992,7.0799999L398.68802,7.0799999C398.71201,9.3600006,398.80801,11.616,399.00003,13.776L393.91202,13.776L393.91202,10.007999C395.328,9.7199993,396.69601,9.3840008,397.87201,9L396.31201,7.1280003C393.98401,7.9440002,390.16803,8.7119999,386.832,9.2159996C387.12003,9.6959991,387.40802,10.559999,387.52802,11.064C388.82401,10.896,390.24002,10.704,391.65601,10.464001L391.65601,13.776L386.80801,13.776L386.80801,15.888L391.65601,15.888L391.65601,19.68C389.664,20.063999,387.81601,20.4,386.40002,20.639999L387.02402,22.872C388.39203,22.584,389.95203,22.248001,391.65601,21.888L391.65601,26.16C391.65601,26.544001,391.51202,26.664,391.08002,26.688C390.67203,26.712,389.28003,26.712,387.81601,26.664C388.15201,27.264,388.53601,28.296,388.65601,28.92C390.57602,28.92,391.92001,28.848,392.76001,28.488001C393.60001,28.128,393.91202,27.48,393.91202,26.16L393.91202,21.383999C395.30402,21.096001,396.72,20.76,398.08801,20.448L397.92001,18.456001L393.91202,19.248001L393.91202,15.888L399.216,15.888C399.50403,18.360001,399.91202,20.664,400.48801,22.608C398.78403,24.096001,396.91202,25.368,394.94403,26.280001C395.52002,26.784,396.12003,27.528,396.48001,28.08C398.16,27.191999,399.74402,26.112,401.23203,24.84C402.28802,27.408001,403.70401,28.992001,405.52802,28.992001C407.47202,28.992001,408.216,27.888,408.60001,23.808001C408,23.615999,407.23203,23.087999,406.72803,22.559999C406.608,25.535999,406.32001,26.712,405.74402,26.712C404.76001,26.712,403.82401,25.368,403.03201,23.136C404.64001,21.504,406.00803,19.68,407.08801,17.688L405.09601,16.848ZM420.81601,16.007999L420.81601,20.808001L415.29602,20.808001L415.29602,16.007999L420.81601,16.007999ZM423.02402,22.92L423.02402,13.896L413.13602,13.896L413.13602,24.792L415.29602,24.792L415.29602,22.92L423.02402,22.92ZM432.09601,8.5200005L410.78403,8.5200005L410.78403,10.752001L426.91202,10.752001L426.91202,25.872C426.91202,26.375999,426.74402,26.52,426.216,26.544001C425.64001,26.544001,423.64801,26.568001,421.82401,26.472C422.18402,27.120001,422.64001,28.223999,422.76001,28.872C425.16,28.872,426.84003,28.848,427.87201,28.440001C428.88,28.104,429.24002,27.360001,429.24002,25.92L429.24002,10.752001L432.09601,10.752001L432.09601,8.5200005ZM447.79202,14.688C447.09601,13.151999,445.58401,10.896,444.16803,9.1919994L442.272,10.223999C443.64001,11.976,445.12802,14.352,445.776,15.888L447.79202,14.688ZM439.608,22.440001L439.608,8.6159992L437.18402,8.6159992L437.18402,22.512001C437.18402,23.688,436.17603,24.528,435.60001,24.912001C435.98401,25.296,436.608,26.184,436.82401,26.712C437.47202,26.087999,438.43201,25.511999,445.272,22.08C445.08002,21.576,444.81601,20.616001,444.69601,19.992001L439.608,22.440001ZM456.64801,27.336C455.54401,25.704,453.24002,23.304001,451.272,21.383999C452.83203,17.952,453.48001,13.559999,453.79202,7.9440002L451.41602,7.8479996C450.96002,18.192001,449.28003,24.096001,441.84003,27.096001C442.36801,27.528,443.25601,28.559999,443.54401,29.040001C446.54401,27.624001,448.68002,25.799999,450.19202,23.424C451.96802,25.247999,453.76801,27.360001,454.65601,28.823999L456.64801,27.336ZM478.22403,20.616001L470.496,20.616001L470.496,18.743999L468.16803,18.743999L468.16803,20.616001L461.42401,20.616001C463.58401,19.608,464.85602,18.24,465.48001,16.848L470.30402,16.848L470.30402,15.096L465.98401,15.096C466.00803,14.832,466.03201,14.616,466.03201,14.375999L466.03201,13.559999L469.65601,13.559999L469.65601,11.856L466.03201,11.856L466.03201,10.416L470.23203,10.416L470.23203,8.6399994L466.03201,8.6399994L466.03201,6.8640003L463.75201,6.8640003L463.75201,8.6399994L458.97601,8.6399994L458.97601,10.416L463.75201,10.416L463.75201,11.856L459.48001,11.856L459.48001,13.559999L463.75201,13.559999L463.75201,14.375999C463.75201,14.616,463.72803,14.832,463.68002,15.096L458.64001,15.096L458.64001,16.848L462.86401,16.848C462.16803,17.832001,460.94403,18.768,459.00003,19.32C459.48001,19.728001,460.20001,20.472,460.53601,20.976L460.94403,20.832001L460.94403,27.6L463.20001,27.6L463.20001,22.608L468.16803,22.608L468.16803,28.848L470.496,28.848L470.496,22.608L475.96802,22.608L475.96802,25.32C475.96802,25.608,475.84802,25.704,475.46402,25.728001C475.104,25.728001,473.71201,25.728001,472.34402,25.704C472.63202,26.208,472.96802,27.024,473.08801,27.6C474.98401,27.6,476.28003,27.6,477.14401,27.288C477.96002,26.976,478.22403,26.4,478.22403,25.344L478.22403,20.616001ZM478.44,7.7519989L478.08002,7.8479996L471.28802,7.8479996L471.28802,19.656L473.42401,19.656L473.42401,9.7439995L476.80801,9.7439995C476.23203,10.728001,475.53601,11.808,474.888,12.743999C476.90402,13.896,477.60001,14.904,477.60001,15.696C477.60001,16.175999,477.45602,16.464001,477.048,16.632C476.78403,16.728001,476.42401,16.776001,476.08801,16.799999C475.46402,16.848,474.72003,16.824001,473.78403,16.728001C474.12003,17.232,474.40802,18.048,474.45602,18.6C475.36801,18.672001,476.35202,18.672001,477.14401,18.6C477.62402,18.528,478.17603,18.383999,478.608,18.144001C479.42401,17.688,479.85602,16.992001,479.83203,15.888C479.83203,14.856,479.20801,13.704,477.26401,12.48C478.17603,11.328,479.20801,9.8880005,480.02402,8.6639996L478.44,7.7519989ZM487.56003,6.9839993C486.26401,10.487999,484.12802,13.992,481.87201,16.223999C482.23203,16.728001,482.88,17.927999,483.09601,18.48C483.79202,17.736,484.48801,16.896,485.16,15.96L485.16,28.872L487.272,28.872L487.272,12.648C488.18402,11.016,489.00003,9.3120003,489.64801,7.6079998L487.56003,6.9839993ZM491.92801,17.256001C491.328,20.015999,490.24802,22.776001,488.832,24.552C489.33603,24.816,490.32001,25.392,490.72803,25.752001C492.14401,23.784,493.39203,20.76,494.11203,17.664L491.92801,17.256001ZM501.96002,13.392C501.81601,14.544,501.64801,15.672,501.48001,16.487999L503.37601,16.848C503.68802,15.504,504.12003,13.392,504.43201,11.568L502.87201,11.256L502.51202,11.328L493.44,11.328C493.92001,10.08,494.328,8.7840004,494.664,7.4640007L492.45602,6.9839993C491.64001,10.368,490.272,13.752,488.47202,15.864C489.00003,16.200001,489.888,16.92,490.29602,17.327999C491.11203,16.248001,491.88,14.904,492.60001,13.392L495.84003,13.392L495.84003,26.304001C495.84003,26.615999,495.72,26.688,495.40802,26.688C495.09601,26.712,494.06403,26.712,492.98401,26.688C493.32001,27.288,493.68002,28.296,493.776,28.92C495.28802,28.92,496.36801,28.848,497.08801,28.488001C497.80801,28.104,498.048,27.455999,498.048,26.304001L498.048,13.392L501.96002,13.392ZM499.39203,17.688C500.64001,20.184,501.74402,23.52,502.08002,25.68L504.216,24.912001C503.83203,22.751999,502.70401,19.535999,501.384,17.040001L499.39203,17.688Z" fill="#4E5969" fill-opacity="1"/></g></svg>