<svg xmlns="http://www.w3.org/2000/svg" xmlns:xlink="http://www.w3.org/1999/xlink" fill="none" version="1.1" width="18" height="18" viewBox="0 0 18 18"><defs><clipPath id="master_svg0_41_06588"><rect x="0" y="0" width="18" height="18" rx="0"/></clipPath><mask id="master_svg1_41_06594" style="mask-type:luminance" maskUnits="userSpaceOnUse" x="-0.0001761913299560547" y="0" width="18.000410079956055" height="18"><path d="M0,0L18,0L18,18L0,18L0,0Z" fill="#FFFFFF" fill-opacity="1"/></mask></defs><g clip-path="url(#master_svg0_41_06588)"><g mask="url(#master_svg1_41_06594)"><path d="M17.810891808670043,3.3613448379211426C17.620325808670042,3.268605437921143,17.537760808670043,3.4462578379211424,17.427021808670045,3.5370406379211428C17.388674808670043,3.5663883379211425,17.356587808670042,3.604736437921143,17.324109808670045,3.6387798379211427C17.045107808670043,3.936953737921143,16.719544808670044,4.131823437921143,16.294196808670044,4.108344937921142C15.672803808670045,4.073910137921143,15.141804808670043,4.268779737921143,14.672239808670044,4.744606037921143C14.572456808670044,4.158040837921143,14.241021808670045,3.8086059379211425,13.737022808670044,3.5836060379211423C13.472891808670044,3.4662146379211425,13.206023808670045,3.3503887379211426,13.020934808670043,3.0960406679211427C12.891803808670044,2.915258107921143,12.856587808670044,2.7137362379211427,12.792021808670045,2.5157363979211427C12.750543808670043,2.3956059179211424,12.709457808670043,2.2731277629211424,12.572108808670045,2.2531711950211424C12.422239808670044,2.2296929569211428,12.363543808670045,2.3549102279211427,12.305239808670043,2.4601711179211425C12.070456808670045,2.8890405879211425,11.979674808670044,3.3617363379211427,11.988283808670044,3.8399102379211425C12.009021808670044,4.917171237921142,12.463326808670043,5.774910737921143,13.367239808670044,6.384953937921143C13.469761808670045,6.454606037921143,13.496371808670045,6.525041137921143,13.463892808670044,6.627171537921143C13.402457808670045,6.836910237921143,13.328891808670043,7.041171537921143,13.264327808670044,7.251693237921143C13.223240808670043,7.3859109379211425,13.161806808670043,7.414475937921143,13.017805808670044,7.356953637921142C12.531184808670044,7.147765637921142,12.089135808670044,6.847310037921143,11.715545808670043,6.4718237379211425C11.073023808670044,5.850823837921142,10.492327808670044,5.165258437921143,9.768023708670045,4.628388637921143Q9.515631908670043,4.442127937921143,9.251501308670043,4.275040837921143C8.512327408670044,3.5573887379211424,9.348545308670044,2.9680842779211427,9.542240408670043,2.8980408279211427C9.744545208670043,2.8244755279211424,9.611892908670043,2.5740408279211424,8.958023308670043,2.5771712079211424C8.303762708670044,2.5799103379211425,7.705457908670044,2.7982581879211423,6.942806008670044,3.0897799179211427Q6.772197008670044,3.1555191279211425,6.593762608670044,3.192692757921143C5.881066608670044,3.058521867921143,5.152189008670044,3.0327969179211425,4.431806808670044,3.1163883179211425C3.018024208670044,3.2736926379211426,1.889111008670044,3.9428230379211424,1.058763108670044,5.083475337921143C0.061327535670043946,6.454606037921143,-0.17345506132995606,8.013171237921142,0.11376231867004395,9.637866537921143C0.41624056867004394,11.350996537921143,1.290805708670044,12.769083837921142,2.633762408670044,13.877648837921143C4.027588608670044,15.027300837921143,5.631544808670044,15.590778837921142,7.462457408670044,15.482779837921143C8.573761208670044,15.418997837921143,9.812239908670044,15.269519837921143,11.208022808670044,14.087780837921143C11.560194808670044,14.263085837921142,11.929195808670045,14.333128837921143,12.542760808670044,14.385171837921142C13.015456808670043,14.429779837921142,13.470150808670043,14.362866837921143,13.821543808670043,14.289302837921143C14.372891808670044,14.172302837921142,14.334544808670044,13.661649837921143,14.135761808670043,13.568519837921142C12.519674808670043,12.815650837921142,12.874196808670044,13.122432837921142,12.550979808670045,12.874345837921142C13.373110808670043,11.902347037921142,14.610805808670044,10.892781737921142,15.095239808670044,7.621868637921143C15.132804808670043,7.361650437921143,15.100326808670044,7.198085737921143,15.095239808670044,6.987955137921142C15.092109808670044,6.860780737921143,15.121457808670044,6.810302737921143,15.267413808670044,6.796216037921143C15.673275808670043,6.754191837921143,16.067007808670045,6.633227337921142,16.426455808670045,6.440129237921143C17.473195808670045,5.867650237921143,17.896586808670044,4.928520237921143,17.995978808670046,3.8023462379211423C18.011238808670043,3.6297810379211426,17.993239808670044,3.4525201379211428,17.810891808670043,3.3613448379211426ZM8.685674908670045,13.500040837921143C7.118892908670044,12.268605837921143,6.358979008670044,11.862823037921142,6.045545308670044,11.880040637921143C5.751675408670044,11.898040337921143,5.804893208670044,12.233388437921143,5.869458408670044,12.452127837921143C5.936762608670044,12.668127837921142,6.024806308670044,12.816823837921143,6.147284308670044,13.006606837921142C6.233371508670044,13.131823837921143,6.291675308670044,13.318475837921143,6.062763008670044,13.458953837921143C5.557980308670044,13.770823837921142,4.681458708670044,13.353692837921143,4.639980508670044,13.333736837921142C3.619458708670044,12.731910837921143,2.765241108670044,11.938345437921143,2.164589208670044,10.853257637921143C1.583893308670044,9.808475537921144,1.246588908670044,8.688170437921142,1.191023808670044,7.491953337921142C1.1757629086700438,7.202388237921142,1.2606759086700439,7.100649337921142,1.548676008670044,7.047822937921143C1.9266791086700439,6.975458137921143,2.313987708670044,6.965544237921143,2.695197808670044,7.018475037921142C4.294458608670044,7.252474737921142,5.655023808670044,7.967387637921143,6.796066508670044,9.099040037921142C7.447588208670044,9.743909837921143,7.940240108670044,10.514387637921143,8.447761808670045,11.267257237921143C8.987761708670044,12.066691837921143,9.568457808670043,12.828561837921143,10.308022808670044,13.452691837921142C10.569022808670043,13.671822837921143,10.776804808670043,13.838126837921143,10.975979808670044,13.960604837921142C10.374544808670043,14.027909837921143,9.371240808670043,14.042778837921142,8.685674908670045,13.500040837921143ZM9.435805608670044,8.670170737921143C9.435508008670045,8.509279237921142,9.596440508670044,8.397942037921142,9.746892208670044,8.454953637921143C9.837710608670044,8.487743837921142,9.897838808670043,8.574404737921142,9.896762108670044,8.670953737921142C9.897434508670043,8.799226737921142,9.792586608670044,8.903015137921143,9.664326908670043,8.901040537921142C9.536825408670044,8.901938937921143,9.433604508670044,8.797657037921143,9.435805608670044,8.670170737921143ZM11.767979808670043,9.867170837921144C11.618110808670044,9.927823037921144,11.469022808670044,9.980649437921143,11.325805808670044,9.986909837921143C11.110328808670044,9.994120637921142,10.898930808670045,9.926970037921143,10.727109808670043,9.796735737921143C10.521675808670045,9.624170737921142,10.374936808670045,9.527909737921142,10.313110808670045,9.228170837921143C10.291698808670043,9.081585837921143,10.295669808670043,8.932408837921143,10.324849808670043,8.787170837921142C10.377674808670044,8.541822437921143,10.318980808670045,8.384127137921142,10.146022808670043,8.241693037921141C10.005544808670043,8.124692937921143,9.826327608670043,8.092605637921142,9.629892608670044,8.092605637921142C9.562652808670045,8.088226837921143,9.497379508670043,8.068122337921142,9.439327508670043,8.033910237921143C9.336789408670043,7.987545037921143,9.297060208670043,7.862527337921143,9.354023208670045,7.765475237921143C9.374761808670044,7.725170637921143,9.473761808670044,7.626170137921142,9.498023308670044,7.608170537921143C9.764892808670044,7.456344137921143,10.073240808670043,7.5060401379211426,10.357327808670044,7.619909737921143C10.621457808670044,7.727909537921143,10.821022808670044,7.925910037921143,11.108241808670044,8.206866237921144C11.401719808670045,8.544953337921143,11.454544808670043,8.638475437921143,11.622023808670043,8.892040237921144C11.753892808670043,9.090822737921142,11.874023808670044,9.295084037921143,11.955805808670044,9.527909737921142C12.005893808670043,9.674257737921142,11.941327808670044,9.793605837921142,11.767979808670043,9.867170837921144Z" fill="#4D6BFE" fill-opacity="1"/></g></g></svg>
