<svg xmlns="http://www.w3.org/2000/svg" xmlns:xlink="http://www.w3.org/1999/xlink" fill="none" version="1.1" width="18" height="18" viewBox="0 0 18 18"><defs><clipPath id="master_svg0_22_4221"><rect x="0" y="0" width="18" height="18" rx="0"/></clipPath></defs><g clip-path="url(#master_svg0_22_4221)"><path d="M0,0L18,0L18,18L0,18L0,0Z" fill="#FFFFFF" fill-opacity="1"/><path d="M8.993149639872742,17.627089629926683C8.890011639872741,17.62523162992668,8.806413539872741,17.710259629926682,8.810019339872742,17.813351629926682C8.806183739872742,17.91659662992668,8.889852439872742,18.001871629926683,8.993149639872742,18.00000262992668C9.096753939872741,18.002327629926683,9.180918539872742,17.916910629926683,9.177062839872741,17.813351629926682C9.180309139872742,17.71737362992668,9.107640139872741,17.635750629926683,9.011932239872742,17.627873629926682L8.993149639872742,17.627089629926683ZM7.253019239872741,4.0237846299266815C7.921712739872742,4.2381930299266815,8.290458539872741,4.953623229926682,8.077105839872742,5.622654429926682L8.023888439872742,5.7517847299266815L8.012149239872741,5.7819151299266816L7.998453539872742,5.822219329926681C7.945940839872741,5.939753929926682,7.919253739872742,6.067186829926682,7.920192639872742,6.1959152299266815C7.894366639872742,6.728089329926681,8.273149339872742,7.1550021299266815,8.810018439872742,7.181220029926681L9.084322839872742,7.181220029926681C10.066496739872742,7.221132729926682,10.838149439872742,8.060872029926681,10.799018439872741,9.073568329926681C10.759887439872742,10.07256762992668,9.935018439872742,10.858698629926682,8.940322739872741,10.818785629926682L8.810018439872742,10.818785629926682C8.273931339872743,10.832090629926682,7.854453439872742,11.29891562992668,7.880670939872742,11.844785629926681C7.880670939872742,11.937916629926681,7.894366639872742,12.016959629926681,7.920583639872742,12.097568629926682C8.076998639872741,12.38063162992668,8.33393373987274,12.594696629926682,8.640583439872742,12.697437629926682C9.202888339872741,12.870003629926682,9.778104639872742,12.603524629926682,10.065713739872741,12.110872629926682L10.079018439872742,12.084654629926682C10.380323339872742,11.604915629926682,10.956322439872741,11.364654629926681,11.519018439872742,11.551306629926682C12.159583439872742,11.764567629926681,12.552453439872743,12.470871629926682,12.343497439872742,13.176784629926681C12.141836439872742,13.835609629926681,11.443863439872741,14.205804629926682,10.785323439872741,14.003219629926681C10.503785939872742,13.909405629926681,10.263456239872742,13.720929629926681,10.105235939872742,13.469871629926681L10.092714239872741,13.443653629926681C9.942453239872743,13.20143662992668,9.745235339872742,13.008914629926682,9.454496239872741,12.910306629926682L9.412236139872741,12.897002629926682C8.852802139872741,12.709349629926681,8.238787039872742,12.943807629926681,7.946801539872742,13.456567629926681C7.7704733398727415,13.749026629926682,7.481697939872742,13.956163629926682,7.148149339872742,14.029436629926682C6.471786839872742,14.174345629926682,5.805358739872742,13.745854629926681,5.656496839872742,13.070349629926682C5.499584039872742,12.390654629926681,5.905366339872741,11.697654629926681,6.5991491398727415,11.538001629926681Q6.708714839872742,11.513741629926681,6.821018539872742,11.511784629926682L6.8347143398727415,11.511784629926682C7.344583439872742,11.458567629926682,7.6979311398727415,11.045349629926681,7.6717141398727415,10.512001629926681C7.665408939872742,10.326086629926682,7.606226339872742,10.14582462992668,7.501105139872742,9.992350529926682C7.307847839872742,9.676217029926681,7.212410339872742,9.309987029926681,7.226800839872742,8.93974112992668C7.235788239872742,8.618721929926682,7.330497639872742,8.305952029926681,7.501105139872742,8.033871629926681C7.606365539872741,7.887915629926682,7.658800939872742,7.701262929926681,7.671322239872742,7.5142197299266815C7.685017939872742,6.982045629926682,7.291757439872741,6.5684375299266815,6.781887439872742,6.515220129926681L6.729452039872742,6.501915929926682C6.653010739872742,6.492531729926681,6.577825439872742,6.474817729926682,6.505235039872741,6.449089529926682L6.467669339872741,6.435002729926682C5.822473439872741,6.203265129926682,5.475807039872742,5.503019729926682,5.682712939872742,4.849437229926681C5.890846139872742,4.189899929926682,6.5916932398727415,3.8214008299266817,7.253019239872741,4.0237846299266815ZM3.0719329398727417,11.606088629926681C3.2654098398727416,11.40858462992668,3.5505882398727415,11.33118862992668,3.817367639872742,11.403784629926681C4.083454739872742,11.475784629926682,4.292019939872741,11.687871629926681,4.363237039872741,11.958653629926681C4.4344028398727415,12.229565629926682,4.358369939872741,12.517955629926682,4.162889139872742,12.71856662992668C3.8641687398727416,13.02589462992668,3.370652839872742,13.02589462992668,3.071932639872742,12.71856662992668C2.7701653398727415,12.409132629926681,2.7701653398727415,11.91552262992668,3.0719329398727417,11.606088629926681ZM14.205713439872742,11.385783629926681C14.475667439872742,11.319108629926681,14.760518439872742,11.404564629926682,14.949191439872742,11.608827629926681C15.14014843987274,11.813871629926682,15.207453439872742,12.10734962992668,15.127236439872743,12.377349629926682C15.048580439872742,12.645587629926682,14.832179439872741,12.851086629926682,14.560235439872741,12.915784629926682C14.147019439872741,13.011653629926682,13.735365439872742,12.750654629926682,13.637932439872742,12.33000162992668C13.538949439872741,11.91335562992668,13.790969439872741,11.493960629926681,14.205713439872742,11.385783629926681ZM14.157193439872742,8.093350429926682C14.392759439872743,8.333220429926682,14.524627439872742,8.658002829926682,14.524627439872742,8.997654929926682C14.524627439872742,9.337306929926681,14.392757439872742,9.662089329926681,14.156802439872742,9.902350429926681C13.922616439872742,10.140854629926682,13.602794439872742,10.275828629926682,13.268541439872742,10.277220629926681C12.934108439872741,10.276705629926681,12.613962439872742,10.141593629926682,12.380280439872742,9.902350429926681C11.889423439872742,9.39924232992668,11.889423439872742,8.596458429926681,12.380280439872742,8.093351329926682C12.867135439872742,7.5938849299266815,13.669946439872742,7.5938849299266815,14.157193439872742,8.093350429926682ZM5.724194439872742,8.215437829926682C5.997524139872742,8.580149629926682,6.059743239872741,9.061422329926682,5.888150539872742,9.483654929926681C5.631125339872741,10.132913629926682,4.891495139872742,10.445060629926681,4.247020639872742,10.176263629926682C3.6056729398727416,9.90626332992668,3.3020209398727416,9.157307629926681,3.566933739872742,8.50500292992668C3.735514239872742,8.085201229926682,4.116208439872741,7.787993829926681,4.5643683398727415,7.726307329926682C5.011147339872742,7.667221529926682,5.454956439872742,7.854324329926682,5.724194439872742,8.215437829926682ZM14.383759439872742,5.0497856299266815C14.661256439872743,5.050759329926682,14.916816439872742,5.200807029926682,15.052889439872741,5.442655029926682C15.19086143987274,5.686536729926681,15.19086143987274,5.984903829926681,15.052889439872741,6.228785529926681C14.916815439872742,6.470633929926682,14.661256439872743,6.620682229926682,14.383759439872742,6.621655429926681C13.957628439872742,6.621655429926681,13.611325439872742,6.269481629926681,13.611325439872742,5.835916029926682C13.611325439872742,5.401568429926682,13.957628439872742,5.049394529926682,14.383759439872742,5.0497856299266815ZM3.6150642398727415,5.049394529926682C3.8913253398727417,5.049394529926682,4.145281439872742,5.199264029926682,4.283412139872741,5.442263529926682C4.421385639872742,5.686145229926682,4.421385639872742,5.984512329926681,4.283412139872741,6.228394029926681C4.147477739872741,6.470000229926682,3.8922821398727416,6.620009829926682,3.6150642398727415,6.621264429926682C3.1885424398727418,6.621264429926682,2.8426295398727417,6.269090629926682,2.8426295398727417,5.835525029926681C2.8426295398727417,5.401177329926681,3.1885424398727418,5.049003129926682,3.6150642398727415,5.049394529926682ZM11.13828043987274,3.9427859299266816C11.832063439872742,3.9427859299266816,12.394368439872741,4.515655529926682,12.394368439872741,5.222351529926682C12.394368439872741,5.928656029926682,11.832063439872742,6.501134329926682,11.138281439872742,6.501134329926682C10.444499839872742,6.501134329926682,9.882977339872742,5.9286556299266815,9.882977339872742,5.222351529926682C9.882977339872742,4.515655929926681,10.445281839872742,3.9427859299266816,11.13828043987274,3.9427859299266816ZM9.168846939872742,3.4297861299266814C9.442289239872741,3.3663296299266814,9.660414539872741,3.1606132299266814,9.739759339872741,2.8913514299266816C9.820774939872742,2.6209201299266813,9.752928639872742,2.3278095299266814,9.561324939872742,2.1204819299266817C9.371374039872741,1.9156533299266816,9.084679439872742,1.8309956299266814,8.813934239872742,1.8997862299266814C8.403847139872742,2.0046558299266817,8.153412239872742,2.4249164299266814,8.250455739872741,2.8428296299266815C8.34749873987274,3.2607426299266815,8.75641143987274,3.5229165299266816,9.168846939872742,3.4297861299266814ZM9.168846939872742,16.086525629926683C9.439530239872742,16.02019062992668,9.654125139872741,15.814250629926681,9.731542439872742,15.546524629926681C9.810134739872742,15.278185629926682,9.742594639872742,14.988283629926682,9.553499139872741,14.782308629926682C9.366419639872742,14.578879629926682,9.083965139872742,14.49251062992668,8.815108139872741,14.556525629926682C8.54146323987274,14.619662629926681,8.323013639872741,14.825253629926681,8.24341233987274,15.094569629926681C8.162601339872742,15.365136629926681,8.230750439872741,15.658265629926682,8.422629739872741,15.865439629926682C8.606542439872742,16.062657629926683,8.877325939872742,16.14835262992668,9.137542639872741,16.09435162992668L9.169629939872742,16.086525629926683L9.168846939872742,16.086525629926683ZM12.891715439872742,2.6240909299266817C13.154756439872742,2.6228094299266815,13.366328439872742,2.4073700299266814,13.362846439872742,2.1443498299266817C13.366547439872742,1.8811778299266815,13.154910439872742,1.6654984299266815,12.891715439872742,1.6642193299266814C12.628674439872741,1.6657156299266815,12.417277439872741,1.8813307299266815,12.420977439872741,2.1443498299266817C12.420977439872741,2.4104368299266814,12.631107439872741,2.6240889299266814,12.891715439872742,2.6240909299266817ZM5.107108439872742,2.6240889299266814C5.369994039872742,2.6225910299266815,5.581327839872742,2.4072174299266815,5.577847339872742,2.1443498299266817C5.577847339872742,1.8782629299266815,5.367717139872742,1.6642193299266814,5.107108439872742,1.6642193299266814C4.8439134398727415,1.6654986299266816,4.632276939872742,1.8811778299266815,4.635977839872742,2.1443498299266817C4.635977839872742,2.4104368299266814,4.844934339872742,2.6240889299266814,5.107108439872742,2.6240889299266814ZM1.2206723698727417,8.51400182992668C0.9576312798727417,8.515498129926682,0.7462340441727418,8.731112429926682,0.7499332998087417,8.994132029926682C0.7468902289727417,9.256695729926681,0.9580956098727417,9.471588129926682,1.2206723698727417,9.473089229926682C1.4738894098727418,9.472224229926681,1.6813707398727415,9.271820029926682,1.6910201898727417,9.018784529926682L1.6918027398727418,8.993350029926681C1.7000654298727418,8.728373529926682,1.4857574698727416,8.509971629926682,1.2206723698727417,8.513219829926681L1.2206723698727417,8.51400182992668ZM5.107498039872742,15.361827629926681C4.844457939872742,15.363108629926682,4.632885339872741,15.578548629926681,4.636367439872742,15.841567629926681C4.636367439872742,16.107655629926683,4.845323939872742,16.321698629926683,5.107498039872742,16.321698629926683C5.3705390398727415,16.32020262992668,5.5819367398727415,16.104586629926683,5.578236939872742,15.841567629926681C5.578236939872742,15.575480629926682,5.368106739872742,15.361436629926681,5.107498039872742,15.361827629926681ZM12.892105439872742,15.374741629926682C12.629220439872741,15.376238629926682,12.417886439872742,15.591613629926682,12.421366439872742,15.854480629926682C12.421366439872742,16.12056862992668,12.631496439872741,16.33461262992668,12.892105439872742,16.33461262992668C13.155300439872741,16.33333262992668,13.366937439872741,16.117653629926682,13.363235439872742,15.854480629926682C13.366716439872741,15.591461629926682,13.15514443987274,15.376023629926681,12.892105439872742,15.374741629926682ZM16.77893043987274,8.513610829926682C16.51573643987274,8.51489062992668,16.30410043987274,8.730568829926682,16.30780143987274,8.993741029926682C16.30475743987274,9.256456329926682,16.51620043987274,9.471411629926681,16.77893043987274,9.472698229926682C17.041816439872743,9.471200929926681,17.25315043987274,9.255826929926682,17.24966943987274,8.992959029926682C17.24966943987274,8.726871429926682,17.03993043987274,8.512828829926681,16.77893043987274,8.512828829926681L16.77893043987274,8.513610829926682ZM16.49093043987274,4.769610329926682C16.59407543987274,4.771250729926681,16.677495439872743,4.686044629926681,16.67366943987274,4.582958229926682C16.677495439872743,4.479871729926682,16.59407543987274,4.394666129926682,16.49093043987274,4.396306029926682C16.38763243987274,4.394437729926682,16.303964439872743,4.479714829926682,16.30780143987274,4.582958229926682C16.30780143987274,4.6893930299266815,16.399366439872743,4.769610329926682,16.49093043987274,4.769610329926682ZM8.993149639872742,0.3729149399266815C9.096593739872741,0.3752275099266815,9.180687739872742,0.2900605799266815,9.177062839872741,0.18665405992668152C9.180952939872741,0.08261899692668152,9.096039639872743,-0.0030127914733184815,8.991975639872742,0.0000018892096815185488C8.888678439872741,-0.0018662123733184815,8.805010639872743,0.08341030792668151,8.808845439872742,0.18665405992668152C8.808845439872742,0.2864366499266815,8.889845739872742,0.3639149399266815,8.975932039872742,0.3721322999266815L8.991584639872741,0.3729149099266815L8.993149639872742,0.3729149399266815ZM1.5078898098727418,4.770001829926682C1.6114944798727417,4.772325929926682,1.6956587398727416,4.686908229926681,1.6918027398727418,4.583349229926681C1.6956378798727418,4.4801053299266815,1.6119703098727416,4.394829229926682,1.5086723598727416,4.396697029926681C1.4055279498727415,4.3950562299266815,1.3221077898727418,4.4802627299266815,1.3259332798727417,4.583349229926681C1.3221079098727417,4.686435629926682,1.4055279498727415,4.771642129926682,1.5086723598727416,4.770001829926682L1.5078898098727418,4.770001829926682ZM1.5078898098727418,13.217089629926681C1.4052124598727418,13.215909629926681,1.3223546698727418,13.300728629926681,1.3259333398727415,13.403350629926681C1.3221075498727417,13.506437629926682,1.4055274098727417,13.591642629926682,1.5086724798727418,13.590002629926682C1.6119706598727417,13.59187162992668,1.6956384198727417,13.506593629926682,1.6918029198727416,13.403350629926681C1.6903861198727417,13.302284629926682,1.6097013998727419,13.220219629926682,1.5086725398727419,13.217089629926681L1.5078898098727418,13.217089629926681ZM16.504237439872742,13.203784629926682C16.40095243987274,13.20148162992668,16.31692843987274,13.286398629926682,16.32032243987274,13.389653629926682C16.31577143987274,13.493668629926681,16.40014943987274,13.57984262992668,16.504237439872742,13.577479629926682C16.608016439872742,13.579382629926682,16.69189543987274,13.493351629926682,16.68736643987274,13.389653629926682C16.68574243987274,13.288739629926681,16.60511643987274,13.20690762992668,16.504237439872742,13.203784629926682Z" fill="#3859FF" fill-opacity="1"/></g></svg>