<svg xmlns="http://www.w3.org/2000/svg" xmlns:xlink="http://www.w3.org/1999/xlink" fill="none" version="1.1" width="18" height="18" viewBox="0 0 18 18"><defs><clipPath id="master_svg0_22_4178"><rect x="0" y="0" width="18" height="18" rx="0"/></clipPath></defs><g clip-path="url(#master_svg0_22_4178)"><path d="M14.80342831475,4.33174279453125C14.92590646875,4.17522119453125,15.03312468875,4.03200409453125,15.14621069875,3.89348219453125C15.19864505875,3.82813429453125,15.19434156875,3.77843879453125,15.14308049875,3.71035149453125C14.65199312975,3.06469919453125,14.60542811875,2.34743859453125,14.88834099875,1.6200037045312499C15.10042786875,1.07217755453125,15.56999337875,0.81587322053125,16.14364536875,0.76109066253125C16.50168916875,0.72743850153125,16.85268906875,0.76422110253125,17.17786336875,0.93835155453125C17.60555836875,1.16687324453125,17.85481976875,1.51591682453125,17.93542886875,1.99722109453125C17.99999446875,2.38109059453125,17.98786326875,2.75635169453125,17.87908076875,3.12809059453125C17.68655876875,3.78665569453125,17.21308086875,4.12787319453125,16.56429786875,4.21435169453125C16.02586326875,4.28635169453125,15.48038464875,4.29535129453125,14.93686294875,4.33174279453125C14.89499398875,4.33487369453125,14.85234135875,4.33174279453125,14.80342831475,4.33174279453125Z" fill-rule="evenodd" fill="#027AFF" fill-opacity="1"/><path d="M13.471434,1.38287353515625L10.2271299,1.38287353515625L7.6582165,7.24069933515625L4.026911999999999,7.24069933515625L4.026911999999999,1.40791706415625L1.125,1.40791706415625L1.125,16.49974253515625L4.027695700000001,16.49974253515625L4.027695700000001,10.14222143515625L9.145566,10.14222143515625C10.0281153,10.14191723515625,10.8304596,9.63001633515625,11.202653,8.829786735156251L11.202653,16.50013453515625L14.105348,16.50013453515625L14.105348,10.14222143515625C14.10549,8.62120293515625,12.931331,7.35809043515625,11.414349,7.24735163515625L11.414349,7.23952533515625L9.8205662,7.23952533515625C10.5967913,6.97438813515625,11.227846,6.39847323515625,11.562653,5.64965583515625L13.471434,1.38287353515625Z" fill-rule="evenodd" fill="#000000" fill-opacity="1"/></g></svg>