<svg xmlns="http://www.w3.org/2000/svg" xmlns:xlink="http://www.w3.org/1999/xlink" fill="none" version="1.1" width="18" height="18.1531925201416" viewBox="0 0 18 18.1531925201416"><defs><clipPath id="master_svg0_22_4143"><rect x="0" y="0" width="18" height="18.1531925201416" rx="0"/></clipPath></defs><g clip-path="url(#master_svg0_22_4143)"><path d="M17.57074184375,8.632115337109376C17.76782984375,9.070908537109375,17.89290784375,9.539963737109375,17.94407484375,10.018475537109374C17.99334684375,10.496988537109376,17.96871184375,10.981173537109376,17.86637684375,11.452120537109375C17.76593584375,11.923068537109375,17.59158684375,12.375100537109375,17.34901384375,12.791197537109374C17.18982484375,13.069225537109375,17.00221084375,13.330232537109374,16.78617084375,13.570433537109375C16.57202484375,13.808744537109375,16.33324084375,14.024358537109375,16.07361184375,14.213494537109375C15.81208784375,14.402627537109375,15.53350984375,14.561502537109375,15.23787384375,14.692006537109375C14.94413184375,14.820616537109375,14.63712784375,14.918968537109375,14.32254084375,14.983274537109375C14.17472384375,15.440980537109375,13.95489084375,15.874100537109374,13.67062684375,16.263719537109374C13.38825584375,16.653337537109376,13.04524284375,16.995672537109375,12.65485284375,17.277484537109373C12.26446284375,17.561187537109376,11.83237884375,17.780582537109375,11.37376484375,17.928110537109376C10.91515084375,18.077526537109375,10.43569084375,18.151288537109377,9.95244024375,18.151288537109377C9.63216974375,18.153181537109376,9.31000134375,18.119136537109377,8.99541564375,18.054830537109375C8.68272404375,17.988634537109377,8.37571814375,17.888393537109376,8.08197684375,17.757888537109373C7.78823564375,17.627384537109375,7.50965644375,17.464727537109376,7.25002764375,17.275592537109375C6.99229384375,17.086458537109376,6.75351144375,16.868951537109375,6.54126024375,16.628749537109375C6.06748534375,16.730884537109375,5.58233974375,16.755472537109377,5.10287904375,16.706294537109375C4.62341884375,16.655229537109374,4.15343424375,16.530399537109375,3.71187614375,16.333700537109376C3.27221324375,16.138889537109375,2.86476634375,15.874100537109374,2.50659254375,15.550680537109375C2.14841894375,15.227258537109375,1.84330774375,14.848987537109375,1.60263014375,14.432890537109374C1.44154664375,14.154862537109375,1.30888964375,13.861701537109376,1.20844934375,13.557195537109376C1.10800914375,13.252688537109375,1.04168054375,12.938723537109375,1.00756877375,12.619084537109375C0.97345698375,12.301337537109376,0.97535205375,11.979807537109375,1.0094638437499999,11.660169537109375C1.04357564375,11.342422537109375,1.11369434375,11.028457537109375,1.21413454375,10.723951537109375C0.89196753375,10.366484537109375,0.62665367375,9.959844637109375,0.42956322375,9.521050437109375C0.23436795375,9.080366137109374,0.10739624475,8.613202137109376,0.058123653750000004,8.134690237109375C0.006955958750000001,7.656178437109375,0.03348735638,7.171992737109375,0.13392765375,6.701046037109375C0.23436795375,6.230099637109375,0.40871709375,5.778066637109375,0.65128988375,5.361969437109375C0.81047821375,5.083940537109375,0.99809312375,4.821043037109375,1.21223954375,4.582732637109375C1.42638604375,4.344421837109375,1.66706364375,4.128808537109375,1.92669224375,3.939672937109375C2.18632074375,3.750537637109375,2.46679564375,3.589772937109375,2.76053594375,3.461161337109375C3.05617164375,3.330657937109375,3.36317804375,3.234199237109375,3.67776444375,3.169893237109375C3.82558204375,2.710294737109375,4.04541354375,2.279066337109375,4.32778354375,1.889448237109375C4.61204864375,1.499829737109375,4.95506144375,1.157495237109375,5.34545234375,0.873792407109375C5.73584274375,0.591981057109375,6.16792584375,0.372584257109375,6.62654014375,0.223167477109375C7.08515404375,0.075642057109375,7.56461474375,-0.000011997190625000079,8.04786494375,0.001879343428375C8.36813644375,-0.000012007990625000076,8.69030474375,0.032140966109375,9.00489044375,0.098338276109375C9.31947704375,0.164535577109375,9.62648294375,0.262885867109375,9.92022414375,0.393389137109375C10.21396584375,0.525783717109375,10.49254384375,0.686548647109375,10.75217384375,0.875683787109375C11.01180284375,1.066710337109375,11.25058484375,1.282324337109375,11.46283584375,1.522526037109375C11.93471584375,1.422284437109375,12.41986184375,1.397696837109375,12.89932184375,1.446872037109375C13.37878184375,1.496047137109375,13.84687184375,1.622767637109375,14.28842884375,1.817576837109375C14.72809284375,2.014277737109375,15.13553784375,2.277175437109375,15.49371184375,2.600596437109375C15.85188584375,2.922126037109375,16.15699784375,3.298505037109375,16.39767484375,3.716493837109375C16.55875984375,3.992630937109375,16.69141584375,4.285790437109375,16.79185684375,4.592189337109375C16.89229584375,4.896697037109375,16.96051984375,5.210661437109375,16.99273484375,5.530299637109375C17.02684784375,5.849938437109375,17.02684784375,6.171467737109375,16.99084084375,6.491106037109375C16.95672784375,6.810744737109375,16.88660984375,7.124708637109375,16.78617084375,7.429216837109375C17.11023184375,7.786683037109375,17.37365184375,8.191432037109376,17.57074184375,8.632115337109376ZM11.25626984375,16.706294537109375C11.66940084375,16.536073537109374,12.04463084375,16.284524537109377,12.36111184375,15.968666537109375C12.67759284375,15.652811537109375,12.92964184375,15.278325537109374,13.10020084375,14.864118537109375C13.27075884375,14.451804537109375,13.35982984375,14.009227537109375,13.35982984375,13.562869537109375L13.35982984375,9.345154737109375Q13.35793384375,9.339480437109374,13.35603784375,9.331915837109374Q13.35414384375,9.326241537109375,13.35035284375,9.320567137109375Q13.34656284375,9.314893737109376,13.34087884375,9.311110537109375Q13.33519384375,9.305436137109375,13.32950784375,9.303545037109375L11.80016184375,8.422174437109375L11.80016184375,13.517476537109374C11.80016184375,13.568542537109375,11.79258184375,13.621499537109376,11.77931484375,13.670676537109374C11.76604984375,13.721742537109375,11.74709884375,13.769025537109375,11.72056684375,13.814417537109374C11.69403684375,13.859811537109374,11.66371584375,13.901420537109376,11.62581284375,13.937355537109376C11.58896984375,13.974004537109375,11.54757284375,14.005786537109374,11.50262984375,14.031924537109376L7.88109494375,16.118083537109374C7.85077384375,16.136997537109377,7.79960584375,16.163476537109375,7.77307464375,16.178605537109377C7.92278714375,16.305328537109375,8.08576584375,16.416915537109375,8.25632474375,16.515266537109376C8.42877864375,16.613616537109376,8.60691834375,16.696834537109375,8.79263784375,16.764924537109376C8.97835734375,16.831121537109375,9.16976264375,16.882186537109376,9.36306284375,16.916233537109374C9.55825804375,16.950277537109375,9.75534824375,16.967298537109375,9.95243934375,16.967298537109375C10.39968284375,16.967298537109375,10.84313584375,16.878404537109375,11.25626984375,16.706294537109375L11.25626984375,16.706294537109375ZM2.63166954375,13.842788537109374C2.85718654375,14.230515537109374,3.15471724375,14.567176537109376,3.50910064375,14.839530537109376C3.86537914375,15.111886537109376,4.26903584375,15.310477537109374,4.70111794375,15.425850537109374C5.13320064375,15.541222537109375,5.58423474375,15.571483537109374,6.02768754375,15.512852537109374C6.47114134375,15.454221537109374,6.89753864375,15.310477537109374,7.28603414375,15.087298537109374L10.94736784375,12.978441537109376L10.95684384375,12.968984537109375Q10.96063284375,12.965201537109374,10.96252784375,12.957635537109375Q10.96631884375,12.951963537109375,10.96821384375,12.946287537109376L10.96821384375,11.168417537109375L6.54884004375,13.719850537109375C6.50335784375,13.746329537109375,6.45598034375,13.765243537109376,6.40670724375,13.780374537109376C6.35553984375,13.793612537109375,6.30437184375,13.799286537109374,6.25130944375,13.799286537109374C6.20014144375,13.799286537109374,6.14897394375,13.793614537109375,6.09780594375,13.780374537109376C6.04853394375,13.765243537109376,5.99926044375,13.746329537109375,5.95377824375,13.719850537109375L2.33224294375,11.631797537109374C2.30002614375,11.612885537109374,2.25264854375,11.584514537109374,2.22611734375,11.567492537109375C2.19200564375,11.762301537109375,2.17494964375,11.959002537109376,2.17494964375,12.155703537109375C2.17494964375,12.352403537109375,2.19390054375,12.549104537109375,2.22801254375,12.743913537109375C2.26212434375,12.936831537109375,2.31518694375,13.127858537109375,2.38151554375,13.313209537109374C2.44973894375,13.498561537109374,2.53312344375,13.676348537109375,2.63166884375,13.846571537109375L2.63166954375,13.842788537109374ZM1.68032954375,5.955852937109375C1.45670784375,6.343579737109375,1.31268024375,6.771025137109375,1.25393214375,7.213601137109375C1.19518394375,7.656177537109375,1.22550554375,8.104427337109374,1.34110664375,8.537547137109375C1.45670784375,8.968774837109375,1.65569324375,9.371632537109376,1.92858764375,9.727207137109374C2.20148204375,10.080889537109375,2.54070474375,10.377832537109375,2.92730524375,10.601010537109374L6.58674284375,12.711758537109375Q6.59242824375,12.713650537109375,6.60000894375,12.715541537109376L6.61327414375,12.715541537109376Q6.62085484375,12.715541537109376,6.62654014375,12.711758537109375Q6.63222554375,12.709867537109375,6.63791034375,12.706085537109375L8.17294214375,11.820932537109375L3.75356914375,9.275174137109374C3.70998194375,9.248694437109375,3.66828964375,9.216542237109374,3.63038804375,9.180605937109375C3.59366604375,9.143837937109375,3.56182124375,9.102520937109375,3.53563264375,9.057667737109375C3.51099654375,9.012274737109376,3.49015044375,8.964991537109375,3.47688464375,8.913925137109375C3.46361904375,8.864749937109375,3.45603874375,8.813683537109375,3.45793394375,8.760725937109376L3.45793394375,4.465466037109375C3.27221394375,4.533555037109375,3.09217934375,4.616774037109375,2.92162034375,4.715124637109375C2.75106144375,4.815365837109375,2.58997794375,4.928847337109375,2.43836974375,5.055567737109375C2.28865694375,5.182288137109375,2.14841964375,5.322247937109375,2.02144794375,5.473556537109375C1.89447634375,5.622973437109375,1.78266534375,5.785629737109375,1.68412004375,5.955851037109375L1.68032954375,5.955852937109375ZM14.25052784375,8.876099537109376C14.29600984375,8.902578337109375,14.33770184375,8.932839437109376,14.37560384375,8.970666837109375C14.41161084375,9.006603237109376,14.44382784375,9.048213037109376,14.47035984375,9.093605037109375C14.49499584375,9.138998037109374,14.51584184375,9.188173337109374,14.52910684375,9.237348537109375C14.54047784375,9.288414937109374,14.54805884375,9.339480437109374,14.54616284375,9.392438937109375L14.54616284375,13.687697537109376C15.15448984375,13.464518537109376,15.68511784375,13.073007537109374,16.07740384375,12.558561537109375C16.47158384375,12.044114537109374,16.70847084375,11.429425537109376,16.76342984375,10.786364537109375C16.81838784375,10.143304537109374,16.68951984375,9.496462837109375,16.39009484375,8.923383737109376C16.09066984375,8.350304637109375,15.63394884375,7.873683437109375,15.07300084375,7.552153637109375L11.41356384375,5.441405737109375Q11.40787884375,5.439514137109375,11.40029784375,5.437623037109375L11.38703284375,5.437623037109375Q11.38134784375,5.439514137109375,11.37376784375,5.441405737109375Q11.36808184375,5.443296937109375,11.36239684375,5.447079637109375L9.83494664375,6.328449737109375L14.25431884375,8.876100537109375L14.25052784375,8.876099537109376ZM15.77608184375,6.587564437109375L15.77418784375,6.587564437109375L15.77418784375,6.589456037109375L15.77608184375,6.587564437109375ZM15.77418784375,6.585672837109375C15.88410384375,5.950178637109375,15.81019484375,5.295770637109375,15.56004284375,4.699995037109375C15.31178484375,4.104219437109375,14.89675884375,3.591663337109375,14.36612984375,3.220958737109375C13.83550184375,2.852144937109375,13.21011984375,2.640313637109375,12.56389084375,2.611943237109375C11.91576584375,2.585464237109375,11.27522184375,2.742446437109375,10.71427384375,3.063976337109375L7.05483484375,5.172833437109375Q7.04914904375,5.176616237109375,7.04535914375,5.182289637109375L7.03777884375,5.193637837109375Q7.03588344375,5.199312237109375,7.03398844375,5.206877237109375Q7.03209354375,5.212551637109375,7.03209354375,5.220117137109375L7.03209354375,6.982856737109375L11.45146784375,4.435206437109375C11.49694884375,4.408727637109375,11.54622184375,4.389813937109375,11.59549384375,4.374682937109375C11.64666184375,4.361443537109375,11.69782984375,4.355769137109375,11.74899684375,4.355769137109375C11.80206084375,4.355769137109375,11.85322784375,4.361443537109375,11.90439584375,4.374682937109375C11.95366884375,4.389813937109375,12.00104684375,4.408727637109375,12.04652784375,4.435206437109375L15.66806284375,6.523258637109375C15.70027984375,6.542171937109375,15.74765684375,6.568651237109375,15.77418784375,6.585672837109375ZM6.19824794375,4.633797637109375C6.19824794375,4.582731237109375,6.20582864375,4.531664837109375,6.21909424375,4.480597937109375C6.23235984375,4.431423237109375,6.25131084375,4.382247937109375,6.27784254375,4.336855437109375C6.30437374375,4.293354537109375,6.33469534375,4.251744737109375,6.37259774375,4.213917737109375C6.40860414375,4.177981837109375,6.45029684375,4.145829237109375,6.49577904375,4.121241537109375L10.11731384375,2.035081137109375C10.15142584375,2.014276237109375,10.19880384375,1.987797237109375,10.22533484375,1.974557637109375C9.72881884375,1.560351737109375,9.12238694375,1.295562537109375,8.47994804375,1.214234337109375C7.83750964375,1.131014837109375,7.18559554375,1.233147737109375,6.60000894375,1.507393837109375C6.01252794375,1.781639837109375,5.51601124375,2.218541837109375,5.16920854375,2.763251337109375C4.82240534375,3.309851837109375,4.63858034375,3.941563137109375,4.63858034375,4.588405137109375L4.63858034375,8.806118937109375Q4.64047574375,8.813684437109375,4.64237024375,8.819357837109376Q4.64426614375,8.825032237109374,4.64805604375,8.830706637109374Q4.65184594375,8.836380037109375,4.65753174375,8.842054337109374Q4.66132164375,8.845838537109374,4.66890194375,8.849619837109374L6.19824744375,9.730989437109375L6.19824794375,4.633797637109375ZM7.02830214375,10.207610537109375L8.99731064375,11.342421537109376L10.96631884375,10.207610537109375L10.96631884375,7.939879937109375L8.99920654375,6.805068537109375L7.03019764375,7.939879937109375L7.02830214375,10.207610537109375Z" fill="#000000" fill-opacity="1"/></g></svg>