<svg xmlns="http://www.w3.org/2000/svg" xmlns:xlink="http://www.w3.org/1999/xlink" fill="none" version="1.1" width="18" height="18" viewBox="0 0 18 18"><defs><clipPath id="master_svg0_22_4162"><rect x="0" y="0" width="18" height="18" rx="0"/></clipPath><linearGradient x1="0.10612034052610397" y1="0.9834346771240234" x2="1.0141388272154623" y2="0.702857072084774" id="master_svg1_10_8467"><stop offset="0%" stop-color="#6964ED" stop-opacity="0.5299999713897705"/><stop offset="0.9999999776482582%" stop-color="#8884F1" stop-opacity="0.6200000047683716"/><stop offset="2.9999999329447746%" stop-color="#A4A2F4" stop-opacity="0.7200000286102295"/><stop offset="3.999999910593033%" stop-color="#BDBBF7" stop-opacity="0.7900000214576721"/><stop offset="5.999999865889549%" stop-color="#D2D0F9" stop-opacity="0.8600000143051147"/><stop offset="7.000000029802322%" stop-color="#E2E1FB" stop-opacity="0.9100000262260437"/><stop offset="9.000000357627869%" stop-color="#EFEFFD" stop-opacity="0.949999988079071"/><stop offset="11.999999731779099%" stop-color="#F8F8FE" stop-opacity="0.9800000190734863"/><stop offset="15.000000596046448%" stop-color="#FDFDFE" stop-opacity="1"/><stop offset="25%" stop-color="#FFFFFF" stop-opacity="1"/></linearGradient><linearGradient x1="0.9915964603424072" y1="0.7900117039680481" x2="0.036214285864466754" y2="-0.035902641707621294" id="master_svg2_10_8463"><stop offset="0%" stop-color="#6964ED" stop-opacity="0.5299999713897705"/><stop offset="0.9999999776482582%" stop-color="#8884F1" stop-opacity="0.6200000047683716"/><stop offset="2.9999999329447746%" stop-color="#A4A2F4" stop-opacity="0.7200000286102295"/><stop offset="3.999999910593033%" stop-color="#BDBBF7" stop-opacity="0.7900000214576721"/><stop offset="5.999999865889549%" stop-color="#D2D0F9" stop-opacity="0.8600000143051147"/><stop offset="7.000000029802322%" stop-color="#E2E1FB" stop-opacity="0.9100000262260437"/><stop offset="9.000000357627869%" stop-color="#EFEFFD" stop-opacity="0.949999988079071"/><stop offset="11.999999731779099%" stop-color="#F8F8FE" stop-opacity="0.9800000190734863"/><stop offset="15.000000596046448%" stop-color="#FDFDFE" stop-opacity="1"/><stop offset="25%" stop-color="#FFFFFF" stop-opacity="1"/></linearGradient><linearGradient x1="0.5" y1="0" x2="0.5" y2="1" id="master_svg3_10_8456"><stop offset="0%" stop-color="#6964ED" stop-opacity="0.5299999713897705"/><stop offset="0.9999999776482582%" stop-color="#8884F1" stop-opacity="0.6200000047683716"/><stop offset="2.9999999329447746%" stop-color="#A4A2F4" stop-opacity="0.7200000286102295"/><stop offset="3.999999910593033%" stop-color="#BDBBF7" stop-opacity="0.7900000214576721"/><stop offset="5.999999865889549%" stop-color="#D2D0F9" stop-opacity="0.8600000143051147"/><stop offset="7.000000029802322%" stop-color="#E2E1FB" stop-opacity="0.9100000262260437"/><stop offset="9.000000357627869%" stop-color="#EFEFFD" stop-opacity="0.949999988079071"/><stop offset="11.999999731779099%" stop-color="#F8F8FE" stop-opacity="0.9800000190734863"/><stop offset="15.000000596046448%" stop-color="#FDFDFE" stop-opacity="1"/><stop offset="25%" stop-color="#FFFFFF" stop-opacity="1"/></linearGradient><linearGradient x1="0.9286854267120361" y1="0.2500108778476715" x2="0.0712142932089136" y2="0.7499326598886724" id="master_svg4_10_8474"><stop offset="0%" stop-color="#615CED" stop-opacity="1"/><stop offset="17.000000178813934%" stop-color="#6156EC" stop-opacity="1"/><stop offset="37.99999952316284%" stop-color="#6147E9" stop-opacity="1"/><stop offset="61.000001430511475%" stop-color="#622FE4" stop-opacity="1"/><stop offset="62.00000047683716%" stop-color="#632DE4" stop-opacity="1"/></linearGradient><linearGradient x1="0" y1="0.49997609853744507" x2="0.9998586773872375" y2="0.49997609853744507" id="master_svg5_10_8460"><stop offset="0%" stop-color="#615CED" stop-opacity="1"/><stop offset="3.999999910593033%" stop-color="#615CED" stop-opacity="0.9599999785423279"/><stop offset="9.000000357627869%" stop-color="#615CED" stop-opacity="0.8600000143051147"/><stop offset="17.000000178813934%" stop-color="#615CED" stop-opacity="0.6899999976158142"/><stop offset="25%" stop-color="#615CED" stop-opacity="0.46000000834465027"/><stop offset="34.99999940395355%" stop-color="#615CED" stop-opacity="0.1599999964237213"/><stop offset="40.00000059604645%" stop-color="#615CED" stop-opacity="0"/></linearGradient><linearGradient x1="0.7498826384544373" y1="0.0627652183175087" x2="0.2499673606473169" y2="0.9371810673908549" id="master_svg6_10_8470"><stop offset="0%" stop-color="#A7A5F6" stop-opacity="1"/><stop offset="5.000000074505806%" stop-color="#9895F4" stop-opacity="0.7900000214576721"/><stop offset="11.999999731779099%" stop-color="#8784F1" stop-opacity="0.550000011920929"/><stop offset="18.99999976158142%" stop-color="#7975F0" stop-opacity="0.3499999940395355"/><stop offset="25%" stop-color="#6F6AEE" stop-opacity="0.20000000298023224"/><stop offset="31.00000023841858%" stop-color="#6762ED" stop-opacity="0.09000000357627869"/><stop offset="36.000001430511475%" stop-color="#625DED" stop-opacity="0.019999999552965164"/><stop offset="40.00000059604645%" stop-color="#615CED" stop-opacity="0"/></linearGradient></defs><g clip-path="url(#master_svg0_22_4162)"><path d="M6.54964800625,0.428741455078125L7.77462600625,2.571539655078125L6.54964800625,4.714345455078125L16.34966940625,4.714345455078125L15.12465240625,6.856267955078125L5.56946980625,6.856267955078125L4.22119140625,4.499715355078125L6.54964800625,0.428741455078125Z" fill="#FFFFFF" fill-opacity="1"/><path d="M1.64990234375,4.71380615234375L4.09989024375,4.71380615234375L8.87665984375,13.07120605234375L7.52924254375,15.42861815234375L2.8749079437500002,15.42689715234375L4.09989024375,13.28411385234375L6.54992484375,13.28497505234375L1.64990234375,4.71380615234375Z" fill="#FFFFFF" fill-opacity="1"/><path d="M7.77294921875,15.426875109765625L8.99792781875,17.569658509765624L13.89795831875,8.999349609765625L15.12211461875,11.142170909765625L17.57297041875,11.142170909765625L15.24623631875,7.071197509765625L12.551401618749999,7.072058055725625L7.77294921875,15.426875109765625Z" fill="#FFFFFF" fill-opacity="1"/><path d="M6.54964800625,0.428741455078125L7.77462600625,2.571539655078125L6.54964800625,4.714345455078125L16.34966940625,4.714345455078125L15.12465240625,6.856267955078125L5.56946980625,6.856267955078125L4.22119140625,4.499715355078125L6.54964800625,0.428741455078125Z" fill="url(#master_svg1_10_8467)" fill-opacity="1" style="mix-blend-mode:passthrough"/><path d="M2.8749079437500002,15.427699091796875L4.09989024375,13.284915891796874L6.54992484375,13.284915891796874L1.64990234375,4.714569091796875L4.099068443749999,4.714569091796875L8.87665984375,13.071146991796875L7.52924254375,15.428520091796875L2.8749079437500002,15.427699091796875Z" fill="url(#master_svg2_10_8463)" fill-opacity="1" style="mix-blend-mode:passthrough"/><path d="M17.57394788125,11.142170409765626L15.12309028125,11.142170409765626L13.898934381250001,8.999349509765626L8.99894318125,17.570557509765624L7.77392578125,15.428596509765624L12.551516581249999,7.072058055665625L15.24635218125,7.071197509765625L17.57394788125,11.142170409765626Z" fill="url(#master_svg3_10_8456)" fill-opacity="1" style="mix-blend-mode:passthrough"/><path d="M17.940678,10.927721L15.858705,7.2860088L15.613944,6.8567481L16.716522,4.9294562C16.754831,4.8633652,16.773457,4.789526,16.773457,4.7148261C16.773457,4.6401262,16.754831,4.5663261,16.716522,4.5001955L15.491465,2.357409C15.453312,2.291306,15.399626,2.238081,15.335882,2.2003121C15.27304,2.1634004,15.199081,2.1427865,15.123365,2.1427865L10.468213,2.1427865L9.3656349,0.21462339C9.2899561,0.08241535,9.1497135,0,8.998395,0L6.5483603,0C6.4727221,0,6.3996263,0.020603934,6.3367043,0.057518996C6.2729216,0.094434261,6.2193913,0.14851917,6.1811218,0.21462339L4.0983653,3.8571963L3.8535299,4.2847433L1.6483579,4.2847433C1.5726953,4.2847433,1.4995878,4.305326,1.4366817,4.342226C1.3729225,4.3791652,1.3185117,4.4332433,1.2811069,4.4993348L0.056957476,6.6421561C0.018702548,6.7082472,0,6.7820873,0,6.8567481C0,6.9314475,0.018702548,7.0052867,0.056957476,7.0713782L2.384546,11.142352L1.2819639,13.070466C1.2437061,13.136596,1.2250056,13.210434,1.2250056,13.285135C1.2250056,13.359835,1.2437061,13.433675,1.2819639,13.499804L2.5069618,15.642509C2.5452235,15.708638,2.5987775,15.761934,2.6625364,15.799618C2.7262955,15.836517,2.799403,15.857178,2.8750658,15.857178L7.5293999,15.857178L8.631978,17.78533C8.7076559,17.917591,8.8478994,17.9991,8.999217,18L11.449252,18C11.524891,18,11.598026,17.97934,11.661769,17.94244C11.724691,17.9055,11.779082,17.851461,11.817352,17.78533L14.144987,13.714355L16.350182,13.714355C16.425743,13.714355,16.498838,13.693813,16.5627,13.656914C16.625544,13.619973,16.679974,13.565818,16.718166,13.499804L17.943222,11.356982C17.981491,11.290853,18.000156,11.217013,18.000156,11.142352C18.000156,11.067652,17.981491,10.993814,17.943222,10.927721L17.940678,10.927721ZM6.549222,0.4292452L7.7742391,2.5720317L6.549222,4.7139649L16.349283,4.7139649L15.124226,6.8558865L5.5690436,6.8558865L4.2207651,4.4993348L6.549222,0.4292452ZM7.5285387,15.428856L2.8742125,15.427057L4.099226,13.284235L6.549222,13.284235L1.6492031,4.7139649L4.099226,4.7139649L5.3242044,6.8567481L8.8759565,13.071325L7.5285387,15.428856ZM15.122582,11.142352L13.898426,8.9995689L8.998395,17.569918L7.7733779,15.427057L8.999217,13.285135L12.55183,7.0722389L15.246703,7.0722389L17.573439,11.142352L15.122582,11.142352Z" fill="url(#master_svg4_10_8474)" fill-opacity="1" style="mix-blend-mode:passthrough"/><path d="M17.940678,10.927721L15.858705,7.2860088L15.613944,6.8567481L16.716522,4.9294562C16.754831,4.8633652,16.773457,4.789526,16.773457,4.7148261C16.773457,4.6401262,16.754831,4.5663261,16.716522,4.5001955L15.491465,2.357409C15.453312,2.291306,15.399626,2.238081,15.335882,2.2003121C15.27304,2.1634004,15.199081,2.1427865,15.123365,2.1427865L10.468213,2.1427865L9.3656349,0.21462339C9.2899561,0.08241535,9.1497135,0,8.998395,0L6.5483603,0C6.4727221,0,6.3996263,0.020603934,6.3367043,0.057518996C6.2729216,0.094434261,6.2193913,0.14851917,6.1811218,0.21462339L4.0983653,3.8571963L3.8535299,4.2847433L1.6483579,4.2847433C1.5726953,4.2847433,1.4995878,4.305326,1.4366817,4.342226C1.3729225,4.3791652,1.3185117,4.4332433,1.2811069,4.4993348L0.056957476,6.6421561C0.018702548,6.7082472,0,6.7820873,0,6.8567481C0,6.9314475,0.018702548,7.0052867,0.056957476,7.0713782L2.384546,11.142352L1.2819639,13.070466C1.2437061,13.136596,1.2250056,13.210434,1.2250056,13.285135C1.2250056,13.359835,1.2437061,13.433675,1.2819639,13.499804L2.5069618,15.642509C2.5452235,15.708638,2.5987775,15.761934,2.6625364,15.799618C2.7262955,15.836517,2.799403,15.857178,2.8750658,15.857178L7.5293999,15.857178L8.631978,17.78533C8.7076559,17.917591,8.8478994,17.9991,8.999217,18L11.449252,18C11.524891,18,11.598026,17.97934,11.661769,17.94244C11.724691,17.9055,11.779082,17.851461,11.817352,17.78533L14.144987,13.714355L16.350182,13.714355C16.425743,13.714355,16.498838,13.693813,16.5627,13.656914C16.625544,13.619973,16.679974,13.565818,16.718166,13.499804L17.943222,11.356982C17.981491,11.290853,18.000156,11.217013,18.000156,11.142352C18.000156,11.067652,17.981491,10.993814,17.943222,10.927721L17.940678,10.927721ZM6.549222,0.4292452L7.7742391,2.5720317L6.549222,4.7139649L16.349283,4.7139649L15.124226,6.8558865L5.5690436,6.8558865L4.2207651,4.4993348L6.549222,0.4292452ZM7.5285387,15.428856L2.8742125,15.427057L4.099226,13.284235L6.549222,13.284235L1.6492031,4.7139649L4.099226,4.7139649L5.3242044,6.8567481L8.8759565,13.071325L7.5285387,15.428856ZM15.122582,11.142352L13.898426,8.9995689L8.998395,17.569918L7.7733779,15.427057L8.999217,13.285135L12.55183,7.0722389L15.246703,7.0722389L17.573439,11.142352L15.122582,11.142352Z" fill="url(#master_svg5_10_8460)" fill-opacity="1" style="mix-blend-mode:passthrough"/><path d="M17.940678,10.927721L15.858705,7.2860088L15.613944,6.8567481L16.716522,4.9294562C16.754831,4.8633652,16.773457,4.789526,16.773457,4.7148261C16.773457,4.6401262,16.754831,4.5663261,16.716522,4.5001955L15.491465,2.357409C15.453312,2.291306,15.399626,2.238081,15.335882,2.2003121C15.27304,2.1634004,15.199081,2.1427865,15.123365,2.1427865L10.468213,2.1427865L9.3656349,0.21462339C9.2899561,0.08241535,9.1497135,0,8.998395,0L6.5483603,0C6.4727221,0,6.3996263,0.020603934,6.3367043,0.057518996C6.2729216,0.094434261,6.2193913,0.14851917,6.1811218,0.21462339L4.0983653,3.8571963L3.8535299,4.2847433L1.6483579,4.2847433C1.5726953,4.2847433,1.4995878,4.305326,1.4366817,4.342226C1.3729225,4.3791652,1.3185117,4.4332433,1.2811069,4.4993348L0.056957476,6.6421561C0.018702548,6.7082472,0,6.7820873,0,6.8567481C0,6.9314475,0.018702548,7.0052867,0.056957476,7.0713782L2.384546,11.142352L1.2819639,13.070466C1.2437061,13.136596,1.2250056,13.210434,1.2250056,13.285135C1.2250056,13.359835,1.2437061,13.433675,1.2819639,13.499804L2.5069618,15.642509C2.5452235,15.708638,2.5987775,15.761934,2.6625364,15.799618C2.7262955,15.836517,2.799403,15.857178,2.8750658,15.857178L7.5293999,15.857178L8.631978,17.78533C8.7076559,17.917591,8.8478994,17.9991,8.999217,18L11.449252,18C11.524891,18,11.598026,17.97934,11.661769,17.94244C11.724691,17.9055,11.779082,17.851461,11.817352,17.78533L14.144987,13.714355L16.350182,13.714355C16.425743,13.714355,16.498838,13.693813,16.5627,13.656914C16.625544,13.619973,16.679974,13.565818,16.718166,13.499804L17.943222,11.356982C17.981491,11.290853,18.000156,11.217013,18.000156,11.142352C18.000156,11.067652,17.981491,10.993814,17.943222,10.927721L17.940678,10.927721ZM6.549222,0.4292452L7.7742391,2.5720317L6.549222,4.7139649L16.349283,4.7139649L15.124226,6.8558865L5.5690436,6.8558865L4.2207651,4.4993348L6.549222,0.4292452ZM7.5285387,15.428856L2.8742125,15.427057L4.099226,13.284235L6.549222,13.284235L1.6492031,4.7139649L4.099226,4.7139649L5.3242044,6.8567481L8.8759565,13.071325L7.5285387,15.428856ZM15.122582,11.142352L13.898426,8.9995689L8.998395,17.569918L7.7733779,15.427057L8.999217,13.285135L12.55183,7.0722389L15.246703,7.0722389L17.573439,11.142352L15.122582,11.142352Z" fill="url(#master_svg6_10_8470)" fill-opacity="1" style="mix-blend-mode:passthrough"/></g></svg>