<svg xmlns="http://www.w3.org/2000/svg" xmlns:xlink="http://www.w3.org/1999/xlink" fill="none" version="1.1" width="18" height="18" viewBox="0 0 18 18"><defs><clipPath id="master_svg0_41_06533"><rect x="0" y="0" width="18" height="18" rx="0"/></clipPath></defs><g clip-path="url(#master_svg0_41_06533)"><path d="M13.2429398125,8.7659285975L11.5372438125,16.2065806875C11.5137663125,16.3083190875,11.5783300125,16.4100589875,11.6773310125,16.4335374875C11.6918087125,16.4362768875,11.7035475125,16.4390158875,11.7180271125,16.4390158875L15.1262878125,16.4390158875C15.2463788125,16.4387354875,15.3348238125,16.3265537875,15.3070708125,16.2097119875L13.6017658125,8.7686677175C13.5642008125,8.5710593535,13.2898958125,8.5710593535,13.2429398125,8.7659285975ZM3.8023320125,11.5860585875L2.7442451352,16.2065806875C2.7206008345,16.307032087499998,2.7833145185,16.4075154875,2.8839407425,16.4304060875C2.8988103425,16.4331450875,2.9132884925,16.436275487499998,2.9277668125,16.436275487499998L5.0474625125,16.436275487499998C5.1677587124999995,16.436054187499998,5.2562976125,16.3235592875,5.2282450125,16.2065786875L4.1670278125,11.5864503875C4.1200713125,11.3947112875,3.8461584125,11.3947112875,3.8023320125,11.5860585875Z" fill="#00E5E5" fill-opacity="1"/><path d="M6.129228875,5.94273351625L3.7763155238,16.20390740625C3.752837097,16.30564640625,3.817402303,16.40738540625,3.916402415,16.43047140625C3.930880565,16.433211406250003,3.942619945,16.43634140625,3.957098095,16.43634140625L8.659793875,16.43634140625C8.780090375,16.436120406249998,8.868628975,16.323625406250002,8.840576675000001,16.20664540625L6.490793275,5.94586223625C6.446967375,5.75099261125,6.173053975,5.75099261125,6.129228875,5.94273351625Z" fill="#006EFF" fill-opacity="1"/><path d="M10.076616975,1.711190238125L6.7528780233,16.203928828125C6.729399972,16.305666828125,6.793964799,16.407407828125002,6.892964895,16.430493828125C6.907443415,16.433231828125002,6.919182075,16.436362828125,6.933660585,16.436362828125L13.575269675000001,16.436362828125C13.695565675000001,16.436143828124997,13.784105775,16.323647828125,13.756052975,16.206666828125L10.438182075,1.711581518125C10.394747275,1.517103270125,10.120442875,1.517103270125,10.076616975,1.711190238125Z" fill="#006EFF" fill-opacity="1"/><path d="M7.8788833625,7.3514712025L5.8495786088,16.2039490125C5.8261001835,16.305687912499998,5.8902742975,16.4074278125,5.9892743925,16.430513412499998C6.0041440025,16.4332533125,6.0154919325,16.436383212499997,6.0303611725,16.436383212499997L10.085839762500001,16.436383212499997C10.2061362625,16.4361620125,10.2946743625,16.323667512500002,10.2666220625,16.206687012499998L8.2373173625,7.3542103125C8.1966216625,7.1597321555,7.9223172625,7.1597321555,7.8788833625,7.3514712025Z" fill="#00E5E5" fill-opacity="1"/></g></svg>