<svg xmlns="http://www.w3.org/2000/svg" xmlns:xlink="http://www.w3.org/1999/xlink" fill="none" version="1.1" width="13.7021484375" height="20" viewBox="0 0 13.7021484375 20"><g style="opacity:0.30000001192092896;"><path d="M11.638683,4.1039963C11.183119,4.1035547,10.746304,3.9223704,10.42415,3.6002338C10.101996,3.2780888,9.9208374,2.8412986,9.9204216,2.385726C9.9204216,2.385726,9.9204216,1.5487107e-7,9.9204216,1.5487107e-7C9.9204216,1.5487107e-7,2.2432401,1.5487107e-7,2.2432401,1.5487107e-7C1.948694,-0.0001093013,1.6570061,0.057801433,1.3848509,0.17044374C1.1126955,0.28308657,0.86540568,0.4482497,0.65708768,0.6564877C0.44877219,0.86472243,0.28352323,1.1119621,0.17077957,1.3840759C0.058035839,1.6561894,-2.0337485e-8,1.9478524,5.345143e-15,2.2423985C5.345143e-15,2.2423985,5.345143e-15,15.760179,5.345143e-15,15.760179C-2.0337485e-8,16.054749,0.058035839,16.346403,0.17077957,16.618475C0.28352323,16.890631,0.44877219,17.137871,0.65708768,17.346113C0.86540568,17.554354,1.1126955,17.719515,1.3848509,17.832092C1.6570061,17.944754,1.948694,18.002668,2.2432401,18.002584C2.2432401,18.002584,11.459524,18.002584,11.459524,18.002584C11.754012,18.002584,12.045583,17.944588,12.317655,17.831926C12.589726,17.719181,12.836967,17.55402,13.045125,17.345779C13.253366,17.137537,13.418527,16.890381,13.531272,16.618309C13.643932,16.346237,13.70193,16.054667,13.70193,15.760179C13.70193,15.760179,13.70193,4.1039963,13.70193,4.1039963C13.70193,4.1039963,11.638683,4.1039963,11.638683,4.1039963C11.638683,4.1039963,11.638683,4.1039963,11.638683,4.1039963Z" fill="#0072FF" fill-opacity="1" style="opacity:0.30000001192092896;"/></g><path d="M13.701935015039062,4.1039963C13.701935015039062,4.1039963,11.638687415039062,4.1039963,11.638687415039062,4.1039963C11.183114615039063,4.1035547,10.746319475039062,3.9223704,10.424178655039062,3.6002338C10.102037875039063,3.2780888,9.920866650849062,2.8412986,9.920425415039062,2.385726C9.920425415039062,2.385726,9.920425415039062,0,9.920425415039062,0C9.920425415039062,0,13.701935015039062,4.1039963,13.701935015039062,4.1039963C13.701935015039062,4.1039963,13.701935015039062,4.1039963,13.701935015039062,4.1039963Z" fill="#0072FF" fill-opacity="1"/><path d="M10.88288100912323,6.977208251745606C10.88288100912323,6.977208251745606,2.27990483912323,6.977208251745606,2.27990483912323,6.977208251745606C2.19724909912323,6.977208251745606,2.11798321912323,6.9443704517456055,2.05953647912323,6.885923681745606C2.00109024312323,6.827477811745606,1.96825222274913,6.748211081745605,1.96825222274913,6.665555361745605C1.96814260447323,6.624558751745606,1.97612663172323,6.583941261745606,1.99173963212323,6.546032831745605C2.00735256812323,6.5081252417456055,2.03029103212323,6.473665841745605,2.05924149612323,6.444637886745605C2.08819195912323,6.415609590745605,2.12258803912323,6.392585210745605,2.16045395912323,6.376871112745605C2.19831989912323,6.361156924645606,2.23890819912323,6.353068205199175,2.27990483912323,6.353068351747597C2.27990483912323,6.353068351747597,10.88288100912323,6.353068351747597,10.88288100912323,6.353068351747597C10.96579350912323,6.353068351747597,11.04520780912323,6.385994232745605,11.10387220912323,6.444597050745606C11.16245260912323,6.503199621745606,11.19536770912323,6.582678811745605,11.19536770912323,6.665555361745605C11.19511780912323,6.748287741745606,11.16211880912323,6.827561971745605,11.10353840912323,6.885984541745605C11.04495800912323,6.944407101745606,10.96562750912323,6.977208251745606,10.88288100912323,6.977208251745606C10.88288100912323,6.977208251745606,10.88288100912323,6.977208251745606,10.88288100912323,6.977208251745606C10.88288100912323,6.977208251745606,10.88288100912323,6.977208251745606,10.88288100912323,6.977208251745606Z" fill="#0072FF" fill-opacity="1"/><path d="M10.88288100912323,8.841307754309081C10.88288100912323,8.841307754309081,2.27990483912323,8.841307754309081,2.27990483912323,8.841307754309081C2.19724909912323,8.841307754309081,2.11798321912323,8.808469954309082,2.05953647912323,8.750023184309082C2.00109024312323,8.691577314309082,1.96825222274913,8.612310584309082,1.96825222274913,8.529654864309082C1.96814260447323,8.488658254309081,1.97612663172323,8.448040764309082,1.99173963212323,8.410132334309083C2.00735256812323,8.372224744309083,2.03029103212323,8.337765344309082,2.05924149612323,8.308737389309082C2.08819195912323,8.279709093309082,2.12258803912323,8.256684713309083,2.16045395912323,8.240970615309083C2.19831989912323,8.225256427209082,2.23890819912323,8.217167707762652,2.27990483912323,8.217167854311073C2.27990483912323,8.217167854311073,10.88288100912323,8.217167854311073,10.88288100912323,8.217167854311073C10.96579350912323,8.217167854311073,11.04520780912323,8.250073403309083,11.10387220912323,8.308675721309083C11.16245260912323,8.367279114309081,11.19536770912323,8.446778314309082,11.19536770912323,8.529654864309082C11.19511780912323,8.612387244309081,11.16211880912323,8.691641484309082,11.10353840912323,8.750064074309082C11.04495800912323,8.808486644309083,10.96562750912323,8.841307754309081,10.88288100912323,8.841307754309081C10.88288100912323,8.841307754309081,10.88288100912323,8.841307754309081,10.88288100912323,8.841307754309081C10.88288100912323,8.841307754309081,10.88288100912323,8.841307754309081,10.88288100912323,8.841307754309081Z" fill="#0072FF" fill-opacity="1"/><path d="M10.88288100912323,10.705386276037597C10.88288100912323,10.705386276037597,2.27990483912323,10.705386276037597,2.27990483912323,10.705386276037597C2.23890819912323,10.705386276037597,2.19831989912323,10.697297456037598,2.16045395912323,10.681583936037597C2.12258803912323,10.665869596037597,2.08819195912323,10.642844736037597,2.05924149612323,10.613816736037597C2.03029103212323,10.584788796037598,2.00735256812323,10.550329386037598,1.99173963212323,10.512421816037598C1.97612663172323,10.474513356037598,1.96814260447323,10.433895886037597,1.96825222274913,10.392899276037598C1.96825222274913,10.310243536037598,2.00109024312323,10.230976816037598,2.05953647912323,10.172530919037598C2.11798321912323,10.114084430037598,2.19724909912323,10.081246376039537,2.27990483912323,10.081246376039577C2.27990483912323,10.081246376039577,10.88288100912323,10.081246376039577,10.88288100912323,10.081246376039577C10.96562750912323,10.081246081878987,11.04495800912323,10.114047263037598,11.10353840912323,10.172470085037597C11.16211880912323,10.230892656037598,11.19511780912323,10.310166866037598,11.19536770912323,10.392899276037598C11.19536770912323,10.475775806037598,11.16245260912323,10.555255026037598,11.10387220912323,10.613857566037598C11.04520780912323,10.672460136037598,10.96579350912323,10.705386276037597,10.88288100912323,10.705386276037597C10.88288100912323,10.705386276037597,10.88288100912323,10.705386276037597,10.88288100912323,10.705386276037597Z" fill="#0072FF" fill-opacity="1"/><path d="M7.48968870912323,12.569484824926757C7.48968870912323,12.569484824926757,2.27990483912323,12.569484824926757,2.27990483912323,12.569484824926757C2.23890819912323,12.569484824926757,2.19831989912323,12.561396004926758,2.16045395912323,12.545682484926758C2.12258803912323,12.529968144926757,2.08819195912323,12.506923254926757,2.05924149612323,12.477895314926759C2.03029103212323,12.448867324926757,2.00735256812323,12.414427934926758,1.99173963212323,12.376520364926758C1.97612663172323,12.338611904926758,1.96814260447323,12.297994434926757,1.96825222274913,12.256997824926758C1.96825222274913,12.174342084926758,2.00109024312323,12.095055374926758,2.05953647912323,12.036608628926757C2.11798321912323,11.978162642926758,2.19724909912323,11.94534492492672,2.27990483912323,11.945344924926758C2.27990483912323,11.945344924926758,7.48968870912323,11.945344924926758,7.48968870912323,11.945344924926758C7.57234320912323,11.94534492492672,7.65162310912323,11.978162642926758,7.71007100912323,12.036608628926757C7.76851880912323,12.095055374926758,7.80134190912323,12.174342084926758,7.80134190912323,12.256997824926758C7.80145010912323,12.297994434926757,7.79347600912323,12.338611904926758,7.77786810912323,12.376520364926758C7.76225220912323,12.414427934926758,7.73931160912323,12.448867324926757,7.71036280912323,12.477895314926759C7.68141350912323,12.506923254926757,7.64701540912323,12.529968144926757,7.60915030912323,12.545682484926758C7.5712846091232295,12.561396004926758,7.53068670912323,12.569484824926757,7.48968870912323,12.569484824926757C7.48968870912323,12.569484824926757,7.48968870912323,12.569484824926757,7.48968870912323,12.569484824926757Z" fill="#0072FF" fill-opacity="1"/><path d="M12.032002537387848,14.21690845489502C12.032002537387848,14.21690845489502,1.612436137387848,14.21690845489502,1.612436137387848,14.21690845489502C0.8733252273878479,14.21690845489502,0.2741585373878479,14.81607514489502,0.2741585373878479,15.55518605489502C0.2741585373878479,15.55518605489502,0.2741585373878479,18.66172315489502,0.2741585373878479,18.66172315489502C0.2741585373878479,19.40083405489502,0.8733252273878479,20.00000145489502,1.612436137387848,20.00000145489502C1.612436137387848,20.00000145489502,12.032002537387848,20.00000145489502,12.032002537387848,20.00000145489502C12.771138537387849,20.00000145489502,13.370280537387847,19.40083405489502,13.370280537387847,18.66172315489502C13.370280537387847,18.66172315489502,13.370280537387847,15.55518605489502,13.370280537387847,15.55518605489502C13.370280537387847,14.81607514489502,12.771138537387849,14.21690845489502,12.032002537387848,14.21690845489502C12.032002537387848,14.21690845489502,12.032002537387848,14.21690845489502,12.032002537387848,14.21690845489502Z" fill="#0072FF" fill-opacity="1"/><path d="M3.05486577331604,17.78091812133789C3.05486577331604,17.78091812133789,3.05486577331604,18.38672793133789,3.05486577331604,18.38672793133789C3.05486577331604,18.38672793133789,2.42738938331604,18.38672793133789,2.42738938331604,18.38672793133789C2.42738938331604,18.38672793133789,2.42738938331604,17.78091812133789,2.42738938331604,17.78091812133789C2.42738938331604,17.78091812133789,3.05486577331604,17.78091812133789,3.05486577331604,17.78091812133789C3.05486577331604,17.78091812133789,3.05486577331604,17.78091812133789,3.05486577331604,17.78091812133789Z" fill="#FFFFFF" fill-opacity="1"/><path d="M5.4664347654815675,17.782594943310546C5.362105865481567,17.972062143310545,5.2045039654815675,18.126780743310547,5.013128665481568,18.227576543310548C4.797754165481567,18.337721843310547,4.558314065481568,18.392419543310545,4.3164824854815675,18.38673664331055C4.3164824854815675,18.38673664331055,3.3698551654815674,18.38673664331055,3.3698551654815674,18.38673664331055C3.3698551654815674,18.38673664331055,3.3698551654815674,15.881018113140547,3.3698551654815674,15.881018113140547C3.3698551654815674,15.881018113140547,4.3164824854815675,15.881018113140547,4.3164824854815675,15.881018113140547C4.558497465481567,15.875031572810547,4.798279165481567,15.928528651310547,5.014786865481567,16.036834153310547C5.205395465481567,16.135795053310545,5.362522365481567,16.288864493310548,5.4664347654815675,16.476818383310547C5.574180165481567,16.676844243310548,5.628427965481567,16.901314943310545,5.623928065481568,17.128463743310547C5.628219565481567,17.356387643310548,5.573997065481567,17.58159494331055,5.4664347654815675,17.782594943310546C5.4664347654815675,17.782594943310546,5.4664347654815675,17.782594943310546,5.4664347654815675,17.782594943310546C5.4664347654815675,17.782594943310546,5.4664347654815675,17.782594943310546,5.4664347654815675,17.782594943310546ZM4.814803365481567,17.65675854331055C4.882542265481567,17.587236443310548,4.935015065481568,17.504339843310547,4.968880365481567,17.413360343310547C5.002745765481567,17.322389143310545,5.017245165481567,17.225359843310546,5.011461965481567,17.128463743310547C5.017286765481567,17.031684543310547,5.0027956654815675,16.934755243310548,4.968930365481567,16.843908963310547C4.935065165481568,16.753062723310546,4.882558965481567,16.670320393310547,4.814803365481567,16.600979033310548C4.662984765481568,16.467860403310546,4.464684765481567,16.400164003310547,4.263159755481567,16.412652733310548C4.263159755481567,16.412652733310548,3.9773332454815673,16.412652733310548,3.9773332454815673,16.412652733310548C3.9773332454815673,16.412652733310548,3.9773332454815673,17.844250843310547,3.9773332454815673,17.844250843310547C3.9773332454815673,17.844250843310547,4.263984625481568,17.844250843310547,4.263984625481568,17.844250843310547C4.465067965481568,17.856383543310546,4.662876465481567,17.789052943310548,4.814803365481567,17.65675854331055C4.814803365481567,17.65675854331055,4.814803365481567,17.65675854331055,4.814803365481567,17.65675854331055C4.814803365481567,17.65675854331055,4.814803365481567,17.65675854331055,4.814803365481567,17.65675854331055Z" fill="#FFFFFF" fill-opacity="1"/><path d="M7.802178537731933,16.006837679226074C7.992837237731933,16.115117339226074,8.150405637731934,16.273266609226074,8.257992937731935,16.464317859226075C8.370721537731933,16.666083579226076,8.428210937731933,16.894019169226073,8.424652837731934,17.125117869226074C8.428469137731934,17.356774969226073,8.370971637731934,17.585315369226073,8.257992937731935,17.787590369226074C8.150055637731933,17.979365869226076,7.9918956377319335,18.138100869226076,7.800511937731933,18.246737969226075C7.605711737731934,18.357983369226073,7.384854337731934,18.415497569226073,7.160530237731933,18.413397769226073C6.936231137731934,18.415372569226076,6.715412857731934,18.357866569226076,6.520565147731934,18.246737969226075C6.329226467731933,18.138325669226074,6.1712838377319335,17.979515769226076,6.063919137731934,17.787590369226074C5.950565095731934,17.585465469226072,5.8930434123319335,17.356816569226073,5.897259469511933,17.125117869226074C5.892937441831934,16.893935769226076,5.950475681731934,16.665800269226075,6.063919137731934,16.464317859226075C6.171832147731934,16.273234099226073,6.329678927731933,16.115098179226074,6.520565147731934,16.006837679226074C6.715412857731934,15.895703375226073,6.936231137731934,15.838197749226074,7.160530237731933,15.840177615271074C7.3853793377319334,15.838061821426074,7.606778237731934,15.895566717226075,7.802178537731933,16.006837679226074C7.802178537731933,16.006837679226074,7.802178537731933,16.006837679226074,7.802178537731933,16.006837679226074C7.802178537731933,16.006837679226074,7.802178537731933,16.006837679226074,7.802178537731933,16.006837679226074ZM6.685556647731934,16.598467229226074C6.562629277731934,16.745517019226074,6.500090177731933,16.933742569226073,6.510566417731933,17.125117869226074C6.500058527731934,17.315734869226073,6.562640067731934,17.503193869226074,6.685556647731934,17.649262769226073C6.745439167731933,17.714343469226073,6.8188361477319335,17.765516269226076,6.900607737731933,17.799206569226072C6.982370937731933,17.832888469226074,7.0705340377319335,17.848262769226075,7.158872037731934,17.844246369226074C7.246943337731934,17.848012669226073,7.334764737731934,17.832538469226073,7.416227937731934,17.798856569226075C7.497691237731933,17.765174669226074,7.570821537731934,17.714126869226074,7.630510837731934,17.649262769226073C7.754030537731934,17.503443669226073,7.817219637731934,17.315959969226075,7.807170037731933,17.125117869226074C7.817177937731934,16.934567469226074,7.754655637731934,16.747291919226075,7.632185737731934,16.600969669226075C7.572338137731934,16.535845699226073,7.498941137731934,16.484641139226074,7.417161237731934,16.450951699226074C7.335389637731934,16.417261479226074,7.247226637731933,16.401897909226076,7.158872037731934,16.405970279226075C7.070750737731934,16.401922939226075,6.982795937731933,16.417048159226074,6.901082637731934,16.450280069226075C6.819369377731934,16.483512039226074,6.745839117731934,16.534065719226074,6.685556647731934,16.598467229226074C6.685556647731934,16.598467229226074,6.685556647731934,16.598467229226074,6.685556647731934,16.598467229226074C6.685556647731934,16.598467229226074,6.685556647731934,16.598467229226074,6.685556647731934,16.598467229226074Z" fill="#FFFFFF" fill-opacity="1"/><path d="M10.701211688085937,16.107671473940428C10.912553088085938,16.279634323940428,11.056305388085939,16.52077096394043,11.107044888085937,16.78846740394043C11.107044888085937,16.78846740394043,10.465396488085938,16.78846740394043,10.465396488085938,16.78846740394043C10.422098388085937,16.67752444394043,10.346293088085938,16.58225005394043,10.247905488085937,16.515145423940428C10.144193188085938,16.44762069394043,10.022481688085938,16.41305798394043,9.898761788085938,16.41598785394043C9.817056788085937,16.41336965394043,9.735843588085938,16.42959559394043,9.661421658085937,16.46341002394043C9.586999658085938,16.49722451394043,9.521373208085937,16.54772573394043,9.469607058085938,16.61098724394043C9.353567718085937,16.75940191394043,9.294452668085938,16.94443591394043,9.302947338085938,17.13263631394043C9.294461848085938,17.320061913940428,9.353608548085937,17.50430431394043,9.469607058085938,17.65177321394043C9.521787408085938,17.71438731394043,9.587566378085938,17.764268413940428,9.661929908085938,17.79762541394043C9.736301788085937,17.83098231394043,9.817298488085937,17.84692331394043,9.898761788085938,17.84425671394043C10.022531588085938,17.84755661394043,10.144343288085938,17.81295811394043,10.247905488085937,17.74509431394043C10.345743188085937,17.67920531394043,10.421523288085938,17.58543431394043,10.465396488085938,17.47593881394043C10.465396488085938,17.47593881394043,11.107044888085937,17.47593881394043,11.107044888085937,17.47593881394043C11.055471888085938,17.74286101394043,10.911836388085938,17.98321771394043,10.701211688085937,18.15509391394043C10.474546188085938,18.32815341394043,10.194532888085938,18.41657471394043,9.909577988085937,18.40508361394043C9.685062348085937,18.40981671394043,9.463419798085937,18.35395221394043,9.267945468085937,18.24340701394043C9.085003908085937,18.13706971394043,8.936585878085937,17.980267713940428,8.840462388085937,17.791767213940428C8.737168502085938,17.58499251394043,8.685698498985937,17.35621031394043,8.690474824485937,17.12512841394043C8.685765245885937,16.89404631394043,8.737231746085937,16.66527915394043,8.840462388085937,16.45848691394043C8.936585878085937,16.26997974394043,9.085003908085937,16.11317876394043,9.267945468085937,16.006845663940428C9.463419798085937,15.89629785694043,9.685062348085937,15.84043897504043,9.909577988085937,15.84517000019043C10.196007888085937,15.83758784364043,10.476062788085937,15.93046051994043,10.701211688085937,16.107671473940428C10.701211688085937,16.107671473940428,10.701211688085937,16.107671473940428,10.701211688085937,16.107671473940428Z" fill="#FFFFFF" fill-opacity="1"/></svg>