<svg xmlns="http://www.w3.org/2000/svg" xmlns:xlink="http://www.w3.org/1999/xlink" fill="none" version="1.1" width="13.701171875" height="20" viewBox="0 0 13.701171875 20"><g style="opacity:0.30000001192092896;"><path d="M11.642016,4.1039963C11.186202,4.1035547,10.74922,3.9222953,10.4269,3.6000006C10.10458,3.2777054,9.9233379,2.8406987,9.9229212,2.384901C9.9229212,2.384901,9.9229212,0,9.9229212,0C9.9229212,0,2.2423985,0,2.2423985,0C1.6476731,0,1.0773135,0.23624934,0.65678191,0.65678191C0.23624934,1.0773135,0,1.6476898,0,2.2424068C0,2.2424068,0,15.760179,0,15.760179C0.0008831633,16.354321,0.23752514,16.923796,0.65796185,17.343613C1.0783969,17.763428,1.6482565,17.999252,2.2423985,17.999252C2.2423985,17.999252,11.45869,17.999252,11.45869,17.999252C12.053416,17.999252,12.623725,17.763012,13.044291,17.342445C13.464858,16.921965,13.701097,16.35157,13.701097,15.756845C13.701097,15.756845,13.701097,4.1006627,13.701097,4.1006627C13.701097,4.1006627,11.642016,4.1039963,11.642016,4.1039963C11.642016,4.1039963,11.642016,4.1039963,11.642016,4.1039963Z" fill="#0072FF" fill-opacity="1" style="opacity:0.30000001192092896;"/></g><path d="M13.701093666027832,4.1039963C13.701093666027832,4.1039963,11.642012566027832,4.1039963,11.642012566027832,4.1039963C11.186214966027832,4.1035547,10.749212206027831,3.9222953,10.426914756027832,3.6000006C10.104617316027833,3.2777054,9.923358602707832,2.8406987,9.922917366027832,2.384901C9.922917366027832,2.384901,9.922917366027832,0,9.922917366027832,0C9.922917366027832,0,13.701093666027832,4.1039963,13.701093666027832,4.1039963C13.701093666027832,4.1039963,13.701093666027832,4.1039963,13.701093666027832,4.1039963Z" fill="#0072FF" fill-opacity="1"/><path d="M12.066994576591492,14.21690845489502C12.066994576591492,14.21690845489502,1.6474281765914918,14.21690845489502,1.6474281765914918,14.21690845489502C0.9083172665914917,14.21690845489502,0.3091505765914917,14.81607514489502,0.3091505765914917,15.55518605489502C0.3091505765914917,15.55518605489502,0.3091505765914917,18.66172315489502,0.3091505765914917,18.66172315489502C0.3091505765914917,19.40083405489502,0.9083172665914917,20.00000145489502,1.6474281765914918,20.00000145489502C1.6474281765914918,20.00000145489502,12.066994576591492,20.00000145489502,12.066994576591492,20.00000145489502C12.806130576591492,20.00000145489502,13.405272576591491,19.40083405489502,13.405272576591491,18.66172315489502C13.405272576591491,18.66172315489502,13.405272576591491,15.55518605489502,13.405272576591491,15.55518605489502C13.405272576591491,14.81607514489502,12.806130576591492,14.21690845489502,12.066994576591492,14.21690845489502C12.066994576591492,14.21690845489502,12.066994576591492,14.21690845489502,12.066994576591492,14.21690845489502Z" fill="#0072FF" fill-opacity="1"/><path d="M4.004838469067383,17.780927658081055C4.004838469067383,17.780927658081055,4.004838469067383,18.386737468081055,4.004838469067383,18.386737468081055C4.004838469067383,18.386737468081055,3.381532669067383,18.386737468081055,3.381532669067383,18.386737468081055C3.381532669067383,18.386737468081055,3.381532669067383,17.780927658081055,3.381532669067383,17.780927658081055C3.381532669067383,17.780927658081055,4.004838469067383,17.780927658081055,4.004838469067383,17.780927658081055C4.004838469067383,17.780927658081055,4.004838469067383,17.780927658081055,4.004838469067383,17.780927658081055Z" fill="#FFFFFF" fill-opacity="1"/><path d="M4.92647170982666,16.36265250982178C4.92647170982666,16.36265250982178,4.92647170982666,16.887636579821777,4.92647170982666,16.887636579821777C4.92647170982666,16.887636579821777,5.77309400982666,16.887636579821777,5.77309400982666,16.887636579821777C5.77309400982666,16.887636579821777,5.77309400982666,17.34428427982178,5.77309400982666,17.34428427982178C5.77309400982666,17.34428427982178,4.92647170982666,17.34428427982178,4.92647170982666,17.34428427982178C4.92647170982666,17.34428427982178,4.92647170982666,17.900919479821777,4.92647170982666,17.900919479821777C4.92647170982666,17.900919479821777,5.88143110982666,17.900919479821777,5.88143110982666,17.900919479821777C5.88143110982666,17.900919479821777,5.88143110982666,18.386740879821776,5.88143110982666,18.386740879821776C5.88143110982666,18.386740879821776,4.32149600982666,18.386740879821776,4.32149600982666,18.386740879821776C4.32149600982666,18.386740879821776,4.32149600982666,15.881003379821777,4.32149600982666,15.881003379821777C4.32149600982666,15.881003379821777,5.88143110982666,15.881003379821777,5.88143110982666,15.881003379821777C5.88143110982666,15.881003379821777,5.88143110982666,16.36265250982178,5.88143110982666,16.36265250982178C5.88143110982666,16.36265250982178,4.92647170982666,16.36265250982178,4.92647170982666,16.36265250982178C4.92647170982666,16.36265250982178,4.92647170982666,16.36265250982178,4.92647170982666,16.36265250982178Z" fill="#FFFFFF" fill-opacity="1"/><path d="M7.743857883563233,18.386740879821776C7.743857883563233,18.386740879821776,7.215554683563233,17.606773379821778,7.215554683563233,17.606773379821778C7.215554683563233,17.606773379821778,6.762231053563232,18.386740879821776,6.762231053563232,18.386740879821776C6.762231053563232,18.386740879821776,6.067263061563232,18.386740879821776,6.067263061563232,18.386740879821776C6.067263061563232,18.386740879821776,6.868061723563232,17.096794579821776,6.868061723563232,17.096794579821776C6.868061723563232,17.096794579821776,6.042270183563232,15.881003379821777,6.042270183563232,15.881003379821777C6.042270183563232,15.881003379821777,6.762231053563232,15.881003379821777,6.762231053563232,15.881003379821777C6.762231053563232,15.881003379821777,7.275543883563232,16.635976969821776,7.275543883563232,16.635976969821776C7.275543883563232,16.635976969821776,7.718867283563233,15.881003379821777,7.718867283563233,15.881003379821777C7.718867283563233,15.881003379821777,8.410505083563233,15.881003379821777,8.410505083563233,15.881003379821777C8.410505083563233,15.881003379821777,7.619696283563233,17.14261767982178,7.619696283563233,17.14261767982178C7.619696283563233,17.14261767982178,8.462994583563233,18.386740879821776,8.462994583563233,18.386740879821776C8.462994583563233,18.386740879821776,7.743857883563233,18.386740879821776,7.743857883563233,18.386740879821776C7.743857883563233,18.386740879821776,7.743857883563233,18.386740879821776,7.743857883563233,18.386740879821776Z" fill="#FFFFFF" fill-opacity="1"/><path d="M9.302958133059082,16.36265250982178C9.302958133059082,16.36265250982178,9.302958133059082,16.887636579821777,9.302958133059082,16.887636579821777C9.302958133059082,16.887636579821777,10.150412923059083,16.887636579821777,10.150412923059083,16.887636579821777C10.150412923059083,16.887636579821777,10.150412923059083,17.34428427982178,10.150412923059083,17.34428427982178C10.150412923059083,17.34428427982178,9.302958133059082,17.34428427982178,9.302958133059082,17.34428427982178C9.302958133059082,17.34428427982178,9.302958133059082,17.900919479821777,9.302958133059082,17.900919479821777C9.302958133059082,17.900919479821777,10.256250123059083,17.900919479821777,10.256250123059083,17.900919479821777C10.256250123059083,17.900919479821777,10.256250123059083,18.386740879821776,10.256250123059083,18.386740879821776C10.256250123059083,18.386740879821776,8.697148323059082,18.386740879821776,8.697148323059082,18.386740879821776C8.697148323059082,18.386740879821776,8.697148323059082,15.881003379821777,8.697148323059082,15.881003379821777C8.697148323059082,15.881003379821777,10.256250123059083,15.881003379821777,10.256250123059083,15.881003379821777C10.256250123059083,15.881003379821777,10.256250123059083,16.36265250982178,10.256250123059083,16.36265250982178C10.256250123059083,16.36265250982178,9.302958133059082,16.36265250982178,9.302958133059082,16.36265250982178C9.302958133059082,16.36265250982178,9.302958133059082,16.36265250982178,9.302958133059082,16.36265250982178Z" fill="#FFFFFF" fill-opacity="1"/><path d="M6.850545375949707,12.308655878564453C6.755513515949707,12.308655878564453,6.664376455949707,12.270907378564454,6.597178425949707,12.203710178564453C6.529980800949707,12.136512978564454,6.4922227859510455,12.045375078564453,6.492222785951026,11.950337348564453C6.492222785951026,11.950337348564453,6.492222785951026,11.399531098564452,6.492222785951026,11.399531098564452C6.492222658219177,11.352515548564453,6.501497150349707,11.305959968564453,6.519514569949707,11.262533438564454C6.537531900949707,11.219106928564454,6.563945553949707,11.179656058564452,6.597229255949707,11.146449108564454C6.630512865949707,11.113242737564454,6.670017895949707,11.086935412564452,6.713486105949707,11.069019157564453C6.756955115949707,11.051102901764454,6.803529855949707,11.041933155584454,6.850545375949707,11.042042749444933C6.945356455949707,11.042042749444933,7.036280215949707,11.079702716564453,7.103322385949707,11.146744098564453C7.170363785949707,11.213785468564453,7.208033855949707,11.304720048564453,7.208033855949707,11.399531098564452C7.208033855949707,11.399531098564452,7.208033855949707,11.950337348564453,7.208033855949707,11.950337348564453C7.208033855949707,12.045225178564452,7.170390425949707,12.136237978564454,7.103373225949707,12.203410278564453C7.036355195949707,12.270582478564453,6.945433105949707,12.308430778564453,6.850545375949707,12.308655878564453C6.850545375949707,12.308655878564453,6.850545375949707,12.308655878564453,6.850545375949707,12.308655878564453C6.850545375949707,12.308655878564453,6.850545375949707,12.308655878564453,6.850545375949707,12.308655878564453Z" fill="#0072FF" fill-opacity="1"/><path d="M6.850545375949707,7.868007073565674C6.755513515949707,7.868007073565674,6.664376455949707,7.830250173565673,6.597178425949707,7.763053073565674C6.529980800949707,7.695855873565674,6.492222785949688,7.604717873565674,6.492222785949707,7.509688493565674C6.492222785949707,7.509688493565674,6.492222785949707,6.868885963565674,6.492222785949707,6.868885963565674C6.492222785949707,6.773854103565673,6.529980800949707,6.682707053565673,6.597178425949707,6.615509013565674C6.664376455949707,6.548311222565673,6.755513515949707,6.510563373565655,6.850545375949707,6.510563373565674C6.945433105949707,6.510784042735674,7.036355195949707,6.548630125565674,7.103373225949707,6.615804003565674C7.170390425949707,6.682977883565674,7.208033855949707,6.773998263565674,7.208033855949707,6.868885963565674C7.208033855949707,6.868885963565674,7.208033855949707,7.509688493565674,7.208033855949707,7.509688493565674C7.208033855949707,7.604576273565674,7.170390425949707,7.695589073565674,7.103373225949707,7.762761373565674C7.036355195949707,7.829933673565674,6.945433105949707,7.867790173565674,6.850545375949707,7.868007073565674C6.850545375949707,7.868007073565674,6.850545375949707,7.868007073565674,6.850545375949707,7.868007073565674C6.850545375949707,7.868007073565674,6.850545375949707,7.868007073565674,6.850545375949707,7.868007073565674Z" fill="#0072FF" fill-opacity="1"/><path d="M8.121321137224122,11.968674543566895C8.058337097224122,11.968766243566895,7.996443037224121,11.952250143566895,7.9418752772241215,11.920793143566895C7.887306717224121,11.889336143566894,7.841994407224121,11.844054743566895,7.810502407224121,11.789515253566895C7.810502407224121,11.789515253566895,7.543840814224121,11.326203703566895,7.543840814224121,11.326203703566895C7.496440153074121,11.244098783566894,7.483602064224121,11.146529493566895,7.508136713224121,11.054954143566894C7.5326712762241215,10.963378803566895,7.592574782224121,10.885300368566895,7.674674717224121,10.837891589566894C7.715363847224121,10.814291069566895,7.760313657224121,10.798944788966894,7.806942557224121,10.792747813466894C7.853570607224121,10.786550862666894,7.900960297224121,10.789616690389895,7.946401747224121,10.801770505566894C7.991843197224121,10.813924249566895,8.034433067224121,10.834929127566895,8.071742357224121,10.863576188566894C8.10905164722412,10.892223413566894,8.14034533722412,10.927952763566894,8.163820267224121,10.968715233566895C8.163820267224121,10.968715233566895,8.43047493722412,11.431200203566895,8.43047493722412,11.431200203566895C8.477914687224121,11.513430953566894,8.490789177224121,11.611125173566894,8.46625685722412,11.702835623566894C8.44172447722412,11.794548343566895,8.38180202722412,11.872778543566895,8.299648757224121,11.920343243566894C8.245438517224121,11.951733543566895,8.18396103722412,11.968391343566894,8.121321137224122,11.968674543566895C8.121321137224122,11.968674543566895,8.121321137224122,11.968674543566895,8.121321137224122,11.968674543566895Z" fill="#0072FF" fill-opacity="1"/><path d="M5.9089097969970705,8.135496109466553C5.845925746997071,8.135587809466553,5.78403162699707,8.119071709466553,5.72946393699707,8.087614809466553C5.67489534699707,8.056166009466553,5.62958308699707,8.010884609466553,5.5980910369970704,7.956336809466553C5.5980910369970704,7.956336809466553,5.269776049997071,7.388863799466552,5.269776049997071,7.388863799466552C5.22240555158707,7.306531369466553,5.2096581349970705,7.208757099466553,5.23434660699707,7.117035089466553C5.25903516299707,7.025312229466553,5.319135993997071,6.947147987466553,5.401433406997071,6.899718035466552C5.48366498699707,6.852278199046553,5.5813584069970705,6.839403458466553,5.6730695669970705,6.863932606466553C5.76477992699707,6.888461668466553,5.84301000699707,6.948384605466552,5.8905796969970705,7.030541179466553C5.8905796969970705,7.030541179466553,6.21807443699707,7.598846729466553,6.21807443699707,7.598846729466553C6.26551414699707,7.681078319466553,6.278371846997071,7.778785879466553,6.25384784699707,7.870490409466552C6.229315646997071,7.9622033094665525,6.16939312699707,8.040433409466553,6.08723819699707,8.088006409466553C6.03297626699707,8.119171809466552,5.97148382699707,8.135546109466553,5.9089097969970705,8.135496109466553C5.9089097969970705,8.135496109466553,5.9089097969970705,8.135496109466553,5.9089097969970705,8.135496109466553C5.9089097969970705,8.135496109466553,5.9089097969970705,8.135496109466553,5.9089097969970705,8.135496109466553Z" fill="#0072FF" fill-opacity="1"/><path d="M9.050459568603516,11.037867126223144C8.987884638603516,11.037917136223145,8.926392258603515,11.021542786223144,8.872131948603515,10.990377426223144C8.872131948603515,10.990377426223144,8.408812878603516,10.722891036223144,8.408812878603516,10.722891036223144C8.326656304603516,10.675322176223144,8.266743454603516,10.597091256223145,8.242214389603516,10.505380926223145C8.217685325603515,10.413670536223144,8.230549850093515,10.315976296223145,8.277989655603516,10.233744696223145C8.325419686603516,10.151447296223145,8.403583928603515,10.091346621223144,8.495306788603516,10.066658064223144C8.587028798603516,10.041969507223145,8.684803068603516,10.054706816443144,8.767135498603515,10.102077342223145C8.767135498603515,10.102077342223145,9.230453718603515,10.369563256223145,9.230453718603515,10.369563256223145C9.312608618603516,10.417132076223144,9.372522818603516,10.495362166223144,9.397055118603516,10.587073386223144C9.421579118603516,10.678783716223144,9.408721318603515,10.776488006223145,9.361281618603515,10.858718756223144C9.329782918603517,10.913263976223144,9.284476518603515,10.958537106223144,9.229903818603516,10.989994106223145C9.175339338603516,11.021442826223144,9.113441948603516,11.037958736223144,9.050459568603516,11.037867126223144C9.050459568603516,11.037867126223144,9.050459568603516,11.037867126223144,9.050459568603516,11.037867126223144C9.050459568603516,11.037867126223144,9.050459568603516,11.037867126223144,9.050459568603516,11.037867126223144Z" fill="#0072FF" fill-opacity="1"/><path d="M5.2172864655590825,8.82547329923706C5.154630725559082,8.82530669923706,5.093122425559082,8.808632299237061,5.038958015559082,8.77713363923706C5.038958015559082,8.77713363923706,4.470642445559082,8.449653919237061,4.470642445559082,8.449653919237061C4.388485871559082,8.40208500923706,4.328573021559082,8.32385497923706,4.304043956559082,8.23214378923706C4.2795148925590825,8.14043342923706,4.292379417049082,8.042739149237061,4.339819222559082,7.96050838923706C4.363294161559082,7.9197459192370605,4.394588115559082,7.884016569237061,4.431897405559082,7.855369344237061C4.469205845559082,7.826722283237061,4.511796575559082,7.80571740523706,4.557238015559082,7.7935636612370605C4.602678625559082,7.78140984606006,4.650069175559082,7.7783440183370605,4.696697235559082,7.78454096913706C4.743326095559082,7.79073794463706,4.788275925559082,7.8060739752370605,4.828965065559082,7.829674579237061C4.828965065559082,7.829674579237061,5.397278885559082,8.15716522923706,5.397278885559082,8.15716522923706C5.479267285559082,8.20489072923706,5.539039685559082,8.28311085923706,5.5635553855590825,8.37475698923706C5.588062785559082,8.466402349237061,5.575321585559082,8.56402915923706,5.528106785559082,8.646314029237061C5.496608185559082,8.70085346923706,5.451301685559082,8.74614321923706,5.396728985559082,8.77759193923706C5.342164685559082,8.80904899923706,5.280267175559082,8.825564999237061,5.2172864655590825,8.82547329923706C5.2172864655590825,8.82547329923706,5.2172864655590825,8.82547329923706,5.2172864655590825,8.82547329923706C5.2172864655590825,8.82547329923706,5.2172864655590825,8.82547329923706,5.2172864655590825,8.82547329923706Z" fill="#0072FF" fill-opacity="1"/><path d="M9.392102721076661,9.7679250834375C9.392102721076661,9.7679250834375,8.84046313107666,9.7679250834375,8.84046313107666,9.7679250834375C8.74543127107666,9.7679250834375,8.65429421107666,9.730176623437501,8.58709618107666,9.6629794834375C8.51989855607666,9.5957814434375,8.48214054107668,9.5046443934375,8.48214054107666,9.4096125034375C8.48236121024666,9.3147247734375,8.52021746007666,9.2237918934375,8.58739117107666,9.1567746734375C8.654565051076661,9.0897569584375,8.74557543107666,9.05212376684648,8.84046313107666,9.052124023438813C8.84046313107666,9.052124023438813,9.392102721076661,9.052124023438813,9.392102721076661,9.052124023438813C9.48699044107666,9.05212376684648,9.57800324107666,9.0897569584375,9.64517554107666,9.1567746734375C9.71235604107666,9.2237918934375,9.75020444107666,9.3147247734375,9.75042954107666,9.4096125034375C9.75042954107666,9.5046443934375,9.712672741076661,9.5957814434375,9.64547554107666,9.6629794834375C9.57827834107666,9.730176623437501,9.48714044107666,9.7679250834375,9.392102721076661,9.7679250834375C9.392102721076661,9.7679250834375,9.392102721076661,9.7679250834375,9.392102721076661,9.7679250834375C9.392102721076661,9.7679250834375,9.392102721076661,9.7679250834375,9.392102721076661,9.7679250834375Z" fill="#0072FF" fill-opacity="1"/><path d="M4.948962037659301,9.7679259734375C4.948962037659301,9.7679259734375,4.308984487659302,9.7679259734375,4.308984487659302,9.7679259734375C4.213952627659301,9.7679259734375,4.122815567659302,9.7301775234375,4.055617537659302,9.6629803134375C3.988419912659302,9.5957822834375,3.950661897659321,9.5046452234375,3.9506618976593018,9.409613343437499C3.9508825668293017,9.3147256034375,3.9887388166593016,9.2237935634375,4.055912527659301,9.1567755034375C4.123086407659302,9.0897579604375,4.214096787659302,9.05212473772855,4.308984487659302,9.05212499431798C4.308984487659302,9.05212499431798,4.948128817659302,9.05212499431798,4.948128817659302,9.05212499431798C4.995143497659302,9.0520154004575,5.041716597659302,9.0611851466375,5.085189697659302,9.0791014024375C5.128654597659302,9.0970176574375,5.1681613976593015,9.1233249824375,5.201443297659302,9.1565313534375C5.234725197659301,9.1897383034375,5.261132497659302,9.2291891734375,5.279148297659302,9.2726156834375C5.297164297659302,9.3160422134375,5.3064388976593015,9.3625977934375,5.3064388976593015,9.409613343437499C5.3065471976593015,9.4566288934375,5.2973892976593016,9.5032036034375,5.279473297659302,9.5466726734375C5.2615572976593015,9.5901408234375,5.235241897659302,9.6296450534375,5.202034997659302,9.6629294734375C5.168827897659302,9.6962131234375,5.129379597659302,9.7226161334375,5.085947997659302,9.740633723437501C5.0425247976593015,9.7586513134375,4.995976797659302,9.7679259734375,4.948962037659301,9.7679259734375C4.948962037659301,9.7679259734375,4.948962037659301,9.7679259734375,4.948962037659301,9.7679259734375Z" fill="#0072FF" fill-opacity="1"/><path d="M8.548804403659668,8.787130075018311C8.485917863659669,8.78722167501831,8.424107923659667,8.77080577501831,8.369561853659668,8.739507075018311C8.315014953659668,8.70821666501831,8.269647084659669,8.663151915018311,8.237985320659668,8.608816685018311C8.190614818279668,8.52648508501831,8.177867400659668,8.428710815018311,8.202555875659668,8.33698797501831C8.227244432659669,8.24526506501831,8.287345267659669,8.16709080501831,8.369642693659667,8.119661125018311C8.369642693659667,8.119661125018311,8.869621873659668,7.82967451201831,8.869621873659668,7.82967451201831C8.951853513659668,7.78223470650831,9.049547733659669,7.769370182018311,9.141260623659669,7.79389924601831C9.232965113659668,7.818428311018311,9.311195213659667,7.878351986018311,9.358768213659667,7.960507735018311C9.406208013659668,8.04273930501831,9.419082413659668,8.14043357501831,9.394550113659669,8.232143965018311C9.370026113659668,8.32385426501831,9.310103613659669,8.402085245018311,9.227948713659668,8.449654105018311C9.227948713659668,8.449654105018311,8.727965293659668,8.739640355018311,8.727965293659668,8.739640355018311C8.673490073659668,8.77102237501831,8.611670943659668,8.78740497501831,8.548804403659668,8.787130075018311C8.548804403659668,8.787130075018311,8.548804403659668,8.787130075018311,8.548804403659668,8.787130075018311C8.548804403659668,8.787130075018311,8.548804403659668,8.787130075018311,8.548804403659668,8.787130075018311Z" fill="#0072FF" fill-opacity="1"/><path d="M4.649804175559082,11.037869544506837C4.586927625559082,11.037986244506836,4.525141865559082,11.021470344506836,4.4707032855590825,10.990013244506835C4.4162655455590825,10.958547834506836,4.371110588559082,10.913258074506835,4.339819222559082,10.858718694506836C4.292379417049082,10.776488844506837,4.2795148925590825,10.678784544506836,4.304043956559082,10.587073324506836C4.328573021559082,10.495362964506835,4.388485871559082,10.417132884506836,4.470642445559082,10.369563194506837C4.470642445559082,10.369563194506837,5.000629605559082,10.063749406506837,5.000629605559082,10.063749406506837C5.082912025559082,10.016533349146837,5.1805296555590825,10.003787894506836,5.272175845559082,10.028299626506836C5.363821985559082,10.052811358506837,5.442052085559082,10.112584702506837,5.489775085559082,10.194572954506835C5.537148085559082,10.276905384506836,5.549880985559082,10.374679654506837,5.525198685559082,10.466401664506837C5.500507985559082,10.558124544506835,5.440402185559082,10.636288764506835,5.358105585559082,10.683718444506836C5.358105585559082,10.683718444506836,4.828965065559082,10.989546594506836,4.828965065559082,10.989546594506836C4.774665655559082,11.021445244506836,4.712779045559082,11.038136244506836,4.649804175559082,11.037869544506837C4.649804175559082,11.037869544506837,4.649804175559082,11.037869544506837,4.649804175559082,11.037869544506837C4.649804175559082,11.037869544506837,4.649804175559082,11.037869544506837,4.649804175559082,11.037869544506837Z" fill="#0072FF" fill-opacity="1"/><path d="M6.892208526647949,11.758674668341065C6.892208526647949,11.758674668341065,6.834719426647949,11.758674668341065,6.834719426647949,11.758674668341065C6.425161326647949,11.749099768341065,6.025694626647949,11.629663468341064,5.6781007266479495,11.412855668341065C5.334586616647949,11.199881068341064,5.052989156647949,10.900485268341065,4.8614621166479495,10.544566668341064C4.6824470386479495,10.209422368341064,4.588581989027949,9.835396068341066,4.588137626647949,9.455436968341065C4.588137626647949,9.436270968341065,4.588137626647949,9.417113568341065,4.588137626647949,9.397947568341063C4.597993384147949,9.006363868341065,4.707558496647949,8.623763068341065,4.9064635666479495,8.286318768341065C5.1051069466479495,7.949329498341065,5.386101126647949,7.668336148341065,5.723090426647949,7.469691898341065C6.061943026647949,7.270636838341065,6.44599382664795,7.161354305241065,6.838877426647949,7.1522005567476645C6.838877426647949,7.1522005567476645,6.89137532664795,7.1522005567476645,6.89137532664795,7.1522005567476645C7.271809326647949,7.151797403351065,7.646360426647949,7.246012874341065,7.981330126647949,7.4263586983410645C8.33695702664795,7.617223288341064,8.63612792664795,7.898285808341065,8.84879402664795,8.241328968341065C9.065860226647949,8.590597768341064,9.185021926647948,8.991806268341065,9.19377942664795,9.402939068341064C9.19377942664795,9.417105168341065,9.19377942664795,9.436270968341065,9.19377942664795,9.455436968341065C9.193862926647949,9.853262168341065,9.090792226647949,10.244295868341064,8.89463372664795,10.590389768341065C8.68956712664795,10.953632868341064,8.38937142664795,11.254112268341064,8.02632812664795,11.459528968341065C7.680450726647949,11.655478968341065,7.2897339266479495,11.758541068341064,6.892208526647949,11.758674668341065C6.892208526647949,11.758674668341065,6.892208526647949,11.758674668341065,6.892208526647949,11.758674668341065C6.892208526647949,11.758674668341065,6.892208526647949,11.758674668341065,6.892208526647949,11.758674668341065ZM6.883042326647949,7.867177008341065C6.883042326647949,7.867177008341065,6.860543226647949,7.867177008341065,6.860543226647949,7.867177008341065C6.588304526647949,7.8730909783410645,6.322098826647949,7.9485345483410645,6.0872420266479494,8.086335478341065C5.855018426647949,8.223288068341065,5.661226426647949,8.416788468341064,5.523932036647949,8.648812068341064C5.387995246647949,8.882118968341064,5.313990776647949,9.146308068341064,5.308942676647949,9.416280068341065C5.308942676647949,9.431279668341064,5.308942676647949,9.442104068341065,5.308942676647949,9.452937168341064C5.308768506647949,9.714651068341064,5.3734741766479495,9.972323668341065,5.497266526647949,10.202905868341064C5.629127726647949,10.448870668341065,5.82341132664795,10.655803468341064,6.060576426647949,10.802889368341065C6.301199826647949,10.952157968341064,6.57744662664795,11.034171568341065,6.860543226647949,11.040370968341065C6.860543226647949,11.040370968341065,6.897216826647949,11.040370968341065,6.897216826647949,11.040370968341065C7.171463726647949,11.040695868341064,7.441077226647949,10.969773968341064,7.67967582664795,10.834554668341065C7.930223926647949,10.692752168341064,8.13736512664795,10.485319168341064,8.27881762664795,10.234571468341064C8.41389532664795,9.996222768341065,8.48481752664795,9.726900568341065,8.48464222664795,9.452937168341064C8.48464222664795,9.452937168341064,8.48464222664795,9.421280168341065,8.48464222664795,9.421280168341065C8.47846772664795,9.136500168341065,8.396179226647948,8.858553368341065,8.24631902664795,8.616313468341065C8.09970832664795,8.379764868341065,7.893342026647949,8.186048068341064,7.6480105266479494,8.054670098341065C7.413511726647949,7.929444428341064,7.151381226647949,7.8649838583410645,6.885550526647949,7.867177008341065C6.885550526647949,7.867177008341065,6.883042326647949,7.867177008341065,6.883042326647949,7.867177008341065C6.883042326647949,7.867177008341065,6.883042326647949,7.867177008341065,6.883042326647949,7.867177008341065Z" fill="#0072FF" fill-opacity="1"/><path d="M7.81384679406372,8.098000733685303C7.751246874063721,8.098250733685303,7.689704444063721,8.081851433685303,7.63552002406372,8.050502733685303C7.594757554063721,8.027028833685304,7.559028204063721,7.995738433685303,7.530380979063721,7.9584316336853025C7.501733918063721,7.921124833685303,7.4807290400637205,7.878526533685303,7.468575296063721,7.833078443685302C7.45642148088672,7.787638723685303,7.453355653163721,7.740249033685303,7.45955260396372,7.693625923685302C7.46574957946372,7.6469945336853025,7.481085610063721,7.602044703685303,7.504686214063721,7.561354813685303C7.504686214063721,7.561354813685303,7.810510274063721,7.0305443236853025,7.810510274063721,7.0305443236853025C7.833985094063721,6.989781853685303,7.865268794063721,6.954052503685303,7.9025780840637205,6.925405278685303C7.939887374063721,6.896758217685303,7.98248809406372,6.875753339685303,8.027928714063721,6.863599595685303C8.07337015406372,6.851445780508302,8.12075984406372,6.848379952785303,8.16738879406372,6.854576903585302C8.21401685406372,6.860773879085302,8.25896662406372,6.8761201596853025,8.29965990406372,6.899720679685303C8.34041661406372,6.923195622685303,8.37614840406372,6.954479153685303,8.404797254063721,6.9917884336853025C8.43344605406372,7.029097723685303,8.454436774063721,7.071698453685303,8.46659473406372,7.117139073685303C8.47874413406372,7.162580493685303,8.48181903406372,7.209970203685303,8.47562753406372,7.256599093685303C8.46942783406372,7.303227183685303,8.45407855406372,7.348176983685303,8.43047952406372,7.388866963685302C8.43047952406372,7.388866963685302,8.124665554063721,7.918841633685303,8.124665554063721,7.918841633685303C8.09317350406372,7.973389433685303,8.04786121406372,8.018670833685302,7.993292694063721,8.050127733685303C7.938724934063721,8.081576433685303,7.87683084406372,8.098092533685303,7.81384679406372,8.098000733685303C7.81384679406372,8.098000733685303,7.81384679406372,8.098000733685303,7.81384679406372,8.098000733685303C7.81384679406372,8.098000733685303,7.81384679406372,8.098000733685303,7.81384679406372,8.098000733685303Z" fill="#0072FF" fill-opacity="1"/><path d="M5.57976099699707,11.968675159924317C5.51708945699707,11.968625159924317,5.4555519969970705,11.951950859924317,5.4014334269970705,11.920343859924316C5.31913600099707,11.872912559924316,5.25903516599707,11.794740659924317,5.23434660899707,11.703019559924316C5.2096581339970705,11.611298319924316,5.22240555161707,11.513531509924317,5.26977605399707,11.431199189924316C5.26977605399707,11.431199189924316,5.55976268699707,10.931219919924317,5.55976268699707,10.931219919924317C5.60733151699707,10.849064170924317,5.68556162699707,10.789140495924316,5.77727281699707,10.764611430924317C5.868983146997071,10.740082366924316,5.96667742699707,10.752946891414316,6.04890823699707,10.800386696924317C6.13106143699707,10.847955889924316,6.19099229699707,10.926185969924317,6.21551632699707,11.017897159924317C6.240048546997071,11.109607519924316,6.22717404699707,11.207301799924316,6.1797344069970706,11.289532539924316C6.1797344069970706,11.289532539924316,5.89057975699707,11.789515959924316,5.89057975699707,11.789515959924316C5.85908776699707,11.844055459924316,5.813774646997071,11.889336859924317,5.75920688699707,11.920793759924317C5.70463833699707,11.952242459924317,5.642745076997071,11.968758459924317,5.57976099699707,11.968675159924317C5.57976099699707,11.968675159924317,5.57976099699707,11.968675159924317,5.57976099699707,11.968675159924317C5.57976099699707,11.968675159924317,5.57976099699707,11.968675159924317,5.57976099699707,11.968675159924317Z" fill="#0072FF" fill-opacity="1"/></svg>