<svg xmlns="http://www.w3.org/2000/svg" xmlns:xlink="http://www.w3.org/1999/xlink" fill="none" version="1.1" width="13.7021484375" height="20" viewBox="0 0 13.7021484375 20"><g style="opacity:0.30000001192092896;"><path d="M11.639167,4.1033335C11.183584,4.1028919,10.746751,3.9217167,10.424584,3.5995584C10.102417,3.2773998,9.9212513,2.8405917,9.9208345,2.385C9.9208345,2.385,9.9208345,5.3532266e-15,9.9208345,5.3532266e-15C9.9208345,5.3532266e-15,2.2424917,5.3532266e-15,2.2424917,5.3532266e-15C1.6478918,-4.1055412e-8,1.0776334,0.23614916,0.65710419,0.65651917C0.23657833,1.0768917,0.00022096002,1.6470665,0,2.2416668C0,2.2416668,0,15.759999,0,15.759999C0.00066255836,16.354334,0.23721583,16.924084,0.65769422,17.344082C1.0781751,17.764084,1.648175,18,2.2424917,18C2.2424917,18,11.459167,18,11.459167,18C11.75375,18.000084,12.045417,17.942165,12.317585,17.829498C12.58975,17.716917,12.837084,17.55175,13.045417,17.343498C13.253751,17.13525,13.419001,16.888,13.531751,16.615833C13.6445,16.34375,13.702499,16.052082,13.702499,15.757499C13.702499,15.757499,13.702499,4.1033335,13.702499,4.1033335C13.702499,4.1033335,11.639167,4.1033335,11.639167,4.1033335C11.639167,4.1033335,11.639167,4.1033335,11.639167,4.1033335Z" fill="#00C650" fill-opacity="1" style="opacity:0.30000001192092896;"/></g><path d="M13.70249580234375,4.1033335C13.70249580234375,4.1033335,11.63916240234375,4.1033335,11.63916240234375,4.1033335C11.18356240234375,4.1028919,10.74675572234375,3.9217167,10.42460155234375,3.5995584C10.10244657234375,3.2773998,9.92127865649375,2.8405917,9.92083740234375,2.385C9.92083740234375,2.385,9.92083740234375,0,9.92083740234375,0C9.92083740234375,0,13.70249580234375,4.1033335,13.70249580234375,4.1033335C13.70249580234375,4.1033335,13.70249580234375,4.1033335,13.70249580234375,4.1033335Z" fill="#00C650" fill-opacity="1"/><path d="M12.09166734326744,14.2166748046875C12.09166734326744,14.2166748046875,1.6716500432674408,14.2166748046875,1.6716500432674408,14.2166748046875C0.9325100432674408,14.2166748046875,0.3333333432674408,14.8158514546875,0.3333333432674408,15.5549912046875C0.3333333432674408,15.5549912046875,0.3333333432674408,18.6616583046875,0.3333333432674408,18.6616583046875C0.3333333432674408,19.4007997046875,0.9325100432674408,19.9999995046875,1.6716500432674408,19.9999995046875C1.6716500432674408,19.9999995046875,12.09166734326744,19.9999995046875,12.09166734326744,19.9999995046875C12.83083434326744,19.9999995046875,13.43000034326744,19.4007997046875,13.43000034326744,18.6616583046875C13.43000034326744,18.6616583046875,13.43000034326744,15.5549912046875,13.43000034326744,15.5549912046875C13.43000034326744,14.8158514546875,12.83083434326744,14.2166748046875,12.09166734326744,14.2166748046875C12.09166734326744,14.2166748046875,12.09166734326744,14.2166748046875,12.09166734326744,14.2166748046875Z" fill="#00C650" fill-opacity="1"/><path d="M1.8590000292092896,18.437332615441896L1.2500001192092896,18.437332615441896L1.2500001192092896,17.831332815441893L1.8590000292092896,17.831332815441893L1.8590000292092896,18.437332615441896ZM4.469000419209289,18.437332615441896L3.8839999192092893,18.437332615441896L3.8839999192092893,17.378332715441893L2.75600011920929,17.378332715441893L2.75600011920929,18.437332615441896L2.1740001992092894,18.437332615441896L2.1740001992092894,15.833333015441895L2.75600011920929,15.833333015441895L2.75600011920929,16.874332915441894L3.8839999192092893,16.874332915441894L3.8839999192092893,15.833333015441895L4.469000419209289,15.833333015441895L4.469000419209289,18.437332615441896ZM7.045999619209289,16.313332855441896L6.2090002192092895,16.313332855441896L6.2090002192092895,18.437332615441896L5.614999919209289,18.437332615441896L5.614999919209289,16.313332855441896L4.775000219209289,16.313332855441896L4.775000219209289,15.833333015441895L7.045999619209289,15.833333015441895L7.045999619209289,16.313332855441896ZM10.07300011920929,18.437332615441896L9.51200021920929,18.437332615441896L9.51200021920929,16.880332915441894Q9.51200021920929,16.604332865441894,9.533000119209289,16.301332955441893L9.52400031920929,16.301332955441893Q9.47900021920929,16.580332875441893,9.434000119209289,16.742332995441895L8.951000319209289,18.437332615441896L8.45600001920929,18.437332615441896L7.97599991920929,16.691332935441896Q7.928000619209289,16.520332935441896,7.88300051920929,16.298332985441895L7.87399971920929,16.298332985441895Q7.89799991920929,16.682332935441895,7.89799991920929,17.000332815441894L7.89799991920929,18.437332615441896L7.342999119209289,18.437332615441896L7.342999119209289,15.833333015441895L8.21299991920929,15.833333015441895L8.66899981920929,17.528332815441896Q8.692999919209289,17.618332815441896,8.702000219209289,17.807332715441895L8.70799981920929,17.807332715441895Q8.716999219209288,17.609332915441893,8.74099981920929,17.525332915441894L9.19999991920929,15.833333015441895L10.07300011920929,15.833333015441895L10.07300011920929,18.437332615441896ZM12.367999119209289,18.437332615441896L10.45399961920929,18.437332615441896L10.45399961920929,15.833333015441895L11.036000419209289,15.833333015441895L11.036000419209289,17.963332915441896L12.367999119209289,17.963332915441896L12.367999119209289,18.437332615441896Z" fill="#FFFFFF" fill-opacity="1"/><path d="M3.469982422917553,9.515821758933106C3.469066072136553,9.479888378933106,3.4802254219665527,9.444680158933105,3.501659672966553,9.415821788933105C3.5269381739665526,9.383346798933106,3.5573426709665528,9.355199338933106,3.5916660119665527,9.332490088933106C3.643580201966553,9.305436728933106,3.6973168519665527,9.282046738933106,3.7524935019665526,9.262490928933106C3.7524935019665526,9.262490928933106,3.913321881966553,9.195825098933106,3.913321881966553,9.195825098933106C3.913321881966553,9.195825098933106,4.5566552719665525,8.924991758933105,4.5566552719665525,8.924991758933105C4.646096971966553,8.883325128933105,4.812763671966553,8.813880948933106,5.056655371966553,8.716658458933106C5.056655371966553,8.716658458933106,5.362497071966553,8.591658468933105,5.362497071966553,8.591658468933105C5.362497071966553,8.591658468933105,5.472488671966553,8.552491716933105,5.472488671966553,8.552491716933105C5.472488671966553,8.552491716933105,5.491646971966553,8.544157884133105,5.491646971966553,8.544157884133105C5.496863571966553,8.542977242733105,5.502288571966552,8.542977242733105,5.507497071966553,8.544157884133105C5.519813771966552,8.538628850833106,5.533163571966552,8.535787462813106,5.546663771966553,8.535824006133106C5.572463771966553,8.534488859433106,5.598271871966553,8.538294842733105,5.622588671966552,8.547021382933105C5.6469137719665525,8.555747964933106,5.669255271966552,8.569222464933105,5.688322071966553,8.586658637933105C5.704221971966552,8.602024882933106,5.7169136719665525,8.620399288933106,5.725638671966553,8.640715128933106C5.734363571966552,8.661030958933106,5.7389721719665525,8.682880128933105,5.739171971966552,8.704990948933105C5.739171971966552,8.704990948933105,5.739171971966552,8.916657628933105,5.739171971966552,8.916657628933105C5.738422171966553,8.956070958933106,5.725930171966553,8.994367658933106,5.7033216719665525,9.026658448933105C5.680638571966552,9.063069288933105,5.646271971966552,9.090690968933105,5.605830471966552,9.104991788933106C5.605830471966552,9.104991788933106,4.291657681966552,9.642488468933106,4.291657681966552,9.642488468933106C4.291657681966552,9.642488468933106,5.605830471966552,10.179988468933105,5.605830471966552,10.179988468933105C5.6448468719665525,10.195946768933105,5.678613671966552,10.222505068933106,5.7033216719665525,10.256654968933105C5.726797071966553,10.287554968933105,5.739413471966553,10.325355268933105,5.739171971966552,10.364155168933106C5.739171971966552,10.364155168933106,5.739171971966552,10.575821868933104,5.739171971966552,10.575821868933104C5.738655371966553,10.620955268933105,5.720388671966553,10.664063468933104,5.688322071966553,10.695821768933106C5.669588771966552,10.713838368933105,5.647330271966553,10.727796768933105,5.622955371966553,10.736829968933105C5.598580371966553,10.745863468933106,5.572613671966552,10.749779968933105,5.546663771966553,10.748321768933106C5.533255371966552,10.748254968933106,5.519980171966553,10.745713468933106,5.507497071966553,10.740821868933105C5.507497071966553,10.740821868933105,5.472488671966553,10.729155068933105,5.472488671966553,10.729155068933105C5.472488671966553,10.729155068933105,5.362497071966553,10.689988368933106,5.362497071966553,10.689988368933106C5.362497071966553,10.689988368933106,5.056655371966553,10.564155068933106,5.056655371966553,10.564155068933106C5.056655371966553,10.564155068933106,4.5566552719665525,10.356655168933106,4.5566552719665525,10.356655168933106C4.5566552719665525,10.356655168933106,3.913321881966553,10.085821768933105,3.913321881966553,10.085821768933105C3.913321881966553,10.085821768933105,3.7524935019665526,10.019155168933105,3.7524935019665526,10.019155168933105C3.6999935219665527,9.998321668933105,3.6466660219665528,9.974988368933106,3.5916660119665527,9.948321868933105C3.557433507966553,9.932455068933105,3.5280854259665526,9.907696768933105,3.5066849249665526,9.876621568933105C3.4852844239665526,9.845546768933106,3.472598663966553,9.809296768933105,3.469982422917553,9.771655068933105C3.469982422917553,9.771655068933105,3.469982422917553,9.515821758933106,3.469982422917553,9.515821758933106C3.469982422917553,9.515821758933106,3.469982422917553,9.515821758933106,3.469982422917553,9.515821758933106Z" fill="#00C650" fill-opacity="1"/><path d="M6.101664480118409,10.974999202526856C6.049717010118409,10.976807802526857,5.998946167118408,10.959291202526856,5.959167924118408,10.925832502526855C5.941460673118408,10.912116302526854,5.9270935041184085,10.894566102526856,5.917135089118408,10.874507902526855C5.907176672918408,10.854449502526855,5.901890472628408,10.832391002526855,5.901672840118408,10.809999202526855C5.901672840118333,10.778332902526856,5.995830335118408,10.559999502526855,6.184163660118408,10.143333002526855C6.184163660118408,10.143333002526855,6.4591678401184085,9.539166302526855,6.4591678401184085,9.539166302526855C6.4591678401184085,9.539166302526855,6.517497000118408,9.413332802526856,6.517497000118408,9.413332802526856C6.517497000118408,9.413332802526856,6.960839540118409,8.429163752526856,6.960839540118409,8.429163752526856C6.960839540118409,8.429163752526856,7.117489440118408,8.088330422526855,7.117489440118408,8.088330422526855C7.117489440118408,8.088330422526855,7.149172740118408,8.009997052526856,7.149172740118408,8.009997052526856C7.161314340118408,7.9810820525268555,7.175806140118408,7.953211232526855,7.1925062401184086,7.926663732526856C7.214497840118408,7.890576817526855,7.245681040118408,7.860985901526855,7.282881140118408,7.8409244005268555C7.320072740118408,7.820862819426855,7.361939440118408,7.811052561126855,7.404172940118408,7.812497249456856C7.404172940118408,7.812497249456856,7.5999977401184085,7.812497249456856,7.5999977401184085,7.812497249456856C7.652189640118408,7.810715569426855,7.703214540118408,7.828217819526856,7.743331040118408,7.861663568526856C7.7608810401184085,7.875461399526856,7.775097940118409,7.8930445685268555,7.784914340118409,7.913101232526856C7.794722940118408,7.933157052526855,7.799889440118408,7.955170412526855,7.8000062401184085,7.9774979025268555C7.733297840118408,8.171812892526855,7.654814640118408,8.361885372526855,7.5650060401184085,8.546663762526855C7.5650060401184085,8.546663762526855,7.521664540118408,8.640830402526856,7.521664540118408,8.640830402526856C7.521664540118408,8.640830402526856,7.188331140118408,9.369999502526856,7.188331140118408,9.369999502526856C7.188331140118408,9.369999502526856,6.7449978001184085,10.354166002526856,6.7449978001184085,10.354166002526856C6.7449978001184085,10.354166002526856,6.588338670118408,10.695833002526856,6.588338670118408,10.695833002526856C6.588338670118408,10.695833002526856,6.556661190118408,10.774166102526856,6.556661190118408,10.774166102526856C6.545457780118408,10.805474502526856,6.531222820118408,10.835616102526856,6.514160330118409,10.864166002526856C6.490549560118408,10.899674402526855,6.458451210118408,10.928716402526856,6.420756160118408,10.948657702526855C6.383062000118408,10.968591202526856,6.340981190118408,10.978791202526855,6.298340290118408,10.978332802526856C6.298340290118408,10.978332802526856,6.101664480118409,10.974999202526856,6.101664480118409,10.974999202526856C6.101664480118409,10.974999202526856,6.101664480118409,10.974999202526856,6.101664480118409,10.974999202526856Z" fill="#00C650" fill-opacity="1"/><path d="M8.160836848308106,10.749993567602539C8.134359328308106,10.75166036760254,8.107820178308106,10.74786016760254,8.082874328308105,10.738826967602538C8.057929329308106,10.72980186760254,8.035111330308105,10.71572686760254,8.015837744308106,10.697493567602539C7.999738332308105,10.681935267602539,7.986953495308105,10.663293567602539,7.978219745308105,10.642668767602538C7.969485928808106,10.62205196760254,7.9649936181551055,10.59988526760254,7.965015780655405,10.577493667602539C7.965015780655405,10.577493667602539,7.965015780655405,10.365835467602539,7.965015780655405,10.365835467602539C7.964637034048105,10.32740186760254,7.976284496308105,10.289810267602538,7.998340994308106,10.25833526760254C8.023269415308105,10.22336046760254,8.058095164308105,10.196660267602539,8.098336828308106,10.181660267602538C8.098336828308106,10.181660267602538,9.415840128308105,9.644168767602538,9.415840128308105,9.644168767602538C9.415840128308105,9.644168767602538,8.098336828308106,9.10666370760254,8.098336828308106,9.10666370760254C8.058210998308105,9.08894699760254,8.024068083308105,9.060006977602539,8.000009246308105,9.023330327602539C7.977871911308106,8.991482047602538,7.965696893288105,8.953778687602538,7.965015780655405,8.914998617602539C7.965015780655405,8.914998617602539,7.965015780655405,8.699997007602539,7.965015780655405,8.699997007602539C7.965039896575106,8.67770366760254,7.969707812208106,8.65566199760254,7.978748662308106,8.63528449760254C7.987789580308106,8.61490616960254,8.000994082308106,8.59664341760254,8.017505999308105,8.58166508360254C8.056819327308105,8.546664500602539,8.108255998308106,8.52842015910254,8.160836848308106,8.530830390042539C8.173295168308105,8.530518250042538,8.185642688308105,8.53338678440254,8.196685168308106,8.53916425070254C8.203851838308106,8.537902834402539,8.211185188308106,8.537902834402539,8.218352678308106,8.53916425070254C8.218352678308106,8.53916425070254,8.235849348308106,8.547498082602539,8.235849348308106,8.547498082602539C8.230015988308105,8.547498082602539,8.265851018308105,8.557498168602539,8.341684338308106,8.586664836602539C8.341684338308106,8.586664836602539,8.651681898308105,8.711664487602539,8.651681898308105,8.711664487602539C8.635570168308105,8.70444282760254,8.802240188308106,8.77388700760254,9.151681928308106,8.919997837602539C9.342240228308105,8.99833115760254,9.560557028308105,9.09110867760254,9.806673728308105,9.198331177602538C9.822507128308105,9.20333111760254,9.843340228308106,9.21166443760254,9.870006828308105,9.221664487602538C9.870006828308105,9.221664487602538,9.960007028308105,9.257497017602539,9.960007028308105,9.257497017602539C10.012798828308105,9.27632277760254,10.063832028308106,9.29974531760254,10.112515228308105,9.327496947602539C10.147631928308105,9.343309457602539,10.177631828308105,9.368618667602538,10.199123828308105,9.400568667602538C10.220623528308106,9.43252694760254,10.232765428308106,9.469843747602539,10.234181928308105,9.50833528760254C10.234181928308105,9.50833528760254,10.234181928308105,9.766668567602538,10.234181928308105,9.766668567602538C10.233823528308106,9.802152067602538,10.222131928308105,9.836601867602539,10.200831928308105,9.865001867602539C10.177765328308105,9.897518667602538,10.147565328308104,9.924318567602539,10.112515228308105,9.943335267602539C10.065848628308105,9.966668467602538,10.009181928308106,9.991660267602539,9.945848628308106,10.018326967602539C9.945848628308106,10.018326967602539,9.779181928308105,10.084993567602538,9.779181928308105,10.084993567602538C9.779181928308105,10.084993567602538,8.327503528308105,10.69249366760254,8.327503528308105,10.69249366760254C8.285836848308106,10.713326967602539,8.260846018308106,10.726660467602539,8.253345998308106,10.73166016760254C8.253345998308106,10.73166016760254,8.237517688308106,10.743335467602538,8.237517688308106,10.743335467602538C8.237517688308106,10.743335467602538,8.160836848308106,10.749993567602539,8.160836848308106,10.749993567602539C8.160836848308106,10.749993567602539,8.160836848308106,10.749993567602539,8.160836848308106,10.749993567602539Z" fill="#00C650" fill-opacity="1"/></svg>