<svg xmlns="http://www.w3.org/2000/svg" xmlns:xlink="http://www.w3.org/1999/xlink" fill="none" version="1.1" width="13.7021484375" height="20" viewBox="0 0 13.7021484375 20"><g style="opacity:0.30000001192092896;"><path d="M11.639168,4.103334C11.183501,4.1031089,10.746585,3.9220088,10.424418,3.5998006C10.102168,3.2776003,9.9210844,2.8406584,9.9208345,2.3850005C9.9208345,2.3850005,9.9208345,5.3463225e-15,9.9208345,5.3463225e-15C9.9208345,5.3463225e-15,2.242517,5.3463225e-15,2.242517,5.3463225e-15C1.9479502,-2.0338369e-8,1.6562836,0.058028091,1.3841585,0.17077668C1.1120251,0.28352502,0.86475843,0.44878086,0.65651506,0.65710425C0.44826838,0.86542511,0.28311837,1.1127417,0.17047168,1.3849086C0.057824172,1.6570752,-0.00010930585,1.9487752,1.5482316e-7,2.2433336C1.5482316e-7,2.2433336,1.5482316e-7,15.760836,1.5482316e-7,15.760836C-0.00010930585,16.055418,0.057824172,16.347084,0.17047168,16.619251C0.28311837,16.891418,0.44826838,17.138752,0.65651506,17.347084C0.86475843,17.555418,1.1120251,17.720669,1.3841585,17.83342C1.6562836,17.946169,1.9479502,18.004169,2.242517,18.004169C2.242517,18.004169,11.459167,18.004169,11.459167,18.004169C11.753751,18.004169,12.045418,17.946169,12.317501,17.83342C12.589668,17.720669,12.836918,17.555418,13.045169,17.347084C13.253418,17.138752,13.418585,16.891418,13.531252,16.619251C13.643835,16.347084,13.701752,16.055418,13.701668,15.760836C13.701668,15.760836,13.701668,4.104167,13.701668,4.104167C13.701668,4.104167,11.639168,4.103334,11.639168,4.103334C11.639168,4.103334,11.639168,4.103334,11.639168,4.103334Z" fill="#00C650" fill-opacity="1" style="opacity:0.30000001192092896;"/></g><path d="M13.701680456018067,4.103334C13.701680456018067,4.103334,11.639180156018066,4.103334,11.639180156018066,4.103334C11.183521856018066,4.1031089,10.746580956018066,3.9220088,10.424378396018067,3.5998006C10.102175876018066,3.2776003,9.921059176038066,2.8406584,9.920838356018066,2.3850005C9.920838356018066,2.3850005,9.920838356018066,0,9.920838356018066,0C9.920838356018066,0,13.701680456018067,4.103334,13.701680456018067,4.103334C13.701680456018067,4.103334,13.701680456018067,4.103334,13.701680456018067,4.103334Z" fill="#00C650" fill-opacity="1"/><path d="M12.055840736351014,14.216666221618652C12.055840736351014,14.216666221618652,1.6358475363510132,14.216666221618652,1.6358475363510132,14.216666221618652C0.8967033063510131,14.216666221618652,0.2975057363510132,14.815863791618652,0.2975057363510132,15.555008021618653C0.2975057363510132,15.555008021618653,0.2975057363510132,18.661666821618653,0.2975057363510132,18.661666821618653C0.2975057363510132,19.400808821618654,0.8967033063510131,20.000000521618652,1.6358475363510132,20.000000521618652C1.6358475363510132,20.000000521618652,12.055840736351014,20.000000521618652,12.055840736351014,20.000000521618652C12.795006736351013,20.000000521618652,13.394173736351012,19.400808821618654,13.394173736351012,18.661666821618653C13.394173736351012,18.661666821618653,13.394173736351012,15.555008021618653,13.394173736351012,15.555008021618653C13.394173736351012,14.815863791618652,12.795006736351013,14.216666221618652,12.055840736351014,14.216666221618652C12.055840736351014,14.216666221618652,12.055840736351014,14.216666221618652,12.055840736351014,14.216666221618652Z" fill="#00C650" fill-opacity="1"/><path d="M3.7458302348059083,17.780834197998047C3.7458302348059083,17.780834197998047,3.7458302348059083,18.387503447998046,3.7458302348059083,18.387503447998046C3.7458302348059083,18.387503447998046,3.118347644805908,18.387503447998046,3.118347644805908,18.387503447998046C3.118347644805908,18.387503447998046,3.118347644805908,17.780834197998047,3.118347644805908,17.780834197998047C3.118347644805908,17.780834197998047,3.7458302348059083,17.780834197998047,3.7458302348059083,17.780834197998047C3.7458302348059083,17.780834197998047,3.7458302348059083,17.780834197998047,3.7458302348059083,17.780834197998047Z" fill="#FFFFFF" fill-opacity="1"/><path d="M5.608336322930908,15.881665229797363C5.608336322930908,15.881665229797363,5.608336322930908,17.593332129797364,5.608336322930908,17.593332129797364C5.608336322930908,17.856115429797363,5.536944622930909,18.058057029797364,5.394169422930908,18.199173929797364C5.314461222930908,18.272665529797365,5.220794522930908,18.329348829797365,5.118711222930909,18.365857329797365C5.016636122930908,18.402365429797364,4.908236122930909,18.417940629797364,4.800011162930908,18.411665629797362C4.6814669929309085,18.418023829797363,4.562843622930908,18.400832129797365,4.4509894829309085,18.361065629797363C4.339135262930908,18.321298829797364,4.236263602930908,18.259765629797364,4.148336082930908,18.180007029797363C3.987780734930908,18.025007229797364,3.9072332788509083,17.802782129797365,3.906677722930908,17.513340329797362C3.906677722930908,17.513340329797362,4.505839462930908,17.513340329797362,4.505839462930908,17.513340329797362C4.505839462930908,17.747507229797364,4.595001162930908,17.864165529797365,4.771669502930909,17.864165529797365C4.925836222930908,17.864165529797365,5.002502922930908,17.774173829797363,5.002502922930908,17.595007229797364C5.002502922930908,17.595007229797364,5.002502922930908,15.883333521697363,5.002502922930908,15.883333521697363C5.002502922930908,15.883333521697363,5.608336322930908,15.881665229797363,5.608336322930908,15.881665229797363C5.608336322930908,15.881665229797363,5.608336322930908,15.881665229797363,5.608336322930908,15.881665229797363Z" fill="#FFFFFF" fill-opacity="1"/><path d="M6.613343357893067,17.508332129797363C6.613343357893067,17.508332129797363,6.613343357893067,18.387507229797365,6.613343357893067,18.387507229797365C6.613343357893067,18.387507229797365,6.007508277893066,18.387507229797365,6.007508277893066,18.387507229797365C6.007508277893066,18.387507229797365,6.007508277893066,15.881665229797363,6.007508277893066,15.881665229797363C6.007508277893066,15.881665229797363,6.989175017893066,15.881665229797363,6.989175017893066,15.881665229797363C7.286400077893067,15.881665229797363,7.513058577893066,15.955278403797363,7.669166777893066,16.102500249797362C7.748175177893066,16.179916109797364,7.809883477893067,16.273187759797363,7.850241877893066,16.376171979797363C7.890600077893066,16.479156969797362,7.908708477893066,16.589523609797364,7.903341877893066,16.700004519797364C7.905625077893067,16.845606979797363,7.869708377893066,16.989265329797362,7.7991751778930665,17.116673729797363C7.726608477893066,17.24089872979736,7.6186917778930665,17.340690529797364,7.489175177893067,17.403332129797363C7.333158377893066,17.477390529797365,7.161799977893066,17.51337372979736,6.989175017893066,17.508332129797363C6.989175017893066,17.508332129797363,6.613343357893067,17.508332129797363,6.613343357893067,17.508332129797363C6.613343357893067,17.508332129797363,6.613343357893067,17.508332129797363,6.613343357893067,17.508332129797363ZM7.286666777893067,16.700004519797364C7.286666777893067,16.477781949797365,7.165008377893066,16.366671119797363,6.921675087893067,16.366671119797363C6.921675087893067,16.366671119797363,6.613343357893067,16.366671119797363,6.613343357893067,16.366671119797363C6.613343357893067,16.366671119797363,6.613343357893067,17.019165229797363,6.613343357893067,17.019165229797363C6.613343357893067,17.019165229797363,6.921675087893067,17.019165229797363,6.921675087893067,17.019165229797363C7.165008377893066,17.021390329797363,7.286666777893067,16.915007029797362,7.286666777893067,16.700004519797364C7.286666777893067,16.700004519797364,7.286666777893067,16.700004519797364,7.286666777893067,16.700004519797364C7.286666777893067,16.700004519797364,7.286666777893067,16.700004519797364,7.286666777893067,16.700004519797364Z" fill="#FFFFFF" fill-opacity="1"/><path d="M10.15084247145996,16.08333562630615C10.352600771459961,16.23506149630615,10.48835087145996,16.45851737630615,10.530009071459961,16.707501526306153C10.530009071459961,16.707501526306153,9.888350771459962,16.707501526306153,9.888350771459962,16.707501526306153C9.84491727145996,16.620294036306152,9.776425671459961,16.548041526306154,9.691675671459961,16.500002326306152C9.596233971459961,16.443305666306152,9.486825571459962,16.41443979630615,9.37583407145996,16.41666900630615C9.28967567145996,16.41315984630615,9.203792371459961,16.428656456306154,9.12429237145996,16.462069036306154C9.044792291459961,16.49548238630615,8.97361731145996,16.545987366306154,8.91583478145996,16.609998166306152C8.79361558145996,16.755776526306153,8.731371461459961,16.94255157630615,8.741680621459961,17.13250157630615C8.741680621459961,17.370835076306154,8.80250978145996,17.553893376306153,8.92417645145996,17.681676576306153C8.99259227145996,17.748018376306153,9.074108961459961,17.799335076306154,9.16351737145996,17.832343376306152C9.25291727145996,17.865343376306154,9.34822567145996,17.879310176306152,9.443342371459961,17.873334876306153C9.57930897145996,17.875810176306153,9.712400771459961,17.83398497630615,9.822509071459962,17.754176776306153C9.93494247145996,17.670209876306153,10.01617587145996,17.55115167630615,10.05335077145996,17.415834876306153C10.05335077145996,17.415834876306153,9.287500571459962,17.415834876306153,9.287500571459962,17.415834876306153C9.287500571459962,17.415834876306153,9.287500571459962,16.98000157630615,9.287500571459962,16.98000157630615C9.287500571459962,16.98000157630615,10.56000087145996,16.98000157630615,10.56000087145996,16.98000157630615C10.56000087145996,16.98000157630615,10.56000087145996,17.579168276306152,10.56000087145996,17.579168276306152C10.51138427145996,17.728326676306153,10.434425871459961,17.866693476306153,10.333333971459961,17.986668376306152C10.22385907145996,18.115960076306152,10.087675771459962,18.220010076306153,9.93416737145996,18.291668376306152C9.76060907145996,18.371851676306154,9.57116737145996,18.411743376306152,9.38000907145996,18.40833497630615C9.14749227145996,18.414435176306153,8.917497341459962,18.358943476306152,8.713340581459962,18.247501576306153C8.52657556145996,18.14245987630615,8.374526381459962,17.985201576306153,8.275840561459962,17.79500997630615C8.16980245745996,17.58906827630615,8.116805720559961,17.35992657630615,8.12166536872996,17.128343176306153C8.11749912075996,16.898159876306153,8.170476377459961,16.670527396306152,8.275840561459962,16.465833186306153C8.37435388145996,16.27606397630615,8.525731411459962,16.118902296306153,8.711672241459961,16.013338956306153C8.91284984145996,15.902758106306152,9.13965897145996,15.847271344206153,9.369159071459961,15.852501028006152C9.648142371459961,15.840339851306153,9.923225771459961,15.921571523306152,10.15084247145996,16.08333562630615C10.15084247145996,16.08333562630615,10.15084247145996,16.08333562630615,10.15084247145996,16.08333562630615C10.15084247145996,16.08333562630615,10.15084247145996,16.08333562630615,10.15084247145996,16.08333562630615Z" fill="#FFFFFF" fill-opacity="1"/><path d="M8.691673240118408,12.200834236602784C8.691673240118408,12.200834236602784,5.010848040118408,12.200834236602784,5.010848040118408,12.200834236602784C4.650506320118408,12.200392236602784,4.305050430118408,12.057058836602783,4.050252880118408,11.802259436602784C3.795455350118408,11.547459136602782,3.6521138909784083,11.202000636602783,3.651672840118408,10.841667136602783C3.651672840118408,10.841667136602783,3.651672840118408,7.160841936602783,3.651672840118408,7.160841936602783C3.6521138909784083,6.800500216602783,3.795455350118408,6.455044326602783,4.050252880118408,6.200246776602783C4.305050430118408,5.9454492466027835,4.650506320118408,5.802107787462783,5.010848040118408,5.801666736602783C5.010848040118408,5.801666736602783,8.691673240118408,5.801666736602783,8.691673240118408,5.801666736602783C9.051931840118408,5.8021081658127835,9.397290240118409,5.945475916602783,9.651957040118408,6.200297596602783C9.906623840118408,6.455119316602783,10.049789940118409,6.800575196602783,10.050006840118408,7.160841936602783C10.050006840118408,7.160841936602783,10.050006840118408,10.841667136602783,10.050006840118408,10.841667136602783C10.049789940118409,11.201925736602783,9.906623840118408,11.547384236602783,9.651957040118408,11.802209336602782C9.397290240118409,12.057025936602784,9.051931840118408,12.200392236602784,8.691673240118408,12.200834236602784C8.691673240118408,12.200834236602784,8.691673240118408,12.200834236602784,8.691673240118408,12.200834236602784ZM5.010848040118408,6.402496816602783C4.809789640118408,6.402717646602783,4.6170229301184085,6.482690986602783,4.474853750118408,6.6248584966027835C4.332687080118408,6.767025176602783,4.252723750118408,6.959783536602783,4.252502920118408,7.160841936602783C4.252502920118408,7.160841936602783,4.252502920118408,10.841667136602783,4.252502920118408,10.841667136602783C4.252723750118408,11.042717436602782,4.332687080118408,11.235476036602783,4.474853750118408,11.377642136602784C4.6170229301184085,11.519817336602785,4.809789640118408,11.599775836602783,5.010848040118408,11.600000836602783C5.010848040118408,11.600000836602783,8.691673240118408,11.600000836602783,8.691673240118408,11.600000836602783C8.892648740118407,11.599775836602783,9.085323340118407,11.519783936602783,9.227356940118408,11.377592536602783C9.369390440118408,11.235401136602782,9.449181540118408,11.042642636602782,9.449181540118408,10.841667136602783C9.449181540118408,10.841667136602783,9.449181540118408,7.160841936602783,9.449181540118408,7.160841936602783C9.449181540118408,6.959858536602783,9.369390440118408,6.767100216602783,9.227356940118408,6.624909336602784C9.085323340118407,6.4827176966027835,8.892648740118407,6.402717646602783,8.691673240118408,6.402496816602783C8.691673240118408,6.402496816602783,5.010848040118408,6.402496816602783,5.010848040118408,6.402496816602783C5.010848040118408,6.402496816602783,5.010848040118408,6.402496816602783,5.010848040118408,6.402496816602783Z" fill="#00C650" fill-opacity="1"/><path d="M9.749999025274658,10.141668018232423C9.749999025274658,10.141668018232423,9.749999025274658,10.841668138232421,9.749999025274658,10.841668138232421C9.749782525274657,11.122284738232421,9.638207425274658,11.391343138232422,9.439782125274657,11.589776538232421C9.241349225274657,11.788201538232421,8.972291025274657,11.899784838232423,8.691674225274658,11.900001538232422C8.691674225274658,11.900001538232422,5.010848525274659,11.900001538232422,5.010848525274659,11.900001538232422C4.730156895274658,11.900001538232422,4.460968495274658,11.788493438232422,4.2624926552746585,11.590018238232421C4.064015965274658,11.391543138232421,3.952515125274658,11.122351538232422,3.952515125274658,10.841668138232421C3.952515125274658,10.841668138232421,3.952515125274658,9.666667998232422,3.952515125274658,9.666667998232422C4.5416818852746585,9.540001298232422,5.439173625274658,9.499998788232421,6.528340625274659,9.934998868232421C6.528340625274659,9.934998868232421,7.203348625274659,9.291667938232422,7.203348625274659,9.291667938232422C7.203348625274659,9.291667938232422,7.663332225274658,10.458334638232422,7.663332225274658,10.458334638232422C7.663332225274658,10.458334638232422,7.786665725274658,10.029164728232422,8.184999025274658,10.089998008232422C8.583332525274658,10.150834738232422,9.228340625274658,10.366659738232421,9.504174225274658,10.182493088232421C9.578491225274657,10.139626388232422,9.665815825274658,10.125118018232422,9.749999025274658,10.141668018232423C9.749999025274658,10.141668018232423,9.749999025274658,10.141668018232423,9.749999025274658,10.141668018232423C9.749999025274658,10.141668018232423,9.749999025274658,10.141668018232423,9.749999025274658,10.141668018232423Z" fill="#00C650" fill-opacity="1"/><path d="M8.460836943857421,7.9124969793505855C8.686813653857422,7.9124969793505855,8.870016993857423,7.729313609350586,8.870016993857423,7.503336909350586C8.870016993857423,7.277361049350586,8.686813653857422,7.094167709350586,8.460836943857421,7.094167709350586C8.234860223857423,7.094167709350586,8.051677703857422,7.277361049350586,8.051677703857422,7.503336909350586C8.051677703857422,7.729313609350586,8.234860223857423,7.9124969793505855,8.460836943857421,7.9124969793505855C8.460836943857421,7.9124969793505855,8.460836943857421,7.9124969793505855,8.460836943857421,7.9124969793505855Z" fill="#00C650" fill-opacity="1"/></svg>