<svg xmlns="http://www.w3.org/2000/svg" xmlns:xlink="http://www.w3.org/1999/xlink" fill="none" version="1.1" width="13.7021484375" height="20" viewBox="0 0 13.7021484375 20"><g style="opacity:0.30000001192092896;"><path d="M11.638681,4.1039958C11.183118,4.1035538,10.746303,3.9223702,10.42415,3.6002338C10.101995,3.2780886,9.9208364,2.8412983,9.9204206,2.3857257C9.9204206,2.3857257,9.9204206,1.5487106e-7,9.9204206,1.5487106e-7C9.9204206,1.5487106e-7,2.2432399,1.5487106e-7,2.2432399,1.5487106e-7C1.948694,-0.00010930129,1.6570059,0.057801429,1.3848507,0.17044373C1.1126953,0.28308654,0.86538899,0.44824967,0.65707684,0.6564877C0.44876218,0.86472231,0.28351316,1.111962,0.17076956,1.3840758C0.058025666,1.6561892,-2.0337483e-8,1.9478524,5.3460789e-15,2.2423983C5.3460789e-15,2.2423983,5.3460789e-15,15.760179,5.3460789e-15,15.760179C-2.0337483e-8,16.054747,0.058025666,16.346401,0.17076956,16.618473C0.28351316,16.890631,0.44876218,17.137869,0.65707684,17.346111C0.86538899,17.554352,1.1126953,17.719513,1.3848507,17.83209C1.6570059,17.944752,1.948694,18.002666,2.2432399,18.002583C2.2432399,18.002583,11.459522,18.002583,11.459522,18.002583C12.054248,18.002583,12.62464,17.766344,13.045123,17.345778C13.465689,16.925297,13.701928,16.3549,13.701928,15.760179C13.701928,15.760179,13.701928,4.1039958,13.701928,4.1039958C13.701928,4.1039958,11.638681,4.1039958,11.638681,4.1039958C11.638681,4.1039958,11.638681,4.1039958,11.638681,4.1039958Z" fill="#0072FF" fill-opacity="1" style="opacity:0.30000001192092896;"/></g><path d="M13.701931270947266,4.1039958C13.701931270947266,4.1039958,11.638683870947265,4.1039958,11.638683870947265,4.1039958C11.183111270947265,4.1035538,10.746317860947265,3.9223781,10.424177110947266,3.6002421C10.102036400947267,3.2780969,9.920855206697265,2.8413064,9.920413970947266,2.3857338C9.920413970947266,2.3857338,9.920413970947266,0,9.920413970947266,0C9.920413970947266,0,13.701931270947266,4.1039958,13.701931270947266,4.1039958C13.701931270947266,4.1039958,13.701931270947266,4.1039958,13.701931270947266,4.1039958Z" fill="#0072FF" fill-opacity="1"/><path d="M10.88287998991394,6.977207724908447C10.88287998991394,6.977207724908447,2.2799046599139405,6.977207724908447,2.2799046599139405,6.977207724908447C2.1972489499139405,6.977207724908447,2.1179830899139405,6.944369914908448,2.0595363449139406,6.885923144908447C2.0010901239139405,6.827477334908448,1.9682521035397404,6.748210574908447,1.9682521035397404,6.665554854908447C1.9681424852839404,6.624558244908448,1.9761265116139404,6.583940774908447,1.9917395099139403,6.546032334908447C2.0073524419139406,6.508124754908447,2.0302909049139406,6.473665354908447,2.0592413689139404,6.4446373959084475C2.0881918199139404,6.4156090989084475,2.1225778899139405,6.392584733908447,2.1604438299139406,6.376870635908447C2.1983097199139405,6.361156446908447,2.2389080199139406,6.353067728362047,2.2799046599139405,6.353067874910439C2.2799046599139405,6.353067874910439,10.88287998991394,6.353067874910439,10.88287998991394,6.353067874910439C10.96579238991394,6.353067874910439,11.04520678991394,6.385993752908448,11.103870189913941,6.444596558908447C11.162451489913941,6.5031991349084475,11.19536658991394,6.582678314908447,11.19536658991394,6.665554854908447C11.195116789913941,6.748287234908448,11.16211868991394,6.827561464908447,11.103537289913941,6.8859840049084475C11.04495688991394,6.944406504908447,10.96562648991394,6.977207724908447,10.88287998991394,6.977207724908447C10.88287998991394,6.977207724908447,10.88287998991394,6.977207724908447,10.88287998991394,6.977207724908447C10.88287998991394,6.977207724908447,10.88287998991394,6.977207724908447,10.88287998991394,6.977207724908447Z" fill="#0072FF" fill-opacity="1"/><path d="M10.88287998991394,8.841306750634766C10.88287998991394,8.841306750634766,2.2799046599139405,8.841306750634766,2.2799046599139405,8.841306750634766C2.1972489499139405,8.841306750634766,2.1179830899139405,8.808468940634766,2.0595363449139406,8.750022170634766C2.0010901239139405,8.691576360634766,1.9682521035397404,8.612309600634765,1.9682521035397404,8.529653880634765C1.9681424852839404,8.488657270634766,1.9761265116139404,8.448039800634765,1.9917395099139403,8.410131360634766C2.0073524419139406,8.372223780634766,2.0302909049139406,8.337764380634766,2.0592413689139404,8.308736421634766C2.0881918199139404,8.279708124634766,2.1225778899139405,8.256683759634766,2.1604438299139406,8.240969661634766C2.1983097199139405,8.225255472634766,2.2389080199139406,8.217166754088366,2.2799046599139405,8.217166900636757C2.2799046599139405,8.217166900636757,10.88287998991394,8.217166900636757,10.88287998991394,8.217166900636757C10.96579238991394,8.217166900636757,11.04520678991394,8.250072449634766,11.103870189913941,8.308674752634765C11.162451489913941,8.367278160634765,11.19536658991394,8.446777340634766,11.19536658991394,8.529653880634765C11.195116789913941,8.612386260634766,11.16211868991394,8.691640470634766,11.103537289913941,8.750063060634766C11.04495688991394,8.808485570634765,10.96562648991394,8.841306750634766,10.88287998991394,8.841306750634766C10.88287998991394,8.841306750634766,10.88287998991394,8.841306750634766,10.88287998991394,8.841306750634766C10.88287998991394,8.841306750634766,10.88287998991394,8.841306750634766,10.88287998991394,8.841306750634766Z" fill="#0072FF" fill-opacity="1"/><path d="M10.88287998991394,10.705384318688965C10.88287998991394,10.705384318688965,2.2799046599139405,10.705384318688965,2.2799046599139405,10.705384318688965C2.2389080199139406,10.705384318688965,2.1983097199139405,10.697295488688965,2.1604438299139406,10.681581978688964C2.1225778899139405,10.665867628688964,2.0881918199139404,10.642842768688965,2.0592413689139404,10.613814708688965C2.0302909049139406,10.584786768688964,2.0073524419139406,10.550327448688964,1.9917395099139403,10.512419878688965C1.9761265116139404,10.474511448688965,1.9681424852839404,10.433893918688964,1.9682521035397404,10.392897338688964C1.9682521035397404,10.310241608688965,2.0010901239139405,10.230974898688965,2.0595363449139406,10.172529004688965C2.1179830899139405,10.114082515688965,2.1972489499139405,10.081244468690905,2.2799046599139405,10.081244468690944C2.2799046599139405,10.081244468690944,10.88287998991394,10.081244468690944,10.88287998991394,10.081244468690944C10.96562648991394,10.081244174530385,11.04495688991394,10.114045351688965,11.103537289913941,10.172468170688965C11.16211868991394,10.230890738688965,11.195116789913941,10.310164938688965,11.19536658991394,10.392897338688964C11.19536658991394,10.475773868688965,11.162451489913941,10.555253088688964,11.103870189913941,10.613855658688966C11.04520678991394,10.672458168688966,10.96579238991394,10.705384318688965,10.88287998991394,10.705384318688965C10.88287998991394,10.705384318688965,10.88287998991394,10.705384318688965,10.88287998991394,10.705384318688965Z" fill="#0072FF" fill-opacity="1"/><path d="M7.488020689913941,12.569483821252442C7.488020689913941,12.569483821252442,2.2799046599139405,12.569483821252442,2.2799046599139405,12.569483821252442C2.2389080199139406,12.569483821252442,2.1983097199139405,12.561394991252442,2.1604438299139406,12.54568148125244C2.1225778899139405,12.529967131252441,2.0881918199139404,12.506922241252441,2.0592413689139404,12.477894251252442C2.0302909049139406,12.448866311252441,2.0073524419139406,12.414426951252441,1.9917395099139403,12.376519381252441C1.9761265116139404,12.338610951252441,1.9681424852839404,12.29799342125244,1.9682521035397404,12.256996841252441C1.9682521035397404,12.174341111252442,2.0010901239139405,12.095054391252441,2.0595363449139406,12.036607668252442C2.1179830899139405,11.978161685252442,2.1972489499139405,11.945343971252404,2.2799046599139405,11.945343971252441C2.2799046599139405,11.945343971252441,7.488020689913941,11.945343971252441,7.488020689913941,11.945343971252441C7.5706765899139405,11.945343971252404,7.64994738991394,11.978161685252442,7.7083861899139405,12.036607668252442C7.766834489913941,12.095054391252441,7.79967478991394,12.174341111252442,7.79967478991394,12.256996841252441C7.799782989913941,12.29799342125244,7.79179928991394,12.338610951252441,7.77618388991394,12.376519381252441C7.76057598991394,12.414426951252441,7.73763538991394,12.448866311252441,7.70868658991394,12.477894251252442C7.679737789913941,12.506922241252441,7.645347789913941,12.529967131252441,7.60748268991394,12.54568148125244C7.56961698991394,12.561394991252442,7.52901908991394,12.569483821252442,7.488020689913941,12.569483821252442C7.488020689913941,12.569483821252442,7.488020689913941,12.569483821252442,7.488020689913941,12.569483821252442Z" fill="#0072FF" fill-opacity="1"/><path d="M12.079496054786683,14.21690559387207C12.079496054786683,14.21690559387207,1.6599296547866822,14.21690559387207,1.6599296547866822,14.21690559387207C0.9208187447866821,14.21690559387207,0.32165205478668213,14.81607228387207,0.32165205478668213,15.55518319387207C0.32165205478668213,15.55518319387207,0.32165205478668213,18.661720293872072,0.32165205478668213,18.661720293872072C0.32165205478668213,19.400831193872072,0.9208187447866821,19.99999859387207,1.6599296547866822,19.99999859387207C1.6599296547866822,19.99999859387207,12.079496054786683,19.99999859387207,12.079496054786683,19.99999859387207C12.818632054786683,19.99999859387207,13.417774054786682,19.400831193872072,13.417774054786682,18.661720293872072C13.417774054786682,18.661720293872072,13.417774054786682,15.55518319387207,13.417774054786682,15.55518319387207C13.417774054786682,14.81607228387207,12.818632054786683,14.21690559387207,12.079496054786683,14.21690559387207C12.079496054786683,14.21690559387207,12.079496054786683,14.21690559387207,12.079496054786683,14.21690559387207Z" fill="#0072FF" fill-opacity="1"/><path d="M4.26382077140625,18.436566380163576L3.65484619140625,18.436566380163576L3.65484619140625,17.830591680163575L4.26382077140625,17.830591680163575L4.26382077140625,18.436566380163576ZM7.30269359140625,18.436566380163576L6.74171729140625,18.436566380163576L6.74171729140625,16.879631280163576Q6.74171729140625,16.603642880163573,6.76271649140625,16.300655480163574L6.75371699140625,16.300655480163574Q6.70871849140625,16.579643730163575,6.66372039140625,16.741637050163575L6.18074079140625,18.436566380163576L5.68576119140625,18.436566380163576L5.20578119140625,16.690639200163574Q5.1577832914062505,16.519646290163575,5.11278519140625,16.297655610163574L5.10378579140625,16.297655610163574Q5.12778459140625,16.681639610163575,5.12778459140625,16.999626180163574L5.12778459140625,18.436566380163576L4.57280797140625,18.436566380163576L4.57280797140625,15.832674980163574L5.44277159140625,15.832674980163574L5.89875269140625,17.527604380163574Q5.9227516914062495,17.617600480163574,5.9317509914062505,17.806592780163573L5.93775079140625,17.806592780163573Q5.946750391406249,17.608600880163575,5.97074939140625,17.524604480163575L6.42973039140625,15.832674980163574L7.30269359140625,15.832674980163574L7.30269359140625,18.436566380163576ZM8.529642591406251,18.436566380163576L7.68667789140625,18.436566380163576L7.68667789140625,15.832674980163574L8.49064349140625,15.832674980163574Q9.20761439140625,15.832674980163574,9.570598591406249,16.180660370163576Q9.91258479140625,16.507646680163575,9.91258479140625,17.101621980163575Q9.91258479140625,17.809592480163573,9.59159759140625,18.121579380163574Q9.26761099140625,18.436566380163576,8.529642591406251,18.436566380163576ZM8.478644891406251,16.312654820163573L8.27765269140625,16.312654820163573L8.27765269140625,17.959586380163575L8.481644591406251,17.959586380163575Q9.29460999140625,17.959586380163575,9.29460999140625,17.110621580163574Q9.29460999140625,16.744636830163575,9.09661819140625,16.537645520163576Q8.883627891406249,16.312654820163573,8.478644891406251,16.312654820163573Z" fill="#FFFFFF" fill-opacity="1"/></svg>