<svg xmlns="http://www.w3.org/2000/svg" xmlns:xlink="http://www.w3.org/1999/xlink" fill="none" version="1.1" width="13.7021484375" height="20" viewBox="0 0 13.7021484375 20"><g style="opacity:0.30000001192092896;"><path d="M11.639167,4.1033335C11.183584,4.1028919,10.74675,3.9217167,10.424583,3.5995584C10.102417,3.2774,9.9212503,2.8405919,9.9208336,2.3850002C9.9208336,2.3850002,9.9208336,0,9.9208336,0C9.9208336,0,2.2425001,0,2.2425001,0C1.6477501,4.73695e-15,1.0773667,0.23626167,0.65681422,0.65681171C0.23626417,1.0773584,-9.473917e-15,1.6477501,2.8466395e-28,2.2425001C2.8466395e-28,2.2425001,2.8466395e-28,15.760834,2.8466395e-28,15.760834C0.00088319997,16.355,0.237535,16.9245,0.6579892,17.344334C1.0784417,17.764168,1.648325,18,2.2425001,18C2.2425001,18,11.460001,18,11.460001,18C12.054333,18,12.624334,17.764084,13.044833,17.344084C13.46525,16.924084,13.701834,16.354334,13.702499,15.76C13.702499,15.76,13.702499,4.1033335,13.702499,4.1033335C13.702499,4.1033335,11.639167,4.1033335,11.639167,4.1033335C11.639167,4.1033335,11.639167,4.1033335,11.639167,4.1033335Z" fill="#FF3E4C" fill-opacity="1" style="opacity:0.30000001192092896;"/></g><path d="M13.702499433972168,4.1033335C13.702499433972168,4.1033335,11.639166133972168,4.1033335,11.639166133972168,4.1033335C11.183574333972167,4.1028919,10.746761023972168,3.9217167,10.424606803972168,3.5995584C10.102452633972169,3.2774,9.921273888142167,2.8405919,9.920832633972168,2.3850002C9.920832633972168,2.3850002,9.920832633972168,0,9.920832633972168,0C9.920832633972168,0,13.702499433972168,4.1033335,13.702499433972168,4.1033335C13.702499433972168,4.1033335,13.702499433972168,4.1033335,13.702499433972168,4.1033335Z" fill="#FF3E4C" fill-opacity="1"/><path d="M12.04416163671875,14.2166748046875C12.04416163671875,14.2166748046875,1.62416103671875,14.2166748046875,1.62416103671875,14.2166748046875C0.88501930671875,14.2166748046875,0.28582763671875,14.8158515046875,0.28582763671875,15.5549915046875C0.28582763671875,15.5549915046875,0.28582763671875,18.6616583046875,0.28582763671875,18.6616583046875C0.28582763671875,19.4007997046875,0.88501930671875,20.0000000046875,1.62416103671875,20.0000000046875C1.62416103671875,20.0000000046875,12.04416163671875,20.0000000046875,12.04416163671875,20.0000000046875C12.78332763671875,20.0000000046875,13.38249463671875,19.4007997046875,13.38249463671875,18.6616583046875C13.38249463671875,18.6616583046875,13.38249463671875,15.5549915046875,13.38249463671875,15.5549915046875C13.38249463671875,14.8158515046875,12.78332763671875,14.2166748046875,12.04416163671875,14.2166748046875C12.04416163671875,14.2166748046875,12.04416163671875,14.2166748046875,12.04416163671875,14.2166748046875Z" fill="#FF3E4C" fill-opacity="1"/><path d="M3.2708236008728027,17.78084373474121C3.2708236008728027,17.78084373474121,3.2708236008728027,18.38667875474121,3.2708236008728027,18.38667875474121C3.2708236008728027,18.38667875474121,2.6433310508728027,18.38667875474121,2.6433310508728027,18.38667875474121C2.6433310508728027,18.38667875474121,2.6433310508728027,17.78084373474121,2.6433310508728027,17.78084373474121C2.6433310508728027,17.78084373474121,3.2708236008728027,17.78084373474121,3.2708236008728027,17.78084373474121C3.2708236008728027,17.78084373474121,3.2708236008728027,17.78084373474121,3.2708236008728027,17.78084373474121Z" fill="#FFFFFF" fill-opacity="1"/><path d="M6.404148341497803,15.898336410522461C6.404148341497803,15.898336410522461,6.404148341497803,18.38666991052246,6.404148341497803,18.38666991052246C6.404148341497803,18.38666991052246,5.7983148414978025,18.38666991052246,5.7983148414978025,18.38666991052246C5.7983148414978025,18.38666991052246,5.7983148414978025,16.83333647052246,5.7983148414978025,16.83333647052246C5.7983148414978025,16.83333647052246,5.2591481414978025,18.38916971052246,5.2591481414978025,18.38916971052246C5.2591481414978025,18.38916971052246,4.7349815414978025,18.38916971052246,4.7349815414978025,18.38916971052246C4.7349815414978025,18.38916971052246,4.192479791497803,16.83000314052246,4.192479791497803,16.83000314052246C4.192479791497803,16.83000314052246,4.192479791497803,18.38916971052246,4.192479791497803,18.38916971052246C4.192479791497803,18.38916971052246,3.5849814414978027,18.38916971052246,3.5849814414978027,18.38916971052246C3.5849814414978027,18.38916971052246,3.5849814414978027,15.900836310622461,3.5849814414978027,15.900836310622461C3.5849814414978027,15.900836310622461,4.325815621497803,15.900836310622461,4.325815621497803,15.900836310622461C4.325815621497803,15.900836310622461,5.002481441497803,17.63416981052246,5.002481441497803,17.63416981052246C5.002481441497803,17.63416981052246,5.669148241497803,15.900836310622461,5.669148241497803,15.900836310622461C5.669148241497803,15.900836310622461,6.404148341497803,15.898336410522461,6.404148341497803,15.898336410522461C6.404148341497803,15.898336410522461,6.404148341497803,15.898336410522461,6.404148341497803,15.898336410522461Z" fill="#FFFFFF" fill-opacity="1"/><path d="M7.428324758464355,17.507506147839354C7.428324758464355,17.507506147839354,7.428324758464355,18.386672747839356,7.428324758464355,18.386672747839356C7.428324758464355,18.386672747839356,6.8224897384643555,18.386672747839356,6.8224897384643555,18.386672747839356C6.8224897384643555,18.386672747839356,6.8224897384643555,15.880839347839355,6.8224897384643555,15.880839347839355C6.8224897384643555,15.880839347839355,7.8041564184643555,15.880839347839355,7.8041564184643555,15.880839347839355C8.101656438464355,15.880839347839355,8.329156438464356,15.955006345839356,8.484989838464355,16.102506027839354C8.563781538464355,16.179867687839355,8.625306438464355,16.273028547839356,8.665523038464356,16.375865187839356C8.705739838464355,16.478701827839355,8.723731438464355,16.588885187839356,8.718323138464356,16.699173567839356C8.721314738464356,16.844856027839356,8.685356538464355,16.988706147839356,8.614156438464356,17.115839347839355C8.541406538464356,17.240122647839357,8.433564638464356,17.340139347839354,8.304156538464355,17.403339347839356C8.147939838464355,17.476722747839354,7.976681438464356,17.512397647839357,7.8041564184643555,17.507506147839354C7.8041564184643555,17.507506147839354,7.428324758464355,17.507506147839354,7.428324758464355,17.507506147839354C7.428324758464355,17.507506147839354,7.428324758464355,17.507506147839354,7.428324758464355,17.507506147839354ZM8.101656438464355,16.699173567839356C8.101656438464355,16.480284337839354,7.979989738464355,16.370561007839356,7.7366564284643555,16.370006027839356C7.7366564284643555,16.370006027839356,7.428324758464355,16.370006027839356,7.428324758464355,16.370006027839356C7.428324758464355,16.370006027839356,7.428324758464355,17.022506047839357,7.428324758464355,17.022506047839357C7.428324758464355,17.022506047839357,7.7366564284643555,17.022506047839357,7.7366564284643555,17.022506047839357C7.979989738464355,17.022506047839357,8.101656438464355,16.914731047839357,8.101656438464355,16.699173567839356C8.101656438464355,16.699173567839356,8.101656438464355,16.699173567839356,8.101656438464355,16.699173567839356Z" fill="#FFFFFF" fill-opacity="1"/><path d="M10.327494621276855,15.861677065625C10.445261321276856,15.915126230625,10.544678021276855,16.002077070625,10.613336321276856,16.111677050625C10.678811321276855,16.218995390625,10.712611421276856,16.342640400625,10.710828021276855,16.468343730625C10.717411421276855,16.610300420625,10.672753121276855,16.749900460625,10.584994721276855,16.861675490625C10.505011321276855,16.958508690625,10.394028021276856,17.024742090625,10.270828021276856,17.049175490625C10.270828021276856,17.049175490625,10.270828021276856,17.067508690625,10.270828021276856,17.067508690625C10.595269721276855,17.170842090625,10.757219721276856,17.372783690625,10.756661321276855,17.673342090625C10.759027921276855,17.808017290625,10.724744721276856,17.940808790625,10.657494521276856,18.057508990625C10.589236221276856,18.171717190625,10.488594721276856,18.263083890625,10.368336421276855,18.320008790625C10.225936321276855,18.386017090625,10.070228021276856,18.418242190625,9.913327931276855,18.414175490625C9.624997141276856,18.414175490625,9.395832121276856,18.343342090625,9.227498801276855,18.201675390625C9.059165461276855,18.060008790624998,8.966661288276855,17.843342090625,8.952494621276855,17.552508690625C8.952494621276855,17.552508690625,9.544164661276856,17.552508690625,9.544164661276856,17.552508690625C9.543447141276856,17.648117090625,9.576165441276855,17.740975390625,9.636662961276855,17.815008890625002C9.668666301276856,17.848458790625,9.707683801276856,17.874400590625,9.750910461276856,17.890975490625C9.794136281276856,17.907542190625,9.840502981276856,17.914333790625,9.886661291276855,17.910842190625C9.924669621276855,17.912892090625,9.962677921276855,17.906983890625,9.998269721276856,17.893500290625C10.033853021276855,17.880008690625,10.066228021276856,17.859233890625,10.093328021276855,17.832508790625C10.119003021276855,17.805775390625,10.139028121276855,17.774133690625,10.152194721276855,17.739483690625C10.165369621276856,17.704833790625,10.171427921276855,17.667883790624998,10.169994621276855,17.630842090625C10.169994621276855,17.424733890625,10.021103021276856,17.321958790625,9.723327991276856,17.322508690625C9.723327991276856,17.322508690625,9.609995481276856,17.322508690625,9.609995481276856,17.322508690625C9.609995481276856,17.322508690625,9.609995481276856,16.830008790625,9.609995481276856,16.830008790625C9.609995481276856,16.830008790625,9.719996331276855,16.830008790625,9.719996331276855,16.830008790625C9.986661321276856,16.833900490625,10.119994621276856,16.738067090625,10.119994621276856,16.542512060625C10.122461321276855,16.506748790625,10.117594721276856,16.470857860625,10.105703021276856,16.437040450625C10.093811321276856,16.403222920625,10.075144621276856,16.372191250625,10.050836321276856,16.345843730625C10.026211221276856,16.322250430625,9.997019621276856,16.303943750625,9.965061321276856,16.292048750625C9.933102961276855,16.280153750625,9.899052981276856,16.274923740625,9.864994641276855,16.276677910625C9.827269671276856,16.274421210625,9.789519671276855,16.280745390625,9.754593011276855,16.295179600625C9.719663021276855,16.309613760625,9.688459631276855,16.331781270625,9.663330491276856,16.360011220625C9.610937121276855,16.426347910625,9.581672131276855,16.507994590625,9.579997121276856,16.592509630625C9.579997121276856,16.592509630625,8.987498291276856,16.592509630625,8.987498291276856,16.592509630625C8.986070789276855,16.479254600625,9.007468119276856,16.366873740625,9.050420455276855,16.262070390625C9.093372951276855,16.157267060625,9.156999631276856,16.062190410625,9.237497951276856,15.982511220625C9.390831291276855,15.840844891625,9.605830491276855,15.770010057985,9.882494631276856,15.770010057985C10.035836321276856,15.766720441125,10.187936321276855,15.798053724625,10.327494621276855,15.861677065625C10.327494621276855,15.861677065625,10.327494621276855,15.861677065625,10.327494621276855,15.861677065625C10.327494621276855,15.861677065625,10.327494621276855,15.861677065625,10.327494621276855,15.861677065625Z" fill="#FFFFFF" fill-opacity="1"/><path d="M10.01916508338623,10.993341896966552C10.01916508338623,10.993341896966552,9.10666518338623,10.993341896966552,9.10666518338623,10.993341896966552C9.10666518338623,10.993341896966552,9.10666518338623,7.305008296966553,9.10666518338623,7.305008296966553C9.10666518338623,7.181458396966553,9.05758998338623,7.062974896966553,8.97022338338623,6.9756166969665525C8.88286498338623,6.888249996966553,8.76438188338623,6.839174986966553,8.640831683386232,6.839174986966553C8.640831683386232,6.839174986966553,6.30749838338623,6.839174986966553,6.30749838338623,6.839174986966553C6.246323383386231,6.839174986966553,6.185748383386231,6.851225016966553,6.12923168338623,6.874633316966553C6.07271508338623,6.898041666966552,6.021356583386231,6.9323582969665525,5.97810658338623,6.9756166969665525C5.934848283386231,7.018874996966552,5.90053999338623,7.0702249969665525,5.87712329338623,7.126741696966553C5.8537149433862306,7.183258296966553,5.84166497338623,7.243833296966553,5.84166497338623,7.305008296966553C5.84166497338623,7.305008296966553,5.84166497338623,10.993341896966552,5.84166497338623,10.993341896966552C5.84166497338623,10.993341896966552,4.92499828338628,10.993341896966552,4.92499828338628,10.993341896966552C4.92499828338628,10.993341896966552,4.92499828338628,6.993341696966553,4.92499828338628,6.993341696966553C4.924998240683628,6.8529750069665525,4.95266303438623,6.713985796966552,5.00640395238623,6.584315836966553C5.0601449633862305,6.454644976966553,5.138908293386231,6.336834966966553,5.23819995338623,6.237620796966553C5.337492463386231,6.138405796966553,5.45536577338623,6.059730796966552,5.58507830338623,6.006091296966552C5.71479082338623,5.952451547966553,5.85379833338623,5.924899132786552,5.994164983386231,5.925008622007563C5.994164983386231,5.925008622007563,8.95249848338623,5.925008622007563,8.95249848338623,5.925008622007563C9.23583988338623,5.925008622007563,9.50757308338623,6.0375641269665525,9.70792338338623,6.237915816966552C9.90828178338623,6.438266636966553,10.020832083386232,6.710003316966553,10.020832083386232,6.993341696966553C10.020832083386232,6.993341696966553,10.01916508338623,10.993341896966552,10.01916508338623,10.993341896966552C10.01916508338623,10.993341896966552,10.01916508338623,10.993341896966552,10.01916508338623,10.993341896966552Z" fill="#FF3E4C" fill-opacity="1"/><path d="M8.9375016609375,12.074995501745605C9.5348933609375,12.074995501745605,10.019168360937499,11.590712101745606,10.019168360937499,10.993328801745605C10.019168360937499,10.395938751745605,9.5348933609375,9.911662101745605,8.9375016609375,9.911662101745605C8.3401132809375,9.911662101745605,7.8558349609375,10.395938751745605,7.8558349609375,10.993328801745605C7.8558349609375,11.590712101745606,8.3401132809375,12.074995501745605,8.9375016609375,12.074995501745605C8.9375016609375,12.074995501745605,8.9375016609375,12.074995501745605,8.9375016609375,12.074995501745605Z" fill="#FF3E4C" fill-opacity="1"/><path d="M4.765001050585937,12.074995501745605C5.362392750585937,12.074995501745605,5.8466677505859375,11.590712101745606,5.8466677505859375,10.993328801745605C5.8466677505859375,10.395938751745605,5.362392750585937,9.911662101745605,4.765001050585937,9.911662101745605C4.167612670585937,9.911662101745605,3.6833343505859375,10.395938751745605,3.6833343505859375,10.993328801745605C3.6833343505859375,11.590712101745606,4.167612670585937,12.074995501745605,4.765001050585937,12.074995501745605C4.765001050585937,12.074995501745605,4.765001050585937,12.074995501745605,4.765001050585937,12.074995501745605Z" fill="#FF3E4C" fill-opacity="1"/></svg>