<svg xmlns="http://www.w3.org/2000/svg" xmlns:xlink="http://www.w3.org/1999/xlink" fill="none" version="1.1" width="13.7021484375" height="20" viewBox="0 0 13.7021484375 20"><g style="opacity:0.30000001192092896;"><path d="M11.639167,4.1033335C11.183584,4.1028919,10.746751,3.9217167,10.424584,3.5995584C10.102417,3.2773998,9.9212513,2.8405917,9.9208345,2.385C9.9208345,2.385,9.9208345,5.3532266e-15,9.9208345,5.3532266e-15C9.9208345,5.3532266e-15,2.2424917,5.3532266e-15,2.2424917,5.3532266e-15C1.6478918,-4.1055412e-8,1.0776334,0.23614916,0.65710419,0.65651917C0.23657833,1.0768917,0.00022096002,1.6470665,0,2.2416668C0,2.2416668,0,15.759999,0,15.759999C0.00066255836,16.354334,0.23721583,16.924084,0.65769422,17.344082C1.0781751,17.764084,1.648175,18,2.2424917,18C2.2424917,18,11.459167,18,11.459167,18C11.75375,18.000084,12.045417,17.942165,12.317585,17.829498C12.58975,17.716917,12.837084,17.55175,13.045417,17.343498C13.253751,17.13525,13.419001,16.888,13.531751,16.615833C13.6445,16.34375,13.702499,16.052082,13.702499,15.757499C13.702499,15.757499,13.702499,4.1033335,13.702499,4.1033335C13.702499,4.1033335,11.639167,4.1033335,11.639167,4.1033335C11.639167,4.1033335,11.639167,4.1033335,11.639167,4.1033335Z" fill="#A140FF" fill-opacity="1" style="opacity:0.30000001192092896;"/></g><path d="M13.702496756018066,4.1033335C13.702496756018066,4.1033335,11.639163356018067,4.1033335,11.639163356018067,4.1033335C11.183563356018066,4.1028919,10.746756676018066,3.9217167,10.424602506018067,3.5995584C10.102447526018066,3.2773998,9.921279610168066,2.8405917,9.920838356018066,2.385C9.920838356018066,2.385,9.920838356018066,0,9.920838356018066,0C9.920838356018066,0,13.702496756018066,4.1033335,13.702496756018066,4.1033335C13.702496756018066,4.1033335,13.702496756018066,4.1033335,13.702496756018066,4.1033335Z" fill="#A140FF" fill-opacity="1"/><path d="M12.091668373069764,14.216666221618652C12.091668373069764,14.216666221618652,1.6716501730697633,14.216666221618652,1.6716501730697633,14.216666221618652C0.9325101330697632,14.216666221618652,0.3333333730697632,14.815863791618652,0.3333333730697632,15.555008021618653C0.3333333730697632,15.555008021618653,0.3333333730697632,18.661666821618653,0.3333333730697632,18.661666821618653C0.3333333730697632,19.400808821618654,0.9325101330697632,20.000000521618652,1.6716501730697633,20.000000521618652C1.6716501730697633,20.000000521618652,12.091668373069764,20.000000521618652,12.091668373069764,20.000000521618652C12.830834373069763,20.000000521618652,13.430001373069762,19.400808821618654,13.430001373069762,18.661666821618653C13.430001373069762,18.661666821618653,13.430001373069762,15.555008021618653,13.430001373069762,15.555008021618653C13.430001373069762,14.815863791618652,12.830834373069763,14.216666221618652,12.091668373069764,14.216666221618652C12.091668373069764,14.216666221618652,12.091668373069764,14.216666221618652,12.091668373069764,14.216666221618652Z" fill="#A140FF" fill-opacity="1"/><path d="M3.312500357012329,17.780834197998047C3.312500357012329,17.780834197998047,3.312500357012329,18.386669277998045,3.312500357012329,18.386669277998045C3.312500357012329,18.386669277998045,2.684997797012329,18.386669277998045,2.684997797012329,18.386669277998045C2.684997797012329,18.386669277998045,2.684997797012329,17.780834197998047,2.684997797012329,17.780834197998047C2.684997797012329,17.780834197998047,3.312500357012329,17.780834197998047,3.312500357012329,17.780834197998047C3.312500357012329,17.780834197998047,3.312500357012329,17.780834197998047,3.312500357012329,17.780834197998047Z" fill="#FFFFFF" fill-opacity="1"/><path d="M6.445825340853881,15.899171829223633C6.445825340853881,15.899171829223633,6.445825340853881,18.386672229223635,6.445825340853881,18.386672229223635C6.445825340853881,18.386672229223635,5.8399837408538815,18.386672229223635,5.8399837408538815,18.386672229223635C5.8399837408538815,18.386672229223635,5.8399837408538815,16.833338619223632,5.8399837408538815,16.833338619223632C5.8399837408538815,16.833338619223632,5.300825240853882,18.389172029223634,5.300825240853882,18.389172029223634C5.300825240853882,18.389172029223634,4.776650040853882,18.389172029223634,4.776650040853882,18.389172029223634C4.776650040853882,18.389172029223634,4.234151720853882,16.83000528922363,4.234151720853882,16.83000528922363C4.234151720853882,16.83000528922363,4.234151720853882,18.389172029223634,4.234151720853882,18.389172029223634C4.234151720853882,18.389172029223634,3.628316640853882,18.389172029223634,3.628316640853882,18.389172029223634C3.628316640853882,18.389172029223634,3.628316640853882,15.901674271323634,3.628316640853882,15.901674271323634C3.628316640853882,15.901674271323634,4.369161660853882,15.901674271323634,4.369161660853882,15.901674271323634C4.369161660853882,15.901674271323634,5.045816740853882,17.634171929223633,5.045816740853882,17.634171929223633C5.045816740853882,17.634171929223633,5.712483640853882,15.901674271323634,5.712483640853882,15.901674271323634C5.712483640853882,15.901674271323634,6.445825340853881,15.899171829223633,6.445825340853881,15.899171829223633C6.445825340853881,15.899171829223633,6.445825340853881,15.899171829223633,6.445825340853881,15.899171829223633Z" fill="#FFFFFF" fill-opacity="1"/><path d="M7.469991803022461,17.50834155518799C7.469991803022461,17.50834155518799,7.469991803022461,18.386674855187987,7.469991803022461,18.386674855187987C7.469991803022461,18.386674855187987,6.864156723022461,18.386674855187987,6.864156723022461,18.386674855187987C6.864156723022461,18.386674855187987,6.864156723022461,15.880841255187988,6.864156723022461,15.880841255187988C6.864156723022461,15.880841255187988,7.846656863022461,15.880841255187988,7.846656863022461,15.880841255187988C8.144156823022461,15.880841255187988,8.37165692302246,15.955005683187988,8.52749012302246,16.102505445187987C8.606340323022462,16.179993775187988,8.667915223022462,16.27329796518799,8.708132023022461,16.376278815187987C8.74834862302246,16.479260505187987,8.766298623022461,16.58958965518799,8.76082362302246,16.700009705187988C8.763698723022461,16.84568303518799,8.72774862302246,16.989491355187987,8.656657023022461,17.116674755187987C8.583856923022461,17.24071645518799,8.47600682302246,17.340449855187988,8.346656923022461,17.40334155518799C8.19064852302246,17.47739985518799,8.01928182302246,17.513383155187988,7.846656863022461,17.50834155518799C7.846656863022461,17.50834155518799,7.469991803022461,17.50834155518799,7.469991803022461,17.50834155518799C7.469991803022461,17.50834155518799,7.469991803022461,17.50834155518799,7.469991803022461,17.50834155518799ZM8.143331923022462,16.700009705187988C8.143331923022462,16.47778719518799,8.021656823022461,16.366676305187987,7.778323533022461,16.366676305187987C7.778323533022461,16.366676305187987,7.469991803022461,16.366676305187987,7.469991803022461,16.366676305187987C7.469991803022461,16.366676305187987,7.469991803022461,17.01917465518799,7.469991803022461,17.01917465518799C7.469991803022461,17.01917465518799,7.778323533022461,17.01917465518799,7.778323533022461,17.01917465518799C8.021656823022461,17.021391355187987,8.143331923022462,16.91500805518799,8.143331923022462,16.700009705187988C8.143331923022462,16.700009705187988,8.143331923022462,16.700009705187988,8.143331923022462,16.700009705187988Z" fill="#FFFFFF" fill-opacity="1"/><path d="M9.004985809326172,17.92582846768799C9.004985809326172,17.92582846768799,9.004985809326172,17.416661767687987,9.004985809326172,17.416661767687987C9.004985809326172,17.416661767687987,10.149985909326173,15.846661567687988,10.149985909326173,15.846661567687988C10.149985909326173,15.846661567687988,10.801661009326171,15.846661567687988,10.801661009326171,15.846661567687988C10.801661009326171,15.846661567687988,10.801661009326171,17.395828467687988,10.801661009326171,17.395828467687988C10.801661009326171,17.395828467687988,11.103336109326172,17.395828467687988,11.103336109326172,17.395828467687988C11.103336109326172,17.395828467687988,11.103336109326172,17.923328367687986,11.103336109326172,17.923328367687986C11.103336109326172,17.923328367687986,10.801661009326171,17.923328367687986,10.801661009326171,17.923328367687986C10.801661009326171,17.923328367687986,10.801661009326171,18.384161967687987,10.801661009326171,18.384161967687987C10.801661009326171,18.384161967687987,10.188336009326171,18.384161967687987,10.188336009326171,18.384161967687987C10.188336009326171,18.384161967687987,10.188336009326171,17.923328367687986,10.188336009326171,17.923328367687986C10.188336009326171,17.923328367687986,9.004985809326172,17.92582846768799,9.004985809326172,17.92582846768799C9.004985809326172,17.92582846768799,9.004985809326172,17.92582846768799,9.004985809326172,17.92582846768799ZM10.238319309326172,16.55082916768799C10.238319309326172,16.55082916768799,9.621665059326173,17.398336767687987,9.621665059326173,17.398336767687987C9.621665059326173,17.398336767687987,10.238319309326172,17.398336767687987,10.238319309326172,17.398336767687987C10.238319309326172,17.398336767687987,10.238319309326172,16.55082916768799,10.238319309326172,16.55082916768799C10.238319309326172,16.55082916768799,10.238319309326172,16.55082916768799,10.238319309326172,16.55082916768799Z" fill="#FFFFFF" fill-opacity="1"/><path d="M9.953336722149658,10.992501269116211C9.953336722149658,10.992501269116211,9.953336722149658,7.016674009116211,9.953336722149658,7.016674009116211C9.953128822149658,6.997370659116211,9.951187122149658,6.978124829116211,9.947511722149658,6.959174009116211C9.946620422149659,6.9535064991162105,9.945220422149658,6.947928159116211,9.94334552214966,6.942506509116211C9.94033672214966,6.929475669116211,9.936428522149658,6.916666489116211,9.931670622149658,6.904170659116211C9.929512022149659,6.898464829116211,9.927020522149657,6.892902319116211,9.924178622149658,6.887508149116211C9.919078822149658,6.875340659116211,9.91294522214966,6.863628159116211,9.905845122149659,6.852504819116211C9.905845122149659,6.852504819116211,9.897503422149658,6.839173149116211,9.897503422149658,6.839173149116211C9.887012022149658,6.824079819116211,9.875312322149657,6.809864809116211,9.862512122149658,6.796673149116211C9.862512122149658,6.796673149116211,9.856670422149659,6.791673146116211,9.856670422149659,6.791673146116211C9.845320222149658,6.780985981116211,9.833362122149659,6.770970225116211,9.820845122149658,6.761674143116211C9.820845122149658,6.761674143116211,9.805828522149659,6.752508726116211,9.805828522149659,6.752508726116211C9.805828522149659,6.752508726116211,9.772503422149658,6.734172722116211,9.772503422149658,6.734172722116211C9.772503422149658,6.734172722116211,9.755012022149657,6.7266704721162105,9.755012022149657,6.7266704721162105C9.741961522149658,6.721629720116211,9.72860332214966,6.717457053216211,9.715011622149659,6.714173536316211C9.715011622149659,6.714173536316211,9.701662022149659,6.714173536316211,9.701662022149659,6.714173536316211C9.682762122149658,6.710171036116211,9.663486922149659,6.708214713276211,9.644169822149658,6.708339589702511C9.644169822149658,6.708339589702511,4.030846952149658,6.708339589702511,4.030846952149658,6.708339589702511C3.953701112149658,6.715401045016211,3.881952762149658,6.751013640116211,3.8296957691496583,6.808203146116211C3.7774389251496583,6.865393149116211,3.748428750489658,6.9400390091162105,3.7483358721396582,7.017508179116211C3.7483358721396582,7.022508179116211,3.7483358721396582,7.0266731691162105,3.7483358721396582,7.031673159116211C3.7483358721396582,7.031673159116211,3.7483358721396582,11.006676169116211,3.7483358721396582,11.006676169116211C3.746325788649658,11.05784276911621,3.762574924149658,11.10805126911621,3.7941732591496584,11.148343069116212C3.821510598149658,11.19451806911621,3.860396932149658,11.23278426911621,3.9070069321496583,11.259376069116211C3.953616942149658,11.285967869116211,4.006339462149658,11.299967769116211,4.060001972149658,11.30000116911621C4.060001972149658,11.30000116911621,9.643336322149658,11.30000116911621,9.643336322149658,11.30000116911621C9.724987022149659,11.29957576911621,9.803220222149658,11.267117469116211,9.861187022149657,11.209617569116212C9.919162322149658,11.152109169116212,9.952245222149658,11.074151069116212,9.953336722149658,10.992501269116211C9.953336722149658,10.992501269116211,9.953336722149658,10.992501269116211,9.953336722149658,10.992501269116211C9.953336722149658,10.992501269116211,9.953336722149658,10.992501269116211,9.953336722149658,10.992501269116211ZM4.083337782149658,7.456671539116211C4.083337782149658,7.456671539116211,4.083337782149658,6.853338989116211,4.083337782149658,6.853338989116211C4.083337782149658,6.853338989116211,4.5741620021496585,6.853338989116211,4.5741620021496585,6.853338989116211C4.5741620021496585,6.853338989116211,4.5741620021496585,7.456671539116211,4.5741620021496585,7.456671539116211C4.5741620021496585,7.456671539116211,4.083337782149658,7.456671539116211,4.083337782149658,7.456671539116211C4.083337782149658,7.456671539116211,4.083337782149658,7.456671539116211,4.083337782149658,7.456671539116211ZM4.9116695221496585,7.456671539116211C4.9116695221496585,7.456671539116211,4.9116695221496585,6.853338989116211,4.9116695221496585,6.853338989116211C4.9116695221496585,6.853338989116211,5.402511322149659,6.853338989116211,5.402511322149659,6.853338989116211C5.402511322149659,6.853338989116211,5.402511322149659,7.456671539116211,5.402511322149659,7.456671539116211C5.402511322149659,7.456671539116211,4.9116695221496585,7.456671539116211,4.9116695221496585,7.456671539116211C4.9116695221496585,7.456671539116211,4.9116695221496585,7.456671539116211,4.9116695221496585,7.456671539116211ZM5.739994622149658,7.456671539116211C5.739994622149658,7.456671539116211,5.739994622149658,6.853338989116211,5.739994622149658,6.853338989116211C5.739994622149658,6.853338989116211,6.230836422149658,6.853338989116211,6.230836422149658,6.853338989116211C6.230836422149658,6.853338989116211,6.230836422149658,7.456671539116211,6.230836422149658,7.456671539116211C6.230836422149658,7.456671539116211,5.739994622149658,7.456671539116211,5.739994622149658,7.456671539116211C5.739994622149658,7.456671539116211,5.739994622149658,7.456671539116211,5.739994622149658,7.456671539116211ZM6.568344622149658,7.456671539116211C6.568344622149658,7.456671539116211,6.568344622149658,6.853338989116211,6.568344622149658,6.853338989116211C6.568344622149658,6.853338989116211,7.059169722149658,6.853338989116211,7.059169722149658,6.853338989116211C7.059169722149658,6.853338989116211,7.059169722149658,7.456671539116211,7.059169722149658,7.456671539116211C7.059169722149658,7.456671539116211,6.568344622149658,7.456671539116211,6.568344622149658,7.456671539116211C6.568344622149658,7.456671539116211,6.568344622149658,7.456671539116211,6.568344622149658,7.456671539116211ZM7.396669822149658,7.456671539116211C7.396669822149658,7.456671539116211,7.396669822149658,6.853338989116211,7.396669822149658,6.853338989116211C7.396669822149658,6.853338989116211,7.8874950221496585,6.853338989116211,7.8874950221496585,6.853338989116211C7.8874950221496585,6.853338989116211,7.8874950221496585,7.456671539116211,7.8874950221496585,7.456671539116211C7.8874950221496585,7.456671539116211,7.396669822149658,7.456671539116211,7.396669822149658,7.456671539116211C7.396669822149658,7.456671539116211,7.396669822149658,7.456671539116211,7.396669822149658,7.456671539116211ZM8.225003222149658,7.456671539116211C8.225003222149658,7.456671539116211,8.225003222149658,6.853338989116211,8.225003222149658,6.853338989116211C8.225003222149658,6.853338989116211,8.71584512214966,6.853338989116211,8.71584512214966,6.853338989116211C8.71584512214966,6.853338989116211,8.71584512214966,7.456671539116211,8.71584512214966,7.456671539116211C8.71584512214966,7.456671539116211,8.225003222149658,7.456671539116211,8.225003222149658,7.456671539116211C8.225003222149658,7.456671539116211,8.225003222149658,7.456671539116211,8.225003222149658,7.456671539116211ZM9.053328522149659,7.456671539116211C9.053328522149659,7.456671539116211,9.053328522149659,6.853338989116211,9.053328522149659,6.853338989116211C9.053328522149659,6.853338989116211,9.544170422149659,6.853338989116211,9.544170422149659,6.853338989116211C9.544170422149659,6.853338989116211,9.544170422149659,7.456671539116211,9.544170422149659,7.456671539116211C9.544170422149659,7.456671539116211,9.053328522149659,7.456671539116211,9.053328522149659,7.456671539116211C9.053328522149659,7.456671539116211,9.053328522149659,7.456671539116211,9.053328522149659,7.456671539116211ZM3.969995292149658,10.382509469116211C3.969995292149658,10.382509469116211,3.969995292149658,7.620009069116211,3.969995292149658,7.620009069116211C3.969995292149658,7.620009069116211,9.739178222149658,7.620009069116211,9.739178222149658,7.620009069116211C9.739178222149658,7.620009069116211,9.739178222149658,10.382509469116211,9.739178222149658,10.382509469116211C9.739178222149658,10.382509469116211,3.969995292149658,10.382509469116211,3.969995292149658,10.382509469116211C3.969995292149658,10.382509469116211,3.969995292149658,10.382509469116211,3.969995292149658,10.382509469116211ZM4.082503642149658,11.148343069116212C4.082503642149658,11.148343069116212,4.082503642149658,10.545001269116211,4.082503642149658,10.545001269116211C4.082503642149658,10.545001269116211,4.573327902149658,10.545001269116211,4.573327902149658,10.545001269116211C4.573327902149658,10.545001269116211,4.573327902149658,11.148343069116212,4.573327902149658,11.148343069116212C4.573327902149658,11.148343069116212,4.082503642149658,11.148343069116212,4.082503642149658,11.148343069116212C4.082503642149658,11.148343069116212,4.082503642149658,11.148343069116212,4.082503642149658,11.148343069116212ZM4.910827922149658,11.148343069116212C4.910827922149658,11.148343069116212,4.910827922149658,10.545001269116211,4.910827922149658,10.545001269116211C4.910827922149658,10.545001269116211,5.401677922149658,10.545001269116211,5.401677922149658,10.545001269116211C5.401677922149658,10.545001269116211,5.401677922149658,11.148343069116212,5.401677922149658,11.148343069116212C5.401677922149658,11.148343069116212,4.910827922149658,11.148343069116212,4.910827922149658,11.148343069116212C4.910827922149658,11.148343069116212,4.910827922149658,11.148343069116212,4.910827922149658,11.148343069116212ZM5.739177922149658,11.148343069116212C5.739177922149658,11.148343069116212,5.739177922149658,10.545001269116211,5.739177922149658,10.545001269116211C5.739177922149658,10.545001269116211,6.230003122149658,10.545001269116211,6.230003122149658,10.545001269116211C6.230003122149658,10.545001269116211,6.230003122149658,11.148343069116212,6.230003122149658,11.148343069116212C6.230003122149658,11.148343069116212,5.739177922149658,11.148343069116212,5.739177922149658,11.148343069116212C5.739177922149658,11.148343069116212,5.739177922149658,11.148343069116212,5.739177922149658,11.148343069116212ZM6.567511322149658,11.148343069116212C6.567511322149658,11.148343069116212,6.567511322149658,10.545001269116211,6.567511322149658,10.545001269116211C6.567511322149658,10.545001269116211,7.058336522149658,10.545001269116211,7.058336522149658,10.545001269116211C7.058336522149658,10.545001269116211,7.058336522149658,11.148343069116212,7.058336522149658,11.148343069116212C7.058336522149658,11.148343069116212,6.567511322149658,11.148343069116212,6.567511322149658,11.148343069116212C6.567511322149658,11.148343069116212,6.567511322149658,11.148343069116212,6.567511322149658,11.148343069116212ZM7.395836322149658,11.148343069116212C7.395836322149658,11.148343069116212,7.395836322149658,10.545001269116211,7.395836322149658,10.545001269116211C7.395836322149658,10.545001269116211,7.886661522149658,10.545001269116211,7.886661522149658,10.545001269116211C7.886661522149658,10.545001269116211,7.886661522149658,11.148343069116212,7.886661522149658,11.148343069116212C7.886661522149658,11.148343069116212,7.395836322149658,11.148343069116212,7.395836322149658,11.148343069116212C7.395836322149658,11.148343069116212,7.395836322149658,11.148343069116212,7.395836322149658,11.148343069116212ZM8.224170222149658,11.148343069116212C8.224170222149658,11.148343069116212,8.224170222149658,10.545001269116211,8.224170222149658,10.545001269116211C8.224170222149658,10.545001269116211,8.715011622149659,10.545001269116211,8.715011622149659,10.545001269116211C8.715011622149659,10.545001269116211,8.715011622149659,11.148343069116212,8.715011622149659,11.148343069116212C8.715011622149659,11.148343069116212,8.224170222149658,11.148343069116212,8.224170222149658,11.148343069116212C8.224170222149658,11.148343069116212,8.224170222149658,11.148343069116212,8.224170222149658,11.148343069116212ZM9.052495022149659,11.148343069116212C9.052495022149659,11.148343069116212,9.052495022149659,10.545001269116211,9.052495022149659,10.545001269116211C9.052495022149659,10.545001269116211,9.543336822149659,10.545001269116211,9.543336822149659,10.545001269116211C9.543336822149659,10.545001269116211,9.543336822149659,11.148343069116212,9.543336822149659,11.148343069116212C9.543336822149659,11.148343069116212,9.052495022149659,11.148343069116212,9.052495022149659,11.148343069116212C9.052495022149659,11.148343069116212,9.052495022149659,11.148343069116212,9.052495022149659,11.148343069116212Z" fill="#A140FF" fill-opacity="1"/><path d="M7.518335730053711,8.796667281069336C7.518335730053711,8.796667281069336,6.720825640053711,8.335836977069336,6.720825640053711,8.335836977069336C6.679568980053711,8.312211307069337,6.6328498100537105,8.299824491885335,6.585307300053711,8.299917743721727C6.537764790053711,8.300010996077337,6.491074790053711,8.312578639069336,6.449911450053711,8.336365893069337C6.408747278053711,8.360153232069337,6.374549020053711,8.394327238069335,6.350729018053711,8.435471401069336C6.326908931053711,8.476616401069336,6.314299973393711,8.523289741069336,6.314168930053711,8.570832251069335C6.314168930053711,8.570832251069335,6.314168930053711,9.492500621069336,6.314168930053711,9.492500621069336C6.314299973393711,9.540042421069336,6.326908931053711,9.586717321069337,6.350729018053711,9.627867321069337C6.374549020053711,9.669009121069337,6.408747278053711,9.703184021069337,6.449911450053711,9.726967321069337C6.491074790053711,9.750759121069336,6.537764790053711,9.763325721069336,6.585307300053711,9.763417321069337C6.6328498100537105,9.763509121069337,6.679568980053711,9.751125721069336,6.720825640053711,9.727500821069336C6.720825640053711,9.727500821069336,7.518335730053711,9.266667311069336,7.518335730053711,9.266667311069336C7.559502530053711,9.242792311069335,7.593677430053711,9.208508971069335,7.617435830053711,9.167267321069335C7.641185730053711,9.126024841069336,7.653710730053711,9.079264041069337,7.653710730053711,9.031668131069337C7.653710730053711,8.984072271069335,7.641185730053711,8.937311471069336,7.617435830053711,8.896068151069336C7.593677430053711,8.854825611069336,7.559502530053711,8.820547281069336,7.518335730053711,8.796667281069336C7.518335730053711,8.796667281069336,7.518335730053711,8.796667281069336,7.518335730053711,8.796667281069336Z" fill="#A140FF" fill-opacity="1"/></svg>