<svg xmlns="http://www.w3.org/2000/svg" xmlns:xlink="http://www.w3.org/1999/xlink" fill="none" version="1.1" width="13.7021484375" height="20" viewBox="0 0 13.7021484375 20"><g style="opacity:0.30000001192092896;"><path d="M11.639168,4.103334C11.183585,4.1028919,10.746751,3.9217172,10.424584,3.5995586C10.102418,3.2774005,9.9212513,2.8405921,9.9208345,2.3850005C9.9208345,2.3850005,9.9208345,2.8491054e-28,9.9208345,2.8491054e-28C9.9208345,2.8491054e-28,2.2425003,2.8491054e-28,2.2425003,2.8491054e-28C1.6477503,-9.4739178e-15,1.0773668,0.2362642,0.65681428,0.65681428C0.2362642,1.0773668,-9.4739178e-15,1.6477503,2.8466398e-28,2.2425003C2.8466398e-28,2.2425003,2.8466398e-28,15.760836,2.8466398e-28,15.760836C0.00088320009,16.355001,0.23753503,16.924501,0.65798926,17.344336C1.0784419,17.764168,1.6483252,18.000002,2.2425003,18.000002C2.2425003,18.000002,11.460002,18.000002,11.460002,18.000002C12.054335,18.000002,12.624335,17.764086,13.044834,17.344086C13.465251,16.924086,13.701835,16.354336,13.702501,15.760001C13.702501,15.760001,13.702501,4.103334,13.702501,4.103334C13.702501,4.103334,11.639168,4.103334,11.639168,4.103334C11.639168,4.103334,11.639168,4.103334,11.639168,4.103334Z" fill="#005FAD" fill-opacity="1" style="opacity:0.30000001192092896;"/></g><path d="M13.702500387646484,4.1033335C13.702500387646484,4.1033335,11.639167087646484,4.1033335,11.639167087646484,4.1033335C11.183575287646484,4.1028919,10.746761977646484,3.9217167,10.424607757646484,3.5995584C10.102453587646485,3.2774,9.921274841816484,2.8405919,9.920833587646484,2.3850002C9.920833587646484,2.3850002,9.920833587646484,0,9.920833587646484,0C9.920833587646484,0,13.702500387646484,4.1033335,13.702500387646484,4.1033335C13.702500387646484,4.1033335,13.702500387646484,4.1033335,13.702500387646484,4.1033335Z" fill="#005FAD" fill-opacity="1"/><path d="M12.044162666521073,14.216666221618652C12.044162666521073,14.216666221618652,1.6241611665210725,14.216666221618652,1.6241611665210725,14.216666221618652C0.8850193965210724,14.216666221618652,0.2858276665210724,14.815863791618652,0.2858276665210724,15.555008021618653C0.2858276665210724,15.555008021618653,0.2858276665210724,18.661666821618653,0.2858276665210724,18.661666821618653C0.2858276665210724,19.400808821618654,0.8850193965210724,20.000000521618652,1.6241611665210725,20.000000521618652C1.6241611665210725,20.000000521618652,12.044162666521073,20.000000521618652,12.044162666521073,20.000000521618652C12.783328666521072,20.000000521618652,13.382495666521072,19.400808821618654,13.382495666521072,18.661666821618653C13.382495666521072,18.661666821618653,13.382495666521072,15.555008021618653,13.382495666521072,15.555008021618653C13.382495666521072,14.815863791618652,12.783328666521072,14.216666221618652,12.044162666521073,14.216666221618652C12.044162666521073,14.216666221618652,12.044162666521073,14.216666221618652,12.044162666521073,14.216666221618652Z" fill="#005FAD" fill-opacity="1"/><path d="M3.3041590446038818,17.780834197998047C3.3041590446038818,17.780834197998047,3.3041590446038818,18.386669277998045,3.3041590446038818,18.386669277998045C3.3041590446038818,18.386669277998045,2.676656484603882,18.386669277998045,2.676656484603882,18.386669277998045C2.676656484603882,18.386669277998045,2.676656484603882,17.780834197998047,2.676656484603882,17.780834197998047C2.676656484603882,17.780834197998047,3.3041590446038818,17.780834197998047,3.3041590446038818,17.780834197998047C3.3041590446038818,17.780834197998047,3.3041590446038818,17.780834197998047,3.3041590446038818,17.780834197998047Z" fill="#FFFFFF" fill-opacity="1"/><path d="M4.225830617416382,17.50834155518799C4.225830617416382,17.50834155518799,4.225830617416382,18.386674855187987,4.225830617416382,18.386674855187987C4.225830617416382,18.386674855187987,3.619161367416382,18.386674855187987,3.619161367416382,18.386674855187987C3.619161367416382,18.386674855187987,3.619161367416382,15.880841255187988,3.619161367416382,15.880841255187988C3.619161367416382,15.880841255187988,4.6008281074163815,15.880841255187988,4.6008281074163815,15.880841255187988C4.899161467416382,15.880841255187988,5.126103167416382,15.954727933187987,5.281661667416381,16.102505445187987C5.360628267416382,16.17995294518799,5.422311567416382,16.27323049518799,5.462669967416382,16.376207975187988C5.503028267416382,16.479184685187988,5.521144867416382,16.58953469518799,5.515828267416381,16.700009705187988C5.518444967416382,16.84575808518799,5.482203367416382,16.989574655187987,5.410828267416382,17.116674755187987C5.338461567416382,17.241066455187987,5.230486467416382,17.340916555187988,5.100828267416382,17.40334155518799C4.944919867416382,17.47770805518799,4.773486467416382,17.51369975518799,4.6008281074163815,17.50834155518799C4.6008281074163815,17.50834155518799,4.225830617416382,17.50834155518799,4.225830617416382,17.50834155518799C4.225830617416382,17.50834155518799,4.225830617416382,17.50834155518799,4.225830617416382,17.50834155518799ZM4.899161467416382,16.700009705187988C4.899161467416382,16.47778719518799,4.777494767416382,16.366676305187987,4.534161447416382,16.366676305187987C4.534161447416382,16.366676305187987,4.225830617416382,16.366676305187987,4.225830617416382,16.366676305187987C4.225830617416382,16.366676305187987,4.225830617416382,17.01917465518799,4.225830617416382,17.01917465518799C4.225830617416382,17.01917465518799,4.534161447416382,17.01917465518799,4.534161447416382,17.01917465518799C4.777494767416382,17.021391355187987,4.899161467416382,16.91500805518799,4.899161467416382,16.700009705187988C4.899161467416382,16.700009705187988,4.899161467416382,16.700009705187988,4.899161467416382,16.700009705187988C4.899161467416382,16.700009705187988,4.899161467416382,16.700009705187988,4.899161467416382,16.700009705187988Z" fill="#FFFFFF" fill-opacity="1"/><path d="M8.039147349676513,18.386674855187987C8.039147349676513,18.386674855187987,7.433314049676514,18.386674855187987,7.433314049676514,18.386674855187987C7.433314049676514,18.386674855187987,6.418315529676514,16.84834134518799,6.418315529676514,16.84834134518799C6.418315529676514,16.84834134518799,6.418315529676514,18.386674855187987,6.418315529676514,18.386674855187987C6.418315529676514,18.386674855187987,5.812480449676514,18.386674855187987,5.812480449676514,18.386674855187987C5.812480449676514,18.386674855187987,5.812480449676514,15.880841255187988,5.812480449676514,15.880841255187988C5.812480449676514,15.880841255187988,6.418315529676514,15.880841255187988,6.418315529676514,15.880841255187988C6.418315529676514,15.880841255187988,7.4324806496765135,17.433341355187988,7.4324806496765135,17.433341355187988C7.4324806496765135,17.433341355187988,7.4324806496765135,15.880841255187988,7.4324806496765135,15.880841255187988C7.4324806496765135,15.880841255187988,8.038313849676513,15.880841255187988,8.038313849676513,15.880841255187988C8.038313849676513,15.880841255187988,8.039147349676513,18.386674855187987,8.039147349676513,18.386674855187987C8.039147349676513,18.386674855187987,8.039147349676513,18.386674855187987,8.039147349676513,18.386674855187987Z" fill="#FFFFFF" fill-opacity="1"/><path d="M10.406642941357422,16.08333580659424C10.608859741357422,16.23464998659424,10.744726441357422,16.45830339659424,10.785809741357422,16.707500096594238C10.785809741357422,16.707500096594238,10.144151441357423,16.707500096594238,10.144151441357423,16.707500096594238C10.102059741357422,16.618244166594238,10.034501341357421,16.543435876594238,9.949984741357422,16.492500006594238C9.854501241357422,16.435885016594238,9.745126241357422,16.40702581659424,9.634151341357422,16.409166696594237C9.547934641357422,16.405601676594237,9.461984641357422,16.420990826594238,9.382359641357422,16.45425170659424C9.302734551357421,16.48751169659424,9.231376291357423,16.537832496594238,9.173313741357422,16.60166668659424C9.051562841357422,16.74798339659424,8.989642921357422,16.93493344659424,8.999979551357422,17.12500014659424C8.999979551357422,17.36333344659424,9.060812891357422,17.54639184659424,9.182479561357422,17.674175146594237C9.250867961357422,17.740558546594237,9.332384641357422,17.79190854659424,9.421792941357422,17.82491694659424C9.511201241357423,17.857925146594237,9.606534641357422,17.871858646594237,9.701651341357422,17.86583354659424C9.837601341357422,17.86819174659424,9.970651341357422,17.82637524659424,10.080818041357421,17.746666746594236C10.193034641357421,17.662666846594238,10.273976441357423,17.54359184659424,10.310818041357422,17.40834174659424C10.310818041357422,17.40834174659424,9.545817941357422,17.40834174659424,9.545817941357422,17.40834174659424C9.545817941357422,17.40834174659424,9.545817941357422,16.972500046594238,9.545817941357422,16.972500046594238C9.545817941357422,16.972500046594238,10.818309741357421,16.972500046594238,10.818309741357421,16.972500046594238C10.818309741357421,16.972500046594238,10.818309741357421,17.58333344659424,10.818309741357421,17.58333344659424C10.769034841357422,17.732375246594238,10.691826341357421,17.870675046594236,10.590817941357422,17.99083354659424C10.481726441357422,18.12018344659424,10.345801441357422,18.224258646594237,10.192476241357422,18.29583354659424C10.018651341357423,18.376091946594237,9.828909541357422,18.415975346594237,9.637484641357421,18.412500146594237C9.404884541357422,18.418391946594237,9.174877111357421,18.36260864659424,8.970814521357422,18.25083374659424C8.784078691357422,18.146133446594238,8.632012011357421,17.98915004659424,8.533314491357421,17.799175146594237C8.427686896357422,17.594575146594238,8.374704099257421,17.366883546594238,8.379149944897422,17.136666746594237C8.374149057557421,16.905066746594237,8.427143566357422,16.67589586659424,8.533314491357421,16.470003366594238C8.631880341357421,16.280485836594238,8.783264521357422,16.12359663659424,8.969146191357423,16.01833329659424C9.170251251357422,15.907566290594238,9.397117841357423,15.852072156494238,9.626651241357422,15.857500398794238C9.904534741357422,15.843875447594238,10.179026341357421,15.923350542594239,10.406642941357422,16.08333580659424C10.406642941357422,16.08333580659424,10.406642941357422,16.08333580659424,10.406642941357422,16.08333580659424C10.406642941357422,16.08333580659424,10.406642941357422,16.08333580659424,10.406642941357422,16.08333580659424Z" fill="#FFFFFF" fill-opacity="1"/><path d="M4.558334835144043,5.559998035430908C4.558334835144043,5.559998035430908,3.412501335144043,5.559998035430908,3.412501335144043,5.559998035430908C3.412501335144043,5.559998035430908,3.412501335144043,6.705831535430908,3.412501335144043,6.705831535430908C3.412501335144043,6.705831535430908,4.558334835144043,6.705831535430908,4.558334835144043,6.705831535430908C4.558334835144043,6.705831535430908,4.558334835144043,5.559998035430908,4.558334835144043,5.559998035430908C4.558334835144043,5.559998035430908,4.558334835144043,5.559998035430908,4.558334835144043,5.559998035430908Z" fill="#005FAD" fill-opacity="1"/><path d="M5.705002315612793,6.705831527709961C5.705002315612793,6.705831527709961,4.559168815612793,6.705831527709961,4.559168815612793,6.705831527709961C4.559168815612793,6.705831527709961,4.559168815612793,7.851665027709961,4.559168815612793,7.851665027709961C4.559168815612793,7.851665027709961,5.705002315612793,7.851665027709961,5.705002315612793,7.851665027709961C5.705002315612793,7.851665027709961,5.705002315612793,6.705831527709961,5.705002315612793,6.705831527709961C5.705002315612793,6.705831527709961,5.705002315612793,6.705831527709961,5.705002315612793,6.705831527709961Z" fill="#005FAD" fill-opacity="1"/><path d="M6.850835807891846,5.559998035430908C6.850835807891846,5.559998035430908,5.705002307891846,5.559998035430908,5.705002307891846,5.559998035430908C5.705002307891846,5.559998035430908,5.705002307891846,6.705831535430908,5.705002307891846,6.705831535430908C5.705002307891846,6.705831535430908,6.850835807891846,6.705831535430908,6.850835807891846,6.705831535430908C6.850835807891846,6.705831535430908,6.850835807891846,5.559998035430908,6.850835807891846,5.559998035430908C6.850835807891846,5.559998035430908,6.850835807891846,5.559998035430908,6.850835807891846,5.559998035430908Z" fill="#005FAD" fill-opacity="1"/><path d="M7.996669300170899,6.705831527709961C7.996669300170899,6.705831527709961,6.850835800170898,6.705831527709961,6.850835800170898,6.705831527709961C6.850835800170898,6.705831527709961,6.850835800170898,7.851665027709961,6.850835800170898,7.851665027709961C6.850835800170898,7.851665027709961,7.996669300170899,7.851665027709961,7.996669300170899,7.851665027709961C7.996669300170899,7.851665027709961,7.996669300170899,6.705831527709961,7.996669300170899,6.705831527709961C7.996669300170899,6.705831527709961,7.996669300170899,6.705831527709961,7.996669300170899,6.705831527709961Z" fill="#005FAD" fill-opacity="1"/><path d="M9.144166000457764,5.559998035430908C9.144166000457764,5.559998035430908,7.998332500457764,5.559998035430908,7.998332500457764,5.559998035430908C7.998332500457764,5.559998035430908,7.998332500457764,6.705831535430908,7.998332500457764,6.705831535430908C7.998332500457764,6.705831535430908,9.144166000457764,6.705831535430908,9.144166000457764,6.705831535430908C9.144166000457764,6.705831535430908,9.144166000457764,5.559998035430908,9.144166000457764,5.559998035430908C9.144166000457764,5.559998035430908,9.144166000457764,5.559998035430908,9.144166000457764,5.559998035430908Z" fill="#005FAD" fill-opacity="1"/><path d="M10.289999492736817,6.705831527709961C10.289999492736817,6.705831527709961,9.144165992736816,6.705831527709961,9.144165992736816,6.705831527709961C9.144165992736816,6.705831527709961,9.144165992736816,7.851665027709961,9.144165992736816,7.851665027709961C9.144165992736816,7.851665027709961,10.289999492736817,7.851665027709961,10.289999492736817,7.851665027709961C10.289999492736817,7.851665027709961,10.289999492736817,6.705831527709961,10.289999492736817,6.705831527709961C10.289999492736817,6.705831527709961,10.289999492736817,6.705831527709961,10.289999492736817,6.705831527709961Z" fill="#005FAD" fill-opacity="1"/><path d="M4.558334835144043,7.849997043609619C4.558334835144043,7.849997043609619,3.412501335144043,7.849997043609619,3.412501335144043,7.849997043609619C3.412501335144043,7.849997043609619,3.412501335144043,8.99583054360962,3.412501335144043,8.99583054360962C3.412501335144043,8.99583054360962,4.558334835144043,8.99583054360962,4.558334835144043,8.99583054360962C4.558334835144043,8.99583054360962,4.558334835144043,7.849997043609619,4.558334835144043,7.849997043609619C4.558334835144043,7.849997043609619,4.558334835144043,7.849997043609619,4.558334835144043,7.849997043609619Z" fill="#005FAD" fill-opacity="1"/><path d="M5.705002315612793,8.995830535888672C5.705002315612793,8.995830535888672,4.559168815612793,8.995830535888672,4.559168815612793,8.995830535888672C4.559168815612793,8.995830535888672,4.559168815612793,10.141664035888672,4.559168815612793,10.141664035888672C4.559168815612793,10.141664035888672,5.705002315612793,10.141664035888672,5.705002315612793,10.141664035888672C5.705002315612793,10.141664035888672,5.705002315612793,8.995830535888672,5.705002315612793,8.995830535888672C5.705002315612793,8.995830535888672,5.705002315612793,8.995830535888672,5.705002315612793,8.995830535888672Z" fill="#005FAD" fill-opacity="1"/><path d="M6.850835807891846,7.849997043609619C6.850835807891846,7.849997043609619,5.705002307891846,7.849997043609619,5.705002307891846,7.849997043609619C5.705002307891846,7.849997043609619,5.705002307891846,8.99583054360962,5.705002307891846,8.99583054360962C5.705002307891846,8.99583054360962,6.850835807891846,8.99583054360962,6.850835807891846,8.99583054360962C6.850835807891846,8.99583054360962,6.850835807891846,7.849997043609619,6.850835807891846,7.849997043609619C6.850835807891846,7.849997043609619,6.850835807891846,7.849997043609619,6.850835807891846,7.849997043609619Z" fill="#005FAD" fill-opacity="1"/><path d="M7.996669300170899,8.995830535888672C7.996669300170899,8.995830535888672,6.850835800170898,8.995830535888672,6.850835800170898,8.995830535888672C6.850835800170898,8.995830535888672,6.850835800170898,10.141664035888672,6.850835800170898,10.141664035888672C6.850835800170898,10.141664035888672,7.996669300170899,10.141664035888672,7.996669300170899,10.141664035888672C7.996669300170899,10.141664035888672,7.996669300170899,8.995830535888672,7.996669300170899,8.995830535888672C7.996669300170899,8.995830535888672,7.996669300170899,8.995830535888672,7.996669300170899,8.995830535888672Z" fill="#005FAD" fill-opacity="1"/><path d="M9.144166000457764,7.849997043609619C9.144166000457764,7.849997043609619,7.998332500457764,7.849997043609619,7.998332500457764,7.849997043609619C7.998332500457764,7.849997043609619,7.998332500457764,8.99583054360962,7.998332500457764,8.99583054360962C7.998332500457764,8.99583054360962,9.144166000457764,8.99583054360962,9.144166000457764,8.99583054360962C9.144166000457764,8.99583054360962,9.144166000457764,7.849997043609619,9.144166000457764,7.849997043609619C9.144166000457764,7.849997043609619,9.144166000457764,7.849997043609619,9.144166000457764,7.849997043609619Z" fill="#005FAD" fill-opacity="1"/><path d="M10.289999492736817,8.995830535888672C10.289999492736817,8.995830535888672,9.144165992736816,8.995830535888672,9.144165992736816,8.995830535888672C9.144165992736816,8.995830535888672,9.144165992736816,10.141664035888672,9.144165992736816,10.141664035888672C9.144165992736816,10.141664035888672,10.289999492736817,10.141664035888672,10.289999492736817,10.141664035888672C10.289999492736817,10.141664035888672,10.289999492736817,8.995830535888672,10.289999492736817,8.995830535888672C10.289999492736817,8.995830535888672,10.289999492736817,8.995830535888672,10.289999492736817,8.995830535888672Z" fill="#005FAD" fill-opacity="1"/><path d="M4.558334835144043,10.150839805603027C4.558334835144043,10.150839805603027,3.412501335144043,10.150839805603027,3.412501335144043,10.150839805603027C3.412501335144043,10.150839805603027,3.412501335144043,11.296673305603028,3.412501335144043,11.296673305603028C3.412501335144043,11.296673305603028,4.558334835144043,11.296673305603028,4.558334835144043,11.296673305603028C4.558334835144043,11.296673305603028,4.558334835144043,10.150839805603027,4.558334835144043,10.150839805603027C4.558334835144043,10.150839805603027,4.558334835144043,10.150839805603027,4.558334835144043,10.150839805603027Z" fill="#005FAD" fill-opacity="1"/><path d="M5.705002315612793,11.296672821044922C5.705002315612793,11.296672821044922,4.559168815612793,11.296672821044922,4.559168815612793,11.296672821044922C4.559168815612793,11.296672821044922,4.559168815612793,12.442506321044922,4.559168815612793,12.442506321044922C4.559168815612793,12.442506321044922,5.705002315612793,12.442506321044922,5.705002315612793,12.442506321044922C5.705002315612793,12.442506321044922,5.705002315612793,11.296672821044922,5.705002315612793,11.296672821044922C5.705002315612793,11.296672821044922,5.705002315612793,11.296672821044922,5.705002315612793,11.296672821044922Z" fill="#005FAD" fill-opacity="1"/><path d="M6.850835807891846,10.150839805603027C6.850835807891846,10.150839805603027,5.705002307891846,10.150839805603027,5.705002307891846,10.150839805603027C5.705002307891846,10.150839805603027,5.705002307891846,11.296673305603028,5.705002307891846,11.296673305603028C5.705002307891846,11.296673305603028,6.850835807891846,11.296673305603028,6.850835807891846,11.296673305603028C6.850835807891846,11.296673305603028,6.850835807891846,10.150839805603027,6.850835807891846,10.150839805603027C6.850835807891846,10.150839805603027,6.850835807891846,10.150839805603027,6.850835807891846,10.150839805603027Z" fill="#005FAD" fill-opacity="1"/><path d="M7.996669300170899,11.296672821044922C7.996669300170899,11.296672821044922,6.850835800170898,11.296672821044922,6.850835800170898,11.296672821044922C6.850835800170898,11.296672821044922,6.850835800170898,12.442506321044922,6.850835800170898,12.442506321044922C6.850835800170898,12.442506321044922,7.996669300170899,12.442506321044922,7.996669300170899,12.442506321044922C7.996669300170899,12.442506321044922,7.996669300170899,11.296672821044922,7.996669300170899,11.296672821044922C7.996669300170899,11.296672821044922,7.996669300170899,11.296672821044922,7.996669300170899,11.296672821044922Z" fill="#005FAD" fill-opacity="1"/><path d="M9.144166000457764,10.150839805603027C9.144166000457764,10.150839805603027,7.998332500457764,10.150839805603027,7.998332500457764,10.150839805603027C7.998332500457764,10.150839805603027,7.998332500457764,11.296673305603028,7.998332500457764,11.296673305603028C7.998332500457764,11.296673305603028,9.144166000457764,11.296673305603028,9.144166000457764,11.296673305603028C9.144166000457764,11.296673305603028,9.144166000457764,10.150839805603027,9.144166000457764,10.150839805603027C9.144166000457764,10.150839805603027,9.144166000457764,10.150839805603027,9.144166000457764,10.150839805603027Z" fill="#005FAD" fill-opacity="1"/><path d="M10.289999492736817,11.296672821044922C10.289999492736817,11.296672821044922,9.144165992736816,11.296672821044922,9.144165992736816,11.296672821044922C9.144165992736816,11.296672821044922,9.144165992736816,12.442506321044922,9.144165992736816,12.442506321044922C9.144165992736816,12.442506321044922,10.289999492736817,12.442506321044922,10.289999492736817,12.442506321044922C10.289999492736817,12.442506321044922,10.289999492736817,11.296672821044922,10.289999492736817,11.296672821044922C10.289999492736817,11.296672821044922,10.289999492736817,11.296672821044922,10.289999492736817,11.296672821044922Z" fill="#005FAD" fill-opacity="1"/></svg>