<svg xmlns="http://www.w3.org/2000/svg" xmlns:xlink="http://www.w3.org/1999/xlink" fill="none" version="1.1" width="13.7021484375" height="20" viewBox="0 0 13.7021484375 20"><g style="opacity:0.30000001192092896;"><path d="M11.638683,4.1039963C11.183119,4.1035547,10.746304,3.9223704,10.42415,3.6002338C10.101996,3.2780888,9.9208374,2.8412986,9.9204216,2.385726C9.9204216,2.385726,9.9204216,4.5646855e-27,9.9204216,4.5646855e-27C9.9204216,4.5646855e-27,2.2423985,4.5646855e-27,2.2423985,4.5646855e-27C1.6476731,-3.7894008e-14,1.0773219,0.23625936,0.65679276,0.65679276C0.23625936,1.0773219,-3.7894008e-14,1.6476731,4.5646855e-27,2.2423985C4.5646855e-27,2.2423985,4.5646855e-27,15.760179,4.5646855e-27,15.760179C-3.7894008e-14,16.354904,0.23625936,16.925297,0.65679276,17.345779C1.0773219,17.766346,1.6476731,18.002584,2.2423985,18.002584C2.2423985,18.002584,11.45869,18.002584,11.45869,18.002584C11.753262,18.002668,12.044916,17.944754,12.317072,17.832092C12.589227,17.719515,12.83655,17.554354,13.044874,17.346113C13.2532,17.137871,13.418443,16.890631,13.531188,16.618475C13.643932,16.346403,13.70193,16.054749,13.70193,15.760179C13.70193,15.760179,13.70193,4.1039963,13.70193,4.1039963C13.70193,4.1039963,11.638683,4.1039963,11.638683,4.1039963C11.638683,4.1039963,11.638683,4.1039963,11.638683,4.1039963Z" fill="#FF3E4C" fill-opacity="1" style="opacity:0.30000001192092896;"/></g><path d="M13.701926715039063,4.1039963C13.701926715039063,4.1039963,11.638679015039063,4.1039963,11.638679015039063,4.1039963C11.183097915039063,4.1035547,10.746309455039063,3.9223704,10.424168645039062,3.6002338C10.102027045039062,3.2780888,9.920866650849062,2.8412986,9.920425415039062,2.385726C9.920425415039062,2.385726,9.920425415039062,0,9.920425415039062,0C9.920425415039062,0,13.701926715039063,4.1039963,13.701926715039063,4.1039963C13.701926715039063,4.1039963,13.701926715039063,4.1039963,13.701926715039063,4.1039963Z" fill="#FF3E4C" fill-opacity="1"/><path d="M12.091163485187531,14.21690845489502C12.091163485187531,14.21690845489502,1.6715970851875306,14.21690845489502,1.6715970851875306,14.21690845489502C0.9324861751875305,14.21690845489502,0.3333194851875305,14.81607514489502,0.3333194851875305,15.55518605489502C0.3333194851875305,15.55518605489502,0.3333194851875305,18.66172315489502,0.3333194851875305,18.66172315489502C0.3333194851875305,19.40083405489502,0.9324861751875305,20.00000145489502,1.6715970851875306,20.00000145489502C1.6715970851875306,20.00000145489502,12.091163485187531,20.00000145489502,12.091163485187531,20.00000145489502C12.830299485187531,20.00000145489502,13.42944148518753,19.40083405489502,13.42944148518753,18.66172315489502C13.42944148518753,18.66172315489502,13.42944148518753,15.55518605489502,13.42944148518753,15.55518605489502C13.42944148518753,14.81607514489502,12.830299485187531,14.21690845489502,12.091163485187531,14.21690845489502C12.091163485187531,14.21690845489502,12.091163485187531,14.21690845489502,12.091163485187531,14.21690845489502Z" fill="#FF3E4C" fill-opacity="1"/><path d="M3.996497328873291,17.78091812133789C3.996497328873291,17.78091812133789,3.996497328873291,18.38672793133789,3.996497328873291,18.38672793133789C3.996497328873291,18.38672793133789,3.369020938873291,18.38672793133789,3.369020938873291,18.38672793133789C3.369020938873291,18.38672793133789,3.369020938873291,17.78091812133789,3.369020938873291,17.78091812133789C3.369020938873291,17.78091812133789,3.996497328873291,17.78091812133789,3.996497328873291,17.78091812133789C3.996497328873291,17.78091812133789,3.996497328873291,17.78091812133789,3.996497328873291,17.78091812133789Z" fill="#FFFFFF" fill-opacity="1"/><path d="M4.918130519228516,17.50761201656494C4.918130519228516,17.50761201656494,4.918130519228516,18.386725416564943,4.918130519228516,18.386725416564943C4.918130519228516,18.386725416564943,4.312320709228516,18.386725416564943,4.312320709228516,18.386725416564943C4.312320709228516,18.386725416564943,4.312320709228516,15.881012916564941,4.312320709228516,15.881012916564941C4.312320709228516,15.881012916564941,5.293946559228516,15.881012916564941,5.293946559228516,15.881012916564941C5.591717609228516,15.881012916564941,5.818366409228515,15.954891428564942,5.973910009228516,16.102662876564942C6.052873509228515,16.180107146564943,6.114562509228516,16.273380786564942,6.154919109228516,16.37635400656494C6.195275809228516,16.47932636656494,6.213391809228516,16.589661006564942,6.208075309228516,16.70013141656494C6.210708609228515,16.84577280656494,6.174768309228516,16.98951681656494,6.103912909228516,17.116778216564942C6.031057609228515,17.241273016564943,5.922887209228516,17.341352216564943,5.793092609228515,17.404283016564943C5.637115709228516,17.47835481656494,5.465697809228516,17.51407001656494,5.293113349228515,17.508445416564943C5.293113349228515,17.508445416564943,4.918130519228516,17.50761201656494,4.918130519228516,17.50761201656494C4.918130519228516,17.50761201656494,4.918130519228516,17.50761201656494,4.918130519228516,17.50761201656494ZM5.591425909228516,16.70013141656494C5.591425909228516,16.477918926564943,5.469772709228516,16.36681189656494,5.2264494292285155,16.36681189656494C5.2264494292285155,16.36681189656494,4.918130519228516,16.36681189656494,4.918130519228516,16.36681189656494C4.918130519228516,16.36681189656494,4.918130519228516,17.01929051656494,4.918130519228516,17.01929051656494C4.918130519228516,17.01929051656494,5.2264494292285155,17.01929051656494,5.2264494292285155,17.01929051656494C5.469772709228516,17.021515516564943,5.591425909228516,16.91511991656494,5.591425909228516,16.70013141656494C5.591425909228516,16.70013141656494,5.591425909228516,16.70013141656494,5.591425909228516,16.70013141656494Z" fill="#FFFFFF" fill-opacity="1"/><path d="M7.112192397172851,17.50761201656494C7.112192397172851,17.50761201656494,7.112192397172851,18.386725416564943,7.112192397172851,18.386725416564943C7.112192397172851,18.386725416564943,6.505548477172852,18.386725416564943,6.505548477172852,18.386725416564943C6.505548477172852,18.386725416564943,6.505548477172852,15.881012916564941,6.505548477172852,15.881012916564941C6.505548477172852,15.881012916564941,7.487174327172852,15.881012916564941,7.487174327172852,15.881012916564941C7.785495277172852,15.881012916564941,8.012444177172851,15.954891428564942,8.167996077172852,16.102662876564942C8.246951077172852,16.180107146564943,8.308623577172852,16.273380786564942,8.348980277172851,16.37635400656494C8.38933677717285,16.47932636656494,8.407452677172852,16.589661006564942,8.402136277172852,16.70013141656494C8.40487787717285,16.84588950656494,8.36862947717285,16.989733416564942,8.297140677172852,17.116778216564942C8.22482707717285,17.24140631656494,8.116864777172852,17.341552216564942,7.987153677172851,17.404283016564943C7.8311767771728515,17.47835481656494,7.6597587771728515,17.51407001656494,7.487174327172852,17.508445416564943C7.487174327172852,17.508445416564943,7.112192397172851,17.50761201656494,7.112192397172851,17.50761201656494C7.112192397172851,17.50761201656494,7.112192397172851,17.50761201656494,7.112192397172851,17.50761201656494ZM7.785503577172852,16.70013141656494C7.785503577172852,16.477918926564943,7.663833577172852,16.36681189656494,7.420510407172852,16.36681189656494C7.420510407172852,16.36681189656494,7.112192397172851,16.36681189656494,7.112192397172851,16.36681189656494C7.112192397172851,16.36681189656494,7.112192397172851,17.01929051656494,7.112192397172851,17.01929051656494C7.112192397172851,17.01929051656494,7.420510407172852,17.01929051656494,7.420510407172852,17.01929051656494C7.663833577172852,17.021515516564943,7.785503577172852,16.91511991656494,7.785503577172852,16.70013141656494C7.785503577172852,16.70013141656494,7.785503577172852,16.70013141656494,7.785503577172852,16.70013141656494Z" fill="#FFFFFF" fill-opacity="1"/><path d="M10.500400734899902,15.881012916564941C10.500400734899902,15.881012916564941,10.500400734899902,16.36349621656494,10.500400734899902,16.36349621656494C10.500400734899902,16.36349621656494,9.819579034899903,16.36349621656494,9.819579034899903,16.36349621656494C9.819579034899903,16.36349621656494,9.819579034899903,18.386725416564943,9.819579034899903,18.386725416564943C9.819579034899903,18.386725416564943,9.210453454899902,18.386725416564943,9.210453454899902,18.386725416564943C9.210453454899902,18.386725416564943,9.210453454899902,16.36349621656494,9.210453454899902,16.36349621656494C9.210453454899902,16.36349621656494,8.536307334899902,16.36349621656494,8.536307334899902,16.36349621656494C8.536307334899902,16.36349621656494,8.536307334899902,15.881012916564941,8.536307334899902,15.881012916564941C8.536307334899902,15.881012916564941,10.500400734899902,15.881012916564941,10.500400734899902,15.881012916564941C10.500400734899902,15.881012916564941,10.500400734899902,15.881012916564941,10.500400734899902,15.881012916564941Z" fill="#FFFFFF" fill-opacity="1"/><path d="M6.2238998785217285,6.977208251745606C6.2238998785217285,6.977208251745606,2.5832260885217284,6.977208251745606,2.5832260885217284,6.977208251745606C2.5004936885217286,6.977208251745606,2.4211311685217285,6.944407101745606,2.3625527625217284,6.885984541745605C2.3039736975217284,6.827561971745605,2.2709596985217284,6.748287741745606,2.2707390785217285,6.665555361745605C2.2707390785217285,6.582678811745605,2.3036649595217287,6.503199621745606,2.3622677775217285,6.444597050745606C2.4208703485217287,6.385994232745605,2.5003495385217285,6.3530683517456055,2.5832260885217284,6.3530683517456055C2.5832260885217284,6.3530683517456055,6.220566478521729,6.3530683517456055,6.220566478521729,6.3530683517456055C6.303446778521728,6.3530683517456055,6.382943178521728,6.385994232745605,6.4415492785217285,6.444597050745606C6.500146878521728,6.503199621745606,6.533053378521728,6.582678811745605,6.533053378521728,6.665555361745605C6.532836878521729,6.747713621745605,6.500279878521728,6.826477021745605,6.442424278521728,6.884804601745605C6.384560078521728,6.943132991745605,6.306054578521729,6.976332421745606,6.2238998785217285,6.977208251745606C6.2238998785217285,6.977208251745606,6.2238998785217285,6.977208251745606,6.2238998785217285,6.977208251745606C6.2238998785217285,6.977208251745606,6.2238998785217285,6.977208251745606,6.2238998785217285,6.977208251745606Z" fill="#FF3E4C" fill-opacity="1"/><path d="M6.2238998785217285,8.841307754309081C6.2238998785217285,8.841307754309081,2.5832260885217284,8.841307754309081,2.5832260885217284,8.841307754309081C2.5004936885217286,8.841307754309081,2.4211311685217285,8.808486644309083,2.3625527625217284,8.750064074309082C2.3039736975217284,8.691641484309082,2.2709596985217284,8.612387244309081,2.2707390785217285,8.529654864309082C2.2707390785217285,8.446778314309082,2.3036649595217287,8.367279114309081,2.3622677775217285,8.308675721309083C2.4208703485217287,8.250073403309083,2.5003495385217285,8.217167854309082,2.5832260885217284,8.217167854309082C2.5832260885217284,8.217167854309082,6.220566478521729,8.217167854309082,6.220566478521729,8.217167854309082C6.303446778521728,8.217167854309082,6.382943178521728,8.250073403309083,6.4415492785217285,8.308675721309083C6.500146878521728,8.367279114309081,6.533053378521728,8.446778314309082,6.533053378521728,8.529654864309082C6.532836878521729,8.611813124309082,6.500279878521728,8.690576524309082,6.442424278521728,8.748904104309082C6.384560078521728,8.807232494309082,6.306054578521729,8.840431924309081,6.2238998785217285,8.841307754309081C6.2238998785217285,8.841307754309081,6.2238998785217285,8.841307754309081,6.2238998785217285,8.841307754309081C6.2238998785217285,8.841307754309081,6.2238998785217285,8.841307754309081,6.2238998785217285,8.841307754309081Z" fill="#FF3E4C" fill-opacity="1"/><path d="M6.2238998785217285,10.705385982416992C6.2238998785217285,10.705385982416992,2.5832260885217284,10.705385982416992,2.5832260885217284,10.705385982416992C2.5003495385217285,10.705385982416992,2.4208703485217287,10.672459842416993,2.3622677775217285,10.613857332416993C2.3036649595217287,10.555254752416992,2.2707390785217285,10.475775542416992,2.2707390785217285,10.392898972416992C2.2713986419217287,10.310456562416991,2.3046110865217284,10.231610672416991,2.3631427435217285,10.173548080416992C2.4216736385217286,10.115484666416993,2.5007803585217285,10.082911714285093,2.5832260885217284,10.082914352577248C2.5832260885217284,10.082914352577248,6.220566478521729,10.082914352577248,6.220566478521729,10.082914352577248C6.303296578521729,10.082914058416693,6.382659878521729,10.115715239416993,6.4412407785217285,10.174138061416992C6.499821678521728,10.232560632416993,6.532836878521729,10.311834842416992,6.533053378521728,10.394567252416993C6.532620478521729,10.476580532416992,6.499971878521729,10.555138912416993,6.442132478521729,10.613288162416993C6.384301678521728,10.671436552416992,6.305912978521729,10.704512652416993,6.2238998785217285,10.705385982416992C6.2238998785217285,10.705385982416992,6.2238998785217285,10.705385982416992,6.2238998785217285,10.705385982416992C6.2238998785217285,10.705385982416992,6.2238998785217285,10.705385982416992,6.2238998785217285,10.705385982416992Z" fill="#FF3E4C" fill-opacity="1"/><path d="M6.2238998785217285,12.569484824926757C6.2238998785217285,12.569484824926757,2.5832260885217284,12.569484824926757,2.5832260885217284,12.569484824926757C2.5003495385217285,12.569484824926757,2.4208703485217287,12.536558684926758,2.3622677775217285,12.477956114926759C2.3036649595217287,12.419353574926758,2.2707390785217285,12.339874354926758,2.2707390785217285,12.256997824926758C2.2709596985217284,12.174265414926758,2.3039736975217284,12.094991204926758,2.3625527625217284,12.036568633926757C2.4211311685217285,11.978145811926758,2.5004936885217286,11.945344630768147,2.5832260885217284,11.945344924928737C2.5832260885217284,11.945344924928737,6.220566478521729,11.945344924928737,6.220566478521729,11.945344924928737C6.303296578521729,11.945344630768147,6.382659878521729,11.978145811926758,6.4412407785217285,12.036568633926757C6.499821678521728,12.094991204926758,6.532836878521729,12.174265414926758,6.533053378521728,12.256997824926758C6.5330619785217285,12.339300244926758,6.5006131785217285,12.418268624926759,6.442724178521728,12.476776184926758C6.384843378521729,12.535283744926758,6.306204778521728,12.568606554926758,6.2238998785217285,12.569484824926757C6.2238998785217285,12.569484824926757,6.2238998785217285,12.569484824926757,6.2238998785217285,12.569484824926757C6.2238998785217285,12.569484824926757,6.2238998785217285,12.569484824926757,6.2238998785217285,12.569484824926757Z" fill="#FF3E4C" fill-opacity="1"/><path d="M9.770427177520752,9.832925833337402C9.770427177520752,9.832925833337402,9.770427177520752,7.063040733337402,9.770427177520752,7.063040733337402C9.095622077520751,7.098673585337402,8.460190077520751,7.3918004033374025,7.995090247520752,7.8820167233374026C7.529989567520752,8.372236333337403,7.270658024750752,9.022175933337403,7.270531309229142,9.697922933337402C7.270421817070752,10.044408533337403,7.338580854520752,10.387527733337402,7.471125337520752,10.707664533337402C7.6036698175207516,11.027801033337402,7.797997597520752,11.318680733337402,8.043000697520752,11.563686833337403C8.288005577520751,11.808693433337403,8.578893577520752,12.003018833337403,8.899021877520752,12.135563333337402C9.219158677520753,12.268107933337403,9.562260877520751,12.336263133337402,9.908746677520751,12.336154933337403C10.584468577520752,12.336221733337403,11.234441477520752,12.076924333337402,11.724571277520752,11.611760133337402C12.21469257752075,11.146595933337402,12.507588877520753,10.511064033337401,12.542812377520752,9.836258633337403C12.542812377520752,9.836258633337403,9.770427177520752,9.832925833337402,9.770427177520752,9.832925833337402C9.770427177520752,9.832925833337402,9.770427177520752,9.832925833337402,9.770427177520752,9.832925833337402Z" fill="#FF3E4C" fill-opacity="1"/><path d="M10.275411605834961,6.8522138595581055C10.275411605834961,6.8522138595581055,10.275411605834961,9.352109859558105,10.275411605834961,9.352109859558105C10.275411605834961,9.352109859558105,12.77530760583496,9.352109859558105,12.77530760583496,9.352109859558105C12.74191760583496,8.699903859558106,12.467812305834961,8.083271059558106,12.006031305834961,7.621489409558105C11.544250505834961,7.159707759558105,10.927615345834962,6.885601054558106,10.275411605834961,6.8522138595581055C10.275411605834961,6.8522138595581055,10.275411605834961,6.8522138595581055,10.275411605834961,6.8522138595581055C10.275411605834961,6.8522138595581055,10.275411605834961,6.8522138595581055,10.275411605834961,6.8522138595581055Z" fill="#FF3E4C" fill-opacity="1"/></svg>