<svg xmlns="http://www.w3.org/2000/svg" xmlns:xlink="http://www.w3.org/1999/xlink" fill="none" version="1.1" width="13.7021484375" height="20" viewBox="0 0 13.7021484375 20"><g style="opacity:0.30000001192092896;"><path d="M11.638683,4.1039963C11.183035,4.1033378,10.746221,3.9219787,10.42415,3.5997005C10.101996,3.2774305,9.9208374,2.8405571,9.9204216,2.384901C9.9204216,2.384901,9.9204216,1.5484387e-7,9.9204216,1.5484387e-7C9.9204216,1.5484387e-7,2.2432401,1.5484387e-7,2.2432401,1.5484387e-7C1.948694,-0.0001093013,1.6570061,0.057811599,1.3848509,0.17045376C1.1126955,0.28309658,0.86538905,0.4482497,0.6570769,0.6564877C0.44876218,0.86472243,0.28351322,1.1119621,0.17076957,1.3840759C0.058025673,1.6561894,-2.0337485e-8,1.9478607,5.3460794e-15,2.2424068C5.3460794e-15,2.2424068,5.3460794e-15,15.760179,5.3460794e-15,15.760179C-2.0337485e-8,16.054749,0.058025673,16.346403,0.17076957,16.618475C0.28351322,16.890631,0.44876218,17.137871,0.6570769,17.346113C0.86538905,17.554354,1.1126955,17.719515,1.3848509,17.832176C1.6570061,17.944754,1.948694,18.002668,2.2432401,18.002584C2.2432401,18.002584,11.459524,18.002584,11.459524,18.002584C12.054249,18.002584,12.624642,17.766346,13.045125,17.345779C13.465691,16.925297,13.70193,16.354904,13.70193,15.760179C13.70193,15.760179,13.70193,4.1039963,13.70193,4.1039963C13.70193,4.1039963,11.638683,4.1039963,11.638683,4.1039963C11.638683,4.1039963,11.638683,4.1039963,11.638683,4.1039963Z" fill="#A140FF" fill-opacity="1" style="opacity:0.30000001192092896;"/></g><path d="M13.701924524621582,4.1039963C13.701924524621582,4.1039963,11.638685224621582,4.1039963,11.638685224621582,4.1039963C11.183037424621581,4.1033378,10.746244784621583,3.9219787,10.424127344621581,3.5997005C10.102009874621581,3.2774305,9.920855754641583,2.8405571,9.920414924621582,2.384901C9.920414924621582,2.384901,9.920414924621582,0,9.920414924621582,0C9.920414924621582,0,13.701924524621582,4.1039963,13.701924524621582,4.1039963C13.701924524621582,4.1039963,13.701924524621582,4.1039963,13.701924524621582,4.1039963Z" fill="#A140FF" fill-opacity="1"/><path d="M12.07948592199707,14.21690845489502C12.07948592199707,14.21690845489502,1.6599195219970704,14.21690845489502,1.6599195219970704,14.21690845489502C0.9208086119970703,14.21690845489502,0.3216419219970703,14.81607514489502,0.3216419219970703,15.55518605489502C0.3216419219970703,15.55518605489502,0.3216419219970703,18.66172315489502,0.3216419219970703,18.66172315489502C0.3216419219970703,19.40083405489502,0.9208086119970703,20.00000145489502,1.6599195219970704,20.00000145489502C1.6599195219970704,20.00000145489502,12.07948592199707,20.00000145489502,12.07948592199707,20.00000145489502C12.818621921997071,20.00000145489502,13.41776392199707,19.40083405489502,13.41776392199707,18.66172315489502C13.41776392199707,18.66172315489502,13.41776392199707,15.55518605489502,13.41776392199707,15.55518605489502C13.41776392199707,14.81607514489502,12.818621921997071,14.21690845489502,12.07948592199707,14.21690845489502C12.07948592199707,14.21690845489502,12.07948592199707,14.21690845489502,12.07948592199707,14.21690845489502Z" fill="#A140FF" fill-opacity="1"/><path d="M3.576491292114868,17.780927658081055C3.576491292114868,17.780927658081055,3.576491292114868,18.386737468081055,3.576491292114868,18.386737468081055C3.576491292114868,18.386737468081055,2.949014902114868,18.386737468081055,2.949014902114868,18.386737468081055C2.949014902114868,18.386737468081055,2.949014902114868,17.780927658081055,2.949014902114868,17.780927658081055C2.949014902114868,17.780927658081055,3.576491292114868,17.780927658081055,3.576491292114868,17.780927658081055C3.576491292114868,17.780927658081055,3.576491292114868,17.780927658081055,3.576491292114868,17.780927658081055Z" fill="#FFFFFF" fill-opacity="1"/><path d="M5.178936272470093,18.386740924145506C5.178936272470093,18.386740924145506,4.636454582470093,17.44011342414551,4.636454582470093,17.44011342414551C4.636454582470093,17.44011342414551,4.498124482470093,17.44011342414551,4.498124482470093,17.44011342414551C4.498124482470093,17.44011342414551,4.498124482470093,18.386740924145506,4.498124482470093,18.386740924145506C4.498124482470093,18.386740924145506,3.8923146724700928,18.386740924145506,3.8923146724700928,18.386740924145506C3.8923146724700928,18.386740924145506,3.8923146724700928,15.881005422935507,3.8923146724700928,15.881005422935507C3.8923146724700928,15.881005422935507,4.9272717724700925,15.881005422935507,4.9272717724700925,15.881005422935507C5.0995977724700925,15.876294828945507,5.270682372470093,15.911376513145507,5.4272508724700925,15.983509854145508C5.555770472470092,16.04461981414551,5.663116072470093,16.142679064145508,5.735571472470093,16.265154804145507C5.805343472470093,16.390367924145508,5.840700372470093,16.53182786414551,5.838067172470093,16.675141934145508C5.842941972470093,16.842638314145507,5.789652472470093,17.00665652414551,5.6872401724700925,17.139292624145508C5.575661372470092,17.274020424145508,5.421242872470093,17.36636652414551,5.249758372470093,17.400940224145508C5.249758372470093,17.400940224145508,5.845575172470093,18.386740924145506,5.845575172470093,18.386740924145506C5.845575172470093,18.386740924145506,5.178936272470093,18.386740924145506,5.178936272470093,18.386740924145506C5.178936272470093,18.386740924145506,5.178936272470093,18.386740924145506,5.178936272470093,18.386740924145506ZM4.498124482470093,17.025955724145508C4.498124482470093,17.025955724145508,4.873940522470093,17.025955724145508,4.873940522470093,17.025955724145508C4.969944972470093,17.03317212414551,5.065065972470093,17.003356624145507,5.139771272470092,16.942625924145506C5.169361572470093,16.911318824145507,5.192069072470093,16.874170364145506,5.206418372470093,16.83355534414551C5.220767772470093,16.792932034145508,5.226459272470093,16.749758844145507,5.223101172470093,16.706807314145507C5.225867672470093,16.66416156414551,5.2199011724700926,16.62140333414551,5.205576772470093,16.581140814145506C5.191243972470093,16.540879194145507,5.168853272470093,16.503965734145506,5.139771272470092,16.47265535414551C5.066090972470093,16.411248744145507,4.971194872470093,16.381314154145507,4.875607192470093,16.389325504145507C4.875607192470093,16.389325504145507,4.499792752470093,16.389325504145507,4.499792752470093,16.389325504145507C4.499792752470093,16.389325504145507,4.498124482470093,17.025955724145508,4.498124482470093,17.025955724145508C4.498124482470093,17.025955724145508,4.498124482470093,17.025955724145508,4.498124482470093,17.025955724145508Z" fill="#FFFFFF" fill-opacity="1"/><path d="M7.698833557177735,17.92925812557373C7.698833557177735,17.92925812557373,6.759708527177734,17.92925812557373,6.759708527177734,17.92925812557373C6.759708527177734,17.92925812557373,6.603047547177734,18.386739025573732,6.603047547177734,18.386739025573732C6.603047547177734,18.386739025573732,5.965572357177734,18.386739025573732,5.965572357177734,18.386739025573732C5.965572357177734,18.386739025573732,6.8822009571777345,15.89850902557373,6.8822009571777345,15.89850902557373C6.8822009571777345,15.89850902557373,7.579671957177735,15.89850902557373,7.579671957177735,15.89850902557373C7.579671957177735,15.89850902557373,8.496300657177734,18.386739025573732,8.496300657177734,18.386739025573732C8.496300657177734,18.386739025573732,7.851327257177735,18.386739025573732,7.851327257177735,18.386739025573732C7.851327257177735,18.386739025573732,7.698833557177735,17.92925812557373,7.698833557177735,17.92925812557373C7.698833557177735,17.92925812557373,7.698833557177735,17.92925812557373,7.698833557177735,17.92925812557373ZM7.543015157177734,17.46844382557373C7.543015157177734,17.46844382557373,7.2305281571777344,16.54680794557373,7.2305281571777344,16.54680794557373C7.2305281571777344,16.54680794557373,6.915532887177735,17.46844382557373,6.915532887177735,17.46844382557373C6.915532887177735,17.46844382557373,7.543015157177734,17.46844382557373,7.543015157177734,17.46844382557373C7.543015157177734,17.46844382557373,7.543015157177734,17.46844382557373,7.543015157177734,17.46844382557373Z" fill="#FFFFFF" fill-opacity="1"/><path d="M10.020390063134766,18.386740924145506C10.020390063134766,18.386740924145506,9.477908373134765,17.44011342414551,9.477908373134765,17.44011342414551C9.477908373134765,17.44011342414551,9.339578273134766,17.44011342414551,9.339578273134766,17.44011342414551C9.339578273134766,17.44011342414551,9.339578273134766,18.386740924145506,9.339578273134766,18.386740924145506C9.339578273134766,18.386740924145506,8.733768463134766,18.386740924145506,8.733768463134766,18.386740924145506C8.733768463134766,18.386740924145506,8.733768463134766,15.881005422935507,8.733768463134766,15.881005422935507C8.733768463134766,15.881005422935507,9.768725563134765,15.881005422935507,9.768725563134765,15.881005422935507C9.941051563134765,15.876294828945507,10.112136163134766,15.911376513145507,10.268704663134766,15.983509854145508C10.397224263134765,16.04461981414551,10.504578363134765,16.142679064145508,10.577033563134766,16.265154804145507C10.646805663134765,16.390367924145508,10.682162563134765,16.53182786414551,10.679529263134766,16.675141934145508C10.684404163134765,16.842638314145507,10.631106263134766,17.00665652414551,10.528693963134765,17.139292624145508C10.417115163134765,17.274020424145508,10.262696663134765,17.36636652414551,10.091212163134765,17.400940224145508C10.091212163134765,17.400940224145508,10.687028963134766,18.386740924145506,10.687028963134766,18.386740924145506C10.687028963134766,18.386740924145506,10.020390063134766,18.386740924145506,10.020390063134766,18.386740924145506C10.020390063134766,18.386740924145506,10.020390063134766,18.386740924145506,10.020390063134766,18.386740924145506ZM9.339578273134766,17.025955724145508C9.339578273134766,17.025955724145508,9.715394313134766,17.025955724145508,9.715394313134766,17.025955724145508C9.811382063134765,17.03300552414551,9.906444663134765,17.00320662414551,9.981225063134765,16.942625924145506C10.010815363134766,16.911318824145507,10.033522863134765,16.874170364145506,10.047872163134766,16.83355534414551C10.062221563134766,16.792932034145508,10.067913063134766,16.749758844145507,10.064554963134766,16.706807314145507C10.067321463134766,16.66416156414551,10.061354963134766,16.62140333414551,10.047030563134765,16.581140814145506C10.032697763134765,16.540879194145507,10.010307063134766,16.503965734145506,9.981225063134765,16.47265535414551C9.907544763134766,16.411248744145507,9.812648663134766,16.381314154145507,9.717060983134765,16.389325504145507C9.717060983134765,16.389325504145507,9.341246543134766,16.389325504145507,9.341246543134766,16.389325504145507C9.341246543134766,16.389325504145507,9.339578273134766,17.025955724145508,9.339578273134766,17.025955724145508C9.339578273134766,17.025955724145508,9.339578273134766,17.025955724145508,9.339578273134766,17.025955724145508Z" fill="#FFFFFF" fill-opacity="1"/><path d="M7.913835003717041,12.569476128183593C7.913835003717041,12.569476128183593,2.704050303717041,12.569476128183593,2.704050303717041,12.569476128183593C2.621317893717041,12.569256128183593,2.542053683717041,12.536241648183594,2.483631111717041,12.477663278183593C2.425208456717041,12.419084008183594,2.392397109558431,12.339722338183593,2.392397403719019,12.256989118183593C2.392397403719019,12.174333378183594,2.425235457717041,12.095067498183594,2.483681946717041,12.036620758183593C2.542127843717041,11.978174522183593,2.621394563717041,11.945336501809495,2.704050303717041,11.945336501809495C2.704050303717041,11.945336501809495,7.913835003717041,11.945336501809495,7.913835003717041,11.945336501809495C7.954833003717041,11.945226883533595,7.995448103717041,11.953210910783593,8.03335480371704,11.968823911183593C8.071261403717042,11.984436847183593,8.105718103717042,12.007375311183594,8.13474230371704,12.036325775183593C8.163774003717041,12.065276238183595,8.18680620371704,12.099672318183593,8.202522803717041,12.137538238183593C8.21823070371704,12.175404178183594,8.22632170371704,12.215992478183594,8.22632170371704,12.256989118183593C8.22632170371704,12.339866488183594,8.193398003717041,12.419355688183593,8.134791803717041,12.477958258183595C8.076194303717042,12.536560838183593,7.996714603717041,12.569476128183593,7.913835003717041,12.569476128183593C7.913835003717041,12.569476128183593,7.913835003717041,12.569476128183593,7.913835003717041,12.569476128183593Z" fill="#A140FF" fill-opacity="1"/><path d="M7.913835003717041,10.728720779211425C7.913835003717041,10.728720779211425,2.704050303717041,10.728720779211425,2.704050303717041,10.728720779211425C2.621317893717041,10.728499949211425,2.542053683717041,10.695476349211425,2.483631111717041,10.636897089211425C2.425208456717041,10.578318719211426,2.392397109558431,10.498966159211426,2.392397403719019,10.416233779211426C2.392617346257041,10.333645519211426,2.425527196717041,10.254497989211426,2.483926102717041,10.196099579211426C2.542324513717041,10.137700502211425,2.621462043717041,10.104800821751425,2.704050303717041,10.104580879213403C2.704050303717041,10.104580879213403,7.913835003717041,10.104580879213403,7.913835003717041,10.104580879213403C7.996564403717041,10.104580585052815,8.075927703717042,10.137391932211425,8.13450910371704,10.195814587211427C8.19308950371704,10.254237159211426,8.22610520371704,10.333501369211426,8.22632170371704,10.416233779211426C8.22632170371704,10.499110309211426,8.193398003717041,10.578589529211426,8.134791803717041,10.637192069211427C8.076194303717042,10.695794639211426,7.996714603717041,10.728720779211425,7.913835003717041,10.728720779211425C7.913835003717041,10.728720779211425,7.913835003717041,10.728720779211425,7.913835003717041,10.728720779211425Z" fill="#A140FF" fill-opacity="1"/><path d="M7.913835003717041,8.887967223913574C7.913835003717041,8.887967223913574,2.704050303717041,8.887967223913574,2.704050303717041,8.887967223913574C2.621394563717041,8.887967223913574,2.542127843717041,8.855129423913574,2.483681946717041,8.796682653913575C2.425235457717041,8.738236783913575,2.392397403719019,8.658970053913574,2.392397403719019,8.576314333913574C2.392397109558401,8.493581933913575,2.425208456717041,8.414219413913575,2.483631111717041,8.355641007913574C2.542053683717041,8.297061942913574,2.621317893717041,8.264047943913575,2.704050303717041,8.263827323913574C2.704050303717041,8.263827323913574,7.913835003717041,8.263827323913574,7.913835003717041,8.263827323913574C7.996714603717041,8.263827323913574,8.076194303717042,8.296743038913574,8.134791803717041,8.355346023913574C8.193398003717041,8.413948583913575,8.22632170371704,8.493437783913574,8.22632170371704,8.576314333913574C8.22632170371704,8.617311803913575,8.21823070371704,8.657899293913575,8.202522803717041,8.695765193913575C8.18680620371704,8.733631133913574,8.163774003717041,8.768027243913574,8.13474230371704,8.796977643913575C8.105718103717042,8.825928153913575,8.071261403717042,8.848867173913574,8.03335480371704,8.864479843913575C7.995448103717041,8.880092563913575,7.954833003717041,8.888077263913575,7.913835003717041,8.887967223913574C7.913835003717041,8.887967223913574,7.913835003717041,8.887967223913574,7.913835003717041,8.887967223913574C7.913835003717041,8.887967223913574,7.913835003717041,8.887967223913574,7.913835003717041,8.887967223913574Z" fill="#A140FF" fill-opacity="1"/><path d="M7.913835003717041,7.047203419550781C7.913835003717041,7.047203419550781,2.704050303717041,7.047203419550781,2.704050303717041,7.047203419550781C2.621394563717041,7.047203419550781,2.542127843717041,7.014375569550781,2.483681946717041,6.9559296395507815C2.425235457717041,6.897482929550781,2.392397403717041,6.818206249550781,2.392397403717041,6.735550519550781C2.392397403717041,6.652894779550781,2.425235457717041,6.573628899550782,2.483681946717041,6.515182159550781C2.542127843717041,6.456735923550781,2.621394563717041,6.423897903176681,2.704050303717041,6.423897903176681C2.704050303717041,6.423897903176681,7.913835003717041,6.423897903176681,7.913835003717041,6.423897903176681C7.954833003717041,6.423788284900781,7.995448103717041,6.431772312150781,8.03335480371704,6.447385312550781C8.071261403717042,6.4629982485507815,8.105718103717042,6.485936712550782,8.13474230371704,6.514887176550781C8.163774003717041,6.543837639550781,8.18680620371704,6.578233719550782,8.202522803717041,6.616099639550781C8.21823070371704,6.653965579550781,8.22632170371704,6.6945538795507815,8.22632170371704,6.735550519550781C8.22632170371704,6.776547969550781,8.21823070371704,6.817146299550782,8.202522803717041,6.855012239550781C8.18680620371704,6.892878119550781,8.163774003717041,6.927273389550781,8.13474230371704,6.956224679550782C8.105718103717042,6.985175129550782,8.071261403717042,7.008113329550781,8.03335480371704,7.0237268795507815C7.995448103717041,7.039339539550781,7.954833003717041,7.047313389550781,7.913835003717041,7.047203419550781C7.913835003717041,7.047203419550781,7.913835003717041,7.047203419550781,7.913835003717041,7.047203419550781C7.913835003717041,7.047203419550781,7.913835003717041,7.047203419550781,7.913835003717041,7.047203419550781Z" fill="#A140FF" fill-opacity="1"/><path d="M10.250411787695313,12.709472623168946C9.970021787695313,12.709255923168946,9.701175447695313,12.597769023168945,9.502912017695312,12.399510623168945C9.304647747695313,12.201243923168946,9.193168078515313,11.932396723168946,9.192947387695312,11.652008423168946C9.192947387695312,11.652008423168946,9.192947387695312,10.594560623168945,9.192947387695312,10.594560623168945C9.192947387695312,10.594560623168945,11.307026387695313,10.594560623168945,11.307026387695313,10.594560623168945C11.307026387695313,10.594560623168945,11.307026387695313,11.652008423168946,11.307026387695313,11.652008423168946C11.306809387695314,11.932255023168945,11.195439087695313,12.200977223168945,10.997355687695313,12.399210723168945C10.799272287695313,12.597452423168946,10.530650187695313,12.709031123168945,10.250411787695313,12.709472623168946C10.250411787695313,12.709472623168946,10.250411787695313,12.709472623168946,10.250411787695313,12.709472623168946C10.250411787695313,12.709472623168946,10.250411787695313,12.709472623168946,10.250411787695313,12.709472623168946ZM9.733757437695312,11.135370673168945C9.733757437695312,11.135370673168945,9.733757437695312,11.652008423168946,9.733757437695312,11.652008423168946C9.733977437695312,11.788969323168946,9.788480157695313,11.920255523168946,9.885321917695313,12.017101523168945C9.982163787695313,12.113939023168946,10.113450827695312,12.168445223168945,10.250411787695313,12.168661823168945C10.387364387695312,12.168445223168945,10.518642287695313,12.113939023168946,10.615488287695312,12.017101523168945C10.712325787695313,11.920255523168946,10.766831987695312,11.788969323168946,10.767048587695312,11.652008423168946C10.767048587695312,11.652008423168946,10.767048587695312,11.135370673168945,10.767048587695312,11.135370673168945C10.767048587695312,11.135370673168945,9.733757437695312,11.135370673168945,9.733757437695312,11.135370673168945C9.733757437695312,11.135370673168945,9.733757437695312,11.135370673168945,9.733757437695312,11.135370673168945Z" fill="#A140FF" fill-opacity="1"/><path d="M11.312866614013672,10.59521484375C11.312866614013672,10.59521484375,10.252910614013672,10.59521484375,10.252910614013672,10.59521484375C10.252910614013672,10.59521484375,10.252910614013672,11.65517084375,10.252910614013672,11.65517084375C10.252910614013672,11.65517084375,11.312866614013672,11.65517084375,11.312866614013672,11.65517084375C11.312866614013672,11.65517084375,11.312866614013672,10.59521484375,11.312866614013672,10.59521484375C11.312866614013672,10.59521484375,11.312866614013672,10.59521484375,11.312866614013672,10.59521484375Z" fill="#A140FF" fill-opacity="1" transform="matrix(-1,0,0,-1,20.505821228027344,21.1904296875)"/><path d="M12.369483397155761,9.5361328125C12.369483397155761,9.5361328125,11.309527397155762,9.5361328125,11.309527397155762,9.5361328125C11.309527397155762,9.5361328125,11.309527397155762,10.5960888125,11.309527397155762,10.5960888125C11.309527397155762,10.5960888125,12.369483397155761,10.5960888125,12.369483397155761,10.5960888125C12.369483397155761,10.5960888125,12.369483397155761,9.5361328125,12.369483397155761,9.5361328125C12.369483397155761,9.5361328125,12.369483397155761,9.5361328125,12.369483397155761,9.5361328125Z" fill="#A140FF" fill-opacity="1" transform="matrix(-1,0,0,-1,22.619054794311523,19.072265625)"/><path d="M11.312866614013672,8.47714614868164C11.312866614013672,8.47714614868164,10.252910614013672,8.47714614868164,10.252910614013672,8.47714614868164C10.252910614013672,8.47714614868164,10.252910614013672,9.53710214868164,10.252910614013672,9.53710214868164C10.252910614013672,9.53710214868164,11.312866614013672,9.53710214868164,11.312866614013672,9.53710214868164C11.312866614013672,9.53710214868164,11.312866614013672,8.47714614868164,11.312866614013672,8.47714614868164C11.312866614013672,8.47714614868164,11.312866614013672,8.47714614868164,11.312866614013672,8.47714614868164Z" fill="#A140FF" fill-opacity="1" transform="matrix(-1,0,0,-1,20.505821228027344,16.95429229736328)"/><path d="M12.369483397155761,7.4180216789245605C12.369483397155761,7.4180216789245605,11.309527397155762,7.4180216789245605,11.309527397155762,7.4180216789245605C11.309527397155762,7.4180216789245605,11.309527397155762,8.47797767892456,11.309527397155762,8.47797767892456C11.309527397155762,8.47797767892456,12.369483397155761,8.47797767892456,12.369483397155761,8.47797767892456C12.369483397155761,8.47797767892456,12.369483397155761,7.4180216789245605,12.369483397155761,7.4180216789245605C12.369483397155761,7.4180216789245605,12.369483397155761,7.4180216789245605,12.369483397155761,7.4180216789245605Z" fill="#A140FF" fill-opacity="1" transform="matrix(-1,0,0,-1,22.619054794311523,14.836043357849121)"/></svg>