<svg xmlns="http://www.w3.org/2000/svg" xmlns:xlink="http://www.w3.org/1999/xlink" fill="none" version="1.1" width="13.701171875" height="20" viewBox="0 0 13.701171875 20"><g style="opacity:0.30000001192092896;"><path d="M11.638683,4.1039963C11.183035,4.1035547,10.746137,3.9224119,10.423901,3.600292C10.101581,3.2781806,9.9202538,2.8413737,9.9195881,2.385726C9.9195881,2.385726,9.9195881,0,9.9195881,0C9.9195881,0,2.2423985,0,2.2423985,0C1.6476731,0,1.0773052,0.23625936,0.6567719,0.65679276C0.23623936,1.0773219,-3.7894008e-14,1.6476731,4.55815e-27,2.2423985C4.55815e-27,2.2423985,4.55815e-27,15.760179,4.55815e-27,15.760179C4.55815e-27,16.354904,0.23623936,16.925297,0.6567719,17.345779C1.0773052,17.766346,1.6476731,18.002584,2.2423985,18.002584C2.2423985,18.002584,11.45869,18.002584,11.45869,18.002584C12.053416,18.002584,12.623725,17.766346,13.044291,17.345779C13.464858,16.925297,13.701097,16.354904,13.701097,15.760179C13.701097,15.760179,13.701097,4.1039963,13.701097,4.1039963C13.701097,4.1039963,11.638683,4.1039963,11.638683,4.1039963C11.638683,4.1039963,11.638683,4.1039963,11.638683,4.1039963Z" fill="#0072FF" fill-opacity="1" style="opacity:0.30000001192092896;"/></g><path d="M13.701088922851563,4.1039963C13.701088922851563,4.1039963,11.638674522851563,4.1039963,11.638674522851563,4.1039963C11.183026822851563,4.1035547,10.746136602851562,3.9224119,10.423863292851562,3.600292C10.101590022851562,3.2781806,9.920232675331562,2.8413737,9.919570922851562,2.385726C9.919570922851562,2.385726,9.919570922851562,0,9.919570922851562,0C9.919570922851562,0,13.701088922851563,4.1039963,13.701088922851563,4.1039963C13.701088922851563,4.1039963,13.701088922851563,4.1039963,13.701088922851563,4.1039963Z" fill="#0072FF" fill-opacity="1"/><path d="M10.882869368934632,6.977208251745606C10.882869368934632,6.977208251745606,2.2790597689346312,6.977208251745606,2.2790597689346312,6.977208251745606C2.196471508934631,6.976988251745605,2.1173339789346315,6.944078801745605,2.0589355679346313,6.885679541745605C2.0005366619346314,6.827281181745605,1.9676268114746314,6.748143581745605,1.9674068689366098,6.665555361745605C1.9674065747760214,6.582822961745605,2.0002077559346314,6.503460441745606,2.0586305779346312,6.444882035745605C2.117053148934631,6.386302970745605,2.1963273589346315,6.353288971745606,2.2790597689346312,6.3530683517456055C2.2790597689346312,6.3530683517456055,10.882869368934632,6.3530683517456055,10.882869368934632,6.3530683517456055C10.965616868934632,6.353288971745606,11.044863368934632,6.386302970745605,11.103277768934632,6.444882035745605C11.161691268934632,6.503460441745606,11.194523468934632,6.582822961745605,11.194523468934632,6.665555361745605C11.194273568934632,6.748143581745605,11.161358468934631,6.827281181745605,11.103027968934631,6.885679541745605C11.044613468934632,6.944078801745605,10.965449968934632,6.976988251745605,10.882869368934632,6.977208251745606C10.882869368934632,6.977208251745606,10.882869368934632,6.977208251745606,10.882869368934632,6.977208251745606C10.882869368934632,6.977208251745606,10.882869368934632,6.977208251745606,10.882869368934632,6.977208251745606Z" fill="#0072FF" fill-opacity="1"/><path d="M10.882869368934632,8.841307754309081C10.882869368934632,8.841307754309081,2.2790597689346312,8.841307754309081,2.2790597689346312,8.841307754309081C2.196471508934631,8.841087754309083,2.1173339789346315,8.808178304309083,2.0589355679346313,8.749779044309083C2.0005366619346314,8.691380684309083,1.9676268114746314,8.612243084309082,1.9674068689366098,8.529654864309082C1.9674065747760214,8.446922464309083,2.0002077559346314,8.367559944309082,2.0586305779346312,8.308981538309082C2.117053148934631,8.250402473309082,2.1963273589346315,8.217388474309082,2.2790597689346312,8.217167854309082C2.2790597689346312,8.217167854309082,10.882869368934632,8.217167854309082,10.882869368934632,8.217167854309082C10.965616868934632,8.217388474309082,11.044863368934632,8.250402473309082,11.103277768934632,8.308981538309082C11.161691268934632,8.367559944309082,11.194523468934632,8.446922464309083,11.194523468934632,8.529654864309082C11.194273568934632,8.612243084309082,11.161358468934631,8.691380684309083,11.103027968934631,8.749779044309083C11.044613468934632,8.808178304309083,10.965449968934632,8.841087754309083,10.882869368934632,8.841307754309081C10.882869368934632,8.841307754309081,10.882869368934632,8.841307754309081,10.882869368934632,8.841307754309081C10.882869368934632,8.841307754309081,10.882869368934632,8.841307754309081,10.882869368934632,8.841307754309081Z" fill="#0072FF" fill-opacity="1"/><path d="M10.882869368934632,10.705386276037597C10.882869368934632,10.705386276037597,2.2790597689346312,10.705386276037597,2.2790597689346312,10.705386276037597C2.1963273589346315,10.705165446037597,2.117053148934631,10.672151806037597,2.0586305779346312,10.613572596037598C2.0002077559346314,10.554994226037598,1.9674065747760214,10.475631656037597,1.9674068689366098,10.392899276037598C1.9676268114746314,10.310311016037598,2.0005366619346314,10.231173486037598,2.0589355679346313,10.172775075037597C2.1173339789346315,10.114376169037598,2.196471508934631,10.081466318577597,2.2790597689346312,10.081246376037598C2.2790597689346312,10.081246376037598,10.882869368934632,10.081246376037598,10.882869368934632,10.081246376037598C10.965449968934632,10.081466318577597,11.044613468934632,10.114376169037598,11.103027968934631,10.172775075037597C11.161358468934631,10.231173486037598,11.194273568934632,10.310311016037598,11.194523468934632,10.392899276037598C11.194523468934632,10.475631656037597,11.161691268934632,10.554994226037598,11.103277768934632,10.613572596037598C11.044863368934632,10.672151806037597,10.965616868934632,10.705165446037597,10.882869368934632,10.705386276037597C10.882869368934632,10.705386276037597,10.882869368934632,10.705386276037597,10.882869368934632,10.705386276037597C10.882869368934632,10.705386276037597,10.882869368934632,10.705386276037597,10.882869368934632,10.705386276037597Z" fill="#0072FF" fill-opacity="1"/><path d="M10.882869368934632,12.568651313574218C10.882869368934632,12.568651313574218,2.2790597689346312,12.568651313574218,2.2790597689346312,12.568651313574218C2.1964040289346314,12.568651313574218,2.1171373089346313,12.535813513574219,2.0586914119346313,12.477366743574219C2.0002449229346313,12.41892087357422,1.967406868936572,12.339654143574219,1.9674068689366098,12.256998423574219C1.9674065747759915,12.17426602357422,2.0002077559346314,12.09490350357422,2.0586305779346312,12.036325097574219C2.117053148934631,11.977746032574219,2.1963273589346315,11.944732033574219,2.2790597689346312,11.944511413574219C2.2790597689346312,11.944511413574219,10.882869368934632,11.944511413574219,10.882869368934632,11.944511413574219C10.965616868934632,11.944732033574219,11.044863368934632,11.977746032574219,11.103277768934632,12.036325097574219C11.161691268934632,12.09490350357422,11.194523468934632,12.17426602357422,11.194523468934632,12.256998423574219C11.194523468934632,12.339654143574219,11.161691268934632,12.41892087357422,11.103277768934632,12.477366743574219C11.044779468934632,12.535813513574219,10.96553286893463,12.568651313574218,10.882869368934632,12.568651313574218C10.882869368934632,12.568651313574218,10.882869368934632,12.568651313574218,10.882869368934632,12.568651313574218C10.882869368934632,12.568651313574218,10.882869368934632,12.568651313574218,10.882869368934632,12.568651313574218Z" fill="#0072FF" fill-opacity="1"/><path d="M12.102821723194122,14.21690845489502C12.102821723194122,14.21690845489502,1.6832629231941223,14.21690845489502,1.6832629231941223,14.21690845489502C0.9441493131941223,14.21690845489502,0.3449767231941223,14.81607520489502,0.3449767231941223,15.555186154895019C0.3449767231941223,15.555186154895019,0.3449767231941223,18.66172365489502,0.3449767231941223,18.66172365489502C0.3449767231941223,19.40083505489502,0.9441493131941223,20.00000145489502,1.6832629231941223,20.00000145489502C1.6832629231941223,20.00000145489502,12.102821723194122,20.00000145489502,12.102821723194122,20.00000145489502C12.841957723194122,20.00000145489502,13.441099723194123,19.40083505489502,13.441099723194123,18.66172365489502C13.441099723194123,18.66172365489502,13.441099723194123,15.555186154895019,13.441099723194123,15.555186154895019C13.441099723194123,14.81607520489502,12.841957723194122,14.21690845489502,12.102821723194122,14.21690845489502C12.102821723194122,14.21690845489502,12.102821723194122,14.21690845489502,12.102821723194122,14.21690845489502Z" fill="#0072FF" fill-opacity="1"/><path d="M3.9048263388830566,17.78091812133789C3.9048263388830566,17.78091812133789,3.9048263388830566,18.38672793133789,3.9048263388830566,18.38672793133789C3.9048263388830566,18.38672793133789,3.2773499488830566,18.38672793133789,3.2773499488830566,18.38672793133789C3.2773499488830566,18.38672793133789,3.2773499488830566,17.78091812133789,3.2773499488830566,17.78091812133789C3.2773499488830566,17.78091812133789,3.9048263388830566,17.78091812133789,3.9048263388830566,17.78091812133789C3.9048263388830566,17.78091812133789,3.9048263388830566,17.78091812133789,3.9048263388830566,17.78091812133789Z" fill="#FFFFFF" fill-opacity="1"/><path d="M6.020585728643799,15.881012916564941C6.020585728643799,15.881012916564941,6.020585728643799,16.36349621656494,6.020585728643799,16.36349621656494C6.020585728643799,16.36349621656494,5.339764028643799,16.36349621656494,5.339764028643799,16.36349621656494C5.339764028643799,16.36349621656494,5.339764028643799,18.386725416564943,5.339764028643799,18.386725416564943C5.339764028643799,18.386725416564943,4.7306384486437985,18.386725416564943,4.7306384486437985,18.386725416564943C4.7306384486437985,18.386725416564943,4.7306384486437985,16.36349621656494,4.7306384486437985,16.36349621656494C4.7306384486437985,16.36349621656494,4.056492328643799,16.36349621656494,4.056492328643799,16.36349621656494C4.056492328643799,16.36349621656494,4.056492328643799,15.881012916564941,4.056492328643799,15.881012916564941C4.056492328643799,15.881012916564941,6.020585728643799,15.881012916564941,6.020585728643799,15.881012916564941C6.020585728643799,15.881012916564941,6.020585728643799,15.881012916564941,6.020585728643799,15.881012916564941Z" fill="#FFFFFF" fill-opacity="1"/><path d="M7.796350706591797,18.386725416564943C7.796350706591797,18.386725416564943,7.268030906591797,17.606774416564942,7.268030906591797,17.606774416564942C7.268030906591797,17.606774416564942,6.813885626591797,18.386725416564943,6.813885626591797,18.386725416564943C6.813885626591797,18.386725416564943,6.119741052591797,18.386725416564943,6.119741052591797,18.386725416564943C6.119741052591797,18.386725416564943,6.920550346591797,17.096779116564942,6.920550346591797,17.096779116564942C6.920550346591797,17.096779116564942,6.094738006591797,15.881012916564941,6.094738006591797,15.881012916564941C6.094738006591797,15.881012916564941,6.813885626591797,15.881012916564941,6.813885626591797,15.881012916564941C6.813885626591797,15.881012916564941,7.328020106591797,16.635965706564942,7.328020106591797,16.635965706564942C7.328020106591797,16.635965706564942,7.771343306591797,15.881012916564941,7.771343306591797,15.881012916564941C7.771343306591797,15.881012916564941,8.462156306591798,15.881012916564941,8.462156306591798,15.881012916564941C8.462156306591798,15.881012916564941,7.672164106591797,17.142618916564942,7.672164106591797,17.142618916564942C7.672164106591797,17.142618916564942,8.515470706591797,18.386725416564943,8.515470706591797,18.386725416564943C8.515470706591797,18.386725416564943,7.796350706591797,18.386725416564943,7.796350706591797,18.386725416564943C7.796350706591797,18.386725416564943,7.796350706591797,18.386725416564943,7.796350706591797,18.386725416564943Z" fill="#FFFFFF" fill-opacity="1"/><path d="M10.549548247680665,15.881012916564941C10.549548247680665,15.881012916564941,10.549548247680665,16.36349621656494,10.549548247680665,16.36349621656494C10.549548247680665,16.36349621656494,9.869584947680664,16.36349621656494,9.869584947680664,16.36349621656494C9.869584947680664,16.36349621656494,9.869584947680664,18.386725416564943,9.869584947680664,18.386725416564943C9.869584947680664,18.386725416564943,9.259604457680664,18.386725416564943,9.259604457680664,18.386725416564943C9.259604457680664,18.386725416564943,9.259604457680664,16.36349621656494,9.259604457680664,16.36349621656494C9.259604457680664,16.36349621656494,8.586313247680664,16.36349621656494,8.586313247680664,16.36349621656494C8.586313247680664,16.36349621656494,8.586313247680664,15.881012916564941,8.586313247680664,15.881012916564941C8.586313247680664,15.881012916564941,10.549548247680665,15.881012916564941,10.549548247680665,15.881012916564941C10.549548247680665,15.881012916564941,10.549548247680665,15.881012916564941,10.549548247680665,15.881012916564941Z" fill="#FFFFFF" fill-opacity="1"/></svg>