<svg xmlns="http://www.w3.org/2000/svg" xmlns:xlink="http://www.w3.org/1999/xlink" fill="none" version="1.1" width="13.701171875" height="20" viewBox="0 0 13.701171875 20"><g style="opacity:0.30000001192092896;"><path d="M11.638683,4.1039963C11.183119,4.1035547,10.746304,3.9223704,10.42415,3.6002338C10.10208,3.2780888,9.9208374,2.8412986,9.9204216,2.385726C9.9204216,2.385726,9.9204216,4.5646855e-27,9.9204216,4.5646855e-27C9.9204216,4.5646855e-27,2.2424235,4.5646855e-27,2.2424235,4.5646855e-27C1.6476982,-3.7894008e-14,1.0773219,0.23625936,0.65679276,0.65679276C0.23625936,1.0773219,-3.7894008e-14,1.6476731,4.5577544e-27,2.2423985C4.5577544e-27,2.2423985,4.5577544e-27,15.760179,4.5577544e-27,15.760179C4.5577544e-27,16.354904,0.23625936,16.925297,0.65679276,17.345779C1.0773219,17.766346,1.6476982,18.002584,2.2424235,18.002584C2.2424235,18.002584,11.45869,18.002584,11.45869,18.002584C12.053416,18.002584,12.623809,17.766346,13.044291,17.345779C13.464858,16.925297,13.701097,16.354904,13.701097,15.760179C13.701097,15.760179,13.701097,4.1039963,13.701097,4.1039963C13.701097,4.1039963,11.638683,4.1039963,11.638683,4.1039963C11.638683,4.1039963,11.638683,4.1039963,11.638683,4.1039963Z" fill="#00C650" fill-opacity="1" style="opacity:0.30000001192092896;"/></g><path d="M13.701109915039062,4.1039963C13.701109915039062,4.1039963,11.638695715039063,4.1039963,11.638695715039063,4.1039963C11.183123015039062,4.1035547,10.746329425039063,3.9223704,10.424188675039062,3.6002338C10.102047865039063,3.2780888,9.920866650849062,2.8412986,9.920425415039062,2.385726C9.920425415039062,2.385726,9.920425415039062,0,9.920425415039062,0C9.920425415039062,0,13.701109915039062,4.1039963,13.701109915039062,4.1039963C13.701109915039062,4.1039963,13.701109915039062,4.1039963,13.701109915039062,4.1039963Z" fill="#00C650" fill-opacity="1"/><path d="M12.0553383385849,14.21690845489502C12.0553383385849,14.21690845489502,1.6357795385848999,14.21690845489502,1.6357795385848999,14.21690845489502C0.8966659285848999,14.21690845489502,0.2974933385848999,14.81607520489502,0.2974933385848999,15.555186154895019C0.2974933385848999,15.555186154895019,0.2974933385848999,18.66172365489502,0.2974933385848999,18.66172365489502C0.2974933385848999,19.40083505489502,0.8966659285848999,20.00000145489502,1.6357795385848999,20.00000145489502C1.6357795385848999,20.00000145489502,12.0553383385849,20.00000145489502,12.0553383385849,20.00000145489502C12.7944743385849,20.00000145489502,13.3936163385849,19.40083505489502,13.3936163385849,18.66172365489502C13.3936163385849,18.66172365489502,13.3936163385849,15.555186154895019,13.3936163385849,15.555186154895019C13.3936163385849,14.81607520489502,12.7944743385849,14.21690845489502,12.0553383385849,14.21690845489502C12.0553383385849,14.21690845489502,12.0553383385849,14.21690845489502,12.0553383385849,14.21690845489502Z" fill="#00C650" fill-opacity="1"/><path d="M4.013179715271606,17.78091812133789C4.013179715271606,17.78091812133789,4.013179715271606,18.38672793133789,4.013179715271606,18.38672793133789C4.013179715271606,18.38672793133789,3.3857033252716064,18.38672793133789,3.3857033252716064,18.38672793133789C3.3857033252716064,18.38672793133789,3.3857033252716064,17.78091812133789,3.3857033252716064,17.78091812133789C3.3857033252716064,17.78091812133789,4.013179715271606,17.78091812133789,4.013179715271606,17.78091812133789C4.013179715271606,17.78091812133789,4.013179715271606,17.78091812133789,4.013179715271606,17.78091812133789Z" fill="#FFFFFF" fill-opacity="1"/><path d="M5.848917718634033,18.386725416564943C5.848917718634033,18.386725416564943,5.321456218634033,17.606774416564942,5.321456218634033,17.606774416564942C5.321456218634033,17.606774416564942,4.867310938634033,18.386725416564943,4.867310938634033,18.386725416564943C4.867310938634033,18.386725416564943,4.173166364634033,18.386725416564943,4.173166364634033,18.386725416564943C4.173166364634033,18.386725416564943,4.973954858634033,17.096779116564942,4.973954858634033,17.096779116564942C4.973954858634033,17.096779116564942,4.148163318634033,15.881012916564941,4.148163318634033,15.881012916564941C4.148163318634033,15.881012916564941,4.867310938634033,15.881012916564941,4.867310938634033,15.881012916564941C4.867310938634033,15.881012916564941,5.3814454186340335,16.635965706564942,5.3814454186340335,16.635965706564942C5.3814454186340335,16.635965706564942,5.8247686186340335,15.881012916564941,5.8247686186340335,15.881012916564941C5.8247686186340335,15.881012916564941,6.515556618634033,15.881012916564941,6.515556618634033,15.881012916564941C6.515556618634033,15.881012916564941,5.7255894186340335,17.142618916564942,5.7255894186340335,17.142618916564942C5.7255894186340335,17.142618916564942,6.5688960186340335,18.386725416564943,6.5688960186340335,18.386725416564943C6.5688960186340335,18.386725416564943,5.848917718634033,18.386725416564943,5.848917718634033,18.386725416564943C5.848917718634033,18.386725416564943,5.848917718634033,18.386725416564943,5.848917718634033,18.386725416564943Z" fill="#FFFFFF" fill-opacity="1"/><path d="M8.502150675079346,18.046747255944823C8.430253875079346,18.161817555944825,8.327057975079345,18.254021855944824,8.204663075079345,18.312569355944824C8.055677675079346,18.382333255944825,7.892459475079345,18.416281955944825,7.728016275079346,18.411723655944826C7.479939105079346,18.422106755944824,7.235466715079346,18.349701155944825,7.033056795079346,18.205898955944825C6.9435171950793455,18.138701655944825,6.870274405079345,18.052196955944822,6.818770714079346,17.952800955944824C6.767267849079346,17.853396855944823,6.738823363079345,17.743668055944823,6.7355632157793455,17.631764455944825C6.7355632157793455,17.631764455944825,7.380535665079345,17.631764455944825,7.380535665079345,17.631764455944825C7.385139645079346,17.716177555944824,7.421095725079345,17.795815955944825,7.481361505079346,17.855088455944824C7.541357395079346,17.911019555944826,7.621020675079346,17.940976655944823,7.703008945079346,17.938418355944826C7.736424175079346,17.940376555944823,7.769897775079346,17.935718555944824,7.801496475079346,17.924702155944825C7.833103575079345,17.913694355944823,7.862227275079346,17.896544955944826,7.8871845750793454,17.874254255944823C7.909417075079346,17.852696855944824,7.926891375079346,17.826739655944824,7.938515875079346,17.798040755944825C7.950140375079346,17.769342055944826,7.955631875079346,17.738534955944825,7.954673575079346,17.707594555944823C7.955498475079345,17.678220855944826,7.950390375079346,17.648988555944825,7.939657475079345,17.621639855944824C7.928916375079345,17.594290955944825,7.912766975079346,17.569400355944826,7.8921760750793455,17.548434455944825C7.848061175079346,17.503794655944823,7.795721775079346,17.468137855944825,7.738024275079345,17.443438855944823C7.677468415079346,17.416773355944823,7.5924718950793455,17.384266255944823,7.483029785079346,17.345934655944824C7.3502219950793455,17.302153155944826,7.220500675079346,17.249546955944822,7.094720095079346,17.188449455944824C6.991350205079346,17.135193355944825,6.902635555079346,17.057363255944825,6.8363891450793455,16.961792255944825C6.759510755079345,16.846105395944825,6.721555956179346,16.708902775944825,6.728056204739346,16.570145965944825C6.725047186479346,16.432658435944823,6.764640875079346,16.297593175944826,6.8413939450793455,16.183484585944825C6.920221505079346,16.071988385944824,7.0291986450793456,15.985271155944824,7.155549225079346,15.933494962944824C7.301187335079346,15.874261179944824,7.457532525079346,15.845886683544824,7.6146959650793455,15.850164930944825C7.853311075079346,15.837004643944825,8.089042975079346,15.907442468944824,8.281334975079346,16.049334335944824C8.363181475079346,16.115912405944826,8.430220475079345,16.198843955944824,8.478143475079346,16.292834225944823C8.526074675079347,16.386825325944823,8.553823575079345,16.489785195944823,8.559648375079346,16.595129135944823C8.559648375079346,16.595129135944823,7.903850675079346,16.595129135944823,7.903850675079346,16.595129135944823C7.8965426750793455,16.521395565944825,7.864868875079345,16.452210125944823,7.813845975079346,16.398482325944823C7.7877887750793455,16.373510835944824,7.7569067750793455,16.354127525944826,7.723091485079346,16.341518045944824C7.689276215079346,16.328908565944825,7.653244435079346,16.323327095944823,7.617195905079345,16.325141195944823C7.554707645079346,16.322303805944824,7.493336855079345,16.342477145944823,7.444701375079346,16.381819665944825C7.4222648150793455,16.403100485944826,7.404791355079346,16.429056885944824,7.393555995079346,16.457866485944823C7.382319805079346,16.486676155944824,7.3775958450793455,16.517628195944823,7.379701555079346,16.548479435944824C7.378415825079346,16.604494575944823,7.399388315079346,16.658718165944823,7.438028275079346,16.699294805944824C7.479489925079346,16.742593045944822,7.529410365079346,16.776933255944826,7.584688905079346,16.800140675944824C7.6438530650793455,16.825972855944823,7.7288578750793455,16.859296555944823,7.839686675079346,16.899294855944824C7.9748893750793455,16.943342955944825,8.106633875079346,16.997374055944825,8.233828575079345,17.060946455944823C8.337724175079346,17.116994155944823,8.427262275079347,17.196274255944825,8.495475975079346,17.292611855944823C8.573239475079346,17.410148655944823,8.611754575079345,17.549301255944826,8.605479875079347,17.690095455944824C8.604363175079346,17.816198455944825,8.568614675079345,17.939576655944826,8.502150675079346,18.046747255944823C8.502150675079346,18.046747255944823,8.502150675079346,18.046747255944823,8.502150675079346,18.046747255944823C8.502150675079346,18.046747255944823,8.502150675079346,18.046747255944823,8.502150675079346,18.046747255944823Z" fill="#FFFFFF" fill-opacity="1"/><path d="M9.546275138476563,17.922594816564942C9.546275138476563,17.922594816564942,10.357907338476563,17.922594816564942,10.357907338476563,17.922594816564942C10.357907338476563,17.922594816564942,10.357907338476563,18.386725416564943,10.357907338476563,18.386725416564943C10.357907338476563,18.386725416564943,8.941299438476562,18.386725416564943,8.941299438476562,18.386725416564943C8.941299438476562,18.386725416564943,8.941299438476562,15.881012916564941,8.941299438476562,15.881012916564941C8.941299438476562,15.881012916564941,9.547943358476562,15.881012916564941,9.547943358476562,15.881012916564941C9.547943358476562,15.881012916564941,9.546275138476563,17.922594816564942,9.546275138476563,17.922594816564942C9.546275138476563,17.922594816564942,9.546275138476563,17.922594816564942,9.546275138476563,17.922594816564942Z" fill="#FFFFFF" fill-opacity="1"/><path d="M9.90710023128662,12.569482852197265C9.90710023128662,12.569482852197265,3.797346171286621,12.569482852197265,3.797346171286621,12.569482852197265C3.268203201286621,12.569482852197265,2.837386131286621,12.042829552197265,2.837386131286621,11.394523652197265C2.837386131286621,11.394523652197265,2.837386131286621,6.962216052197266,2.837386131286621,6.962216052197266C2.837386131286621,6.314742032197266,3.268203201286621,5.788089752197266,3.797346171286621,5.788089752197266C3.797346171286621,5.788089752197266,9.909600231286621,5.788089752197266,9.909600231286621,5.788089752197266C10.437911031286621,5.788089752197266,10.868726731286621,6.314742032197266,10.868726731286621,6.962216052197266C10.868726731286621,6.962216052197266,10.868726731286621,11.394523652197265,10.868726731286621,11.394523652197265C10.866226231286621,12.042829552197265,10.43541143128662,12.569482852197265,9.90710023128662,12.569482852197265C9.90710023128662,12.569482852197265,9.90710023128662,12.569482852197265,9.90710023128662,12.569482852197265ZM3.797346171286621,6.388060692197266C3.538191911286621,6.388060692197266,3.328210711286621,6.645562472197265,3.328210711286621,6.962216052197266C3.328210711286621,6.962216052197266,3.328210711286621,11.394523652197265,3.328210711286621,11.394523652197265C3.328210711286621,11.711177352197264,3.538191911286621,11.968657952197265,3.797346171286621,11.968657952197265C3.797346171286621,11.968657952197265,9.909600231286621,11.968657952197265,9.909600231286621,11.968657952197265C10.16792253128662,11.968657952197265,10.377905331286621,11.711177352197264,10.377905331286621,11.394523652197265C10.377905331286621,11.394523652197265,10.377905331286621,6.962216052197266,10.377905331286621,6.962216052197266C10.377905331286621,6.645562472197265,10.16792253128662,6.388060692197266,9.909600231286621,6.388060692197266C9.909600231286621,6.388060692197266,3.797346171286621,6.388060692197266,3.797346171286621,6.388060692197266C3.797346171286621,6.388060692197266,3.797346171286621,6.388060692197266,3.797346171286621,6.388060692197266Z" fill="#00C650" fill-opacity="1"/><path d="M10.621222481677247,9.900422096252441C10.621222481677247,9.900422096252441,3.080702781677246,9.900422096252441,3.080702781677246,9.900422096252441C3.080702781677246,9.900422096252441,3.080702781677246,10.501232146252441,3.080702781677246,10.501232146252441C3.080702781677246,10.501232146252441,10.621222481677247,10.501232146252441,10.621222481677247,10.501232146252441C10.621222481677247,10.501232146252441,10.621222481677247,9.900422096252441,10.621222481677247,9.900422096252441C10.621222481677247,9.900422096252441,10.621222481677247,9.900422096252441,10.621222481677247,9.900422096252441Z" fill="#00C650" fill-opacity="1"/><path d="M10.621222481677247,7.840507507324219C10.621222481677247,7.840507507324219,3.080702781677246,7.840507507324219,3.080702781677246,7.840507507324219C3.080702781677246,7.840507507324219,3.080702781677246,8.441317557324219,3.080702781677246,8.441317557324219C3.080702781677246,8.441317557324219,10.621222481677247,8.441317557324219,10.621222481677247,8.441317557324219C10.621222481677247,8.441317557324219,10.621222481677247,7.840507507324219,10.621222481677247,7.840507507324219C10.621222481677247,7.840507507324219,10.621222481677247,7.840507507324219,10.621222481677247,7.840507507324219Z" fill="#00C650" fill-opacity="1"/><path d="M8.689641709921876,6.088080406188965C8.689641709921876,6.088080406188965,8.088836669921875,6.088080406188965,8.088836669921875,6.088080406188965C8.088836669921875,6.088080406188965,8.088836669921875,12.268656706188965,8.088836669921875,12.268656706188965C8.088836669921875,12.268656706188965,8.689641709921876,12.268656706188965,8.689641709921876,12.268656706188965C8.689641709921876,12.268656706188965,8.689641709921876,6.088080406188965,8.689641709921876,6.088080406188965C8.689641709921876,6.088080406188965,8.689641709921876,6.088080406188965,8.689641709921876,6.088080406188965Z" fill="#00C650" fill-opacity="1"/><path d="M5.612274881003418,6.088080406188965C5.612274881003418,6.088080406188965,5.011469841003418,6.088080406188965,5.011469841003418,6.088080406188965C5.011469841003418,6.088080406188965,5.011469841003418,12.268656706188965,5.011469841003418,12.268656706188965C5.011469841003418,12.268656706188965,5.612274881003418,12.268656706188965,5.612274881003418,12.268656706188965C5.612274881003418,12.268656706188965,5.612274881003418,6.088080406188965,5.612274881003418,6.088080406188965C5.612274881003418,6.088080406188965,5.612274881003418,6.088080406188965,5.612274881003418,6.088080406188965Z" fill="#00C650" fill-opacity="1"/></svg>