<svg xmlns="http://www.w3.org/2000/svg" xmlns:xlink="http://www.w3.org/1999/xlink" fill="none" version="1.1" width="13.7021484375" height="20" viewBox="0 0 13.7021484375 20"><g style="opacity:0.30000001192092896;"><path d="M11.638683,4.1039963C11.183035,4.1033378,10.746221,3.9219787,10.42415,3.5997005C10.101996,3.2774305,9.9208374,2.8405571,9.9204216,2.384901C9.9204216,2.384901,9.9204216,0,9.9204216,0C9.9204216,0,2.2424068,0,2.2424068,0C1.6476816,0,1.0773219,0.23624934,0.65678692,0.65678191C0.23625435,1.0773135,-9.4735231e-15,1.6476898,2.8465211e-28,2.2424068C2.8465211e-28,2.2424068,2.8465211e-28,15.760179,2.8465211e-28,15.760179C0.0008831633,16.354321,0.23752514,16.923796,0.65796185,17.343613C1.0783969,17.763428,1.6482565,17.999252,2.2424068,17.999252C2.2424068,17.999252,11.459524,17.999252,11.459524,17.999252C12.053665,17.999252,12.623559,17.763428,13.043958,17.343613C13.46444,16.923796,13.701015,16.354321,13.70193,15.760179C13.70193,15.760179,13.70193,4.1039963,13.70193,4.1039963C13.70193,4.1039963,11.638683,4.1039963,11.638683,4.1039963C11.638683,4.1039963,11.638683,4.1039963,11.638683,4.1039963Z" fill="#FF3E4C" fill-opacity="1" style="opacity:0.30000001192092896;"/></g><path d="M13.701929292993164,4.1039963C13.701929292993164,4.1039963,11.638681692993163,4.1039963,11.638681692993163,4.1039963C11.183025592993165,4.1033378,10.746238712993165,3.9219787,10.424122092993164,3.5997005C10.102004642993164,3.2774305,9.920860523013165,2.8405571,9.920419692993164,2.384901C9.920419692993164,2.384901,9.920419692993164,0,9.920419692993164,0C9.920419692993164,0,13.701929292993164,4.1039963,13.701929292993164,4.1039963C13.701929292993164,4.1039963,13.701929292993164,4.1039963,13.701929292993164,4.1039963Z" fill="#FF3E4C" fill-opacity="1"/><path d="M12.04365977539444,14.21690845489502C12.04365977539444,14.21690845489502,1.6240933753944398,14.21690845489502,1.6240933753944398,14.21690845489502C0.8849824653944397,14.21690845489502,0.2858157753944397,14.81607514489502,0.2858157753944397,15.55518605489502C0.2858157753944397,15.55518605489502,0.2858157753944397,18.66172315489502,0.2858157753944397,18.66172315489502C0.2858157753944397,19.40083405489502,0.8849824653944397,20.00000145489502,1.6240933753944398,20.00000145489502C1.6240933753944398,20.00000145489502,12.04365977539444,20.00000145489502,12.04365977539444,20.00000145489502C12.78279577539444,20.00000145489502,13.381937775394439,19.40083405489502,13.381937775394439,18.66172315489502C13.381937775394439,18.66172315489502,13.381937775394439,15.55518605489502,13.381937775394439,15.55518605489502C13.381937775394439,14.81607514489502,12.78279577539444,14.21690845489502,12.04365977539444,14.21690845489502C12.04365977539444,14.21690845489502,12.04365977539444,14.21690845489502,12.04365977539444,14.21690845489502Z" fill="#FF3E4C" fill-opacity="1"/><g><path d="M4.05675083125,18.3635983375L3.46805079125,18.3635983375L3.46805079125,17.7777984375L4.05675083125,17.7777984375L4.05675083125,18.3635983375ZM6.48405078125,18.3635983375L4.25685084125,18.3635983375L4.25685084125,17.9111983375L5.709750881250001,16.3132983375L4.37865078125,16.3132983375L4.37865078125,15.8463983575L6.43475108125,15.8463983575L6.43475108125,16.3045983375L4.94705078125,17.9024984375L6.48405078125,17.9024984375L6.48405078125,18.3635983375ZM7.31635098125,18.3635983375L6.74795078125,18.3635983375L6.74795078125,15.8463983575L7.31635098125,15.8463983575L7.31635098125,18.3635983375ZM8.67355108125,17.4674983375L8.255950881250001,17.4674983375L8.255950881250001,18.3635983375L7.68755098125,18.3635983375L7.68755098125,15.8463983575L8.72285078125,15.8463983575Q9.19265078125,15.8463983575,9.44205098125,16.0754983475Q9.67115118125,16.2842983375,9.67115118125,16.6380983375Q9.67115118125,17.0527984375,9.43045088125,17.2586984375Q9.18395088125,17.4674983375,8.67355108125,17.4674983375ZM8.62715098125,16.2842983375L8.255950881250001,16.2842983375L8.255950881250001,17.0353983375L8.62715098125,17.0353983375Q8.84465118125,17.0353983375,8.96065088125,16.9396983375Q9.076651081249999,16.8439983375,9.076651081249999,16.6583984375Q9.076651081249999,16.4872983375,8.96645068125,16.3886983375Q8.850450981249999,16.2842983375,8.62715098125,16.2842983375Z" fill="#FFFFFF" fill-opacity="1"/></g><path d="M6.849716858172608,12.709472623168946C6.569473628172608,12.709031123168945,6.300847228172607,12.597452423168946,6.1027637981726075,12.399210723168945C5.904679518172608,12.200977223168945,5.7933144748526075,11.932255023168945,5.793094158172607,11.652008423168946C5.793094158172607,11.652008423168946,5.793094158172607,10.594560623168945,5.793094158172607,10.594560623168945C5.793094158172607,10.594560623168945,7.907173158172608,10.594560623168945,7.907173158172608,10.594560623168945C7.907173158172608,10.594560623168945,7.907173158172608,11.652008423168946,7.907173158172608,11.652008423168946C7.906948058172608,11.932396723168946,7.7954692581726075,12.201243923168946,7.597202558172608,12.399510623168945C7.398935758172607,12.597769023168945,7.130105258172607,12.709255923168946,6.849716858172608,12.709472623168946C6.849716858172608,12.709472623168946,6.849716858172608,12.709472623168946,6.849716858172608,12.709472623168946C6.849716858172608,12.709472623168946,6.849716858172608,12.709472623168946,6.849716858172608,12.709472623168946ZM6.333904208172608,11.135370673168945C6.333904208172608,11.135370673168945,6.333904208172608,11.652008423168946,6.333904208172608,11.652008423168946C6.333904208172608,11.788894323168945,6.388219418172607,11.920180523168945,6.484929558172608,12.017051623168946C6.5816388681726075,12.113914123168945,6.712839308172607,12.168445223168945,6.849716858172608,12.168661823168945C6.986669558172608,12.168445223168945,7.117947458172607,12.113939023168946,7.214793458172608,12.017101523168945C7.311631058172607,11.920255523168946,7.366137158172608,11.788969323168946,7.3663537581726075,11.652008423168946C7.3663537581726075,11.652008423168946,7.3663537581726075,11.135370673168945,7.3663537581726075,11.135370673168945C7.3663537581726075,11.135370673168945,6.333904208172608,11.135370673168945,6.333904208172608,11.135370673168945C6.333904208172608,11.135370673168945,6.333904208172608,11.135370673168945,6.333904208172608,11.135370673168945Z" fill="#FF3E4C" fill-opacity="1"/><path d="M7.91200678125,10.59521484375C7.91200678125,10.59521484375,6.85205078125,10.59521484375,6.85205078125,10.59521484375C6.85205078125,10.59521484375,6.85205078125,11.65517084375,6.85205078125,11.65517084375C6.85205078125,11.65517084375,7.91200678125,11.65517084375,7.91200678125,11.65517084375C7.91200678125,11.65517084375,7.91200678125,10.59521484375,7.91200678125,10.59521484375C7.91200678125,10.59521484375,7.91200678125,10.59521484375,7.91200678125,10.59521484375Z" fill="#FF3E4C" fill-opacity="1" transform="matrix(-1,0,0,-1,13.7041015625,21.1904296875)"/><path d="M8.969625876098632,9.5361328125C8.969625876098632,9.5361328125,7.909669876098633,9.5361328125,7.909669876098633,9.5361328125C7.909669876098633,9.5361328125,7.909669876098633,10.5960888125,7.909669876098633,10.5960888125C7.909669876098633,10.5960888125,8.969625876098632,10.5960888125,8.969625876098632,10.5960888125C8.969625876098632,10.5960888125,8.969625876098632,9.5361328125,8.969625876098632,9.5361328125C8.969625876098632,9.5361328125,8.969625876098632,9.5361328125,8.969625876098632,9.5361328125Z" fill="#FF3E4C" fill-opacity="1" transform="matrix(-1,0,0,-1,15.819339752197266,19.072265625)"/><path d="M7.91200678125,8.47714614868164C7.91200678125,8.47714614868164,6.85205078125,8.47714614868164,6.85205078125,8.47714614868164C6.85205078125,8.47714614868164,6.85205078125,9.53710214868164,6.85205078125,9.53710214868164C6.85205078125,9.53710214868164,7.91200678125,9.53710214868164,7.91200678125,9.53710214868164C7.91200678125,9.53710214868164,7.91200678125,8.47714614868164,7.91200678125,8.47714614868164C7.91200678125,8.47714614868164,7.91200678125,8.47714614868164,7.91200678125,8.47714614868164Z" fill="#FF3E4C" fill-opacity="1" transform="matrix(-1,0,0,-1,13.7041015625,16.95429229736328)"/><path d="M8.969625876098632,7.4180216789245605C8.969625876098632,7.4180216789245605,7.909669876098633,7.4180216789245605,7.909669876098633,7.4180216789245605C7.909669876098633,7.4180216789245605,7.909669876098633,8.47797767892456,7.909669876098633,8.47797767892456C7.909669876098633,8.47797767892456,8.969625876098632,8.47797767892456,8.969625876098632,8.47797767892456C8.969625876098632,8.47797767892456,8.969625876098632,7.4180216789245605,8.969625876098632,7.4180216789245605C8.969625876098632,7.4180216789245605,8.969625876098632,7.4180216789245605,8.969625876098632,7.4180216789245605Z" fill="#FF3E4C" fill-opacity="1" transform="matrix(-1,0,0,-1,15.819339752197266,14.836043357849121)"/></svg>